<svg width="20" height="20" viewBox="0 0 20 20" fill="none" xmlns="http://www.w3.org/2000/svg">
<path d="M15.9505 20H5.14049C4.50339 20 3.89238 19.7469 3.44187 19.2964C2.99137 18.8459 2.73828 18.2349 2.73828 17.5978V6.57163C2.73828 5.93453 2.99137 5.32351 3.44187 4.87301C3.89238 4.42251 4.50339 4.16942 5.14049 4.16942H15.9505C16.5876 4.16942 17.1986 4.42251 17.6491 4.87301C18.0996 5.32351 18.3527 5.93453 18.3527 6.57163V17.5978C18.3527 18.2349 18.0996 18.8459 17.6491 19.2964C17.1986 19.7469 16.5876 20 15.9505 20ZM5.14049 5.37052C4.82194 5.37052 4.51643 5.49707 4.29118 5.72232C4.06593 5.94757 3.93939 6.25308 3.93939 6.57163V17.5978C3.93939 17.9163 4.06593 18.2218 4.29118 18.4471C4.51643 18.6723 4.82194 18.7989 5.14049 18.7989H15.9505C16.269 18.7989 16.5745 18.6723 16.7998 18.4471C17.025 18.2218 17.1516 17.9163 17.1516 17.5978V6.57163C17.1516 6.25308 17.025 5.94757 16.7998 5.72232C16.5745 5.49707 16.269 5.37052 15.9505 5.37052H5.14049ZM14.4971 4.16942H13.296C13.3209 3.79373 13.2683 3.41694 13.1417 3.06238C13.015 2.70782 12.8169 2.38304 12.5596 2.10816C12.3023 1.83328 11.9913 1.61414 11.6459 1.46433C11.3005 1.31452 10.928 1.23722 10.5515 1.23722C10.175 1.23722 9.80247 1.31452 9.45705 1.46433C9.11163 1.61414 8.80065 1.83328 8.54336 2.10816C8.28607 2.38304 8.08795 2.70782 7.96128 3.06238C7.83461 3.41694 7.78208 3.79373 7.80695 4.16942H6.60584C6.57623 3.63296 6.65633 3.09609 6.84124 2.59164C7.02615 2.08719 7.31199 1.62574 7.68128 1.2355C8.05058 0.845256 8.49557 0.534422 8.98907 0.321992C9.48257 0.109563 10.0142 0 10.5515 0C11.0888 0 11.6204 0.109563 12.1139 0.321992C12.6074 0.534422 13.0524 0.845256 13.4217 1.2355C13.791 1.62574 14.0768 2.08719 14.2617 2.59164C14.4466 3.09609 14.5267 3.63296 14.4971 4.16942Z" fill="white"/>
</svg>
