<svg width="25" height="20" viewBox="0 0 25 20" fill="none" xmlns="http://www.w3.org/2000/svg">
<g clip-path="url(#clip0_202_18911)">
<path d="M5.46725 11.8353L3.08089 14.2216L3.00134 14.3466V14.2216V11.8921C3.00134 11.8012 3.00134 11.7785 2.8877 11.7785H1.98998C1.85525 11.78 1.72157 11.7546 1.5968 11.7037C1.47203 11.6528 1.35868 11.5776 1.26341 11.4823C1.16813 11.387 1.09286 11.2737 1.042 11.1489C0.991142 11.0241 0.965728 10.8905 0.96725 10.7557V2.80118C0.957251 2.71815 0.957251 2.63421 0.96725 2.55118C1.00066 2.30525 1.12334 2.08019 1.31192 1.91885C1.50051 1.7575 1.74184 1.67113 1.98998 1.67618H15.0013C15.1361 1.67466 15.2697 1.70007 15.3945 1.75093C15.5193 1.80179 15.6326 1.87706 15.7279 1.97234C15.8232 2.06761 15.8985 2.18096 15.9493 2.30573C16.0002 2.4305 16.0256 2.56418 16.0241 2.69891V3.74436H16.99V2.608C16.9978 2.52105 16.9978 2.43358 16.99 2.34663C16.9016 1.88045 16.6512 1.46053 16.2832 1.16109C15.9151 0.861644 15.453 0.701964 14.9786 0.710269H2.00134C1.74514 0.709894 1.49101 0.7561 1.25134 0.846633C0.890272 0.990928 0.579426 1.23791 0.357258 1.55702C0.13509 1.87614 0.0113485 2.25338 0.0013411 2.64209V10.7557C-0.00174912 10.8163 -0.00174912 10.877 0.0013411 10.9375C0.0644224 11.3944 0.285228 11.8149 0.625552 12.1261C0.965876 12.4374 1.40431 12.6199 1.86498 12.6421C1.95589 12.6421 1.97861 12.6421 1.97861 12.7557V14.2557C1.97665 14.4116 2.0129 14.5657 2.08422 14.7043C2.15553 14.843 2.25973 14.9621 2.3877 15.0512C2.57908 15.1913 2.81488 15.257 3.05114 15.2361C3.2874 15.2152 3.508 15.1091 3.6718 14.9375L5.86498 12.7444C5.90522 12.7014 5.95623 12.67 6.01271 12.6535V11.7216H5.73998C5.68891 11.7189 5.63787 11.7277 5.59066 11.7474C5.54345 11.767 5.50127 11.7971 5.46725 11.8353Z" fill="#1A1A1A"/>
<path d="M25.0011 6.64236C25.0076 6.55915 25.0076 6.47557 25.0011 6.39236C24.9332 5.92441 24.6998 5.4963 24.3433 5.18566C23.9868 4.87502 23.5308 4.70243 23.0579 4.69918H9.09201C8.95966 4.68816 8.82663 4.68816 8.69428 4.69918C8.23959 4.78098 7.82757 5.01853 7.52897 5.37105C7.23037 5.72357 7.06381 6.16905 7.05791 6.631V14.7105C7.0529 14.978 7.11132 15.2428 7.22837 15.4833C7.38606 15.8329 7.64427 16.1277 7.97009 16.3301C8.29591 16.5324 8.6746 16.6332 9.05791 16.6196H18.9329C18.9715 16.6195 19.0097 16.6275 19.0449 16.6431C19.0802 16.6588 19.1117 16.6818 19.1375 16.7105L20.4556 18.1651L21.3306 19.0401C21.5038 19.2089 21.7365 19.3028 21.9784 19.3015C22.1092 19.303 22.2389 19.2785 22.3602 19.2295C22.4815 19.1805 22.5918 19.1079 22.6848 19.0159C22.7778 18.924 22.8517 18.8145 22.902 18.6938C22.9524 18.5731 22.9784 18.4436 22.9784 18.3128V16.8128C22.9784 16.7446 22.9784 16.7105 23.0693 16.6992C23.4824 16.6894 23.8811 16.5458 24.2056 16.2901C24.45 16.118 24.6497 15.8901 24.788 15.6252C24.9264 15.3603 24.9995 15.0662 25.0011 14.7674V6.64236ZM24.0352 14.7446C24.0334 14.9899 23.9406 15.2257 23.7747 15.4063C23.6088 15.5869 23.3817 15.6994 23.1375 15.7219H22.1488C22.0579 15.7219 22.0352 15.7219 22.0352 15.8469V18.2446L21.9329 18.1537L19.5125 15.8242C19.4867 15.7954 19.4552 15.7724 19.4199 15.7568C19.3847 15.7411 19.3465 15.7331 19.3079 15.7333H9.09201C8.90137 15.7433 8.71163 15.701 8.54337 15.6108C8.3751 15.5207 8.23472 15.3862 8.13746 15.2219C8.03215 15.0793 7.96913 14.91 7.95564 14.7333V6.68782C7.95523 6.43216 8.05275 6.18605 8.22817 6.00006C8.40359 5.81408 8.64358 5.70234 8.89882 5.68782H22.8761C23.0378 5.679 23.1995 5.70486 23.3505 5.76366C23.5014 5.82245 23.638 5.91283 23.7511 6.02872C23.9169 6.20386 24.0103 6.43528 24.0125 6.67645C24.0276 9.36584 24.0352 12.0552 24.0352 14.7446Z" fill="#1A1A1A"/>
<path d="M18.5678 8.74484C18.2226 8.44236 17.7907 8.25647 17.3337 8.21363C16.8767 8.17078 16.4178 8.27316 16.0224 8.5062C15.6264 8.27485 15.1679 8.17345 14.7113 8.21626C14.2547 8.25906 13.823 8.44392 13.4769 8.74484C13.2877 8.91398 13.1356 9.12041 13.03 9.35116C12.9244 9.58192 12.8676 9.83201 12.8633 10.0857C12.8625 10.3486 12.9167 10.6088 13.0224 10.8495C13.1281 11.0902 13.2829 11.3061 13.4769 11.4835L15.5337 13.3585C15.6663 13.4823 15.841 13.5512 16.0224 13.5512C16.2038 13.5512 16.3784 13.4823 16.511 13.3585L18.6247 11.438C18.8125 11.2676 18.9626 11.0597 19.0654 10.8278C19.1681 10.5959 19.2212 10.3451 19.2212 10.0914C19.2212 9.83778 19.1681 9.58694 19.0654 9.35503C18.9626 9.12312 18.8125 8.91527 18.6247 8.74484H18.5678ZM18.1815 10.1085C18.1821 10.2347 18.1562 10.3597 18.1053 10.4752C18.0543 10.5907 17.9796 10.6942 17.886 10.7789L16.0224 12.4948L14.1133 10.7448C14.0255 10.6616 13.956 10.561 13.909 10.4496C13.8621 10.3381 13.8388 10.2181 13.8406 10.0971C13.8453 9.97567 13.875 9.85651 13.9278 9.74704C13.9806 9.63756 14.0553 9.54012 14.1474 9.46075C14.3587 9.25928 14.6395 9.14689 14.9315 9.14689C15.2235 9.14689 15.5042 9.25928 15.7156 9.46075L16.0224 9.80165L16.3519 9.5062C16.5633 9.30473 16.844 9.19235 17.136 9.19235C17.428 9.19235 17.7088 9.30473 17.9201 9.5062C18.0811 9.6661 18.1747 9.88166 18.1815 10.1085Z" fill="#1A1A1A"/>
</g>
<defs>
<clipPath id="clip0_202_18911">
<rect width="25" height="18.5795" fill="white" transform="translate(0 0.710449)"/>
</clipPath>
</defs>
</svg>
