<svg width="100" height="57" viewBox="0 0 100 57" fill="none" xmlns="http://www.w3.org/2000/svg">
<path d="M73.6301 15.9328C73.1771 14.7307 72.7814 13.3861 72.7134 12.1192C72.608 10.1709 73.1488 8.02434 74.3536 6.44535C76.4567 3.69135 79.6668 4.89877 81.4437 7.17718C82.4679 8.49062 83.1178 9.98243 83.3933 11.6526C83.3942 11.6584 83.3965 11.6639 83.4001 11.6685C83.4036 11.6732 83.4083 11.6769 83.4137 11.6794C83.419 11.6819 83.4249 11.683 83.4309 11.6826C83.4368 11.6823 83.4425 11.6805 83.4475 11.6775C84.7684 10.8771 86.3391 10.3427 87.8578 10.5861C89.5965 10.8643 90.9227 12.0732 91.388 13.7471C91.7585 15.0827 91.3788 16.3398 90.6523 17.4741C89.9693 18.5394 89.1247 19.4744 88.1183 20.2794C88.1131 20.2835 88.1092 20.289 88.107 20.2952C88.1048 20.3014 88.1044 20.3081 88.1059 20.3145C88.1073 20.3209 88.1105 20.3268 88.1151 20.3315C88.1197 20.3362 88.1256 20.3396 88.132 20.3412C88.7256 20.4882 89.4659 20.611 89.9487 20.8756C90.8952 21.3941 91.2084 22.2646 91.1183 23.2926C91.0526 24.0388 90.9762 24.697 90.8891 25.2673C90.5458 27.5098 90.0803 29.8284 89.4926 32.2232C88.5744 35.969 87.5087 39.6734 86.2955 43.3364C86.2181 43.569 86.1328 43.8082 86.0396 44.0539C85.9204 44.3667 85.8089 44.7224 85.6431 44.9877C84.9181 46.1507 83.6439 46.3059 82.3719 46.1228C81.6528 46.0193 80.761 45.8153 79.6966 45.5108C76.6011 44.6259 73.5598 43.5466 70.501 42.5457C67.0297 41.4092 63.9451 40.3429 61.2474 39.3471C61.0019 39.2561 60.7353 39.1287 60.4475 38.9649C59.5759 38.469 59.1045 37.7334 59.129 36.7046C59.1351 36.4353 59.2336 36.0213 59.4246 35.4625C59.6289 34.8636 59.8486 34.2702 60.0839 33.6823C60.0951 33.6552 60.0859 33.6414 60.0564 33.6409C59.3816 33.6363 58.7116 33.6356 58.0465 33.6386C57.9146 33.6396 57.7954 33.6675 57.689 33.7223C57.2482 33.9506 56.8203 34.2513 56.6553 34.7307C56.6014 34.888 56.5746 35.1701 56.5751 35.5771C56.5751 39.445 56.5744 43.3133 56.5728 47.1817C56.5723 48.1148 56.9777 48.8682 57.789 49.442C57.7935 49.4452 57.7968 49.4498 57.7985 49.4549C57.8003 49.4601 57.8003 49.4656 57.7987 49.4708C57.7971 49.4759 57.7939 49.4803 57.7895 49.4834C57.7852 49.4865 57.7799 49.4881 57.7745 49.488H53.4193C53.3867 49.488 53.3836 49.4785 53.4101 49.4594C54.0936 48.9664 54.4888 48.3321 54.5957 47.5563C54.6064 47.4789 54.6126 46.9767 54.6141 46.0497C54.6253 40.2799 54.6245 36.631 54.6118 35.103C54.6064 34.4571 54.048 33.9936 53.5125 33.7313C53.3979 33.675 53.266 33.6464 53.1168 33.6454C51.7335 33.6368 50.3505 33.6363 48.9678 33.6439C48.566 33.6461 47.7669 34.4993 47.5117 34.797C47.0483 35.3382 46.6164 35.9024 46.2161 36.4898C46.2141 36.4925 46.2113 36.4944 46.208 36.4954C46.2048 36.4963 46.2013 36.4961 46.1982 36.4949C46.1951 36.4937 46.1924 36.4916 46.1907 36.4887C46.189 36.4859 46.1882 36.4826 46.1886 36.4793L47.006 31.8199C47.0101 31.7978 47.0233 31.7868 47.0457 31.7868H60.8081C60.8321 31.7868 60.8484 31.7757 60.857 31.7536C62.7811 27.0581 64.8328 22.4204 67.0121 17.8404C67.2428 17.3566 67.5866 16.5863 67.9113 16.1597C68.5514 15.3186 69.4447 14.9892 70.5912 15.1716C71.4514 15.3083 72.4511 15.5756 73.5904 15.9735C73.6327 15.9881 73.6459 15.9745 73.6301 15.9328ZM63.3398 31.7875L62.5476 33.7758C62.4004 33.6909 62.2983 33.6471 62.2413 33.6446C61.952 33.6311 61.3072 33.6308 60.307 33.6439C60.2815 33.6444 60.2639 33.6562 60.2543 33.6793C60.0169 34.2405 59.7987 34.8088 59.5996 35.3841C59.4137 35.9203 59.308 36.3542 59.2825 36.6858C59.2145 37.5638 59.6767 38.3424 60.4368 38.7878C60.9556 39.0916 61.54 39.2845 62.1007 39.5001C62.42 39.6237 62.7704 39.7515 63.1519 39.8837C67.1881 41.2831 70.0607 42.2598 71.7699 42.8141C74.4162 43.671 77.0396 44.5973 79.7165 45.3593C80.5166 45.5869 81.3258 45.7766 82.1443 45.9283C83.404 46.1612 84.7829 46.0888 85.5025 44.9282C85.6187 44.7407 85.8058 44.2747 86.064 43.5301C86.3533 42.696 86.649 41.7895 86.951 40.8107C88.0582 37.2181 89.0096 33.6625 89.8051 30.1437C90.3146 27.8887 90.7485 25.6095 90.9663 23.307C91.0579 22.3438 90.7936 21.5328 89.9166 21.0248C89.7363 20.9208 89.4582 20.8233 89.0824 20.7324C88.6586 20.6293 88.2324 20.5211 87.8035 20.4075C87.7694 20.3985 87.7661 20.3829 87.7936 20.3608C89.0969 19.3305 90.3055 18.0349 90.9915 16.5139C91.4473 15.5025 91.5066 14.5063 91.1695 13.5255C90.6309 11.9579 89.2757 10.8838 87.6011 10.7067C86.0274 10.5402 84.6523 11.1476 83.3314 11.9111C83.3049 11.9262 83.2894 11.9189 83.2848 11.8893C82.9731 9.81737 82.0434 7.78014 80.4636 6.34737C79.1909 5.19422 77.3521 4.51213 75.731 5.42409C74.9067 5.88837 74.2367 6.71065 73.8119 7.57287C72.9296 9.36516 72.6263 11.3557 73.0258 13.3115C73.2245 14.2863 73.5107 15.2392 73.8845 16.1702C73.8978 16.2029 73.8876 16.214 73.854 16.2034C72.7707 15.8627 71.7218 15.4942 70.5698 15.3306C69.4631 15.1729 68.6136 15.4841 68.0213 16.2645C67.9031 16.4202 67.7526 16.684 67.5698 17.0558C66.2184 19.8023 64.9579 22.594 63.7241 25.3939C62.6398 27.856 61.7432 29.9729 61.0343 31.7446C61.0236 31.7717 61.033 31.7853 61.0625 31.7853L63.3398 31.7875Z" fill="#74A87A"/>
<path d="M62.5481 33.7758C62.1768 34.643 61.8412 35.5221 61.5412 36.4129C61.4923 36.5576 61.4635 36.7111 61.4549 36.8734C61.4533 36.9001 61.4645 36.9192 61.4885 36.9307C61.8333 37.1031 62.1348 37.2357 62.393 37.3287C65.5542 38.4662 68.7485 39.5603 71.9759 40.611L73.804 41.217C76.4589 42.1375 78.4475 42.7841 79.7696 43.157C80.6308 43.4002 81.4997 43.6117 82.3762 43.7916C82.6955 43.8569 83.0194 43.8938 83.3479 43.9024C83.5593 43.9084 83.6998 43.8084 83.7696 43.6024C85.4151 38.722 86.7805 33.8418 87.8659 28.9619C88.3094 26.9697 88.6328 24.9528 88.8361 22.9113C88.8391 22.8831 88.8266 22.8655 88.7986 22.8585C85.9649 22.1641 83.1238 21.425 80.2753 20.6411C81.0678 20.5381 81.8294 20.4279 82.5603 20.3103C83.5664 20.149 84.5045 19.9387 85.2998 19.4722C86.6229 18.6959 87.7248 17.6713 88.6053 16.3986C89.2394 15.4821 89.519 14.4888 88.7474 13.5594C87.6947 12.2917 85.8666 12.8781 84.671 13.613C83.2264 14.5001 82.0469 15.7323 81.0332 16.9993C81.0097 17.0289 81 17.0252 81.0041 16.988C81.1559 15.6901 81.2333 14.4998 81.2364 13.417C81.2415 11.6076 80.6838 9.97614 79.5633 8.52252C79.1225 7.94971 78.1859 7.19828 77.464 7.14175C76.6619 7.07995 76.0706 7.85098 75.7528 8.49991C75.1544 9.72189 74.9226 10.9934 75.0576 12.3143C75.1004 12.7309 75.2025 13.2218 75.3639 13.7871C75.8019 15.3221 76.4327 16.7797 77.2562 18.16C77.5109 18.5866 77.9838 19.2569 78.6749 20.1708C78.3487 20.0706 78.011 19.9824 77.7001 19.8671C75.1233 18.9099 73.283 18.1909 71.0675 17.5955C70.9061 17.5523 70.7103 17.5126 70.4801 17.4764C70.0905 17.4161 69.8223 17.3302 69.6474 17.6927C67.41 22.336 65.3077 27.0342 63.3403 31.7875L61.063 31.7853C61.0334 31.7853 61.024 31.7717 61.0347 31.7446C61.7436 29.9729 62.6402 27.856 63.7245 25.3939C64.9583 22.594 66.2188 19.8023 67.5702 17.0558C67.753 16.684 67.9035 16.4202 68.0217 16.2645C68.614 15.4841 69.4635 15.1729 70.5702 15.3306C71.7222 15.4942 72.7711 15.8627 73.8544 16.2034C73.888 16.214 73.8982 16.2029 73.885 16.1702C73.5111 15.2392 73.2249 14.2863 73.0263 13.3115C72.6267 11.3556 72.93 9.36515 73.8124 7.57286C74.2371 6.71064 74.9071 5.88836 75.7314 5.42409C77.3525 4.51212 79.1913 5.19421 80.464 6.34736C82.0439 7.78013 82.9736 9.81736 83.2853 11.8893C83.2898 11.9189 83.3054 11.9262 83.3319 11.9111C84.6527 11.1476 86.0278 10.5402 87.6015 10.7067C89.2761 10.8838 90.6313 11.9579 91.1699 13.5255C91.5071 14.5063 91.4477 15.5025 90.9919 16.5139C90.3059 18.0349 89.0973 19.3305 87.794 20.3608C87.7665 20.3829 87.7698 20.3985 87.804 20.4075C88.2328 20.5211 88.6591 20.6293 89.0828 20.7323C89.4587 20.8233 89.7367 20.9208 89.917 21.0248C90.794 21.5328 91.0584 22.3437 90.9667 23.307C90.749 25.6095 90.3151 27.8887 89.8055 30.1437C89.01 33.6625 88.0586 37.2181 86.9514 40.8107C86.6494 41.7895 86.3538 42.696 86.0645 43.53C85.8063 44.2747 85.6191 44.7407 85.503 44.9282C84.7833 46.0888 83.4044 46.1612 82.1447 45.9283C81.3263 45.7766 80.517 45.5869 79.7169 45.3593C77.04 44.5973 74.4167 43.671 71.7704 42.814C70.0612 42.2598 67.1885 41.283 63.1523 39.8837C62.7709 39.7515 62.4205 39.6237 62.1012 39.5001C61.5404 39.2845 60.956 39.0916 60.4373 38.7878C59.6772 38.3424 59.215 37.5638 59.283 36.6858C59.3084 36.3541 59.4141 35.9203 59.6 35.3841C59.7991 34.8088 60.0174 34.2405 60.2547 33.6793C60.2644 33.6562 60.2819 33.6444 60.3074 33.6439C61.3077 33.6308 61.9524 33.631 62.2417 33.6446C62.2988 33.6471 62.4009 33.6908 62.5481 33.7758Z" fill="white"/>
<path d="M80.2751 20.6416C80.2674 20.5742 80.2358 20.5785 80.1803 20.6544C80.1656 20.675 80.1538 20.6996 80.1452 20.7282C78.3234 26.7357 77.1605 30.4896 76.6563 31.9899C75.6295 35.0454 74.6787 38.1212 73.8037 41.2174L71.9756 40.6114L73.997 34.5306L74.2078 33.9096L76.0971 28.235L76.699 26.4435L78.7449 20.3438C78.753 20.3197 78.752 20.2959 78.7418 20.2722C78.722 20.228 78.6995 20.1944 78.6746 20.1713C77.9835 19.2573 77.5106 18.587 77.256 18.1604C76.4324 16.7801 75.8017 15.3225 75.3637 13.7875C75.2022 13.2222 75.1001 12.7313 75.0573 12.3148C74.9224 10.9938 75.1541 9.7223 75.7525 8.50032C76.0703 7.85139 76.6616 7.08036 77.4637 7.14216C78.1857 7.19869 79.1223 7.95012 79.5631 8.52293C80.6835 9.97655 81.2412 11.608 81.2361 13.4174C81.233 14.5002 81.1556 15.6905 81.0039 16.9884C80.9998 17.0256 81.0095 17.0294 81.0329 16.9997C82.0466 15.7328 83.2262 14.5005 84.6708 13.6134C85.8663 12.8785 87.6945 12.2921 88.7472 13.5599C89.5187 14.4892 89.2391 15.4825 88.6051 16.399C87.7245 17.6718 86.6226 18.6963 85.2995 19.4726C84.5042 19.9391 83.5661 20.1494 82.56 20.3107C81.8292 20.4283 81.0675 20.5385 80.2751 20.6416ZM79.3568 19.0784C79.4622 18.853 79.5371 18.7294 79.56 18.4762C79.7484 16.4337 79.7787 14.3892 79.6509 12.3426C79.5791 11.188 79.1131 9.03845 77.9573 8.45736C77.0184 7.9863 76.3965 8.94198 76.2208 9.72205C76.038 10.5375 76.0222 11.3865 76.1734 12.2688C76.3695 13.4084 76.6815 14.5133 77.1093 15.5835C77.612 16.8414 78.4706 18.0315 79.3224 19.0829C79.3362 19.1 79.3476 19.0985 79.3568 19.0784ZM88.0283 14.2766C87.3049 14.0867 86.5081 14.1206 85.8045 14.4296C85.338 14.6351 84.9119 14.8987 84.5264 15.2202C83.1248 16.3915 81.8656 17.7258 80.7487 19.2231C80.736 19.2397 80.7403 19.247 80.7617 19.245C81.6922 19.1636 82.5412 19.0349 83.3087 18.8591C84.7265 18.534 86.0061 17.8941 87.1475 16.9394C87.767 16.4209 88.3621 15.7765 88.4263 14.9384C88.4492 14.6286 88.3415 14.3595 88.0283 14.2766Z" fill="#74A87A"/>
<path d="M79.3564 19.0782C79.3472 19.0983 79.3358 19.0998 79.322 19.0827C78.4702 18.0313 77.6115 16.8412 77.1089 15.5833C76.6811 14.513 76.3691 13.4081 76.173 12.2686C76.0218 11.3862 76.0376 10.5373 76.2204 9.72182C76.3961 8.94175 77.018 7.98607 77.9568 8.45713C79.1127 9.03822 79.5787 11.1878 79.6505 12.3424C79.7783 14.3889 79.748 16.4335 79.5596 18.476C79.5367 18.7292 79.4618 18.8528 79.3564 19.0782Z" fill="white"/>
<path d="M88.0279 14.2764C88.3412 14.3593 88.4489 14.6284 88.426 14.9381C88.3618 15.7762 87.7667 16.4206 87.1471 16.9392C86.0058 17.8939 84.7262 18.5338 83.3083 18.8588C82.5408 19.0347 81.6918 19.1633 80.7613 19.2447C80.7399 19.2467 80.7356 19.2395 80.7483 19.2229C81.8652 17.7255 83.1244 16.3913 84.526 15.22C84.9116 14.8984 85.3376 14.6349 85.8041 14.4294C86.5077 14.1204 87.3045 14.0865 88.0279 14.2764Z" fill="white"/>
<path d="M78.6743 20.1712C78.6992 20.1944 78.7216 20.228 78.7415 20.2722C78.7517 20.2958 78.7527 20.3197 78.7445 20.3438L76.6987 26.4435C76.5765 26.3842 76.4616 26.3199 76.3542 26.2505C75.9806 26.0101 75.5528 26.1556 75.2419 26.4171C75.222 26.4337 75.2006 26.4359 75.1777 26.4239C74.9034 26.2762 74.5688 26.0764 74.2457 26.1322C73.8897 26.1932 73.3549 26.8964 73.1464 27.1738C73.1298 27.1957 73.1204 27.2221 73.1194 27.2495C73.1185 27.2768 73.126 27.3038 73.141 27.3268C73.3213 27.6019 73.4879 27.7172 73.7927 27.9034C74.4919 28.3315 75.2599 28.442 76.0967 28.235L74.2075 33.9096C73.6063 33.4355 72.9691 32.681 72.1693 33.3835C72.1494 33.4006 72.1283 33.4026 72.1059 33.3895C71.827 33.2335 71.4581 33.0225 71.1303 33.1046C70.7896 33.1898 70.277 33.8673 70.0593 34.1447C70.0435 34.1653 70.0394 34.1877 70.0471 34.2118C70.1945 34.6738 70.9837 35.0439 71.4115 35.175C71.8551 35.3112 72.2775 35.3406 72.6788 35.2632C73.1744 35.1672 73.6136 34.923 73.9966 34.5306L71.9752 40.6114C68.7478 39.5607 65.5535 38.4666 62.3924 37.3291C62.1341 37.2361 61.8326 37.1034 61.4879 36.9311C61.4639 36.9195 61.4527 36.9005 61.4542 36.8738C61.4629 36.7115 61.4917 36.558 61.5406 36.4133C61.8405 35.5225 62.1762 34.6434 62.5474 33.7761L63.3396 31.7879C65.3071 27.0346 67.4094 22.3363 69.6468 17.6931C69.8217 17.3306 70.0898 17.4165 70.4795 17.4768C70.7097 17.513 70.9055 17.5527 71.0669 17.5959C73.2824 18.1913 75.1227 18.9103 77.6995 19.8675C78.0104 19.9828 78.3481 20.071 78.6743 20.1712ZM72.5031 20.7576C72.1922 20.5534 71.6643 20.3212 71.3901 20.539C71.1532 20.727 70.868 21.0352 70.5345 21.4638C70.4978 21.5111 70.4815 21.554 70.4856 21.5927C70.5039 21.7653 70.7843 22.0087 70.9042 22.0909C71.5154 22.5122 72.293 22.7617 73.0234 22.6531C73.7422 22.5469 74.442 22.0992 74.672 21.3787C74.6801 21.353 74.6743 21.3312 74.6544 21.3131C74.4578 21.1342 74.1945 20.9232 73.8645 20.68C73.5227 20.4288 73.1746 20.4069 72.8202 20.6144C72.7366 20.6637 72.6539 20.7119 72.5719 20.7591C72.5485 20.7727 72.5255 20.7722 72.5031 20.7576ZM67.9248 27.2823C67.6674 27.1278 67.2969 26.9326 66.9898 27.0004C66.649 27.0751 66.1265 27.7572 65.9256 28.024C65.9027 28.0541 65.8904 28.0908 65.8905 28.1285C65.8907 28.1661 65.9033 28.2027 65.9264 28.2327C66.4176 28.8704 67.4451 29.263 68.2755 29.2005C69.0348 29.1432 69.8446 28.6782 70.0799 27.9109C70.0875 27.8868 70.0819 27.8659 70.0631 27.8484C69.8064 27.6052 69.5322 27.3818 69.2403 27.1783C68.9042 26.9437 68.5622 26.9341 68.2144 27.1497C68.1395 27.1959 68.0646 27.2404 67.9898 27.2831C67.9679 27.2956 67.9462 27.2954 67.9248 27.2823ZM65.3144 35.539C64.8706 35.328 64.4764 35.0258 64.0226 35.4584C63.7583 35.7111 63.5148 35.9832 63.2923 36.2746C63.247 36.3339 63.2495 36.401 63.2999 36.4759C63.7667 37.1738 64.9699 37.5439 65.7583 37.4414C66.4863 37.3471 67.2182 36.8927 67.4474 36.1616C67.455 36.137 67.4491 36.1161 67.4298 36.099C67.1976 35.8865 66.9574 35.6865 66.7094 35.4991C66.2561 35.1574 65.8148 35.1677 65.3855 35.53C65.3636 35.5486 65.3399 35.5516 65.3144 35.539Z" fill="#C4E2BD"/>
<path d="M72.5723 20.7589C72.6543 20.7117 72.737 20.6634 72.8206 20.6142C73.175 20.4067 73.5231 20.4285 73.8649 20.6798C74.1949 20.923 74.4582 21.134 74.6548 21.3129C74.6747 21.331 74.6805 21.3528 74.6724 21.3784C74.4424 22.099 73.7426 22.5467 73.0238 22.6529C72.2935 22.7615 71.5158 22.512 70.9046 22.0907C70.7847 22.0085 70.5043 21.7651 70.486 21.5925C70.4819 21.5538 70.4982 21.5108 70.5349 21.4636C70.8684 21.035 71.1536 20.7267 71.3905 20.5388C71.6647 20.321 72.1926 20.5531 72.5035 20.7574C72.5259 20.772 72.5489 20.7725 72.5723 20.7589Z" fill="white"/>
<path d="M80.2751 20.6412C83.1235 21.4251 85.9646 22.1642 88.7984 22.8586C88.8264 22.8656 88.8388 22.8832 88.8358 22.9114C88.6326 24.9529 88.3092 26.9697 87.8656 28.962C86.7803 33.8419 85.4149 38.7221 83.7693 43.6025C83.6996 43.8085 83.559 43.9085 83.3476 43.9025C83.0191 43.8939 82.6952 43.857 82.3759 43.7917C81.4994 43.6118 80.6306 43.4003 79.7693 43.1571C78.4472 42.7842 76.4587 42.1376 73.8037 41.2171C74.6787 38.1209 75.6295 35.0451 76.6563 31.9896C77.1605 30.4892 78.3234 26.7353 80.1452 20.7279C80.1538 20.6993 80.1656 20.6746 80.1803 20.654C80.2358 20.5782 80.2674 20.5739 80.2751 20.6412ZM81.8381 23.5791C81.5302 23.3839 81.0031 23.1465 80.7357 23.35C80.4658 23.5555 80.16 23.8922 79.8182 24.36C79.8045 24.3791 79.8019 24.3994 79.8106 24.421C80.0627 25.0526 81.2346 25.4603 81.8549 25.4958C82.7082 25.544 83.7418 25.0993 83.9985 24.1881C84.0056 24.163 83.9993 24.1419 83.9794 24.1248C83.8546 24.0203 83.6354 23.8422 83.3217 23.5904C82.8445 23.2081 82.3749 23.203 81.913 23.5754C81.889 23.5945 81.8641 23.5957 81.8381 23.5791ZM85.3324 27.5639C85.0558 27.387 84.8317 27.2883 84.6601 27.2677C84.4503 27.2426 84.3049 27.267 84.2239 27.3408C83.8877 27.6468 83.5908 27.9699 83.3331 28.3101C83.3147 28.3343 83.3044 28.3636 83.3036 28.394C83.3028 28.4244 83.3115 28.4543 83.3285 28.4796C83.7258 29.066 84.5921 29.4022 85.2743 29.4828C86.1444 29.5861 87.2033 29.0864 87.4943 28.191C87.5014 28.1679 87.4963 28.1478 87.479 28.1307C87.2249 27.8845 86.9529 27.6591 86.6631 27.4546C86.3469 27.2315 86.0194 27.2137 85.6807 27.4011C85.585 27.4534 85.492 27.5076 85.4019 27.5639C85.3784 27.579 85.3553 27.579 85.3324 27.5639ZM79.4928 31.1002C79.1078 30.8945 78.6647 30.648 78.3255 30.9028C78.1101 31.0651 77.8195 31.3884 77.4538 31.8728C77.4396 31.8919 77.436 31.9127 77.4431 31.9353C77.4803 32.0519 77.5351 32.1426 77.6074 32.2074C78.3545 32.8805 79.4561 33.2272 80.4248 32.888C80.9848 32.692 81.4393 32.2911 81.6341 31.7243C81.6417 31.7012 81.6367 31.6816 81.6188 31.6655C81.2837 31.3525 81.0189 31.1336 80.8243 31.009C80.3782 30.7236 79.9588 30.7513 79.5661 31.0919C79.5563 31.1005 79.544 31.106 79.5309 31.1074C79.5178 31.1089 79.5045 31.1064 79.4928 31.1002ZM82.6677 35.8063C82.3163 35.5922 81.8075 35.339 81.4683 35.6427C81.2178 35.8668 80.9405 36.1754 80.6364 36.5683C80.6216 36.5874 80.6176 36.6085 80.6242 36.6316C80.7609 37.1042 81.6173 37.4908 82.0879 37.6235C83.1414 37.9189 84.4233 37.5353 84.8144 36.4447C84.8201 36.4289 84.8209 36.4118 84.8166 36.3955C84.8124 36.3793 84.8034 36.3646 84.7907 36.3535C84.5804 36.1676 84.3637 35.9839 84.1406 35.8025C83.669 35.4197 83.201 35.4192 82.7365 35.801C82.7146 35.8191 82.6917 35.8209 82.6677 35.8063ZM77.6693 39.4843C77.366 39.2951 76.8343 39.0547 76.5608 39.262C76.3184 39.4454 76.0143 39.7803 75.6486 40.2667C75.6323 40.2883 75.6295 40.3111 75.6402 40.3352C75.7171 40.5116 75.8521 40.6656 76.0451 40.7973C77.0443 41.4801 78.2468 41.6979 79.272 40.9005C79.4126 40.7912 80.0199 40.1792 79.7563 39.9855C79.243 39.6102 78.722 38.8851 77.9565 39.3615C77.8837 39.4067 77.8101 39.4486 77.7357 39.4873C77.7128 39.4989 77.6906 39.4979 77.6693 39.4843Z" fill="#C4E2BD"/>
<path d="M81.9131 23.5757C82.375 23.2034 82.8446 23.2084 83.3218 23.5908C83.6355 23.8425 83.8547 24.0207 83.9795 24.1252C83.9994 24.1423 84.0057 24.1634 83.9986 24.1885C83.7419 25.0997 82.7083 25.5444 81.855 25.4961C81.2347 25.4607 80.0628 25.053 79.8107 24.4214C79.802 24.3998 79.8046 24.3794 79.8183 24.3603C80.1601 23.8925 80.4659 23.5559 80.7358 23.3504C81.0032 23.1469 81.5303 23.3843 81.8382 23.5795C81.8642 23.5961 81.8891 23.5948 81.9131 23.5757Z" fill="white"/>
<path d="M76.6995 26.4434L76.0975 28.2349C75.2607 28.442 74.4927 28.3314 73.7935 27.9033C73.4886 27.7172 73.3221 27.6018 73.1418 27.3267C73.1268 27.3037 73.1192 27.2768 73.1202 27.2494C73.1212 27.2221 73.1306 27.1957 73.1472 27.1737C73.3557 26.8964 73.8905 26.1932 74.2465 26.1321C74.5696 26.0764 74.9042 26.2761 75.1785 26.4238C75.2014 26.4359 75.2228 26.4336 75.2427 26.417C75.5536 26.1555 75.9814 26.01 76.355 26.2505C76.4624 26.3198 76.5773 26.3841 76.6995 26.4434Z" fill="white"/>
<path d="M67.9898 27.2828C68.0647 27.2401 68.1396 27.1956 68.2144 27.1494C68.5623 26.9339 68.9043 26.9434 69.2404 27.1781C69.5322 27.3816 69.8065 27.6049 70.0632 27.8481C70.082 27.8657 70.0876 27.8865 70.08 27.9106C69.8447 28.6779 69.0349 29.1429 68.2756 29.2002C67.4452 29.2628 66.4177 28.8701 65.9264 28.2325C65.9033 28.2025 65.8908 28.1659 65.8906 28.1282C65.8905 28.0905 65.9028 28.0539 65.9257 28.0237C66.1266 27.7569 66.6491 27.0748 66.9898 27.0002C67.297 26.9324 67.6675 27.1276 67.9249 27.2821C67.9463 27.2951 67.9679 27.2954 67.9898 27.2828Z" fill="white"/>
<path d="M85.402 27.5641C85.4922 27.5078 85.5851 27.4535 85.6809 27.4013C86.0196 27.2138 86.347 27.2317 86.6633 27.4548C86.9531 27.6593 87.225 27.8846 87.4792 28.1308C87.4965 28.1479 87.5016 28.168 87.4945 28.1911C87.2034 29.0865 86.1446 29.5862 85.2744 29.483C84.5922 29.4023 83.7259 29.0662 83.3287 28.4798C83.3117 28.4544 83.3029 28.4245 83.3038 28.3942C83.3046 28.3638 83.3149 28.3345 83.3333 28.3102C83.591 27.9701 83.8879 27.647 84.224 27.341C84.305 27.2671 84.4504 27.2427 84.6602 27.2679C84.8319 27.2885 85.056 27.3872 85.3325 27.5641C85.3554 27.5791 85.3786 27.5791 85.402 27.5641Z" fill="white"/>
<path d="M79.566 31.0922C79.9587 30.7515 80.3781 30.7239 80.8242 31.0093C81.0188 31.1339 81.2836 31.3527 81.6187 31.6658C81.6366 31.6818 81.6416 31.7014 81.634 31.7246C81.4392 32.2913 80.9847 32.6923 80.4247 32.8883C79.456 33.2274 78.3544 32.8807 77.6073 32.2077C77.5349 32.1429 77.4802 32.0522 77.443 31.9356C77.4359 31.913 77.4395 31.8921 77.4537 31.873C77.8194 31.3887 78.1099 31.0653 78.3254 30.903C78.6646 30.6483 79.1077 30.8947 79.4927 31.1005C79.5044 31.1067 79.5177 31.1092 79.5308 31.1077C79.5439 31.1062 79.5562 31.1008 79.566 31.0922Z" fill="white"/>
<path d="M21.3316 42.3366L13.7869 41.564C13.7645 41.5615 13.7543 41.5489 13.7563 41.5263L13.8732 40.4154C13.8763 40.3842 13.8936 40.3702 13.9251 40.3732L22.5371 41.2535C22.5656 41.2565 22.5804 41.2721 22.5814 41.3002C22.6073 42.0343 22.6051 42.6443 22.5745 43.1302C22.3659 46.4216 19.5455 48.6103 16.5287 49.3738C15.6211 49.6034 14.7013 49.7313 13.7693 49.7574C6.91827 49.9473 1.7441 43.0752 4.88084 36.7344C5.39574 35.6928 6.12938 34.7597 7.08176 33.9351C9.00078 32.2745 11.2809 31.4741 13.9221 31.5339C17.7685 31.6206 22.463 33.593 22.5119 38.0714C22.5124 38.0985 22.4991 38.1106 22.4721 38.1076L20.3996 37.8694C20.3736 37.8664 20.3601 37.8521 20.3591 37.8265C20.2817 36.3733 19.6183 35.2719 18.369 34.5223C16.7892 33.5734 14.7059 33.2983 12.9106 33.3917C9.22156 33.5839 6.14287 36.552 5.92744 40.2292C5.78688 42.6403 6.88313 44.9903 8.84035 46.4359C11.1803 48.1649 14.1597 48.2206 16.8816 47.4014C19.1643 46.714 21.4347 44.982 21.369 42.3757C21.3685 42.3521 21.356 42.3391 21.3316 42.3366Z" fill="#74A87A"/>
<path d="M24.4146 49.4514C25.0754 48.9683 25.5208 48.3118 25.6132 47.5152C25.625 47.4137 25.6308 47.1026 25.6308 46.5821C25.6298 42.6207 25.6303 38.6585 25.6323 34.6956C25.6323 34.0555 25.5936 33.6018 25.5162 33.3344C25.3395 32.7239 24.9723 32.2215 24.4146 31.8271C24.3774 31.8004 24.3818 31.7871 24.4276 31.7871H28.779C28.8177 31.7871 28.821 31.7977 28.789 31.8188C28.2455 32.178 27.8878 32.6438 27.7156 33.2161C27.6372 33.4774 27.5977 33.9728 27.5972 34.7024C27.5952 38.7839 27.5954 42.8651 27.598 46.9461C27.5985 47.3717 27.6329 47.7011 27.7011 47.9342C27.8834 48.5553 28.2494 49.0547 28.7989 49.4326C28.8524 49.4697 28.8463 49.4883 28.7806 49.4883L24.4276 49.4891C24.3848 49.4891 24.3805 49.4765 24.4146 49.4514Z" fill="#74A87A"/>
<path d="M33.6186 39.5667C35.5585 39.5738 37.4984 39.574 39.4383 39.5675C40.284 39.5645 40.9631 39.0829 41.4161 38.3962C41.4187 38.3926 41.4224 38.3898 41.4266 38.3884C41.4308 38.3869 41.4354 38.3868 41.4398 38.388C41.4441 38.3893 41.4479 38.3918 41.4506 38.3953C41.4534 38.3988 41.4549 38.4031 41.4551 38.4075V42.6018C41.4551 42.637 41.4439 42.641 41.4215 42.6139C41.3604 42.5395 41.3018 42.4627 41.2458 42.3833C40.9443 41.9517 40.5623 41.6643 40.0999 41.5211C39.8697 41.4492 39.4128 41.4143 38.7293 41.4163C37.0176 41.4218 35.3082 41.4233 33.601 41.4208C33.5781 41.4208 33.5664 41.4324 33.5659 41.4555C33.5592 43.3196 33.561 45.1845 33.5712 47.0501C33.5733 47.425 33.6081 47.7222 33.6759 47.9418C33.8664 48.5563 34.2379 49.0605 34.7905 49.4544C34.794 49.4567 34.7967 49.46 34.7981 49.464C34.7996 49.4679 34.7996 49.4722 34.7983 49.4761C34.797 49.4801 34.7944 49.4835 34.7909 49.4859C34.7874 49.4882 34.7832 49.4893 34.779 49.4891L30.4047 49.4898C30.3685 49.4898 30.3639 49.478 30.3909 49.4544C30.9142 48.9894 31.2939 48.599 31.4933 47.9252C31.5697 47.6674 31.6079 47.2059 31.6079 46.5406C31.6079 42.3762 31.6076 38.2121 31.6071 34.0482C31.6071 33.201 31.0112 32.3456 30.3695 31.8271C30.3659 31.8241 30.3634 31.8201 30.3621 31.8156C30.3609 31.8112 30.3611 31.8064 30.3627 31.8021C30.3643 31.7977 30.3672 31.794 30.371 31.7913C30.3748 31.7886 30.3794 31.7871 30.384 31.7871H44.4566C44.4734 31.7871 44.4836 31.7951 44.4872 31.8112L45.559 36.4984C45.5595 36.4998 45.5595 36.5012 45.5589 36.5025C45.5584 36.5038 45.5573 36.5048 45.556 36.5054C45.5546 36.5061 45.5531 36.5062 45.5515 36.5059C45.55 36.5056 45.5486 36.5048 45.5475 36.5037C45.0349 35.8194 43.5758 33.6615 42.6659 33.6563C40.3008 33.6427 37.9356 33.6384 35.5704 33.6435C34.6988 33.645 33.999 33.9826 33.6835 34.8222C33.6132 35.0086 33.5758 35.2599 33.5712 35.5759C33.5524 36.8924 33.5534 38.2081 33.5743 39.523C33.5748 39.5517 33.5895 39.5662 33.6186 39.5667Z" fill="#74A87A"/>
<path d="M74.2081 33.9092L73.9973 34.5303C73.6143 34.9227 73.175 35.1669 72.6795 35.2629C72.2781 35.3403 71.8557 35.3109 71.4121 35.1747C70.9843 35.0436 70.1951 34.6735 70.0477 34.2115C70.04 34.1874 70.0441 34.165 70.0599 34.1444C70.2776 33.867 70.7902 33.1895 71.131 33.1043C71.4587 33.0222 71.8277 33.2332 72.1065 33.3892C72.1289 33.4023 72.1501 33.4003 72.1699 33.3832C72.9698 32.6807 73.6069 33.4352 74.2081 33.9092Z" fill="white"/>
<path d="M65.3861 35.5296C65.8155 35.1674 66.2568 35.1571 66.71 35.4987C66.9581 35.6862 67.1982 35.8861 67.4304 36.0987C67.4498 36.1158 67.4557 36.1366 67.448 36.1612C67.2188 36.8923 66.487 37.3468 65.7589 37.441C64.9705 37.5435 63.7673 37.1735 63.3006 36.4755C63.2501 36.4007 63.2476 36.3336 63.2929 36.2743C63.5155 35.9829 63.7589 35.7108 64.0233 35.458C64.477 35.0254 64.8712 35.3277 65.3151 35.5387C65.3405 35.5513 65.3642 35.5482 65.3861 35.5296Z" fill="white"/>
<path d="M82.7365 35.8014C83.2009 35.4195 83.669 35.42 84.1406 35.8029C84.3637 35.9843 84.5804 36.1679 84.7907 36.3538C84.8034 36.365 84.8124 36.3796 84.8166 36.3959C84.8209 36.4121 84.8201 36.4292 84.8144 36.445C84.4232 37.5356 83.1414 37.9192 82.0879 37.6238C81.6173 37.4911 80.7609 37.1045 80.6242 36.6319C80.6175 36.6088 80.6216 36.5877 80.6364 36.5686C80.9404 36.1757 81.2178 35.8672 81.4683 35.6431C81.8075 35.3394 82.3163 35.5926 82.6677 35.8066C82.6916 35.8212 82.7146 35.8195 82.7365 35.8014Z" fill="white"/>
<path d="M77.7356 39.4873C77.81 39.4486 77.8836 39.4066 77.9564 39.3614C78.7219 38.8851 79.2429 39.6101 79.7563 39.9855C80.0198 40.1792 79.4125 40.7912 79.2719 40.9005C78.2467 41.6979 77.0443 41.4801 76.045 40.7972C75.852 40.6656 75.717 40.5116 75.6401 40.3352C75.6295 40.3111 75.6323 40.2882 75.6485 40.2666C76.0142 39.7802 76.3183 39.4453 76.5607 39.2619C76.8342 39.0547 77.3659 39.2951 77.6692 39.4843C77.6906 39.4978 77.7127 39.4988 77.7356 39.4873Z" fill="white"/>
</svg>
