<svg width="21" height="20" viewBox="0 0 21 20" fill="none" xmlns="http://www.w3.org/2000/svg">
<path d="M10.5 18.4667C10.5 18.4667 19.5 14.1567 19.5 7.6067C19.4922 6.53644 19.1217 5.50046 18.4489 4.66804C17.7762 3.83561 16.841 3.25595 15.7962 3.02377C14.7514 2.79159 13.6587 2.92062 12.6968 3.38978C11.7348 3.85893 10.9603 4.64047 10.5 5.6067C10.0397 4.64047 9.26522 3.85893 8.30324 3.38978C7.34125 2.92062 6.2486 2.79159 5.2038 3.02377C4.15899 3.25595 3.22381 3.83561 2.55107 4.66804C1.87833 5.50046 1.50779 6.53644 1.5 7.6067C1.5 14.1567 10.5 18.4667 10.5 18.4667Z" stroke="#6B6B6B" stroke-width="1.33333" stroke-linecap="round" stroke-linejoin="round"/>
</svg>
