<svg width="36" height="35" viewBox="0 0 36 35" fill="none" xmlns="http://www.w3.org/2000/svg">
<g clip-path="url(#clip0_1630_38486)">
<path d="M17.3267 34.9127C17.4882 35.005 17.9026 34.923 18.0872 34.8162C22.9207 32.0402 27.7517 29.2603 32.5802 26.4763C32.9305 26.2738 32.9844 25.8611 32.9844 25.4415C32.9844 20.0315 32.9844 14.6217 32.9844 9.21218C32.9844 8.81484 32.8126 8.56191 32.4554 8.35598C27.6891 5.6085 22.9224 2.86131 18.1555 0.114401C17.7249 -0.133401 17.389 -0.0462431 16.9515 0.205832C12.2433 2.92426 7.53675 5.64581 2.83191 8.37051C2.48242 8.57302 2.2876 8.84731 2.2876 9.24551C2.28646 14.7746 2.28617 20.3035 2.28674 25.8321C2.28674 26.1269 2.51489 26.4088 2.78748 26.5661C7.63188 29.3517 12.4783 32.1339 17.3267 34.9127ZM22.0563 4.48086C22.0616 4.48393 22.066 4.48835 22.0691 4.49368C22.0722 4.499 22.0738 4.50504 22.0738 4.51119C22.0738 4.51734 22.0722 4.52338 22.0691 4.5287C22.066 4.53403 22.0616 4.53845 22.0563 4.54153L9.54651 11.7483C9.54108 11.7515 9.53488 11.7533 9.52856 11.7533C9.52225 11.7533 9.51605 11.7515 9.51062 11.7483L5.14075 9.19167C5.13542 9.1886 5.131 9.18417 5.12793 9.17885C5.12486 9.17353 5.12324 9.16749 5.12324 9.16134C5.12324 9.15519 5.12486 9.14915 5.12793 9.14383C5.131 9.1385 5.13542 9.13408 5.14075 9.131L17.6454 1.92422C17.6508 1.92098 17.657 1.91927 17.6633 1.91927C17.6696 1.91927 17.6758 1.92098 17.6813 1.92422L22.0563 4.48086ZM11.3751 12.8233C11.3682 12.8193 11.3624 12.8136 11.3584 12.8067C11.3544 12.7998 11.3523 12.7919 11.3523 12.784C11.3523 12.776 11.3544 12.7681 11.3584 12.7612C11.3624 12.7543 11.3682 12.7486 11.3751 12.7447L23.861 5.55154C23.8679 5.5474 23.8759 5.54522 23.884 5.54522C23.8922 5.54522 23.9001 5.5474 23.9071 5.55154L30.1757 9.18911C30.1826 9.19307 30.1883 9.1988 30.1923 9.2057C30.1963 9.2126 30.1985 9.22044 30.1985 9.22842C30.1985 9.23639 30.1963 9.24423 30.1923 9.25113C30.1883 9.25804 30.1826 9.26376 30.1757 9.26772L17.6864 16.4625C17.6794 16.4667 17.6714 16.4689 17.6633 16.4689C17.6552 16.4689 17.6472 16.4667 17.6403 16.4625L11.3751 12.8233ZM18.5648 17.9861C18.5648 17.9816 18.566 17.9772 18.5683 17.9733C18.5705 17.9694 18.5737 17.9661 18.5776 17.9639L31.0883 10.7588C31.0922 10.7566 31.0966 10.7554 31.1011 10.7554C31.1056 10.7554 31.11 10.7566 31.1139 10.7588C31.1178 10.7611 31.121 10.7643 31.1233 10.7682C31.1255 10.7721 31.1267 10.7765 31.1267 10.781L31.1259 25.2835C31.1259 25.288 31.1247 25.2924 31.1224 25.2963C31.1202 25.3002 31.1169 25.3034 31.113 25.3057L18.6033 32.5099C18.5994 32.5122 18.595 32.5133 18.5905 32.5133C18.5859 32.5133 18.5815 32.5122 18.5776 32.5099C18.5737 32.5077 18.5705 32.5044 18.5682 32.5005C18.566 32.4966 18.5648 32.4922 18.5648 32.4877V17.9861ZM8.64417 13.5069C8.64986 13.52 8.65271 13.5339 8.65271 13.5487C8.65157 16.0478 8.65214 18.5472 8.65442 21.0469C8.65527 22.0646 9.95837 22.385 10.3352 21.4682C10.3967 21.3189 10.4275 21.0617 10.4275 20.6966C10.4264 18.5956 10.4252 16.4993 10.4241 14.4075C10.424 14.4026 10.4252 14.3977 10.4277 14.3934C10.4301 14.3891 10.4336 14.3856 10.438 14.3831C10.4423 14.3806 10.4472 14.3792 10.4523 14.3791C10.4573 14.3791 10.4623 14.3803 10.4668 14.3827L16.7319 17.9553C16.7576 17.9696 16.7704 17.9912 16.7704 18.0203V32.4766C16.7704 32.517 16.753 32.5273 16.7183 32.5073L4.24866 25.3219C4.23675 25.3152 4.22684 25.3054 4.21993 25.2934C4.21303 25.2814 4.20937 25.2676 4.20935 25.2536L4.2085 10.8135C4.2085 10.7645 4.22986 10.7523 4.27258 10.7768C5.69503 11.609 7.11804 12.4413 8.54163 13.2736C8.62708 13.3237 8.66012 13.3852 8.64075 13.4582C8.63619 13.4747 8.63733 13.4909 8.64417 13.5069Z" fill="#648864"/>
</g>
<defs>
<clipPath id="clip0_1630_38486">
<rect width="35" height="35" fill="white" transform="matrix(-1 0 0 1 35.166 0)"/>
</clipPath>
</defs>
</svg>
