<svg width="36" height="35" viewBox="0 0 36 35" fill="none" xmlns="http://www.w3.org/2000/svg">
<g clip-path="url(#clip0_1630_38460)">
<path d="M11.5361 13.9449H1.33203M11.5361 11.0294H1.33203M11.5361 16.8603H1.33203M21.7985 25.6504V13.9886H29.5827C30.184 13.9762 30.7713 14.1707 31.2463 14.5395C31.7214 14.9084 32.0552 15.4292 32.1921 16.0148L34.1454 25.6504H28.1687M7.1775 25.6504H4.26205V8.69706C4.26205 8.1558 4.47709 7.63672 4.85982 7.25399C5.24254 6.87126 5.7616 6.65625 6.30286 6.65625H19.714C20.2552 6.65625 20.7743 6.87126 21.157 7.25399C21.5398 7.63672 21.7548 8.1558 21.7548 8.69706V25.6504H13.6789M22.265 26.0877C22.265 27.6979 23.5703 29.0032 25.1804 29.0032C26.7906 29.0032 28.0959 27.6979 28.0959 26.0877C28.0959 24.4776 26.7906 23.1723 25.1804 23.1723C23.5703 23.1723 22.265 24.4776 22.265 26.0877ZM7.58568 26.0877C7.58568 27.6979 8.89097 29.0032 10.5011 29.0032C12.1113 29.0032 13.4166 27.6979 13.4166 26.0877C13.4166 24.4776 12.1113 23.1723 10.5011 23.1723C8.89097 23.1723 7.58568 24.4776 7.58568 26.0877Z" stroke="#648864" stroke-width="2" stroke-linecap="round" stroke-linejoin="round"/>
</g>
<defs>
<clipPath id="clip0_1630_38460">
<rect width="35" height="34.9854" fill="white" transform="matrix(-1 0 0 1 35.5 0)"/>
</clipPath>
</defs>
</svg>
