<svg width="36" height="35" viewBox="0 0 36 35" fill="none" xmlns="http://www.w3.org/2000/svg">
<g clip-path="url(#clip0_1630_38506)">
<path d="M28.1324 10.614C28.2324 10.5815 28.3632 10.6457 28.4949 10.8207L34.4366 16.689C34.7832 17.039 34.7832 17.5706 34.4366 17.8306L28.4949 23.789C28.3632 23.964 28.2324 24.0065 28.1324 23.954C28.0324 23.9006 27.9691 23.7465 27.9691 23.524V10.9957C27.9691 10.7782 28.0324 10.6456 28.1324 10.6131V10.614ZM17.9699 0.833984H18.3907L18.7949 1.00398L24.9099 7.13732C25.1724 7.48815 25.0832 7.75398 24.6466 7.75398H22.1132C21.6766 7.75398 21.3299 8.10398 21.3299 8.54398V13.0973C21.3299 13.5373 20.9774 13.8873 20.4516 13.8873H15.9974C15.8937 13.8875 15.7909 13.8672 15.6951 13.8276C15.5992 13.788 15.5121 13.7297 15.4389 13.6563C15.3656 13.5829 15.3076 13.4957 15.2681 13.3998C15.2287 13.3038 15.2086 13.201 15.2091 13.0973V8.54398C15.2101 8.43999 15.1903 8.33684 15.1511 8.24055C15.1118 8.14426 15.0537 8.05676 14.9802 7.98315C14.9068 7.90953 14.8194 7.85128 14.7232 7.81179C14.627 7.77231 14.5239 7.75237 14.4199 7.75315H11.7141C11.2782 7.75315 11.1891 7.48815 11.4516 7.13815L17.5707 1.00398L17.9707 0.833984H17.9699ZM8.39073 10.4807C8.50156 10.534 8.56989 10.6882 8.56989 10.9107V23.699C8.56989 23.9223 8.50156 24.0548 8.39073 24.0973C8.28573 24.139 8.13323 24.0973 7.9549 23.964L1.92406 17.8306C1.5774 17.5698 1.5774 17.039 1.92406 16.689L7.9549 10.6457C8.13323 10.4707 8.28573 10.4282 8.39073 10.4807ZM15.9982 20.5473H20.4516C20.9766 20.5473 21.3291 20.8973 21.3291 21.3381V26.1556C21.3291 26.6806 21.6766 27.0315 22.1124 27.0315H24.4732C24.9099 27.0315 25.0832 27.2915 24.7357 27.5565L18.7949 33.6006C18.7149 33.6832 18.6194 33.7491 18.5138 33.7948C18.4083 33.8404 18.2948 33.8647 18.1799 33.8665C17.9649 33.8665 17.7441 33.7756 17.5699 33.6006L11.6291 27.5565C11.2774 27.2915 11.4507 27.0315 11.8874 27.0315H14.4207C14.8624 27.0315 15.2099 26.6815 15.2099 26.1565V21.3381C15.2099 20.8973 15.5616 20.5473 15.9982 20.5473Z" stroke="#648864" stroke-width="2"/>
</g>
<defs>
<clipPath id="clip0_1630_38506">
<rect width="35" height="35" fill="white" transform="translate(0.832031)"/>
</clipPath>
</defs>
</svg>
