<svg width="35" height="35" viewBox="0 0 35 35" fill="none" xmlns="http://www.w3.org/2000/svg">
<path d="M7.49718 16.6502L6.11528 15.1933C6.08992 15.1667 6.05914 15.1455 6.02486 15.131C5.99059 15.1165 5.95358 15.109 5.91616 15.109C5.87874 15.109 5.84173 15.1165 5.80746 15.131C5.77319 15.1455 5.7424 15.1667 5.71704 15.1933C2.37181 18.2454 0.688568 21.846 0.667328 25.9951C0.662018 28.9088 2.18994 30.6476 5.2511 31.2114C5.31058 31.2182 5.36515 31.2466 5.40364 31.2909C5.44213 31.3352 5.46164 31.392 5.45818 31.4498V32.9105C5.45438 32.9432 5.45826 32.9763 5.46952 33.0074C5.48079 33.0384 5.49915 33.0666 5.52325 33.0899C5.54736 33.1131 5.57657 33.1309 5.60874 33.1417C5.64091 33.1526 5.6752 33.1564 5.70907 33.1527H5.99581C6.02932 33.1572 6.06344 33.1541 6.0955 33.1437C6.12757 33.1333 6.1567 33.1158 6.18062 33.0927C6.20454 33.0697 6.22259 33.0415 6.23337 33.0106C6.24414 32.9796 6.24734 32.9467 6.24272 32.9144V31.4767C6.23905 31.4221 6.25662 31.3683 6.29199 31.3256C6.32735 31.2829 6.37796 31.2545 6.43388 31.246L7.89941 30.8885C7.9536 30.8716 8.01226 30.8739 8.06483 30.8951C8.11741 30.9162 8.16043 30.9548 8.18614 31.0039C9.29724 32.8259 10.7429 33.1758 12.985 33.1834C15.3133 33.1834 17.6444 33.1834 19.9781 33.1834C20.7659 33.1859 21.5405 32.9884 22.2242 32.6107C22.2772 32.5824 22.3368 32.5676 22.3974 32.5676C22.458 32.5676 22.5176 32.5824 22.5706 32.6107C25.7566 34.0368 28.0704 32.7683 30.0895 30.2235C32.3144 27.446 33.4588 24.0028 33.3232 20.4942C33.3221 20.4232 33.2924 20.3553 33.2404 20.305C33.1883 20.2548 33.118 20.2261 33.0444 20.2251C30.1171 20.1349 27.2215 20.8323 24.6813 22.2394C24.5658 22.3009 24.5101 22.2702 24.5061 22.1433C24.4132 19.7318 24.3667 17.3267 24.3667 14.928C24.3667 11.9835 23.7255 9.9884 20.5874 9.38873C20.5584 9.38729 20.53 9.38022 20.504 9.36792C20.4779 9.35562 20.4547 9.33836 20.4357 9.31717C20.4167 9.29598 20.4024 9.2713 20.3936 9.24462C20.3847 9.21794 20.3816 9.18981 20.3843 9.16193V7.93183C20.3821 7.90684 20.3853 7.88168 20.3937 7.85796C20.4021 7.83423 20.4155 7.81245 20.4331 7.79401C20.4508 7.77557 20.4721 7.76087 20.496 7.75085C20.5198 7.74082 20.5455 7.73569 20.5715 7.73578L21.1051 7.68965C21.1417 7.6898 21.178 7.68256 21.2115 7.66839C21.2451 7.65422 21.2752 7.63344 21.3 7.60738C21.3247 7.58133 21.3435 7.55056 21.3552 7.51707C21.367 7.48357 21.3713 7.44809 21.368 7.41288C21.4357 5.18333 22.2003 1.71214 18.632 1.67755C16.9966 1.66217 15.3598 1.66217 13.7217 1.67755C9.78707 1.71214 10.6194 4.83736 10.6513 7.41288C10.6485 7.4443 10.6524 7.47593 10.6627 7.50587C10.6729 7.53581 10.6893 7.56345 10.7109 7.58714C10.7324 7.61082 10.7587 7.63006 10.7882 7.64372C10.8176 7.65737 10.8496 7.66515 10.8822 7.66659L11.4637 7.74731C11.4892 7.74876 11.5141 7.75513 11.537 7.76602C11.5599 7.77692 11.5803 7.79214 11.597 7.81077C11.6137 7.8294 11.6263 7.85107 11.6342 7.8745C11.6421 7.89794 11.6451 7.92266 11.6429 7.94721V9.10042C11.6497 9.17149 11.6278 9.24235 11.5818 9.29823C11.5358 9.3541 11.4692 9.39065 11.396 9.40026C7.53302 10.246 7.37771 13.4557 7.59674 16.6156C7.60471 16.7155 7.57285 16.727 7.49718 16.6502ZM20.5277 6.87856H11.5194C11.4983 6.87856 11.478 6.87046 11.4631 6.85604C11.4482 6.84162 11.4398 6.82207 11.4398 6.80168V4.04549C11.4413 3.83246 11.4864 3.62181 11.5723 3.42557C11.6582 3.22934 11.7833 3.05135 11.9404 2.90179C12.0976 2.75222 12.2838 2.63401 12.4883 2.55388C12.6928 2.47376 12.9116 2.43331 13.1323 2.43483H18.9148C19.1355 2.43331 19.3543 2.47376 19.5588 2.55388C19.7633 2.63401 19.9495 2.75222 20.1066 2.90179C20.2638 3.05135 20.3889 3.22934 20.4748 3.42557C20.5607 3.62181 20.6057 3.83246 20.6073 4.04549V6.80168C20.6073 6.82207 20.5989 6.84162 20.584 6.85604C20.569 6.87046 20.5488 6.87856 20.5277 6.87856ZM12.4195 7.94721C12.4195 7.9105 12.4346 7.8753 12.4614 7.84935C12.4883 7.8234 12.5248 7.80882 12.5628 7.80882H19.4644C19.5024 7.80882 19.5388 7.8234 19.5657 7.84935C19.5926 7.8753 19.6077 7.9105 19.6077 7.94721V9.22343C19.6077 9.26013 19.5926 9.29533 19.5657 9.32129C19.5388 9.34724 19.5024 9.36182 19.4644 9.36182H12.5827C12.5447 9.36182 12.5082 9.34724 12.4814 9.32129C12.4545 9.29533 12.4394 9.26013 12.4394 9.22343L12.4195 7.94721ZM23.3831 18.7336L8.66005 13.3904C8.62847 13.383 8.59883 13.3693 8.57301 13.3502C8.54718 13.3312 8.52573 13.3072 8.51001 13.2797C8.4943 13.2523 8.48465 13.222 8.48168 13.1907C8.47872 13.1595 8.4825 13.128 8.49278 13.0982C9.00652 10.5881 10.7508 10.1191 13.2717 10.1229C15.0956 10.1229 16.9209 10.1229 18.7475 10.1229C20.7148 10.1229 22.3317 10.2921 23.164 12.0142C23.9048 13.5057 23.5623 16.6271 23.5623 18.5914C23.5702 18.7375 23.5224 18.7721 23.3831 18.7336ZM23.2795 23.0351C21.2724 24.4305 20.7825 25.1032 19.986 26.8446C19.975 26.8782 19.9565 26.9092 19.9319 26.9352C19.9072 26.9612 19.8769 26.9817 19.8431 26.9953C19.8093 27.0088 19.7729 27.0151 19.7364 27.0136C19.6999 27.0122 19.6641 27.003 19.6316 26.9868L11.2247 23.9385C11.1586 23.919 11.0988 23.8833 11.0513 23.8347C11.0039 23.7862 10.9703 23.7266 10.9539 23.6617C10.3805 21.9396 10.0937 20.4289 9.04634 18.7029C8.2857 17.4536 8.50871 15.7699 8.57243 14.3783C8.57243 14.263 8.63615 14.2246 8.74766 14.263L23.3233 19.5409C23.3737 19.5561 23.4174 19.587 23.4476 19.6287C23.4779 19.6704 23.493 19.7206 23.4906 19.7715V22.6507C23.4883 22.7261 23.4681 22.8 23.4315 22.8667C23.3949 22.9333 23.3429 22.991 23.2795 23.0351ZM5.92413 21.3553C5.88828 21.4322 5.84846 21.4322 5.81262 21.3553C5.35504 20.438 4.56625 19.7135 3.59441 19.3179C3.39927 19.2372 3.36343 19.1142 3.49485 18.9335L5.62942 16.2081C5.64561 16.1763 5.6701 16.1491 5.70048 16.1293C5.73086 16.1094 5.76608 16.0975 5.80267 16.0948C5.83926 16.0921 5.87595 16.0986 5.90912 16.1138C5.94229 16.1289 5.97079 16.1521 5.99183 16.1812C6.86302 17.0249 7.57584 18.0082 8.09853 19.0873C8.1145 19.1124 8.12443 19.1406 8.12756 19.1699C8.1307 19.1991 8.12696 19.2287 8.11663 19.2564C8.1063 19.2841 8.08965 19.3092 8.0679 19.3298C8.04615 19.3505 8.01987 19.3661 7.991 19.3756C7.08338 19.7818 6.35201 20.4824 5.92413 21.3553ZM5.2511 25.626C4.43727 24.5706 3.22812 23.8643 1.88197 23.6579C1.73462 23.6348 1.68683 23.5579 1.73462 23.4195L2.84571 20.1636C2.85048 20.1213 2.86689 20.081 2.89324 20.0469C2.91959 20.0128 2.95492 19.9861 2.99556 19.9697C3.03621 19.9532 3.08067 19.9475 3.12435 19.9532C3.16803 19.9589 3.20933 19.9758 3.24395 20.0022C5.73297 21.0631 5.63341 23.3388 5.46615 25.5684C5.4303 25.7529 5.3626 25.7721 5.2511 25.626ZM9.75123 23.6502C8.32951 24.0769 7.43745 24.4574 6.51751 25.6183C6.43388 25.726 6.37812 25.7106 6.35821 25.5799C6.00377 23.4003 6.14316 20.967 8.49278 20.0329C8.51814 20.0181 8.54683 20.0095 8.57639 20.0078C8.60595 20.0061 8.63551 20.0113 8.66252 20.023C8.68954 20.0347 8.71321 20.0526 8.7315 20.0751C8.7498 20.0976 8.76218 20.124 8.76757 20.1521L9.92247 23.3196C9.94016 23.3521 9.94941 23.3882 9.94944 23.4249C9.94947 23.4616 9.94029 23.4977 9.92266 23.5302C9.90504 23.5627 9.87951 23.5906 9.84826 23.6115C9.81702 23.6324 9.55001 23.7186 9.51229 23.7231L9.75123 23.6502ZM31.9333 24.8995C30.9594 24.4783 29.8608 24.41 28.839 24.7073C28.6677 24.7611 28.608 24.7073 28.6598 24.5305C28.9663 23.5982 28.9183 22.5909 28.5244 21.6897C28.4567 21.5283 28.5244 21.436 28.6876 21.4129L32.3316 20.9094C32.3979 20.9016 32.4647 20.9188 32.5182 20.9575C32.5716 20.9962 32.6075 21.0533 32.6183 21.1169C32.6223 21.1398 32.6223 21.1632 32.6183 21.1861L32.0568 24.8418C32.0553 24.852 32.0518 24.8617 32.0464 24.8705C32.0409 24.8794 32.0337 24.887 32.0252 24.8931C32.0167 24.8992 32.007 24.9036 31.9967 24.906C31.9864 24.9084 31.9756 24.9088 31.9652 24.9072L31.9333 24.8995ZM25.0835 27.4289C25.3175 26.1372 25.011 24.8086 24.2313 23.7347C24.1933 23.6721 24.1807 23.598 24.1962 23.527C24.2117 23.4559 24.254 23.3929 24.3149 23.3503H24.3428L27.3774 21.8435C27.4475 21.8106 27.5279 21.805 27.6021 21.8279C27.6763 21.8508 27.7384 21.9005 27.7757 21.9665C28.8191 24.4305 26.8517 26.045 25.199 27.5173C25.1035 27.6134 25.0597 27.575 25.0835 27.4289ZM21.579 30.6464C19.9263 28.24 21.0135 25.6491 23.4149 24.1999C23.4346 24.1842 23.4579 24.1732 23.4828 24.1677C23.5077 24.1623 23.5336 24.1626 23.5584 24.1685C23.5832 24.1745 23.6062 24.186 23.6256 24.2022C23.6449 24.2183 23.6601 24.2386 23.6698 24.2614C25.2946 26.8792 23.9326 28.8743 21.9016 30.6848C21.8817 30.7071 21.8571 30.7251 21.8295 30.7376C21.8018 30.75 21.7717 30.7566 21.7412 30.757C21.7107 30.7574 21.6805 30.7515 21.6525 30.7397C21.6245 30.7279 21.5995 30.7105 21.579 30.6886V30.6464ZM9.51229 24.4459C9.61633 24.4037 9.73347 24.4031 9.838 24.4442C9.94252 24.4852 10.0259 24.5647 10.0698 24.665C10.0828 24.6946 10.0921 24.7256 10.0977 24.7573C10.5995 27.6864 9.42467 29.6021 6.57326 30.5041C6.5528 30.5155 6.52962 30.5216 6.506 30.5216C6.48238 30.5217 6.45915 30.5158 6.43862 30.5046C6.41809 30.4933 6.40096 30.477 6.38895 30.4574C6.37694 30.4378 6.37046 30.4155 6.37016 30.3927C5.78341 27.5147 6.83079 25.5325 9.51229 24.4459ZM5.2033 30.4388C2.22047 30.0813 1.02575 27.1406 1.67886 24.5997C1.68171 24.5763 1.68994 24.5538 1.70295 24.534C1.71595 24.5141 1.73341 24.4972 1.75403 24.4847C1.77465 24.4722 1.79792 24.4642 1.82213 24.4615C1.84633 24.4588 1.87086 24.4613 1.89392 24.469C4.87675 25.034 5.82456 27.6134 5.40243 30.3042C5.4003 30.3265 5.39318 30.348 5.38156 30.3673C5.36994 30.3866 5.35411 30.4032 5.33516 30.416C5.31621 30.4288 5.2946 30.4375 5.27183 30.4414C5.24906 30.4454 5.22568 30.4445 5.2033 30.4388ZM19.8268 28.0901C19.8234 29.3641 20.2908 30.5976 21.1449 31.5689C21.6228 32.1148 21.4901 32.3916 20.7467 32.3993C17.6829 32.4351 14.7133 32.4351 11.838 32.3993C10.5796 32.3993 9.61184 31.7919 8.93881 30.6079C8.92309 30.5861 8.91206 30.5614 8.90635 30.5353C8.90063 30.5093 8.90037 30.4824 8.90556 30.4563C8.91075 30.4302 8.9213 30.4053 8.93659 30.3831C8.95187 30.361 8.97159 30.342 8.99457 30.3273C10.7362 28.9434 11.4 27.1496 10.9858 24.9456C10.9764 24.8977 10.9871 24.8482 11.0155 24.8079C11.0438 24.7675 11.0875 24.7397 11.1371 24.7304C11.1709 24.7207 11.2069 24.7207 11.2407 24.7304L19.6117 27.7902C19.676 27.8115 19.7315 27.8521 19.7702 27.9061C19.8089 27.96 19.8287 28.0245 19.8268 28.0901ZM31.7143 25.8682L30.1213 28.9434C30.1121 28.9785 30.0931 29.0105 30.0665 29.036C30.04 29.0614 30.0067 29.0795 29.9703 29.0882C29.9339 29.0968 29.8958 29.0958 29.86 29.0852C29.8242 29.0746 29.792 29.0549 29.7669 29.028C29.2135 28.6441 28.5871 28.3693 27.9235 28.2196C27.26 28.0699 26.5723 28.048 25.8999 28.1554C25.7513 28.1785 25.7274 28.1362 25.8283 28.0286C27.5526 26.1796 29.1456 24.5382 31.6187 25.6106C31.6654 25.6309 31.7023 25.6678 31.7216 25.7136C31.7408 25.7594 31.7411 25.8107 31.7222 25.8567L31.7143 25.8682ZM29.285 29.6392C29.3038 29.6479 29.3203 29.6607 29.3332 29.6765C29.3461 29.6924 29.355 29.7109 29.3592 29.7306C29.3635 29.7503 29.3629 29.7707 29.3577 29.7902C29.3524 29.8097 29.3425 29.8278 29.3288 29.843C27.7996 32.1148 25.0716 33.3526 22.5587 31.5997C22.5351 31.5878 22.5147 31.5707 22.4991 31.5499C22.4835 31.529 22.4732 31.505 22.469 31.4796C22.4647 31.4542 22.4666 31.4282 22.4746 31.4037C22.4826 31.3792 22.4964 31.3568 22.5149 31.3383C24.2512 29.0588 26.7363 28.0593 29.285 29.6392Z" fill="#648864" stroke="#648864" stroke-width="0.583333" stroke-miterlimit="10"/>
</svg>
