<svg width="36" height="35" viewBox="0 0 36 35" fill="none" xmlns="http://www.w3.org/2000/svg">
<g clip-path="url(#clip0_1630_38552)">
<path d="M31.0392 29.5691H5.89816C4.59962 29.5679 3.3546 29.0515 2.43631 28.1334C1.51802 27.2153 1.00146 25.9704 1 24.6718V9.89816C1.00122 8.59946 1.51767 7.3543 2.43598 6.43598C3.3543 5.51767 4.59946 5.00122 5.89816 5L31.0392 5C32.3381 5.00122 33.5834 5.51761 34.502 6.43587C35.4207 7.35414 35.9375 8.59929 35.9392 9.89816V24.6718C35.9373 25.9705 35.4203 27.2155 34.5017 28.1335C33.5831 29.0516 32.3379 29.5679 31.0392 29.5691ZM5.89816 6.73895C5.06066 6.74017 4.25781 7.0734 3.6656 7.6656C3.0734 8.25781 2.74017 9.06066 2.73895 9.89816V24.6718C2.73895 26.4126 4.15645 27.8311 5.89816 27.8311H31.0392C31.877 27.8303 32.6804 27.4973 33.273 26.905C33.8656 26.3128 34.199 25.5097 34.2003 24.6718V9.89816C34.2003 8.15645 32.7818 6.73895 31.0392 6.73895H5.89816Z" fill="#648864"/>
<path d="M28.5471 12.9382H7.86947C7.75529 12.9382 7.64223 12.9157 7.53674 12.872C7.43125 12.8283 7.3354 12.7642 7.25466 12.6835C7.17392 12.6028 7.10988 12.5069 7.06618 12.4014C7.02249 12.2959 7 12.1829 7 12.0687C7 11.9545 7.02249 11.8414 7.06618 11.736C7.10988 11.6305 7.17392 11.5346 7.25466 11.4539C7.3354 11.3731 7.43125 11.3091 7.53674 11.2654C7.64223 11.2217 7.75529 11.1992 7.86947 11.1992H28.5471C28.7777 11.1992 28.9989 11.2908 29.1619 11.4539C29.325 11.6169 29.4166 11.8381 29.4166 12.0687C29.4166 12.2993 29.325 12.5204 29.1619 12.6835C28.9989 12.8466 28.7777 12.9382 28.5471 12.9382Z" fill="#648864"/>
</g>
<defs>
<clipPath id="clip0_1630_38552">
<rect width="35" height="35" fill="white" transform="translate(0.5)"/>
</clipPath>
</defs>
</svg>
