<svg width="35" height="35" viewBox="0 0 35 35" fill="none" xmlns="http://www.w3.org/2000/svg">
<g clip-path="url(#clip0_1630_38529)">
<path d="M4.43863 12.0668C5.191 12.0668 5.91257 11.7679 6.44458 11.2359C6.97659 10.7039 7.27547 9.98233 7.27547 9.22996M7.27547 25.9194C7.26578 25.1734 6.96263 24.4614 6.43167 23.9373C5.9007 23.4132 5.18466 23.1194 4.43863 23.1194M30.3018 12.0668C29.5494 12.0668 28.8278 11.7679 28.2958 11.2359C27.7638 10.7039 27.4649 9.98233 27.4649 9.22996M27.4649 25.9194C27.4746 25.1734 27.7778 24.4614 28.3088 23.9373C28.8397 23.4132 29.5557 23.1194 30.3018 23.1194M19.9492 19.9694C19.9675 20.4619 19.8381 20.9487 19.5774 21.3669C19.3168 21.7852 18.9369 22.1159 18.4867 22.3164C18.0365 22.5169 17.5365 22.578 17.0513 22.4919C16.566 22.4058 16.1176 22.1765 15.7639 21.8334C15.4101 21.4902 15.1671 21.049 15.0663 20.5666C14.9654 20.0842 15.0113 19.5827 15.1979 19.1265C15.3846 18.6704 15.7035 18.2806 16.1137 18.0073C16.5238 17.734 17.0063 17.5898 17.4992 17.5931C17.9874 17.5931 18.4646 17.4483 18.8705 17.1771C19.2765 16.9059 19.5929 16.5203 19.7797 16.0693C19.9665 15.6183 20.0154 15.122 19.9202 14.6431C19.8249 14.1643 19.5898 13.7244 19.2446 13.3792C18.8994 13.034 18.4595 12.7989 17.9807 12.7037C17.5019 12.6084 17.0056 12.6573 16.5545 12.8442C16.1035 13.031 15.718 13.3474 15.4467 13.7533C15.1755 14.1592 15.0307 14.6365 15.0307 15.1247M17.4255 11.2747V12.5642M17.4255 22.4379V23.7273M0.920231 9.21155V25.7905C0.920231 27.8252 2.56971 29.4747 4.60444 29.4747H30.3939C32.4286 29.4747 34.0781 27.8252 34.0781 25.7905V9.21155C34.0781 7.17682 32.4286 5.52734 30.3939 5.52734H4.60444C2.56971 5.52734 0.920231 7.17682 0.920231 9.21155Z" stroke="#648864" stroke-width="2" stroke-linecap="round" stroke-linejoin="round"/>
</g>
<defs>
<clipPath id="clip0_1630_38529">
<rect width="35" height="35" fill="white" transform="matrix(-1 0 0 1 35 0)"/>
</clipPath>
</defs>
</svg>
