<svg width="34" height="34" viewBox="0 0 34 34" fill="none" xmlns="http://www.w3.org/2000/svg">
<rect width="34" height="34" rx="8" fill="white"/>
<path d="M22.9505 27H12.1405C11.5034 27 10.8924 26.7469 10.4419 26.2964C9.99137 25.8459 9.73828 25.2349 9.73828 24.5978V13.5716C9.73828 12.9345 9.99137 12.3235 10.4419 11.873C10.8924 11.4225 11.5034 11.1694 12.1405 11.1694H22.9505C23.5876 11.1694 24.1986 11.4225 24.6491 11.873C25.0996 12.3235 25.3527 12.9345 25.3527 13.5716V24.5978C25.3527 25.2349 25.0996 25.8459 24.6491 26.2964C24.1986 26.7469 23.5876 27 22.9505 27ZM12.1405 12.3705C11.8219 12.3705 11.5164 12.4971 11.2912 12.7223C11.0659 12.9476 10.9394 13.2531 10.9394 13.5716V24.5978C10.9394 24.9163 11.0659 25.2218 11.2912 25.4471C11.5164 25.6723 11.8219 25.7989 12.1405 25.7989H22.9505C23.269 25.7989 23.5745 25.6723 23.7998 25.4471C24.025 25.2218 24.1516 24.9163 24.1516 24.5978V13.5716C24.1516 13.2531 24.025 12.9476 23.7998 12.7223C23.5745 12.4971 23.269 12.3705 22.9505 12.3705H12.1405ZM21.4971 11.1694H20.296C20.3209 10.7937 20.2683 10.4169 20.1417 10.0624C20.015 9.70782 19.8169 9.38304 19.5596 9.10816C19.3023 8.83328 18.9913 8.61414 18.6459 8.46433C18.3005 8.31452 17.928 8.23722 17.5515 8.23722C17.175 8.23722 16.8025 8.31452 16.4571 8.46433C16.1116 8.61414 15.8006 8.83328 15.5434 9.10816C15.2861 9.38304 15.088 9.70782 14.9613 10.0624C14.8346 10.4169 14.7821 10.7937 14.8069 11.1694H13.6058C13.5762 10.633 13.6563 10.0961 13.8412 9.59164C14.0262 9.08719 14.312 8.62574 14.6813 8.2355C15.0506 7.84526 15.4956 7.53442 15.9891 7.32199C16.4826 7.10956 17.0142 7 17.5515 7C18.0888 7 18.6204 7.10956 19.1139 7.32199C19.6074 7.53442 20.0524 7.84526 20.4217 8.2355C20.791 8.62574 21.0768 9.08719 21.2617 9.59164C21.4466 10.0961 21.5267 10.633 21.4971 11.1694Z" fill="#6B6B6B"/>
</svg>
