<svg width="34" height="34" viewBox="0 0 34 34" fill="none" xmlns="http://www.w3.org/2000/svg">
<rect width="34" height="34" rx="8" fill="white"/>
<path d="M17 25.4667C17 25.4667 26 21.1567 26 14.6067C25.9922 13.5364 25.6217 12.5005 24.9489 11.668C24.2762 10.8356 23.341 10.256 22.2962 10.0238C21.2514 9.79159 20.1587 9.92062 19.1968 10.3898C18.2348 10.8589 17.4603 11.6405 17 12.6067C16.5397 11.6405 15.7652 10.8589 14.8032 10.3898C13.8413 9.92062 12.7486 9.79159 11.7038 10.0238C10.659 10.256 9.72381 10.8356 9.05107 11.668C8.37833 12.5005 8.00779 13.5364 8 14.6067C8 21.1567 17 25.4667 17 25.4667Z" stroke="#6B6B6B" stroke-width="1.33333" stroke-linecap="round" stroke-linejoin="round"/>
</svg>
