<svg width="22" height="22" viewBox="0 0 22 22" fill="none" xmlns="http://www.w3.org/2000/svg">
<path d="M4.3942 13.6291H5.53494M8.38679 13.6291H9.52753M12.3794 13.6291H13.5201M16.372 13.6291H17.5127M12.6874 7.61572H17.8892M21.2658 5.9234V16.0772C21.2658 17.3234 20.2443 18.3337 18.9843 18.3337H3.0139C1.75387 18.3337 0.732422 17.3234 0.732422 16.0772V5.9234C0.732422 4.67722 1.75387 3.66699 3.0139 3.66699H18.9843C20.2443 3.66699 21.2658 4.67722 21.2658 5.9234ZM7.81642 8.55213C7.81642 9.48677 7.05033 10.2444 6.10531 10.2444C5.16029 10.2444 4.3942 9.48677 4.3942 8.55213C4.3942 7.6175 5.16029 6.85982 6.10531 6.85982C7.05033 6.85982 7.81642 7.6175 7.81642 8.55213Z" stroke="#1A1A1A" stroke-width="1.1" stroke-linecap="round" stroke-linejoin="round"/>
</svg>
