<svg width="22" height="22" viewBox="0 0 22 22" fill="none" xmlns="http://www.w3.org/2000/svg">
<g clip-path="url(#clip0_202_23362)">
<path d="M11.215 21.9445C11.1135 22.0025 10.853 21.951 10.737 21.8838C7.69876 20.139 4.66213 18.3916 1.6271 16.6417C1.40688 16.5144 1.37305 16.2549 1.37305 15.9912C1.37305 12.5906 1.37305 9.19016 1.37305 5.7899C1.37305 5.54014 1.48101 5.38116 1.70552 5.25172C4.70151 3.52473 7.69769 1.79792 10.694 0.0712956C10.9647 -0.0844661 11.1758 -0.029681 11.4508 0.128766C14.4103 1.83749 17.3687 3.54818 20.326 5.26085C20.5457 5.38814 20.6682 5.56055 20.6682 5.81085C20.6689 9.2863 20.6691 12.7616 20.6687 16.2367C20.6687 16.422 20.5253 16.5992 20.354 16.6981C17.3089 18.449 14.2626 20.1979 11.215 21.9445ZM8.24214 2.81592C8.23879 2.81786 8.23601 2.82064 8.23408 2.82398C8.23215 2.82733 8.23113 2.83113 8.23113 2.83499C8.23113 2.83886 8.23215 2.84265 8.23408 2.846C8.23601 2.84935 8.23879 2.85213 8.24214 2.85406L16.1054 7.38404C16.1088 7.38607 16.1127 7.38715 16.1167 7.38715C16.1207 7.38715 16.1246 7.38607 16.128 7.38404L18.8748 5.77701C18.8781 5.77508 18.8809 5.7723 18.8828 5.76895C18.8847 5.7656 18.8858 5.76181 18.8858 5.75794C18.8858 5.75408 18.8847 5.75028 18.8828 5.74693C18.8809 5.74359 18.8781 5.74081 18.8748 5.73887L11.0147 1.20889C11.0113 1.20686 11.0074 1.20579 11.0034 1.20579C10.9994 1.20579 10.9955 1.20686 10.9921 1.20889L8.24214 2.81592ZM14.956 8.05972C14.9604 8.05723 14.964 8.05364 14.9665 8.0493C14.969 8.04496 14.9703 8.04003 14.9703 8.03502C14.9703 8.03 14.969 8.02508 14.9665 8.02074C14.964 8.0164 14.9604 8.0128 14.956 8.01031L7.10776 3.48892C7.10337 3.48632 7.09836 3.48495 7.09326 3.48495C7.08816 3.48495 7.08315 3.48632 7.07876 3.48892L3.13853 5.7754C3.13417 5.77789 3.13055 5.78149 3.12804 5.78582C3.12552 5.79016 3.1242 5.79509 3.1242 5.8001C3.1242 5.80512 3.12552 5.81005 3.12804 5.81439C3.13055 5.81872 3.13417 5.82232 3.13853 5.82481L10.9889 10.3473C10.9933 10.3499 10.9983 10.3512 11.0034 10.3512C11.0085 10.3512 11.0135 10.3499 11.0179 10.3473L14.956 8.05972ZM10.4368 11.3049C10.4368 11.3021 10.436 11.2993 10.4346 11.2969C10.4332 11.2944 10.4312 11.2924 10.4287 11.291L2.56489 6.76207C2.56244 6.76065 2.55966 6.75991 2.55683 6.75991C2.554 6.75991 2.55122 6.76066 2.54877 6.76207C2.54632 6.76349 2.54429 6.76552 2.54288 6.76797C2.54146 6.77042 2.54072 6.7732 2.54072 6.77603L2.54126 15.8919C2.54126 15.8947 2.542 15.8975 2.54342 15.8999C2.54483 15.9024 2.54687 15.9044 2.54932 15.9058L10.4126 20.4342C10.415 20.4356 10.4178 20.4363 10.4207 20.4363C10.4235 20.4363 10.4263 20.4356 10.4287 20.4342C10.4312 20.4328 10.4332 20.4307 10.4346 20.4283C10.436 20.4258 10.4368 20.4231 10.4368 20.4202V11.3049ZM16.6726 8.48941C16.669 8.49765 16.6672 8.50642 16.6672 8.51573C16.668 10.0866 16.6676 11.6576 16.6662 13.2289C16.6656 13.8686 15.8465 14.07 15.6097 13.4937C15.571 13.3998 15.5517 13.2382 15.5517 13.0087C15.5524 11.6881 15.5531 10.3704 15.5538 9.05553C15.5539 9.05243 15.5531 9.04938 15.5516 9.04669C15.55 9.04399 15.5478 9.04175 15.5451 9.04017C15.5424 9.0386 15.5393 9.03775 15.5361 9.03771C15.5329 9.03767 15.5298 9.03844 15.527 9.03995L11.5889 11.2856C11.5728 11.2946 11.5647 11.3082 11.5647 11.3264V20.4132C11.5647 20.4387 11.5756 20.4451 11.5975 20.4326L19.4355 15.916C19.443 15.9118 19.4492 15.9056 19.4536 15.8981C19.4579 15.8905 19.4602 15.8819 19.4602 15.8731L19.4607 6.79644C19.4607 6.76565 19.4473 6.75795 19.4205 6.77335C18.5263 7.29649 17.6319 7.81964 16.7371 8.34278C16.6833 8.37429 16.6626 8.41296 16.6748 8.4588C16.6776 8.46918 16.6769 8.47939 16.6726 8.48941Z" fill="#1A1A1A"/>
</g>
<defs>
<clipPath id="clip0_202_23362">
<rect width="22" height="22" fill="white"/>
</clipPath>
</defs>
</svg>
