<svg width="22" height="22" viewBox="0 0 22 22" fill="none" xmlns="http://www.w3.org/2000/svg">
<path d="M10.9996 20.3133C10.9996 20.3133 20.8996 15.5723 20.8996 8.36728C20.891 7.18999 20.4834 6.05041 19.7434 5.13474C19.0034 4.21907 17.9747 3.58145 16.8254 3.32605C15.6761 3.07066 14.4742 3.21259 13.416 3.72866C12.3579 4.24473 11.506 5.10442 10.9996 6.16728C10.4932 5.10442 9.64135 4.24473 8.58317 3.72866C7.52499 3.21259 6.32307 3.07066 5.17379 3.32605C4.0245 3.58145 2.99581 4.21907 2.25579 5.13474C1.51577 6.05041 1.10818 7.18999 1.09961 8.36728C1.09961 15.5723 10.9996 20.3133 10.9996 20.3133Z" stroke="#1C1C1E" stroke-width="1.5" stroke-linecap="round" stroke-linejoin="round"/>
</svg>
