<svg width="22" height="22" viewBox="0 0 22 22" fill="none" xmlns="http://www.w3.org/2000/svg">
<path d="M10.8971 10.8706C13.5245 10.8706 15.6544 8.74065 15.6544 6.11326C15.6544 3.48587 13.5245 1.35596 10.8971 1.35596C8.26974 1.35596 6.13982 3.48587 6.13982 6.11326C6.13982 8.74065 8.26974 10.8706 10.8971 10.8706Z" stroke="#1C1C1E" stroke-width="1.5" stroke-linecap="round" stroke-linejoin="round"/>
<path d="M16.3086 20.6111C16.9331 20.5978 17.5431 20.4207 18.0776 20.0977C18.6122 19.7747 19.0526 19.3169 19.3548 18.7703C19.657 18.2237 19.8104 17.6073 19.7997 16.9828C19.789 16.3583 19.6145 15.7475 19.2938 15.2116C18.4472 13.8754 17.2766 12.7748 15.8908 12.0123C14.5049 11.2497 12.9488 10.8498 11.3669 10.8498C9.78512 10.8498 8.22896 11.2497 6.84309 12.0123C5.45723 12.7748 4.28663 13.8754 3.44008 15.2116C3.1193 15.7475 2.94483 16.3583 2.93412 16.9828C2.92341 17.6073 3.07682 18.2237 3.37903 18.7703C3.68123 19.3169 4.12165 19.7747 4.65622 20.0977C5.1908 20.4207 5.8008 20.5978 6.42526 20.6111H16.3086Z" stroke="#1C1C1E" stroke-width="1.5" stroke-linecap="round" stroke-linejoin="round"/>
</svg>
