<svg width="22" height="23" viewBox="0 0 22 23" fill="none" xmlns="http://www.w3.org/2000/svg">
<path d="M11.0908 1.47266C8.92323 1.56424 6.87082 2.52962 5.35422 4.17094C3.83763 5.81226 2.97172 8.00521 2.93396 10.3004C2.91991 11.8944 3.313 13.4628 4.07173 14.8399C4.83045 16.2171 5.92661 17.3518 7.24441 18.1242C8.75171 18.962 10.1402 20.0199 11.3692 21.2668C12.6 20.0221 13.9882 18.9645 15.4941 18.1242C17.1411 17.1508 18.4307 15.6194 19.1554 13.7763C19.8801 11.9333 19.9977 9.88592 19.4894 7.96357C18.981 6.04123 17.8763 4.35575 16.3529 3.17837C14.8295 2.001 12.9761 1.4002 11.0908 1.47266ZM11.3383 12.5046C10.9284 12.5154 10.5247 12.3967 10.1788 12.1636C9.83292 11.9305 9.56057 11.5935 9.39653 11.1958C9.2325 10.7981 9.18422 10.3577 9.25788 9.93086C9.33154 9.50399 9.52379 9.11006 9.81006 8.79936C10.0963 8.48867 10.4636 8.27533 10.8651 8.1866C11.2665 8.09788 11.6838 8.13779 12.0636 8.30124C12.4435 8.46469 12.7687 8.74427 12.9977 9.10425C13.2267 9.46422 13.3491 9.88826 13.3492 10.3222C13.3414 10.886 13.1276 11.4247 12.7527 11.8254C12.3779 12.2261 11.871 12.4578 11.3383 12.4718V12.5046Z" stroke="#1C1C1E" stroke-width="1.5" stroke-linecap="round" stroke-linejoin="round"/>
</svg>
