<svg width="21" height="21" viewBox="0 0 21 21" fill="none" xmlns="http://www.w3.org/2000/svg">
<g clip-path="url(#clip0_2089_33920)">
<path d="M10.4992 20.2992C15.9116 20.2992 20.2992 15.9116 20.2992 10.4992C20.2992 5.08683 15.9116 0.699219 10.4992 0.699219C5.08683 0.699219 0.699219 5.08683 0.699219 10.4992C0.699219 15.9116 5.08683 20.2992 10.4992 20.2992Z" stroke="#1C1C1E" stroke-width="1.5" stroke-linecap="round" stroke-linejoin="round"/>
<path d="M9.60494 12.8871V12.8274C9.61157 12.1944 9.67785 11.6906 9.8038 11.3161C9.92975 10.9415 10.1087 10.6383 10.3407 10.4063C10.5727 10.1742 10.8511 9.96046 11.176 9.76491C11.3715 9.6456 11.5472 9.50473 11.7029 9.34233C11.8587 9.17661 11.9814 8.98603 12.0708 8.7706C12.1636 8.55516 12.2101 8.31652 12.2101 8.05469C12.2101 7.72988 12.1338 7.44815 11.9814 7.20952C11.8289 6.97088 11.6251 6.78693 11.3699 6.65767C11.1146 6.52841 10.8313 6.46378 10.5197 6.46378C10.2479 6.46378 9.98609 6.52012 9.7342 6.63281C9.4823 6.7455 9.27184 6.92282 9.10281 7.16477C8.93377 7.40672 8.836 7.72325 8.80948 8.11435H7.55664C7.58316 7.5509 7.72899 7.06866 7.99414 6.66761C8.26261 6.26657 8.61559 5.95999 9.05309 5.74787C9.4939 5.53575 9.98278 5.42969 10.5197 5.42969C11.103 5.42969 11.6101 5.54569 12.041 5.7777C12.4752 6.00971 12.81 6.32789 13.0453 6.73224C13.2839 7.1366 13.4032 7.5973 13.4032 8.11435C13.4032 8.47893 13.3469 8.80871 13.2342 9.10369C13.1248 9.39867 12.9657 9.66217 12.7569 9.89418C12.5514 10.1262 12.3029 10.3317 12.0112 10.5107C11.7195 10.6929 11.4859 10.8852 11.3102 11.0874C11.1345 11.2862 11.0069 11.5232 10.9274 11.7983C10.8478 12.0734 10.8047 12.4164 10.7981 12.8274V12.8871H9.60494ZM10.2413 15.8303C9.99603 15.8303 9.78557 15.7424 9.60991 15.5668C9.43424 15.3911 9.34641 15.1806 9.34641 14.9354C9.34641 14.6901 9.43424 14.4796 9.60991 14.304C9.78557 14.1283 9.99603 14.0405 10.2413 14.0405C10.4866 14.0405 10.697 14.1283 10.8727 14.304C11.0484 14.4796 11.1362 14.6901 11.1362 14.9354C11.1362 15.0978 11.0948 15.2469 11.0119 15.3828C10.9324 15.5187 10.8246 15.6281 10.6887 15.7109C10.5562 15.7905 10.407 15.8303 10.2413 15.8303Z" fill="#1A1A1A"/>
</g>
<defs>
<clipPath id="clip0_2089_33920">
<rect width="21" height="21" fill="white"/>
</clipPath>
</defs>
</svg>
