<svg width="15" height="16" viewBox="0 0 15 16" fill="none" xmlns="http://www.w3.org/2000/svg">
<path d="M12.2725 4.2863C12.5654 3.99341 12.5654 3.51854 12.2725 3.22564C11.9796 2.93275 11.5048 2.93275 11.2119 3.22564L2.72658 11.7109C2.43368 12.0038 2.43368 12.4787 2.72658 12.7716C3.01947 13.0645 3.49434 13.0645 3.78724 12.7716L12.2725 4.2863Z" fill="#1A1A1A"/>
<path d="M12.2734 11.7109L3.78814 3.22564C3.49525 2.93275 3.02038 2.93275 2.72748 3.22564C2.43459 3.51854 2.43459 3.99341 2.72748 4.2863L11.2128 12.7716C11.5057 13.0645 11.9805 13.0645 12.2734 12.7716C12.5663 12.4787 12.5663 12.0038 12.2734 11.7109Z" fill="#1A1A1A"/>
</svg>
