<svg width="20" height="20" viewBox="0 0 20 20" fill="none" xmlns="http://www.w3.org/2000/svg">
<g clip-path="url(#clip0_2109_34057)">
<path d="M0.832463 6.72118V3.94074C0.825574 3.53091 0.901212 3.12388 1.05488 2.74389C1.20855 2.3639 1.43709 2.01872 1.72692 1.72889C2.01675 1.43905 2.36195 1.2105 2.74194 1.05683C3.12193 0.903165 3.52896 0.827527 3.93879 0.834416H16.0586C16.8816 0.837101 17.6702 1.16523 18.2521 1.74719C18.8341 2.32916 19.1622 3.11771 19.1649 3.94074V16.0605C19.1718 16.4704 19.0962 16.8774 18.9425 17.2574C18.7888 17.6374 18.5603 17.9826 18.2704 18.2724C17.9806 18.5622 17.6354 18.7908 17.2554 18.9445C16.8754 19.0981 16.4684 19.1738 16.0586 19.1669H3.93879C3.52896 19.1738 3.12193 19.0981 2.74194 18.9445C2.36195 18.7908 2.01675 18.5622 1.72692 18.2724C1.43709 17.9826 1.20855 17.6374 1.05488 17.2574C0.901212 16.8774 0.825574 16.4704 0.832463 16.0605V13.2801M9.33668 5.61104L4.14248 10.0618L9.18391 14.3903M4.14248 10.0821H15.8549" stroke="#648864" stroke-linecap="round" stroke-linejoin="round"/>
</g>
<defs>
<clipPath id="clip0_2109_34057">
<rect width="20" height="20" fill="white"/>
</clipPath>
</defs>
</svg>
