<svg width="20" height="6" viewBox="0 0 20 6" fill="none" xmlns="http://www.w3.org/2000/svg">
<g clip-path="url(#clip0_202_29385)">
<path d="M4.21769 3.06847C4.21769 1.84398 3.26531 0.891602 2.17687 0.891602C0.952381 0.891602 0 1.84398 0 3.06847C0 4.29296 0.952381 5.24534 2.17687 5.24534C3.26531 5.10929 4.21769 4.15691 4.21769 3.06847ZM12.1088 3.06847C12.1088 1.84398 11.1565 0.891602 10.068 0.891602C8.84354 0.891602 7.89116 1.84398 7.89116 3.06847C7.89116 4.29296 8.84354 5.24534 10.068 5.24534C11.1565 5.10929 12.1088 4.15691 12.1088 3.06847ZM20 3.06847C20 1.84398 19.0476 0.891602 17.9592 0.891602C16.7347 0.891602 15.7823 1.84398 15.7823 3.06847C15.7823 4.29296 16.7347 5.24534 17.9592 5.24534C19.0476 5.10929 20 4.15691 20 3.06847Z" fill="#323232"/>
</g>
<defs>
<clipPath id="clip0_202_29385">
<rect width="20" height="4.21769" fill="white" transform="translate(0 0.891602)"/>
</clipPath>
</defs>
</svg>
