<svg width="15" height="15" viewBox="0 0 15 15" fill="none" xmlns="http://www.w3.org/2000/svg">
<g clip-path="url(#clip0_202_25073)">
<path d="M8.25 1.5C8.25 1.08579 7.91421 0.75 7.5 0.75C7.08579 0.75 6.75 1.08579 6.75 1.5V13.5C6.75 13.9142 7.08579 14.25 7.5 14.25C7.91421 14.25 8.25 13.9142 8.25 13.5V1.5Z" fill="#648864"/>
<path d="M13.5 6.75H1.5C1.08579 6.75 0.75 7.08579 0.75 7.5C0.75 7.91421 1.08579 8.25 1.5 8.25H13.5C13.9142 8.25 14.25 7.91421 14.25 7.5C14.25 7.08579 13.9142 6.75 13.5 6.75Z" fill="#648864"/>
</g>
<defs>
<clipPath id="clip0_202_25073">
<rect width="15" height="15" fill="white"/>
</clipPath>
</defs>
</svg>
