<svg width="50" height="50" viewBox="0 0 50 50" fill="none" xmlns="http://www.w3.org/2000/svg">
<g clip-path="url(#clip0_2101_34029)">
<path d="M24.5127 0H25.5127C32.8555 0.161133 39.1895 3.85547 42.3487 10.6035C43.9278 13.9775 44.624 17.8906 44.5303 21.6807C44.5069 22.6208 44.3177 23.543 43.9629 24.4473C43.9623 24.4492 43.8233 24.7448 43.5459 25.334C43.0303 26.4307 42.7373 27.9766 43.1377 29.1504C43.4971 30.208 44.3399 30.8281 44.9502 31.6973C46.4424 33.8213 46.3789 36.5908 45.3858 38.9443C45.2543 39.2549 45.1227 39.5651 44.9912 39.875C44.4004 41.2656 44.2324 43.0674 45.2686 44.3086C45.6273 44.7389 45.9463 45.0703 46.2256 45.3027C47.3454 46.2376 48.0612 47.4098 48.3731 48.8193C48.503 49.4082 48.3867 49.8457 47.7686 50H47.5313C47.1712 49.9095 46.9619 49.7217 46.9033 49.4365C46.6599 48.2529 46.1332 47.2998 45.3233 46.5771C44.1768 45.5537 43.2637 44.5713 43.0225 42.9932C42.8623 41.9398 42.9691 40.8626 43.3428 39.7617C43.5381 39.1875 43.9463 38.4307 44.166 37.7695C44.7119 36.127 44.753 34.0684 43.6709 32.5781C43.6019 32.4837 43.3591 32.2178 42.9424 31.7803C41.3096 30.0654 41.0322 27.5967 41.8213 25.4209C41.8688 25.2894 42.0228 24.9466 42.2832 24.3926C42.6797 23.5498 42.9375 22.627 42.9629 21.7529C43.2266 12.5693 38.6104 3.85254 28.9766 1.95801C20.877 0.365234 12.6319 3.56836 9.04104 11.3623C7.58596 14.5205 6.96877 18.0479 7.02639 21.5586C7.03811 22.2565 7.16018 22.9427 7.3926 23.6172C7.42646 23.7161 7.5954 24.0902 7.89944 24.7393C9.03616 27.167 8.84182 29.8994 6.96682 31.8701C6.61982 32.2341 6.39879 32.4841 6.30373 32.6201C5.1719 34.2354 5.29592 36.3896 5.96975 38.1562C5.97105 38.1602 6.10191 38.4495 6.36233 39.0244C7.2051 40.8848 7.4092 43.4453 6.08401 45.1201C5.60614 45.7243 5.22691 46.1354 4.94631 46.3535C3.98277 47.1016 3.37795 48.0661 3.13186 49.2471C3.04788 49.6484 2.91897 49.8652 2.54788 50H2.13186C1.69696 49.8294 1.50784 49.5449 1.56448 49.1465C1.72854 47.9928 2.20901 46.9616 3.00588 46.0527C3.43752 45.5596 4.31936 44.8604 4.85256 44.1602C5.64944 43.1123 5.57424 41.6074 5.21487 40.4062C5.1745 40.2708 5.00946 39.8763 4.71975 39.2227C3.49807 36.4668 3.46877 33.167 5.71389 30.9102C5.96324 30.6602 6.25491 30.277 6.58889 29.7607C7.23147 28.7666 7.10061 27.1572 6.74124 26.0586C6.70543 25.9499 6.53453 25.5645 6.22854 24.9023C5.32327 22.9434 5.39553 20.9756 5.55276 18.7988C6.14358 10.6387 10.6992 3.28516 18.8447 0.87207C20.6605 0.33431 22.5498 0.0436198 24.5127 0Z" fill="black"/>
<path d="M38.2045 19.5005C34.0365 19.1977 30.5834 17.061 28.4633 13.5151C28.3275 13.2876 28.1654 12.9331 28.0072 12.6469C27.987 12.6105 27.9639 12.6082 27.9379 12.6401C25.9906 14.9829 23.3314 16.5083 20.5053 17.5161C17.6823 18.5232 14.7777 19.171 11.7914 19.4594C11.7771 19.4607 11.7639 19.4674 11.7545 19.4781C11.745 19.4888 11.74 19.5028 11.7406 19.5171C11.8002 21.7173 12.0756 23.9301 12.4496 26.0258C12.4945 26.2804 12.4974 26.4754 12.4584 26.6108C12.225 27.4116 11.1 27.3061 10.9447 26.4897C10.5111 24.2013 10.2553 21.8491 10.1771 19.4331C10.1469 18.4819 10.1049 18.0424 11.1449 17.9467C14.848 17.6059 18.7377 16.7495 22.181 15.0981C23.2409 14.589 24.2286 13.9663 25.1439 13.2299C26.0352 12.5119 26.8187 11.5942 27.4945 10.477C27.725 10.0981 28.3803 10.0473 28.6869 10.3882C28.7605 10.4702 28.8415 10.6342 28.9301 10.8803C30.4398 15.0835 34.2924 17.8852 38.7719 17.9682C39.4955 17.9819 39.8558 18.1635 39.8383 18.9214C39.7719 21.769 39.4463 24.617 38.8617 27.4653C38.7533 27.9975 38.2338 28.2729 37.7387 28.0376C37.2787 27.8188 37.2904 27.3667 37.3871 26.8901C37.8754 24.4715 38.1661 22.0288 38.2592 19.562C38.2611 19.5242 38.2429 19.5037 38.2045 19.5005Z" fill="black"/>
<path d="M20.1072 24.8367C20.5479 24.6447 20.8901 24.3494 21.1335 23.951C21.2572 23.7492 21.364 23.6177 21.4539 23.5565C21.9265 23.2352 22.6687 23.5985 22.6599 24.1932C22.6573 24.3546 22.5925 24.5418 22.4656 24.7547C21.922 25.6688 21.1147 26.2485 20.0437 26.494C18.7331 26.7938 17.3367 25.9022 16.6667 24.8768C16.5001 24.6209 16.4122 24.3966 16.4031 24.2039C16.3757 23.6297 17.1257 23.2264 17.6023 23.5516C17.6882 23.6102 17.8044 23.756 17.9509 23.9891C18.3025 24.5457 18.8204 24.883 19.5046 25.0008C19.6127 25.019 19.8136 24.9643 20.1072 24.8367Z" fill="black"/>
<path d="M28.4224 23.5049C28.7945 23.6563 28.9244 24.1143 29.2076 24.3848C30.0325 25.1745 30.8665 25.18 31.7096 24.4014C31.9576 24.1729 32.0719 23.8184 32.314 23.6191C32.6422 23.3496 32.9762 23.3483 33.316 23.6152C33.7008 23.917 33.6295 24.3838 33.3912 24.7783C32.7262 25.875 31.2808 26.8086 29.9303 26.4941C28.9042 26.2552 28.1044 25.6784 27.5308 24.7637C27.2893 24.3783 27.2841 24.0371 27.5152 23.7402C27.7408 23.4502 28.0836 23.3672 28.4224 23.5049Z" fill="black"/>
<path d="M16.2306 32.8221C14.8947 33.0067 14.3224 34.7215 14.0939 35.826C14.0275 36.1444 13.9484 36.3586 13.8566 36.4686C13.5636 36.8202 12.9054 36.7899 12.6398 36.3895C12.5792 36.2983 12.5268 36.1359 12.4826 35.9022C12.257 34.7215 11.6779 32.9588 10.2423 32.8094C9.99948 32.7847 9.83444 32.7472 9.74721 32.6971C9.2726 32.4266 9.25013 31.6434 9.73256 31.3729C9.80157 31.3338 9.99297 31.2896 10.3068 31.2401C11.6417 31.0301 12.2355 29.4237 12.4591 28.2723C12.5223 27.9468 12.5965 27.7287 12.6818 27.618C12.965 27.2498 13.6437 27.2557 13.9162 27.6649C13.976 27.7554 14.0288 27.9152 14.0744 28.1444C14.2882 29.2274 14.7677 30.7655 15.9415 31.1776C16.1134 31.2381 16.3214 31.2381 16.5187 31.2655C17.257 31.3641 17.424 32.3914 16.7912 32.7127C16.7326 32.7427 16.5457 32.7791 16.2306 32.8221ZM13.2492 30.7108C12.9972 31.1971 12.6714 31.6268 12.2716 31.9998C12.2672 32.0038 12.2637 32.0086 12.2613 32.014C12.2589 32.0194 12.2577 32.0252 12.2577 32.0311C12.2577 32.037 12.2589 32.0428 12.2613 32.0482C12.2637 32.0536 12.2672 32.0584 12.2716 32.0623C12.6727 32.4354 12.9985 32.8654 13.2492 33.3524C13.2522 33.358 13.2568 33.3627 13.2623 33.366C13.2678 33.3693 13.2741 33.3711 13.2804 33.3711C13.2868 33.3711 13.293 33.3693 13.2983 33.366C13.3036 33.3627 13.3079 33.358 13.3107 33.3524C13.5581 32.87 13.8803 32.4442 14.2775 32.075C14.3094 32.0457 14.3094 32.0164 14.2775 31.9872C13.8816 31.618 13.5597 31.1929 13.3117 30.7118C13.3088 30.706 13.3044 30.7011 13.2989 30.6976C13.2935 30.6942 13.2872 30.6923 13.2807 30.6922C13.2742 30.6921 13.2679 30.6938 13.2623 30.6971C13.2568 30.7003 13.2522 30.7051 13.2492 30.7108Z" fill="black"/>
<path d="M40.4307 35.1634C38.6426 35.3255 37.8233 37.4759 37.5294 38.9603C37.4701 39.261 37.3998 39.4638 37.3184 39.5687C37.0313 39.9417 36.3653 39.9231 36.0919 39.5345C36.0209 39.4336 35.9587 39.2412 35.9053 38.9573C35.6368 37.5315 34.8243 35.4056 33.1036 35.1956C32.9903 35.1813 32.877 35.1666 32.7637 35.1517C31.9952 35.0462 31.7364 34.0384 32.4249 33.6927C32.5037 33.6536 32.6915 33.6185 32.9884 33.5872C34.8165 33.3978 35.5792 31.3382 35.9034 29.8001C35.9711 29.4791 36.0515 29.2633 36.1446 29.1526C36.4385 28.805 37.0977 28.8353 37.3604 29.2366C37.419 29.3271 37.4714 29.4889 37.5176 29.722C37.8116 31.22 38.6632 33.5335 40.5372 33.5862C41.1104 33.6019 41.5098 34.012 41.3829 34.5706C41.2774 35.0403 40.9044 35.1204 40.4307 35.1634ZM36.7462 36.3772C37.0977 35.609 37.5981 34.955 38.2471 34.4153C38.2784 34.3886 38.2784 34.3623 38.2471 34.3362C37.5928 33.7907 37.0893 33.1302 36.7364 32.3548C36.7348 32.3515 36.7323 32.3487 36.7292 32.3467C36.7261 32.3448 36.7225 32.3438 36.7188 32.3438C36.7152 32.3438 36.7116 32.3448 36.7084 32.3467C36.7053 32.3487 36.7028 32.3515 36.7012 32.3548C36.3464 33.1295 35.8432 33.7903 35.1915 34.3372C35.1609 34.3632 35.1609 34.389 35.1915 34.4144C35.8386 34.9554 36.3389 35.6097 36.6925 36.3772C36.6947 36.3825 36.6985 36.3869 36.7033 36.39C36.708 36.3932 36.7136 36.3948 36.7193 36.3948C36.725 36.3948 36.7306 36.3932 36.7354 36.39C36.7401 36.3869 36.7439 36.3825 36.7462 36.3772Z" fill="black"/>
<path d="M20.9775 32.346C21.9853 33.0989 23.126 33.5267 24.3896 33.5726C24.6605 33.5823 24.9319 33.5888 25.2041 33.5921C26.6191 33.6058 27.9189 33.1859 29.041 32.3314C29.2617 32.1634 29.4427 32.0677 29.584 32.0443C30.123 31.9525 30.624 32.553 30.4228 33.0716C30.3649 33.2207 30.2308 33.3773 30.0205 33.5413C28.777 34.5094 27.3555 35.0462 25.7558 35.1517C23.667 35.2894 21.7392 34.8763 20.0517 33.598C19.7959 33.404 19.6351 33.2191 19.5693 33.0433C19.3857 32.5491 19.8974 31.9398 20.4346 32.0452C20.5615 32.07 20.7425 32.1702 20.9775 32.346Z" fill="black"/>
<path d="M7.15148 49.9991H6.91222C6.29796 49.8262 6.19444 49.3975 6.3253 48.8086C6.56228 47.737 7.04145 46.7956 7.7628 45.9844C8.47374 45.1827 9.36241 44.6407 9.85362 43.6348C10.3194 42.6807 10.2159 41.3331 9.89562 40.3545C9.69444 39.7413 9.31847 39.0411 9.12999 38.5157C8.72244 37.3835 8.54438 36.2715 8.59581 35.1797C8.64659 34.0957 10.172 34.0801 10.1564 35.2959C10.142 36.4372 10.3471 37.4799 10.7716 38.4239C11.1101 39.1758 11.3234 39.6986 11.4112 39.9922C11.878 41.5518 11.8956 43.2901 11.0548 44.7208C10.7006 45.323 10.1485 45.9437 9.39855 46.5831C8.54503 47.3103 8.02355 48.1882 7.83409 49.2168C7.75467 49.6472 7.52713 49.9079 7.15148 49.9991Z" fill="black"/>
<path d="M33.7063 49.9997H33.4661C30.222 48.947 28.9505 45.4792 28.8997 42.3825C28.899 42.3506 28.8837 42.3396 28.8538 42.3493C26.2867 43.1788 23.7184 43.1797 21.1487 42.3523C21.1142 42.3412 21.0966 42.3539 21.096 42.3903C21.0452 45.5173 19.7649 48.9411 16.5257 49.9997H16.2815C15.8173 49.8728 15.5979 49.5883 15.6233 49.1462C15.6448 48.7702 15.9124 48.5808 16.2698 48.4402C18.845 47.4284 19.6458 44.1413 19.5208 41.6814C19.5195 41.6495 19.5052 41.626 19.4778 41.6111C17.5686 40.5476 16.0296 38.9763 14.8391 37.1589C14.5266 36.6814 14.7972 36.0466 15.3499 35.948C15.7454 35.8767 15.9895 36.0769 16.2171 36.4089C17.1184 37.7175 18.1516 38.8679 19.4505 39.7536C21.4612 41.1237 23.9407 41.6189 26.3323 41.323C28.9007 41.0056 31.1897 39.7038 32.8225 37.695C33.0055 37.4698 33.1627 37.3272 33.2942 37.2673C33.9993 36.948 34.6849 37.8122 34.2317 38.4284C33.2793 39.7247 32.0423 40.7826 30.5208 41.6023C30.4915 41.6185 30.4759 41.6433 30.4739 41.6765C30.3528 44.1081 31.1224 47.3259 33.6302 48.3972C33.9283 48.5248 34.1152 48.629 34.1907 48.7097C34.6097 49.1609 34.2972 49.8611 33.7063 49.9997Z" fill="black"/>
<path d="M43.0792 50.0003H42.8409C42.2227 49.8528 42.2032 49.3646 42.0597 48.8528C41.811 47.9661 41.3904 47.2578 40.7979 46.7278C39.4571 45.5267 38.4141 44.4778 38.296 42.554C38.1973 40.9446 38.6016 39.7093 39.2784 38.305C39.4555 37.9371 39.601 37.4284 39.7149 36.7786C39.7612 36.5162 39.8324 36.3268 39.9288 36.2103C40.4493 35.5814 41.4112 36.0882 41.2804 36.8899C41.1456 37.7077 40.907 38.5006 40.5645 39.2688C40.2852 39.8945 40.1225 40.2871 40.0763 40.4466C39.7032 41.7298 39.6729 43.2093 40.5548 44.2855C40.8588 44.6565 41.1934 44.9974 41.5587 45.3079C42.6641 46.248 43.3712 47.4189 43.6798 48.8206C43.8087 49.4095 43.6954 49.8401 43.0792 50.0003Z" fill="black"/>
<path d="M38.3645 50.0001H38.1526C37.6926 49.8887 37.5686 49.6329 37.468 49.1641C37.2538 48.1758 36.7968 47.3598 36.0969 46.7159C35.4837 46.1514 35.0921 45.7781 34.9221 45.5958C33.9006 44.502 33.4631 43.1143 33.6038 41.5811C33.6337 41.2582 33.7018 41.0238 33.8079 40.878C34.1087 40.4649 34.8958 40.543 35.1087 41.0342C35.2463 41.3526 35.1516 41.919 35.1565 42.3096C35.1731 43.7364 36.0374 44.5684 37.0286 45.4551C38.0351 46.3562 38.6874 47.4665 38.9856 48.7862C39.1243 49.3956 39.0178 49.8467 38.3645 50.0001Z" fill="black"/>
<path d="M11.837 50.0005H11.5997C10.9855 49.8276 10.8819 49.3979 11.0128 48.8091C11.2517 47.7335 11.7335 46.7889 12.4581 45.9751C13.2101 45.1313 14.2032 44.5405 14.63 43.4438C14.8575 42.8579 14.8653 42.268 14.8321 41.643C14.8198 41.3976 14.8409 41.2117 14.8956 41.0854C15.1183 40.5737 15.9386 40.4878 16.2413 40.977C16.5401 41.4604 16.4142 42.7993 16.3067 43.2866C15.9864 44.7466 15.1007 45.6518 14.0167 46.6186C13.2133 47.3354 12.7114 48.2173 12.5109 49.2641C12.4347 49.6665 12.2101 49.9119 11.837 50.0005Z" fill="black"/>
</g>
<defs>
<clipPath id="clip0_2101_34029">
<rect width="50" height="50" fill="white"/>
</clipPath>
</defs>
</svg>
