<svg width="55" height="56" viewBox="0 0 55 56" fill="none" xmlns="http://www.w3.org/2000/svg">
<path d="M48.1314 32.2829C48.1178 34.1599 48.1164 36.0366 48.1271 37.9129C48.1314 38.5241 48.0681 39.0172 47.4278 39.1579C47.1578 39.2173 46.9118 39.1371 46.6898 38.9173C44.4834 36.7338 42.2838 34.5477 40.0909 32.3592C40.0712 32.3391 40.0476 32.3232 40.0216 32.3123C39.9956 32.3014 39.9677 32.2958 39.9395 32.2958C34.9644 32.2972 29.9764 32.2972 24.9756 32.2958C23.9723 32.2958 23.259 32.2525 22.8357 32.1658C20.4725 31.6835 18.5786 29.7478 18.1521 27.3759C18.082 26.9856 18.0469 26.2716 18.0469 25.2339C18.0469 21.868 18.0469 18.5021 18.0469 15.1362C18.0458 12.2713 20.1094 9.69961 22.9679 9.19687C23.3589 9.12812 24.0725 9.09375 25.1088 9.09375C32.4858 9.09375 39.8625 9.09375 47.2388 9.09375C50.1155 9.09375 52.6894 11.1681 53.1824 14.0405C53.2483 14.4244 53.2812 15.1387 53.2812 16.1836C53.2812 19.5409 53.2809 22.8978 53.2802 26.2544C53.2802 29.245 51.1661 31.7061 48.1895 32.2152C48.1508 32.2217 48.1314 32.2442 48.1314 32.2829ZM40.4712 30.6028C40.6946 30.6028 40.8708 30.7027 41.0255 30.8563C42.8087 32.6367 44.5776 34.4052 46.3321 36.1619C46.3815 36.212 46.4062 36.2017 46.4062 36.1308C46.4055 34.629 46.4059 33.1255 46.4073 31.6201C46.4073 31.2087 46.4836 30.8896 46.8381 30.6963C46.9419 30.6397 47.1793 30.596 47.5503 30.5652C49.8717 30.3708 51.5689 28.521 51.5668 26.2007C51.5639 22.8527 51.5629 19.5051 51.5636 16.1578C51.5636 15.1223 51.5138 14.4097 51.4143 14.0201C50.9255 12.1134 49.2014 10.82 47.2388 10.8189C39.7321 10.8146 32.2255 10.8125 24.7188 10.8125C23.9784 10.8132 23.4538 10.8465 23.1451 10.9124C21.5843 11.2454 20.2931 12.4958 19.9106 14.0201C19.8132 14.4083 19.7646 15.1205 19.7646 16.1567C19.7653 19.3758 19.766 22.5952 19.7667 25.815C19.7674 26.4281 19.7979 26.8803 19.858 27.1718C20.1846 28.7434 21.4317 30.0324 22.9485 30.4234C23.351 30.5273 24.0629 30.5792 25.0841 30.5792C30.2131 30.5785 35.3422 30.5864 40.4712 30.6028Z" fill="black"/>
<path d="M36.0158 15.1113H25.7721C25.3058 15.1113 24.9277 15.4894 24.9277 15.9557V15.9836C24.9277 16.4499 25.3058 16.8279 25.7721 16.8279H36.0158C36.4821 16.8279 36.8602 16.4499 36.8602 15.9836V15.9557C36.8602 15.4894 36.4821 15.1113 36.0158 15.1113Z" fill="black"/>
<path d="M8.59912 43.9276C8.59925 43.9309 8.60032 43.9341 8.60222 43.9368C8.60411 43.9396 8.60675 43.9417 8.60981 43.9429C8.61287 43.9441 8.61623 43.9445 8.61948 43.9439C8.62272 43.9433 8.62573 43.9417 8.62813 43.9395C10.4106 42.1555 12.1927 40.3727 13.9745 38.5909C14.1937 38.3729 14.4074 38.3127 14.734 38.3127C19.7685 38.312 24.8026 38.312 29.8364 38.3127C30.8992 38.3127 31.6118 38.2683 31.9741 38.1795C33.6896 37.7552 34.9647 36.3286 35.1807 34.5508C35.2408 34.0523 35.1624 33.5249 35.7242 33.2553C36.474 32.8943 36.9768 33.5238 36.9445 34.2296C36.7941 37.5253 34.1924 40.0024 30.8838 40.01C25.5943 40.0229 20.3049 40.0314 15.0154 40.0357C14.9818 40.0357 14.9493 40.0493 14.9252 40.0733C12.7252 42.2748 10.5263 44.4733 8.32842 46.669C7.94922 47.0482 7.19297 46.9494 6.96309 46.437C6.90436 46.3074 6.875 46.0965 6.875 45.8043C6.87572 43.8779 6.87536 41.9514 6.87393 40.025C6.87393 39.9863 6.85531 39.9638 6.81807 39.9573C4.29473 39.5298 2.29131 37.6467 1.82725 35.1384C1.75492 34.7459 1.71875 34.0316 1.71875 32.9953C1.71875 29.6201 1.71875 26.2453 1.71875 22.8708C1.71875 20.0059 3.78125 17.4331 6.64082 16.9304C7.03255 16.8616 7.74655 16.8276 8.78281 16.8283C11.1719 16.829 13.5613 16.8283 15.9511 16.8262C16.2991 16.8262 16.5458 16.8573 16.6912 16.9196C17.1832 17.1302 17.3325 17.7672 17.0188 18.1915C16.819 18.4633 16.5634 18.546 16.2089 18.546C13.393 18.5474 10.5771 18.5503 7.76123 18.5546C5.8459 18.5567 4.09277 19.8222 3.59648 21.6838C3.49121 22.0805 3.43857 22.7158 3.43857 23.5895C3.43857 27.047 3.44323 30.5046 3.45254 33.9621C3.45898 36.1771 4.98652 37.9861 7.19941 38.2601C7.91055 38.3481 8.61201 38.3331 8.60234 39.2795C8.58802 40.8321 8.58695 42.3815 8.59912 43.9276Z" fill="black"/>
<path d="M45.5519 19.4062H25.7755C25.3062 19.4062 24.9258 19.7867 24.9258 20.256V20.2753C24.9258 20.7446 25.3062 21.125 25.7755 21.125H45.5519C46.0211 21.125 46.4016 20.7446 46.4016 20.2753V20.256C46.4016 19.7867 46.0211 19.4062 45.5519 19.4062Z" fill="black"/>
<path d="M45.5519 23.7031H25.7755C25.3062 23.7031 24.9258 24.0836 24.9258 24.5528V24.5722C24.9258 25.0414 25.3062 25.4219 25.7755 25.4219H45.5519C46.0211 25.4219 46.4016 25.0414 46.4016 24.5722V24.5528C46.4016 24.0836 46.0211 23.7031 45.5519 23.7031Z" fill="black"/>
</svg>
