<svg width="20" height="21" viewBox="0 0 20 21" fill="none" xmlns="http://www.w3.org/2000/svg">
<g clip-path="url(#clip0_1829_26069)">
<path d="M10 0.5C15.4177 0.5 19.8306 4.81061 19.9952 10.1886L20 10.5C20 15.362 16.5285 19.4146 11.9294 20.314L11.9299 13.7659H14.5097L14.8968 10.655H11.9299V8.66778C11.9299 7.7669 12.17 7.15258 13.4144 7.15258H15V4.37162C14.7261 4.33453 13.7835 4.25 12.688 4.25C10.4017 4.25 8.8359 5.69923 8.8359 8.36268V10.6571H6.25V13.7679H8.8359L8.8351 20.4329C3.96277 19.8674 0.157381 15.7983 0.00475884 10.8114L0 10.5C0 5.08219 4.31061 0.669353 9.68858 0.504759L10 0.5Z" fill="#1A1A1A"/>
</g>
<defs>
<clipPath id="clip0_1829_26069">
<rect width="20" height="20" fill="white" transform="translate(0 0.5)"/>
</clipPath>
</defs>
</svg>
