<svg width="20" height="21" viewBox="0 0 20 21" fill="none" xmlns="http://www.w3.org/2000/svg">
<g clip-path="url(#clip0_1829_26070)">
<path d="M11.4148 0.5C12.8874 0.504671 13.2758 0.519747 14.1175 0.556857C15.1838 0.606663 15.9103 0.776586 16.5459 1.02268C17.205 1.2805 17.7616 1.62035 18.3181 2.177C18.8748 2.73072 19.2175 3.2903 19.4724 3.94364C19.7213 4.58232 19.8883 5.3089 19.9381 6.37239C19.9485 6.59456 19.9571 6.7852 19.9645 6.97236L19.9726 7.19706C19.9913 7.76365 19.998 8.3999 19.9994 9.86328V11.1258C19.9974 13.2721 19.9838 13.6391 19.9381 14.6166C19.8883 15.6831 19.7184 16.4096 19.4724 17.0455C19.2145 17.7046 18.8748 18.2612 18.3181 18.8179C17.7645 19.3746 17.205 19.7174 16.5518 19.9722C15.9133 20.2213 15.1868 20.3883 14.1234 20.4381C13.9013 20.4485 13.7106 20.4571 13.5235 20.4645L13.2989 20.4726C12.8079 20.4888 12.2646 20.496 11.176 20.4985L10.633 20.4994C10.4379 20.4995 10.2281 20.4996 10.0019 20.4996L9.67455 20.4995C9.56943 20.4995 9.46821 20.4994 9.37068 20.4994L8.82773 20.4985C7.73911 20.496 7.19581 20.4888 6.70485 20.4726L6.48018 20.4645C6.29305 20.4571 6.10244 20.4485 5.8803 20.4381C4.81403 20.3883 4.08755 20.2184 3.45189 19.9722C2.7928 19.7144 2.23623 19.3746 1.67966 18.8179C1.12309 18.2642 0.780364 17.7046 0.525513 17.0513C0.276521 16.4126 0.109545 15.686 0.0597478 14.6225C0.020324 13.7783 0.00477125 13.3894 0 11.9165V9.0843C0.00477125 7.61139 0.020324 7.22251 0.0597478 6.37825C0.109545 5.31182 0.279451 4.58525 0.525513 3.9495C0.783293 3.2903 1.12309 2.73365 1.67966 2.177C2.2333 1.62035 2.7928 1.27757 3.44896 1.02561C4.08755 0.776587 4.81403 0.609591 5.87736 0.559786C6.14393 0.547334 6.36511 0.537264 6.58934 0.529161L6.81636 0.5217C7.24108 0.509167 7.73041 0.502789 8.58303 0.500026L11.4148 0.5ZM10.8954 2.30053H9.1024C7.86059 2.3021 7.28773 2.30804 6.7704 2.32474L6.55031 2.33256C6.36675 2.33968 6.1791 2.34827 5.9594 2.35865C4.98394 2.40552 4.45373 2.56666 4.1022 2.70436C3.63644 2.886 3.3025 3.1028 2.95391 3.45144C2.60533 3.80008 2.38855 4.13408 2.20694 4.5999C2.06926 4.95146 1.90521 5.48175 1.86128 6.45735C1.8509 6.67709 1.84231 6.86477 1.8352 7.04836L1.82738 7.2685C1.81306 7.71199 1.80665 8.19627 1.80413 9.10773L1.80318 9.60084C1.80306 9.68955 1.80296 9.78167 1.80289 9.87745L1.80295 11.1175C1.80428 12.554 1.81094 13.1721 1.82866 13.7265L1.83635 13.9466C1.84328 14.1301 1.85151 14.3179 1.86128 14.5376C1.90815 15.5131 2.06926 16.0435 2.20694 16.395C2.38855 16.8609 2.60533 17.1949 2.95391 17.5435C3.3025 17.8921 3.63644 18.109 4.1022 18.2906C4.45373 18.4282 4.98394 18.5924 5.9594 18.6362C6.1791 18.6466 6.36675 18.6552 6.55031 18.6624L6.7704 18.6702C7.28773 18.6869 7.86059 18.6929 9.1024 18.6944L10.6188 18.6946C10.7146 18.6945 10.8067 18.6944 10.8954 18.6943L11.3885 18.6931C12.2998 18.6903 12.784 18.6831 13.2274 18.6689L13.4475 18.6613C13.6311 18.6543 13.8188 18.646 14.0384 18.6362C15.0139 18.5894 15.5441 18.4282 15.8956 18.2906C16.3614 18.109 16.6954 17.8921 17.0439 17.5435C17.3925 17.1949 17.6093 16.8609 17.7909 16.395C17.9286 16.0435 18.0926 15.5131 18.1365 14.5376C18.1469 14.3179 18.1555 14.1301 18.1626 13.9466L18.1705 13.7265C18.1871 13.209 18.1931 12.6361 18.1946 11.3941L18.1945 9.60084C18.1926 8.35884 18.1858 7.7859 18.1691 7.2685L18.1615 7.04836C18.1545 6.86477 18.1463 6.67709 18.1365 6.45735C18.0896 5.48175 17.9286 4.95146 17.7909 4.5999C17.6093 4.13408 17.3925 3.80008 17.0439 3.45144C16.6954 3.1028 16.3614 2.886 15.8956 2.70436C15.5441 2.56666 15.0139 2.4026 14.0384 2.35865C13.8188 2.34827 13.6311 2.33968 13.4475 2.33256L13.2274 2.32474C12.7101 2.30804 12.1372 2.3021 10.8954 2.30053ZM9.99891 5.4986C12.7601 5.4986 14.9993 7.73776 14.9993 10.4989C14.9993 13.2601 12.7601 15.4993 9.99891 15.4993C7.23775 15.4993 4.99858 13.2601 4.99858 10.4989C4.99858 7.73776 7.23775 5.4986 9.99891 5.4986ZM9.99891 7.25285C8.20758 7.25285 6.75284 8.70475 6.75284 10.4989C6.75284 12.2931 8.20758 13.745 9.99891 13.745C11.7903 13.745 13.245 12.2931 13.245 10.4989C13.245 8.70475 11.7903 7.25285 9.99891 7.25285ZM15.416 4.66521C16.1064 4.66521 16.666 5.22489 16.666 5.91529C16.666 6.6057 16.1064 7.16538 15.416 7.16538C14.7255 7.16538 14.1659 6.6057 14.1659 5.91529C14.1659 5.22489 14.7255 4.66521 15.416 4.66521Z" fill="#1A1A1A"/>
</g>
<defs>
<clipPath id="clip0_1829_26070">
<rect width="20" height="20" fill="white" transform="translate(0 0.5)"/>
</clipPath>
</defs>
</svg>
