<svg width="15" height="16" viewBox="0 0 15 16" fill="none" xmlns="http://www.w3.org/2000/svg">
<g clip-path="url(#clip0_1870_26933)">
<path d="M7.5 0.5C3.4 0.5 0 3.9 0 8C0 12.1 3.4 15.5 7.5 15.5C11.6 15.5 15 12.1 15 8C15 3.9 11.6 0.5 7.5 0.5ZM7.5 14.5C3.9 14.5 1 11.6 1 8C1 4.4 3.9 1.5 7.5 1.5C11.1 1.5 14 4.4 14 8C14 11.6 11.1 14.5 7.5 14.5Z" fill="#323232"/>
<path d="M7.5 7.5H6.5C6.2 7.5 6 7.7 6 8C6 8.3 6.2 8.5 6.5 8.5H7V11C7 11.3 7.2 11.5 7.5 11.5C7.8 11.5 8 11.3 8 11V8C8 7.7 7.8 7.5 7.5 7.5Z" fill="#323232"/>
<path d="M7.20039 6.50039C7.64222 6.50039 8.00039 6.14222 8.00039 5.70039C8.00039 5.25856 7.64222 4.90039 7.20039 4.90039C6.75856 4.90039 6.40039 5.25856 6.40039 5.70039C6.40039 6.14222 6.75856 6.50039 7.20039 6.50039Z" fill="#323232"/>
</g>
<defs>
<clipPath id="clip0_1870_26933">
<rect width="15" height="15" fill="white" transform="translate(0 0.5)"/>
</clipPath>
</defs>
</svg>
