<svg width="22" height="22" viewBox="0 0 22 22" fill="none" xmlns="http://www.w3.org/2000/svg">
<g clip-path="url(#clip0_520_5270)">
<path d="M11.2141 21.9445C11.1125 22.0025 10.852 21.951 10.736 21.8838C7.69779 20.139 4.66115 18.3916 1.62612 16.6417C1.40591 16.5144 1.37207 16.2549 1.37207 15.9912C1.37207 12.5906 1.37207 9.19016 1.37207 5.7899C1.37207 5.54014 1.48003 5.38116 1.70454 5.25172C4.70054 3.52473 7.69671 1.79792 10.6931 0.0712956C10.9638 -0.0844661 11.1749 -0.029681 11.4499 0.128766C14.4093 1.83749 17.3677 3.54818 20.325 5.26085C20.5447 5.38814 20.6672 5.56055 20.6672 5.81085C20.6679 9.2863 20.6681 12.7616 20.6677 16.2367C20.6677 16.422 20.5243 16.5992 20.353 16.6981C17.3079 18.449 14.2616 20.1979 11.2141 21.9445ZM8.24116 2.81592C8.23782 2.81786 8.23504 2.82064 8.23311 2.82398C8.23117 2.82733 8.23016 2.83113 8.23016 2.83499C8.23016 2.83886 8.23117 2.84265 8.23311 2.846C8.23504 2.84935 8.23782 2.85213 8.24116 2.85406L16.1044 7.38404C16.1079 7.38607 16.1118 7.38715 16.1157 7.38715C16.1197 7.38715 16.1236 7.38607 16.127 7.38404L18.8738 5.77701C18.8771 5.77508 18.8799 5.7723 18.8818 5.76895C18.8838 5.7656 18.8848 5.76181 18.8848 5.75794C18.8848 5.75408 18.8838 5.75028 18.8818 5.74693C18.8799 5.74359 18.8771 5.74081 18.8738 5.73887L11.0137 1.20889C11.0103 1.20686 11.0064 1.20579 11.0024 1.20579C10.9985 1.20579 10.9946 1.20686 10.9912 1.20889L8.24116 2.81592ZM14.955 8.05972C14.9594 8.05723 14.963 8.05364 14.9655 8.0493C14.968 8.04496 14.9694 8.04003 14.9694 8.03502C14.9694 8.03 14.968 8.02508 14.9655 8.02074C14.963 8.0164 14.9594 8.0128 14.955 8.01031L7.10679 3.48892C7.1024 3.48632 7.09739 3.48495 7.09228 3.48495C7.08718 3.48495 7.08217 3.48632 7.07778 3.48892L3.13755 5.7754C3.1332 5.77789 3.12958 5.78149 3.12706 5.78582C3.12455 5.79016 3.12322 5.79509 3.12322 5.80011C3.12322 5.80512 3.12455 5.81005 3.12706 5.81438C3.12958 5.81872 3.1332 5.82232 3.13755 5.82481L10.9879 10.3473C10.9923 10.3499 10.9973 10.3512 11.0024 10.3512C11.0075 10.3512 11.0126 10.3499 11.0169 10.3473L14.955 8.05972ZM10.4358 11.3049C10.4358 11.3021 10.435 11.2993 10.4336 11.2969C10.4322 11.2944 10.4302 11.2924 10.4277 11.291L2.56392 6.76207C2.56147 6.76065 2.55869 6.75991 2.55586 6.75991C2.55303 6.75991 2.55025 6.76066 2.5478 6.76207C2.54535 6.76349 2.54331 6.76552 2.5419 6.76797C2.54049 6.77042 2.53974 6.7732 2.53975 6.77603L2.54028 15.8919C2.54028 15.8947 2.54103 15.8975 2.54244 15.8999C2.54385 15.9024 2.54589 15.9044 2.54834 15.9058L10.4116 20.4342C10.4141 20.4356 10.4169 20.4363 10.4197 20.4363C10.4225 20.4363 10.4253 20.4356 10.4277 20.4342C10.4302 20.4328 10.4322 20.4307 10.4336 20.4283C10.435 20.4258 10.4358 20.4231 10.4358 20.4202V11.3049ZM16.6716 8.48941C16.668 8.49765 16.6663 8.50642 16.6663 8.51573C16.667 10.0866 16.6666 11.6576 16.6652 13.2289C16.6646 13.8686 15.8456 14.07 15.6087 13.4937C15.57 13.3998 15.5507 13.2382 15.5507 13.0087C15.5514 11.6881 15.5521 10.3704 15.5528 9.05553C15.5529 9.05243 15.5521 9.04938 15.5506 9.04669C15.549 9.04399 15.5468 9.04175 15.5441 9.04017C15.5414 9.0386 15.5383 9.03775 15.5351 9.03771C15.5319 9.03767 15.5288 9.03844 15.526 9.03995L11.5879 11.2856C11.5718 11.2946 11.5637 11.3082 11.5637 11.3264V20.4132C11.5637 20.4387 11.5746 20.4451 11.5965 20.4326L19.4345 15.916C19.442 15.9118 19.4482 15.9056 19.4526 15.8981C19.4569 15.8905 19.4592 15.8819 19.4592 15.8731L19.4598 6.79644C19.4598 6.76565 19.4463 6.75795 19.4195 6.77335C18.5254 7.29649 17.6309 7.81964 16.7361 8.34278C16.6824 8.37429 16.6616 8.41296 16.6738 8.4588C16.6766 8.46918 16.6759 8.47939 16.6716 8.48941Z" fill="#1A1A1A"/>
</g>
<defs>
<clipPath id="clip0_520_5270">
<rect width="22" height="22" fill="white"/>
</clipPath>
</defs>
</svg>
