<svg width="25" height="25" viewBox="0 0 25 25" fill="none" xmlns="http://www.w3.org/2000/svg">
<g clip-path="url(#clip0_1870_26777)">
<path d="M7.88331 9.96199H0.594727M7.88331 7.87954H0.594727M7.88331 12.0444H0.594727M15.2135 18.323V9.99322H20.7737C21.2032 9.98434 21.6227 10.1233 21.962 10.3867C22.3012 10.6502 22.5397 11.0222 22.6375 11.4405L24.0327 18.323H19.7637M4.77004 18.323H2.68759V6.21357C2.68759 5.82696 2.84118 5.45619 3.11456 5.18281C3.38793 4.90944 3.75869 4.75586 4.1453 4.75586H13.7246C14.1112 4.75586 14.482 4.90944 14.7554 5.18281C15.0287 5.45619 15.1823 5.82696 15.1823 6.21357V18.323H9.4139M15.5467 18.6354C15.5467 19.7855 16.4791 20.7179 17.6292 20.7179C18.7793 20.7179 19.7116 19.7855 19.7116 18.6354C19.7116 17.4853 18.7793 16.5529 17.6292 16.5529C16.4791 16.5529 15.5467 17.4853 15.5467 18.6354ZM5.06159 18.6354C5.06159 19.7855 5.99393 20.7179 7.14404 20.7179C8.29414 20.7179 9.22649 19.7855 9.22649 18.6354C9.22649 17.4853 8.29414 16.5529 7.14404 16.5529C5.99393 16.5529 5.06159 17.4853 5.06159 18.6354Z" stroke="#1A1A1A" stroke-width="1.24947" stroke-linecap="round" stroke-linejoin="round"/>
</g>
<defs>
<clipPath id="clip0_1870_26777">
<rect width="24.9998" height="24.9894" fill="white" transform="matrix(-1 0 0 1 25 0)"/>
</clipPath>
</defs>
</svg>
