<svg width="31" height="30" viewBox="0 0 31 30" fill="none" xmlns="http://www.w3.org/2000/svg">
<path d="M9.77067 3.14492C1.5675 6.84613 0.257559 17.9981 6.94744 23.8638C11.2938 27.6735 17.6718 28.0338 22.3933 24.8271C26.6143 21.9589 28.5393 16.4791 27.2925 11.5906C25.334 3.91181 17.0291 -0.130888 9.77067 3.14492ZM14.1023 8.54967C12.8673 8.00781 11.4538 8.72733 11.1625 10.0341C11.0777 10.419 11.1073 10.9145 11.1102 11.3448C11.1132 11.9035 11.0086 12.2864 10.3916 12.314C10.1902 12.3233 10.0481 12.2834 9.96514 12.1946C8.67527 10.8161 7.1294 9.86302 5.32753 9.33531C5.29463 9.32544 5.2864 9.30537 5.30285 9.27511C7.49629 5.26103 11.7538 2.93371 16.3283 3.41339C16.3512 3.41599 16.3727 3.42569 16.3897 3.4411C16.4067 3.45652 16.4184 3.47687 16.423 3.49925C16.8422 5.43638 16.3707 7.09748 15.0085 8.48255C14.733 8.76286 14.4626 8.70759 14.1023 8.54967ZM9.33435 13.5349C10.5604 14.2189 12.2158 13.528 12.5337 12.1245C12.6225 11.7288 12.5909 11.2165 12.59 10.7724C12.59 10.3085 12.6729 9.88605 13.1892 9.84558C13.4478 9.82486 13.7676 10.0538 14.0065 10.1012C14.8824 10.2776 15.6337 10.015 16.2602 9.3136C17.683 7.71994 18.2604 5.87164 17.9926 3.7687C17.9887 3.73646 18.0021 3.72461 18.0331 3.73317C22.3439 4.87314 25.4189 8.40162 26.1859 12.77C26.1925 12.8095 26.1764 12.8256 26.1375 12.8184C25.6519 12.7305 25.1188 12.5736 24.6657 12.5874C23.4752 12.6223 22.5782 13.1507 21.9747 14.1725C21.649 14.7233 21.6411 15.4369 21.266 15.9077C20.8267 16.4604 20.3203 16.5196 19.6392 16.491C18.2305 16.4327 17.1367 17.1967 16.6066 18.4659C16.0874 19.7086 15.9087 20.8327 16.7024 22.0171C17.3816 23.0291 18.0561 24.0296 18.726 25.0185C18.7458 25.0475 18.7392 25.0672 18.7063 25.0778C16.6517 25.7535 14.5715 25.8374 12.4656 25.3294C12.4509 25.3259 12.4382 25.3169 12.4299 25.3045C12.4217 25.292 12.4185 25.2769 12.4212 25.2623C12.507 24.7639 12.6294 24.2171 12.6591 23.7591C12.8506 20.7745 11.0806 18.0099 8.21691 17.0871C7.83916 16.9654 7.19357 16.8414 6.28013 16.715C5.59439 16.6203 4.90635 16.5255 4.21601 16.4308C4.18311 16.4262 4.16402 16.4074 4.15875 16.3745C3.84287 14.4499 4.00871 12.571 4.65628 10.7378C4.66746 10.7049 4.69017 10.6931 4.72439 10.7023C6.21366 11.107 7.49958 11.84 8.58215 12.9013C8.91975 13.2323 9.17049 13.4435 9.33435 13.5349ZM20.3282 17.9784C21.6233 17.8382 22.6598 16.9233 23.0043 15.6826C23.1234 15.2536 23.2054 14.998 23.2501 14.9157C23.9224 13.6721 25.2057 14.1252 26.2619 14.366C26.2942 14.3732 26.3103 14.3933 26.3103 14.4262C26.3103 18.69 23.9856 22.5096 20.1929 24.4481C20.164 24.4632 20.14 24.4573 20.1209 24.4303C19.3917 23.3696 18.6639 22.3086 17.9373 21.2473C17.4349 20.5139 17.6629 19.9494 17.9107 19.1943C18.1772 18.383 18.7823 17.9083 19.6599 17.9586C20.033 17.9797 20.2558 17.9863 20.3282 17.9784ZM10.9237 24.8231C7.97703 23.5696 5.56248 21.1278 4.57632 18.0307C4.56447 17.9938 4.57796 17.978 4.61679 17.9833C5.74115 18.1284 7.08959 18.2261 8.04613 18.6021C9.35509 19.116 10.285 20.0372 10.8358 21.3657C11.2774 22.4303 11.3228 23.5749 10.972 24.7994C10.9648 24.8258 10.9487 24.8337 10.9237 24.8231Z" fill="#1A1A1A"/>
</svg>
