<svg width="22" height="22" viewBox="0 0 22 22" fill="none" xmlns="http://www.w3.org/2000/svg">
<path d="M3.66699 11.1692H8.83316M12.8829 11.1692H18.3337M5.86699 6.37086H16.1337C17.3487 6.37086 18.3337 7.32198 18.3337 8.49525V18.4091C18.3337 19.5823 17.3487 20.5335 16.1337 20.5335H5.86699C4.65197 20.5335 3.66699 19.5823 3.66699 18.4091V8.49525C3.66699 7.32198 4.65197 6.37086 5.86699 6.37086ZM9.11774 6.37086H12.8939V20.5335H9.11774V6.37086ZM15.8819 3.8237C15.8819 4.4488 15.6247 5.04828 15.167 5.49029C14.7093 5.93229 14.0885 6.18061 13.4411 6.18061H11.0222V3.8237C11.0222 3.19861 11.2794 2.59913 11.7371 2.15712C12.1948 1.71511 12.8157 1.4668 13.463 1.4668C14.1066 1.47237 14.7218 1.72314 15.1748 2.16454C15.6278 2.60594 15.8819 3.20226 15.8819 3.8237ZM8.55953 1.50907C9.20687 1.50907 9.8277 1.75739 10.2854 2.19939C10.7432 2.6414 11.0003 3.24089 11.0003 3.86598V6.23346H8.55953C8.23716 6.23486 7.91769 6.17458 7.61958 6.0561C7.32146 5.93761 7.05061 5.76328 6.82266 5.54316C6.5947 5.32304 6.41416 5.0615 6.29146 4.77363C6.16877 4.48576 6.10634 4.17727 6.10779 3.86598C6.10778 3.55557 6.17128 3.24823 6.29462 2.96158C6.41797 2.67494 6.59874 2.41464 6.82655 2.19564C7.05436 1.97665 7.32472 1.80326 7.62212 1.68544C7.91951 1.56761 8.23808 1.50768 8.55953 1.50907Z" stroke="#1A1A1A" stroke-width="1.17333" stroke-linecap="round" stroke-linejoin="round"/>
</svg>
