<svg width="25" height="20" viewBox="0 0 25 20" fill="none" xmlns="http://www.w3.org/2000/svg">
<g clip-path="url(#clip0_520_11454)">
<path d="M5.46725 11.8353L3.08089 14.2216L3.00134 14.3466V14.2216V11.8921C3.00134 11.8012 3.00134 11.7785 2.8877 11.7785H1.98998C1.85525 11.78 1.72157 11.7546 1.5968 11.7037C1.47203 11.6528 1.35868 11.5776 1.26341 11.4823C1.16813 11.387 1.09286 11.2737 1.042 11.1489C0.991142 11.0241 0.965728 10.8905 0.96725 10.7557V2.80118C0.957251 2.71815 0.957251 2.63421 0.96725 2.55118C1.00066 2.30525 1.12334 2.08019 1.31192 1.91885C1.50051 1.7575 1.74184 1.67113 1.98998 1.67618H15.0013C15.1361 1.67466 15.2697 1.70007 15.3945 1.75093C15.5193 1.80179 15.6326 1.87706 15.7279 1.97234C15.8232 2.06761 15.8985 2.18096 15.9493 2.30573C16.0002 2.4305 16.0256 2.56418 16.0241 2.69891V3.74436H16.99V2.608C16.9978 2.52105 16.9978 2.43358 16.99 2.34663C16.9016 1.88045 16.6512 1.46053 16.2832 1.16109C15.9151 0.861644 15.453 0.701964 14.9786 0.710269H2.00134C1.74514 0.709894 1.49101 0.7561 1.25134 0.846633C0.890272 0.990928 0.579426 1.23791 0.357258 1.55702C0.13509 1.87614 0.0113485 2.25338 0.0013411 2.64209V10.7557C-0.00174912 10.8163 -0.00174912 10.877 0.0013411 10.9375C0.0644224 11.3944 0.285228 11.8149 0.625552 12.1261C0.965876 12.4374 1.40431 12.6199 1.86498 12.6421C1.95589 12.6421 1.97861 12.6421 1.97861 12.7557V14.2557C1.97665 14.4116 2.0129 14.5657 2.08422 14.7043C2.15553 14.843 2.25973 14.9621 2.3877 15.0512C2.57908 15.1913 2.81488 15.257 3.05114 15.2361C3.2874 15.2152 3.508 15.1091 3.6718 14.9375L5.86498 12.7444C5.90522 12.7014 5.95623 12.67 6.01271 12.6535V11.7216H5.73998C5.68891 11.7189 5.63787 11.7277 5.59066 11.7474C5.54345 11.767 5.50127 11.7971 5.46725 11.8353Z" fill="#1A1A1A"/>
<path d="M25.0011 6.64187C25.0076 6.55867 25.0076 6.47508 25.0011 6.39187C24.9332 5.92392 24.6998 5.49581 24.3433 5.18517C23.9868 4.87453 23.5308 4.70194 23.0579 4.69869H9.09201C8.95966 4.68768 8.82663 4.68768 8.69428 4.69869C8.23959 4.78049 7.82757 5.01805 7.52897 5.37056C7.23037 5.72308 7.06381 6.16856 7.05791 6.63051V14.7101C7.0529 14.9775 7.11132 15.2423 7.22837 15.4828C7.38606 15.8324 7.64427 16.1272 7.97009 16.3296C8.29591 16.532 8.6746 16.6328 9.05791 16.6191H18.9329C18.9715 16.619 19.0097 16.627 19.0449 16.6426C19.0802 16.6583 19.1117 16.6813 19.1375 16.7101L20.4556 18.1646L21.3306 19.0396C21.5038 19.2084 21.7365 19.3023 21.9784 19.301C22.1092 19.3025 22.2389 19.278 22.3602 19.229C22.4815 19.18 22.5918 19.1074 22.6848 19.0154C22.7778 18.9235 22.8517 18.814 22.902 18.6933C22.9524 18.5726 22.9784 18.4431 22.9784 18.3123V16.8123C22.9784 16.7441 22.9784 16.7101 23.0693 16.6987C23.4824 16.6889 23.8811 16.5453 24.2056 16.2896C24.45 16.1175 24.6497 15.8896 24.788 15.6247C24.9264 15.3598 24.9995 15.0657 25.0011 14.7669V6.64187ZM24.0352 14.7441C24.0334 14.9894 23.9406 15.2252 23.7747 15.4058C23.6088 15.5864 23.3817 15.6989 23.1375 15.7214H22.1488C22.0579 15.7214 22.0352 15.7214 22.0352 15.8464V18.2441L21.9329 18.1532L19.5125 15.8237C19.4867 15.7949 19.4552 15.772 19.4199 15.7563C19.3847 15.7406 19.3465 15.7326 19.3079 15.7328H9.09201C8.90137 15.7428 8.71163 15.7005 8.54337 15.6103C8.3751 15.5202 8.23472 15.3857 8.13746 15.2214C8.03215 15.0789 7.96913 14.9095 7.95564 14.7328V6.68733C7.95523 6.43167 8.05275 6.18556 8.22817 5.99957C8.40359 5.81359 8.64358 5.70185 8.89882 5.68733H22.8761C23.0378 5.67852 23.1995 5.70437 23.3505 5.76317C23.5014 5.82197 23.638 5.91234 23.7511 6.02824C23.9169 6.20337 24.0103 6.43479 24.0125 6.67596C24.0276 9.36536 24.0352 12.0548 24.0352 14.7441Z" fill="#1A1A1A"/>
<path d="M18.5678 8.74386C18.2226 8.44138 17.7907 8.2555 17.3337 8.21265C16.8767 8.16981 16.4178 8.27219 16.0224 8.50522C15.6264 8.27388 15.1679 8.17247 14.7113 8.21528C14.2547 8.25809 13.823 8.44295 13.4769 8.74386C13.2877 8.913 13.1356 9.11943 13.03 9.35019C12.9244 9.58094 12.8676 9.83104 12.8633 10.0848C12.8625 10.3476 12.9167 10.6078 13.0224 10.8485C13.1281 11.0892 13.2829 11.3051 13.4769 11.4825L15.5337 13.3575C15.6663 13.4813 15.841 13.5502 16.0224 13.5502C16.2038 13.5502 16.3784 13.4813 16.511 13.3575L18.6247 11.437C18.8125 11.2666 18.9626 11.0588 19.0654 10.8268C19.1681 10.5949 19.2212 10.3441 19.2212 10.0905C19.2212 9.8368 19.1681 9.58596 19.0654 9.35405C18.9626 9.12214 18.8125 8.91429 18.6247 8.74386H18.5678ZM18.1815 10.1075C18.1821 10.2337 18.1562 10.3587 18.1053 10.4742C18.0543 10.5898 17.9796 10.6933 17.886 10.778L16.0224 12.4939L14.1133 10.7439C14.0255 10.6606 13.956 10.5601 13.909 10.4486C13.8621 10.3371 13.8388 10.2171 13.8406 10.0961C13.8453 9.97469 13.875 9.85554 13.9278 9.74606C13.9806 9.63659 14.0553 9.53914 14.1474 9.45977C14.3587 9.2583 14.6395 9.14592 14.9315 9.14592C15.2235 9.14592 15.5042 9.2583 15.7156 9.45977L16.0224 9.80068L16.3519 9.50522C16.5633 9.30376 16.844 9.19137 17.136 9.19137C17.428 9.19137 17.7088 9.30376 17.9201 9.50522C18.0811 9.66512 18.1747 9.88068 18.1815 10.1075Z" fill="#1A1A1A"/>
</g>
<defs>
<clipPath id="clip0_520_11454">
<rect width="25" height="18.5795" fill="white" transform="translate(0 0.709961)"/>
</clipPath>
</defs>
</svg>
