<svg width="297" height="86" viewBox="0 0 297 86" fill="none" xmlns="http://www.w3.org/2000/svg">
<g clip-path="url(#clip0_1483_27743)">
<path d="M102.883 5.35114C102.756 5.3599 102.636 5.32925 102.523 5.2592C102.492 5.23974 102.455 5.23016 102.418 5.23174C100.656 5.2994 98.9003 5.43034 97.15 5.62457C96.7704 5.66756 96.6256 5.84308 96.3275 6.06875C95.4499 6.73144 95.3302 7.22696 95.329 8.37204C95.3282 13.2222 95.3278 18.0723 95.3278 22.9225C95.3278 24.0831 95.8219 24.9806 96.8099 25.615C96.8515 25.6421 96.8475 25.6588 96.798 25.6652L91.3986 26.4055C91.3531 26.411 91.3479 26.3995 91.383 26.3708C92.0271 25.8343 92.4669 25.1868 92.7023 24.4282C92.8157 24.062 92.8735 23.5096 92.8759 22.7708C92.8927 17.8952 92.8947 13.02 92.8819 8.14517C92.8795 7.24487 92.3084 6.79353 91.5291 6.50935C91.3614 6.44885 91.1751 6.43572 90.97 6.46995C88.6905 6.84965 87 7.17124 85.8986 7.43472C84.8043 7.69741 82.9846 10.8329 82.3776 11.8013C82.3496 11.8459 82.3401 11.8423 82.3489 11.7905L83.3593 5.72965C83.3665 5.68746 83.3908 5.66199 83.4323 5.65323C89.7839 4.22278 96.2086 3.30656 102.706 2.90457C102.746 2.90218 102.782 2.89064 102.813 2.86995C102.835 2.85482 102.857 2.8389 102.879 2.82218C102.907 2.80069 102.938 2.78915 102.974 2.78756L104.776 2.70517C104.817 2.70358 104.84 2.72268 104.847 2.76248L105.857 8.62398C105.859 8.62841 105.859 8.63335 105.857 8.63772C105.855 8.64209 105.852 8.64552 105.847 8.64726C105.843 8.649 105.838 8.64891 105.833 8.64701C105.829 8.6451 105.825 8.64154 105.824 8.63711C105.034 7.48129 104.114 6.25263 102.998 5.38577C102.965 5.3595 102.926 5.34796 102.883 5.35114Z" fill="#1A1A1A"/>
<path d="M66.9845 22.5632C64.7434 22.6205 61.2355 22.4724 60.674 19.6891C60.3664 18.1596 60.935 16.1035 61.8066 14.7124C64.2729 10.7805 69.2664 8.66107 73.7488 8.44017C77.3081 8.26584 80.6651 9.59838 80.501 13.7667C80.4994 13.7986 80.4831 13.8169 80.452 13.8217L77.8732 14.2002C77.7926 14.2121 77.7526 14.1775 77.7534 14.0963C77.7774 11.9435 76.4545 10.8772 74.4587 10.7172C71.4202 10.4748 68.4607 11.7548 66.0447 13.4444C64.7972 14.3172 62.7943 16.0832 63.0553 17.83C63.345 19.7703 66.8744 19.5375 68.2105 19.4635C69.8866 19.3703 71.5631 19.2796 73.24 19.1912C74.6032 19.1196 75.9002 19.1705 77.1309 19.3441C78.8764 19.5888 80.507 20.4545 80.7249 22.3829C81.0685 25.4264 78.352 27.9912 76.0163 29.4217C74.0832 30.6053 72.0212 31.4945 69.8303 32.0891C67.1988 32.8044 63.4468 33.0229 61.4498 30.7446C60.3568 29.4993 60.0311 27.7094 60.1137 26.0832C60.1153 26.0434 60.1357 26.0191 60.1748 26.0103L62.8218 25.4049C62.8305 25.4029 62.8395 25.4029 62.8481 25.405C62.8568 25.4071 62.8648 25.4112 62.8717 25.417C62.8785 25.4228 62.884 25.4301 62.8876 25.4383C62.8912 25.4466 62.8929 25.4556 62.8925 25.4647C62.671 29.7249 66.2267 30.6993 69.6603 29.8109C70.1887 29.674 70.9122 29.4264 71.8308 29.0682C73.8266 28.2897 78.2946 26.2981 78.2934 23.7405C78.2934 22.3052 76.822 22.0581 75.723 22.0223C72.8054 21.9255 69.4029 22.5011 66.9845 22.5632Z" fill="#1A1A1A"/>
<path d="M58.1621 13.2472C57.2283 14.2812 56.6632 15.2591 56.6608 16.6227C56.6552 19.6675 56.6516 22.7126 56.65 25.7582C56.65 26.8575 56.6233 27.6524 56.5698 28.1427C55.8802 34.5236 50.8807 38.9451 44.8778 40.452C39.919 41.6973 35.9299 39.5194 35.9455 34.0257C35.9606 28.9956 35.9622 25.4832 35.9502 23.4884C35.9439 22.4129 35.4538 21.6583 34.4801 21.2245C34.4434 21.2086 34.4442 21.1946 34.4825 21.1827L39.901 19.474C39.9433 19.4605 39.9497 19.4705 39.9202 19.5039C39.2629 20.2597 38.711 21.08 38.5039 22.0675C38.4408 22.3644 38.4097 22.8758 38.4105 23.6018C38.4113 26.8376 38.4109 30.0734 38.4093 33.3093C38.4069 37.394 41.3161 39.0215 45.0143 38.089C46.4949 37.7156 47.8888 37.1377 49.1962 36.3552C52.0232 34.6637 53.655 32.2446 54.0916 29.0979C54.1634 28.5821 54.1985 27.7877 54.1969 26.7146C54.1937 23.7463 54.1865 20.7791 54.1754 17.8131C54.1706 16.5248 53.9455 15.6364 52.7112 15.1672C52.6617 15.1481 52.6621 15.1302 52.7124 15.1134L58.1537 13.234C58.1554 13.2337 58.1571 13.2339 58.1586 13.2346C58.1602 13.2352 58.1615 13.2363 58.1624 13.2378C58.1633 13.2392 58.1637 13.2408 58.1637 13.2425C58.1636 13.2442 58.1631 13.2458 58.1621 13.2472Z" fill="#1A1A1A"/>
<path d="M29.1197 25.0753L27.6651 25.4706C27.6259 25.4809 27.5992 25.5052 27.5848 25.5434L19.6018 47.381C19.5923 47.4072 19.5762 47.4305 19.555 47.4485C19.5338 47.4665 19.5082 47.4786 19.4809 47.4837L13.8169 48.5297C13.7934 48.5341 13.769 48.5303 13.7478 48.5188C13.7267 48.5072 13.7101 48.4887 13.7008 48.4664L5.71302 29.4371C5.70025 29.4077 5.6779 29.3942 5.64597 29.3965L4.16383 29.4873C4.12711 29.4897 4.10876 29.5092 4.10876 29.5458C4.09758 34.9157 4.09559 40.2849 4.10277 45.6533C4.10437 46.6483 4.16702 47.3273 4.29073 47.6903C4.52379 48.3756 4.96995 48.9372 5.62921 49.375C5.63464 49.3788 5.63876 49.3842 5.64103 49.3904C5.6433 49.3966 5.64361 49.4033 5.64191 49.4097C5.64022 49.4161 5.6366 49.4218 5.63154 49.4261C5.62649 49.4303 5.62024 49.4329 5.61365 49.4336C3.80187 49.5649 1.9881 49.6338 0.172332 49.6401C0.0909215 49.6401 0.0817434 49.6146 0.144796 49.5637C1.15285 48.7482 1.6461 47.7643 1.64729 46.4771C1.65368 40.0867 1.65328 33.6982 1.6461 27.3118C1.6461 27.268 1.66765 27.2457 1.71075 27.2449C3.57999 27.2043 5.44524 27.0972 7.3065 26.9237C7.34162 26.9205 7.36637 26.9352 7.38073 26.9679L15.3757 45.8395C15.3925 45.8793 15.422 45.8952 15.4643 45.8873L17.8671 45.4467C17.879 45.4445 17.8902 45.4392 17.8995 45.4312C17.9087 45.4233 17.9157 45.4129 17.9198 45.4013L25.9183 23.658C25.9303 23.6254 25.9526 23.6047 25.9854 23.5959L31.6146 22.0437C31.6205 22.0422 31.6266 22.0421 31.6325 22.0433C31.6384 22.0444 31.6439 22.0469 31.6487 22.0505C31.6534 22.0541 31.6572 22.0586 31.6598 22.0639C31.6625 22.0691 31.6638 22.0749 31.6637 22.0807C31.6526 28.6415 31.6522 35.1904 31.6625 41.7273C31.6641 42.7398 32.1478 43.4614 33.1136 43.8921C33.1902 43.9263 33.1882 43.9549 33.1076 43.978L27.7776 45.498C27.6212 45.5426 27.6028 45.5104 27.7225 45.4013C28.733 44.4771 29.1951 43.3153 29.1975 41.941C29.2063 36.3378 29.2055 30.7354 29.1951 25.1339C29.1951 25.0813 29.1699 25.0618 29.1197 25.0753Z" fill="#1A1A1A"/>
<path d="M84.2419 47.5923C86.8965 47.0081 89.5647 46.4958 92.2465 46.0556C92.446 46.023 92.7641 45.8431 93.2006 45.5159C93.4888 45.301 93.901 44.868 94.4374 44.2168C94.4725 44.1746 94.49 44.181 94.49 44.2359V49.7571C94.49 49.812 94.4709 49.82 94.4326 49.781C93.6352 48.9547 92.9588 48.4043 91.7317 48.5989C89.2135 48.9977 86.7134 49.4849 84.2311 50.0604C84.1896 50.0699 84.1689 50.0958 84.1689 50.138C84.1601 51.9068 84.1585 53.6735 84.1641 55.4383C84.1665 56.0465 84.2264 56.4895 84.3437 56.7673C84.8034 57.8574 85.8043 57.9159 86.8925 57.7129C90.2288 57.0904 93.5798 56.5599 96.9455 56.1213C98.0122 55.9828 100.069 52.39 100.634 51.4491C100.636 51.4458 100.638 51.4433 100.641 51.4421C100.645 51.4408 100.648 51.4408 100.652 51.4421C100.655 51.4434 100.658 51.4459 100.66 51.4492C100.662 51.4524 100.662 51.4562 100.662 51.4598L99.2897 58.292C99.2825 58.3279 99.2609 58.3478 99.225 58.3517C92.7513 59.0475 86.3558 60.1818 80.0385 61.7547C80.0287 61.7574 80.0182 61.7567 80.0089 61.7527C79.9996 61.7486 79.9919 61.7415 79.9871 61.7325C79.9823 61.7234 79.9806 61.7129 79.9823 61.7027C79.984 61.6924 79.9891 61.683 79.9966 61.6759C80.6974 61.0455 81.1687 60.2996 81.4105 59.4383C81.5334 58.9981 81.5945 58.21 81.5937 57.0741C81.5897 51.8363 81.5889 46.5993 81.5913 41.3631C81.5913 40.7732 81.537 40.3263 81.4285 40.0222C81.1763 39.3185 80.6974 38.776 79.9918 38.3947C79.9866 38.3918 79.9824 38.3874 79.9797 38.3821C79.9771 38.3768 79.976 38.3707 79.9768 38.3648C79.9776 38.3589 79.9801 38.3534 79.9841 38.3489C79.988 38.3445 79.9932 38.3413 79.999 38.3398C85.2891 37.0319 90.6386 36.0158 96.0476 35.2914C96.829 35.1864 97.6128 35.096 98.3989 35.0204C98.4372 35.0172 98.4608 35.0343 98.4696 35.0717L99.838 41.0144C99.8651 41.1322 99.8432 41.1422 99.7721 41.0443C99.122 40.1488 97.4711 37.9637 96.3457 37.7308C96.2204 37.7046 96.0412 37.7054 95.8082 37.7332C92.8471 38.0843 89.9075 38.5635 86.9895 39.1708C86.4109 39.2918 85.9731 39.4415 85.6762 39.6198C85.0273 40.0098 84.5803 40.5619 84.3353 41.2759C84.2244 41.6007 84.1677 42.0688 84.1653 42.6801C84.1605 44.2992 84.1625 45.9179 84.1713 47.5362C84.1713 47.584 84.1948 47.6027 84.2419 47.5923Z" fill="#1A1A1A"/>
<path d="M63.771 64.1609L66.0445 63.4122C66.0868 63.3987 66.1156 63.3708 66.1307 63.3286C68.486 56.6564 70.8521 49.9893 73.229 43.3274C73.6013 42.2815 71.7863 41.2391 71.0548 40.9274C71.0482 40.9245 71.0426 40.9196 71.0388 40.9134C71.035 40.9072 71.0331 40.9 71.0335 40.8928C71.0339 40.8855 71.0365 40.8786 71.0409 40.8728C71.0454 40.8671 71.0515 40.8628 71.0584 40.8606C73.7075 40.0431 76.372 39.2809 79.0522 38.574C79.1288 38.5533 79.1368 38.568 79.0761 38.6182C77.9763 39.5145 77.0836 40.5812 76.398 41.8182C76.1338 42.2958 75.8245 43.0281 75.4701 44.0152C72.9392 51.0703 70.4255 58.1314 67.9289 65.1985C67.9237 65.2134 67.915 65.227 67.9036 65.2381C67.8922 65.2493 67.8783 65.2578 67.8631 65.263L61.9177 67.2164C61.9113 67.2184 61.9045 67.2181 61.8985 67.2157C61.8926 67.2133 61.8879 67.2089 61.8854 67.2033C59.3976 61.8055 56.9098 56.4216 54.422 51.0516C54.015 50.1736 53.6686 49.5674 53.3828 49.2331C52.7132 48.4506 51.84 47.9396 50.7633 47.7C50.6947 47.6849 50.6935 47.6658 50.7597 47.6427L58.7439 44.8845C58.7497 44.8819 58.7563 44.8815 58.7623 44.8834C58.7684 44.8853 58.7736 44.8892 58.7769 44.8946C58.7803 44.9 58.7816 44.9064 58.7806 44.9126C58.7796 44.9189 58.7763 44.9246 58.7715 44.9286C58.0914 45.6224 56.5411 47.4528 56.5423 48.4415C56.5423 48.5999 56.5858 48.7738 56.6728 48.9633C59.0017 54.0164 61.3339 59.0675 63.6693 64.1167C63.6779 64.1352 63.693 64.1499 63.7118 64.158C63.7305 64.1661 63.7516 64.1672 63.771 64.1609Z" fill="#1A1A1A"/>
<path d="M34.4628 68.193C33.7652 70.1353 33.0725 72.0792 32.3845 74.0247C32.2097 74.5214 32.7807 75.2032 33.2141 75.5483C33.2468 75.5753 33.2848 75.5905 33.3279 75.5936C33.4364 75.6016 33.511 75.6569 33.5517 75.7596C33.5709 75.8074 33.6028 75.8436 33.6475 75.8683L34.5394 76.353C34.5953 76.3833 34.5929 76.408 34.5323 76.4271C31.9072 77.235 29.2657 77.9853 26.6079 78.6778C26.5185 78.7009 26.5093 78.6834 26.5804 78.6253C27.693 77.7194 28.5917 76.6372 29.2765 75.3787C29.5311 74.9115 29.8376 74.1779 30.196 73.1781C32.7157 66.1509 35.2206 59.1184 37.7108 52.0808C37.7236 52.0442 37.7484 52.0199 37.7851 52.008L43.6849 50.076C43.7256 50.0625 43.7552 50.0752 43.7735 50.1142C46.2589 55.5105 48.7487 60.9003 51.2429 66.2838C51.6332 67.126 51.97 67.7126 52.2533 68.0438C52.9278 68.8326 53.8061 69.3457 54.8884 69.5829C54.9547 69.5972 54.9559 69.6151 54.892 69.6366L46.9353 72.3853C46.8771 72.4052 46.8667 72.3909 46.9042 72.3423C47.5088 71.5483 49.5129 69.4754 49.0197 68.3984C48.3612 66.9656 47.6912 65.5379 47.0096 64.1154C46.992 64.078 46.9637 64.0657 46.9246 64.0784L34.5323 68.1262C34.4979 68.1373 34.4748 68.1596 34.4628 68.193ZM35.5044 65.2641C35.4999 65.2765 35.499 65.2899 35.5018 65.3029C35.5046 65.3158 35.511 65.3276 35.5202 65.3371C35.5295 65.3465 35.5412 65.3532 35.5541 65.3564C35.5669 65.3595 35.5804 65.359 35.593 65.3548L45.9429 61.965C45.9523 61.9619 45.961 61.9568 45.9684 61.9501C45.9758 61.9434 45.9816 61.9352 45.9856 61.926C45.9896 61.9169 45.9915 61.907 45.9914 61.8971C45.9912 61.8871 45.989 61.8773 45.9848 61.8683L41.9693 53.1542C41.9622 53.1384 41.9495 53.1257 41.9335 53.1187C41.9176 53.1116 41.8997 53.1107 41.8831 53.116L39.5689 53.8766C39.5585 53.8798 39.549 53.8854 39.5411 53.8928C39.5332 53.9003 39.5272 53.9094 39.5234 53.9196L35.5044 65.2641Z" fill="#1A1A1A"/>
<path d="M21.4547 69.2495C16.2054 70.3607 10.9093 71.1643 5.56657 71.6602C5.52507 71.6642 5.50432 71.6869 5.50432 71.7283C5.49394 74.1649 5.49274 76.6051 5.50073 79.0489C5.50552 80.3802 5.98081 81.3725 7.08344 82.1474C7.13771 82.1856 7.13173 82.2075 7.06548 82.2131C5.16192 82.3834 3.25476 82.4825 1.34401 82.5104C1.33542 82.5107 1.32702 82.5082 1.32 82.5033C1.31299 82.4984 1.30772 82.4914 1.30494 82.4832C1.30216 82.475 1.302 82.4661 1.30451 82.4577C1.30701 82.4492 1.31203 82.4418 1.31887 82.4364C2.03002 81.8998 2.5089 81.2288 2.75552 80.4232C2.87205 80.0419 2.92992 79.433 2.92912 78.5964C2.92673 73.1022 2.92433 67.6085 2.92194 62.1152C2.92114 60.8383 2.39836 59.8461 1.35359 59.1384C1.35221 59.1374 1.35114 59.1359 1.35053 59.1342C1.34993 59.1325 1.34982 59.1307 1.35022 59.1291C1.35062 59.1275 1.35152 59.1262 1.35277 59.1253C1.35403 59.1244 1.35557 59.124 1.35718 59.1241L7.03555 58.8316C7.04353 58.8316 7.04353 58.8344 7.03555 58.8399C6.38187 59.3016 5.93611 59.8851 5.69827 60.5904C5.57136 60.9685 5.50631 61.634 5.50312 62.5868C5.49594 64.7806 5.49554 66.9757 5.50192 69.1719C5.50188 69.1775 5.50304 69.183 5.50532 69.1881C5.50759 69.1933 5.51094 69.1978 5.51513 69.2016C5.51933 69.2053 5.52427 69.2081 5.52963 69.2098C5.53499 69.2114 5.54064 69.212 5.54622 69.2113C10.8977 68.7154 16.2026 67.9114 21.4607 66.7993C21.4974 66.7914 21.5158 66.7683 21.5158 66.7301C21.5254 64.7488 21.5266 62.7675 21.5194 60.7862C21.5122 58.9152 21.59 57.7546 19.9774 56.8817C19.951 56.8674 19.9526 56.8567 19.9822 56.8495L25.5983 55.5384C25.6494 55.5265 25.6569 55.5396 25.621 55.5778C24.9586 56.2768 24.5092 57.0198 24.273 57.8071C24.1525 58.2107 24.0922 58.8996 24.0922 59.874C24.0946 65.22 24.0954 70.5661 24.0946 75.9122C24.0946 76.502 24.1493 76.949 24.2586 77.2531C24.5108 77.9528 24.9885 78.4865 25.6917 78.8543C25.6996 78.8587 25.7061 78.8654 25.7102 78.8735C25.7143 78.8816 25.7158 78.8907 25.7147 78.8997C25.7135 78.9087 25.7097 78.9171 25.7036 78.9239C25.6976 78.9307 25.6897 78.9356 25.6809 78.9378L19.9726 80.2728C19.9627 80.2754 19.9522 80.2748 19.9427 80.2709C19.9332 80.267 19.9252 80.2602 19.9201 80.2513C19.9149 80.2425 19.9128 80.2322 19.914 80.2221C19.9153 80.2119 19.9199 80.2024 19.9271 80.1952C21.0034 79.0155 21.5146 78.1211 21.5194 76.4638C21.5258 74.075 21.525 71.6869 21.517 69.2996C21.517 69.292 21.5153 69.2844 21.512 69.2775C21.5086 69.2706 21.5038 69.2646 21.4979 69.2597C21.4919 69.2549 21.4849 69.2515 21.4775 69.2497C21.47 69.248 21.4622 69.2479 21.4547 69.2495Z" fill="#1A1A1A"/>
</g>
<path d="M126.834 85.0332V0.0332031H124.834V85.0332H126.834Z" fill="#1A1A1A" mask="url(#path-9-inside-1_1483_27743)"/>
<path d="M164.05 22.4612C164.241 22.4612 164.336 22.5565 164.336 22.7472C164.336 22.9379 164.241 23.0332 164.05 23.0332C164.021 23.0332 163.808 23.0332 163.412 23.0332C163.016 23.0185 162.503 23.0039 161.872 22.9892C161.241 22.9745 160.64 22.9672 160.068 22.9672C159.525 22.9672 158.939 22.9745 158.308 22.9892C157.677 22.9892 157.142 22.9965 156.702 23.0112C156.277 23.0112 156.042 23.0112 155.998 23.0112C155.807 23.0112 155.712 22.9159 155.712 22.7252C155.712 22.5345 155.807 22.4392 155.998 22.4392L158.286 22.3732C158.491 22.3585 158.631 22.3219 158.704 22.2632C158.792 22.1899 158.836 22.0725 158.836 21.9112V15.2232H151.752V21.9112C151.752 22.2045 151.943 22.3585 152.324 22.3732L154.634 22.4392C154.81 22.4392 154.898 22.5345 154.898 22.7252C154.898 22.9159 154.81 23.0112 154.634 23.0112C154.605 23.0112 154.399 23.0112 154.018 23.0112C153.637 22.9965 153.138 22.9892 152.522 22.9892C151.921 22.9745 151.334 22.9672 150.762 22.9672C150.161 22.9672 149.53 22.9745 148.87 22.9892C148.21 22.9892 147.667 22.9965 147.242 23.0112C146.817 23.0259 146.582 23.0332 146.538 23.0332C146.347 23.0332 146.252 22.9379 146.252 22.7472C146.252 22.5565 146.347 22.4612 146.538 22.4612L148.87 22.3732C149.09 22.3585 149.237 22.3219 149.31 22.2632C149.383 22.2045 149.42 22.0872 149.42 21.9112V8.3812C149.42 8.0732 149.237 7.91187 148.87 7.8972L146.538 7.8092C146.347 7.8092 146.252 7.71387 146.252 7.5232C146.252 7.33254 146.347 7.2372 146.538 7.2372C146.567 7.2372 146.773 7.24454 147.154 7.2592C147.535 7.27387 148.034 7.28854 148.65 7.3032C149.281 7.3032 149.911 7.3032 150.542 7.3032C151.143 7.3032 151.759 7.3032 152.39 7.3032C153.035 7.28854 153.563 7.2812 153.974 7.2812C154.385 7.26654 154.605 7.2592 154.634 7.2592C154.81 7.2592 154.898 7.35454 154.898 7.5452C154.898 7.73587 154.81 7.8312 154.634 7.8312L152.324 7.8972C151.943 7.91187 151.752 8.0732 151.752 8.3812V14.6512H158.836V8.3812C158.836 8.2052 158.792 8.08787 158.704 8.0292C158.631 7.95587 158.491 7.91187 158.286 7.8972L155.998 7.8312C155.807 7.8312 155.712 7.73587 155.712 7.5452C155.712 7.35454 155.807 7.2592 155.998 7.2592C156.027 7.2592 156.24 7.26654 156.636 7.2812C157.032 7.2812 157.523 7.28854 158.11 7.3032C158.711 7.3032 159.283 7.3032 159.826 7.3032C160.427 7.3032 161.058 7.3032 161.718 7.3032C162.393 7.28854 162.943 7.27387 163.368 7.2592C163.793 7.24454 164.021 7.2372 164.05 7.2372C164.241 7.2372 164.336 7.33254 164.336 7.5232C164.336 7.71387 164.241 7.8092 164.05 7.8092L161.718 7.8972C161.351 7.91187 161.168 8.0732 161.168 8.3812V21.9112C161.168 22.0725 161.205 22.1899 161.278 22.2632C161.351 22.3219 161.498 22.3585 161.718 22.3732L164.05 22.4612ZM175.61 20.3052C175.61 22.3292 174.935 23.3412 173.586 23.3412C172.911 23.3412 172.361 23.1652 171.936 22.8132C171.525 22.4612 171.312 21.9479 171.298 21.2732H171.232C171.041 21.9185 170.689 22.4245 170.176 22.7912C169.662 23.1432 169.046 23.3192 168.328 23.3192C167.506 23.3192 166.824 23.1432 166.282 22.7912C165.739 22.4245 165.468 21.8672 165.468 21.1192C165.468 20.7379 165.541 20.3932 165.688 20.0852C165.834 19.7625 166.054 19.4765 166.348 19.2272C166.641 18.9632 166.92 18.7505 167.184 18.5892C167.448 18.4132 167.77 18.2225 168.152 18.0172C168.665 17.7385 169.626 17.2985 171.034 16.6972C171.21 16.6239 171.298 16.4845 171.298 16.2792V14.8932C171.298 13.6759 170.594 13.0672 169.186 13.0672C168.555 13.0672 168.012 13.1552 167.558 13.3312C167.103 13.5072 166.876 13.7272 166.876 13.9912C166.876 14.0352 166.883 14.0792 166.898 14.1232C166.912 14.1525 166.927 14.1819 166.942 14.2112C166.971 14.2259 167.008 14.2552 167.052 14.2992C167.096 14.3285 167.125 14.3579 167.14 14.3872C167.169 14.4019 167.213 14.4312 167.272 14.4752C167.345 14.5192 167.396 14.5485 167.426 14.5632C167.822 14.8419 168.02 15.1865 168.02 15.5972C168.02 15.9785 167.902 16.2792 167.668 16.4992C167.433 16.7045 167.154 16.8072 166.832 16.8072C166.48 16.8072 166.172 16.6825 165.908 16.4332C165.658 16.1692 165.534 15.8099 165.534 15.3552C165.534 14.5632 165.915 13.8885 166.678 13.3312C167.44 12.7592 168.438 12.4732 169.67 12.4732C170.755 12.4732 171.606 12.6859 172.222 13.1112C172.838 13.5365 173.146 14.1599 173.146 14.9812V21.6032C173.146 22.3365 173.461 22.7032 174.092 22.7032C174.752 22.7032 175.082 21.8892 175.082 20.2612C175.082 20.0412 175.074 19.8285 175.06 19.6232C175.06 19.4032 175.06 19.2272 175.06 19.0952C175.06 18.9632 175.06 18.8899 175.06 18.8752C175.06 18.6992 175.133 18.6112 175.28 18.6112C175.412 18.6112 175.492 18.6992 175.522 18.8752C175.58 19.4325 175.61 19.9092 175.61 20.3052ZM171.298 18.8532V17.0052C170.286 17.4892 169.75 17.7459 169.692 17.7752C168.166 18.4939 167.404 19.5132 167.404 20.8332C167.404 21.3319 167.521 21.7645 167.756 22.1312C168.005 22.4832 168.379 22.6592 168.878 22.6592C169.626 22.6592 170.212 22.3219 170.638 21.6472C171.078 20.9725 171.298 20.0412 171.298 18.8532ZM182.605 11.3292C183.163 11.3292 183.632 11.2852 184.013 11.1972C184.365 11.1092 184.541 10.9625 184.541 10.7572C184.541 10.6985 184.439 10.5665 184.233 10.3612C184.028 10.1559 183.925 9.92854 183.925 9.6792C183.925 9.29787 184.035 9.00454 184.255 8.7992C184.49 8.59387 184.769 8.4912 185.091 8.4912C185.399 8.4912 185.671 8.6012 185.905 8.8212C186.14 9.02654 186.257 9.31254 186.257 9.6792C186.257 10.6472 185.539 11.2852 184.101 11.5932C183.661 11.6812 183.163 11.7252 182.605 11.7252C182.063 11.7252 181.571 11.6812 181.131 11.5932C179.679 11.2852 178.953 10.6472 178.953 9.6792C178.953 9.31254 179.071 9.02654 179.305 8.8212C179.54 8.6012 179.811 8.4912 180.119 8.4912C180.442 8.4912 180.713 8.59387 180.933 8.7992C181.168 9.00454 181.285 9.29787 181.285 9.6792C181.285 9.92854 181.183 10.1559 180.977 10.3612C180.772 10.5665 180.669 10.6985 180.669 10.7572C180.669 10.9625 180.853 11.1092 181.219 11.1972C181.601 11.2852 182.063 11.3292 182.605 11.3292ZM188.831 22.7472C188.831 22.8059 188.802 22.8719 188.743 22.9452C188.699 23.0039 188.641 23.0332 188.567 23.0332C188.553 23.0332 188.384 23.0332 188.061 23.0332C187.753 23.0185 187.372 23.0039 186.917 22.9892C186.463 22.9745 186.052 22.9672 185.685 22.9672C185.348 22.9672 184.974 22.9672 184.563 22.9672C184.153 22.9672 183.808 22.9745 183.529 22.9892C183.251 22.9892 183.097 22.9892 183.067 22.9892C182.906 22.9892 182.825 22.9085 182.825 22.7472C182.825 22.5419 182.906 22.4392 183.067 22.4392H184.431C184.622 22.4392 184.717 22.3732 184.717 22.2412V14.9812L184.651 14.9372L180.207 21.6912C180.163 21.7645 180.141 21.9185 180.141 22.1532C180.141 22.2705 180.156 22.3512 180.185 22.3952C180.215 22.4245 180.295 22.4392 180.427 22.4392H181.813C181.975 22.4392 182.055 22.5419 182.055 22.7472C182.055 22.9085 181.975 22.9892 181.813 22.9892C180.435 22.9745 179.584 22.9672 179.261 22.9672C178.88 22.9672 178.455 22.9745 177.985 22.9892C177.516 22.9892 177.12 22.9965 176.797 23.0112C176.475 23.0259 176.306 23.0332 176.291 23.0332C176.101 23.0332 176.005 22.9379 176.005 22.7472C176.005 22.5565 176.101 22.4612 176.291 22.4612L178.007 22.4172C178.183 22.4172 178.271 22.3512 178.271 22.2192V13.6392C178.271 13.4925 178.183 13.4192 178.007 13.4192L176.291 13.3752C176.203 13.3752 176.13 13.3459 176.071 13.2872C176.027 13.2285 176.005 13.1699 176.005 13.1112C176.005 12.9059 176.101 12.8032 176.291 12.8032C176.306 12.8032 176.46 12.8105 176.753 12.8252C177.061 12.8252 177.443 12.8325 177.897 12.8472C178.352 12.8619 178.785 12.8692 179.195 12.8692L181.813 12.8472C181.989 12.8472 182.077 12.9425 182.077 13.1332C182.077 13.3092 181.989 13.3972 181.813 13.3972H180.427C180.237 13.3972 180.141 13.4705 180.141 13.6172V20.7232L180.207 20.7672L184.651 14.0352C184.695 13.9912 184.717 13.8592 184.717 13.6392C184.717 13.5365 184.695 13.4705 184.651 13.4412C184.622 13.4119 184.549 13.3972 184.431 13.3972H183.067C182.891 13.3972 182.803 13.3092 182.803 13.1332C182.803 12.9425 182.891 12.8472 183.067 12.8472L185.619 12.8692C186.001 12.8692 186.426 12.8619 186.895 12.8472C187.365 12.8325 187.753 12.8252 188.061 12.8252C188.384 12.8105 188.553 12.8032 188.567 12.8032C188.743 12.8032 188.831 12.9059 188.831 13.1112C188.831 13.1699 188.802 13.2285 188.743 13.2872C188.699 13.3459 188.641 13.3752 188.567 13.3752L186.873 13.4192C186.683 13.4192 186.587 13.4925 186.587 13.6392V22.2192C186.587 22.3512 186.683 22.4172 186.873 22.4172L188.567 22.4612C188.743 22.4612 188.831 22.5565 188.831 22.7472ZM195.369 18.2152H193.851V21.8892C193.851 22.2119 194.005 22.3805 194.313 22.3952L196.007 22.4612C196.198 22.4612 196.293 22.5565 196.293 22.7472C196.293 22.9379 196.198 23.0332 196.007 23.0332C195.949 23.0332 195.567 23.0259 194.863 23.0112C194.159 22.9819 193.499 22.9672 192.883 22.9672C192.326 22.9672 191.703 22.9819 191.013 23.0112C190.324 23.0259 189.943 23.0332 189.869 23.0332C189.679 23.0332 189.583 22.9379 189.583 22.7472C189.583 22.5565 189.679 22.4612 189.869 22.4612L191.497 22.3732C191.82 22.3585 191.981 22.1972 191.981 21.8892V13.8812C191.981 13.6319 191.842 13.4999 191.563 13.4852L189.891 13.4192C189.803 13.4192 189.73 13.3899 189.671 13.3312C189.613 13.2579 189.583 13.1919 189.583 13.1332C189.583 12.9425 189.686 12.8472 189.891 12.8472C189.935 12.8472 190.295 12.8545 190.969 12.8692C191.644 12.8839 192.253 12.8912 192.795 12.8912C193.338 12.8912 193.991 12.8839 194.753 12.8692C195.516 12.8545 195.919 12.8472 195.963 12.8472C196.169 12.8472 196.271 12.9425 196.271 13.1332C196.271 13.1919 196.242 13.2579 196.183 13.3312C196.125 13.3899 196.051 13.4192 195.963 13.4192L194.269 13.4852C193.991 13.4999 193.851 13.6319 193.851 13.8812V17.7752H195.545C195.956 17.7752 196.293 17.6652 196.557 17.4452C196.836 17.2105 196.99 16.8952 197.019 16.4992L197.173 14.7832C197.232 14.0499 197.445 13.4999 197.811 13.1332C198.193 12.7665 198.625 12.5832 199.109 12.5832C199.52 12.5832 199.865 12.7079 200.143 12.9572C200.437 13.1919 200.583 13.5145 200.583 13.9252C200.583 14.2479 200.473 14.5339 200.253 14.7832C200.033 15.0179 199.718 15.1352 199.307 15.1352C199.073 15.1352 198.765 14.9959 198.383 14.7172C198.237 14.5852 198.105 14.5192 197.987 14.5192C197.826 14.5192 197.723 14.6879 197.679 15.0252L197.503 16.5872C197.415 17.2765 197.041 17.7312 196.381 17.9512C196.323 17.9659 196.293 17.9879 196.293 18.0172L196.315 18.0612C196.741 18.1932 197.188 18.3765 197.657 18.6112C198.332 18.9779 198.794 19.3812 199.043 19.8212C199.307 20.2465 199.476 20.8552 199.549 21.6472C199.564 21.9699 199.652 22.2265 199.813 22.4172C199.989 22.6079 200.187 22.7032 200.407 22.7032C200.759 22.7032 201.053 22.4392 201.287 21.9112C201.346 21.7939 201.434 21.7352 201.551 21.7352C201.727 21.7352 201.815 21.8159 201.815 21.9772C201.815 22.0212 201.786 22.1019 201.727 22.2192C201.537 22.6299 201.287 22.9085 200.979 23.0552C200.686 23.2165 200.239 23.2972 199.637 23.2972C198.992 23.2972 198.457 23.1212 198.031 22.7692C197.621 22.4025 197.415 21.9039 197.415 21.2732V20.3932C197.415 19.5865 197.217 19.0219 196.821 18.6992C196.425 18.3765 195.941 18.2152 195.369 18.2152ZM214.228 17.9072C214.228 19.0659 213.934 20.0999 213.348 21.0092C212.893 21.7279 212.343 22.2999 211.698 22.7252C211.052 23.1359 210.363 23.3412 209.63 23.3412C208.882 23.3412 208.229 23.0845 207.672 22.5712C207.188 22.1312 206.843 21.5592 206.638 20.8552H206.572V27.1912C206.572 27.3525 206.814 27.4405 207.298 27.4552L209.058 27.5212C209.263 27.5212 209.366 27.6165 209.366 27.8072C209.366 27.9979 209.263 28.0932 209.058 28.0932C208.823 28.0932 208.302 28.0785 207.496 28.0492C206.704 28.0345 206.161 28.0272 205.868 28.0272C205.574 28.0272 205.024 28.0345 204.218 28.0492C203.426 28.0785 202.912 28.0932 202.678 28.0932C202.472 28.0932 202.37 27.9979 202.37 27.8072C202.37 27.6165 202.472 27.5212 202.678 27.5212L204.438 27.4552C204.614 27.4552 204.702 27.3672 204.702 27.1912V14.0132C204.702 13.6172 204.496 13.4192 204.086 13.4192H202.37C202.179 13.4192 202.084 13.3092 202.084 13.0892C202.084 12.9132 202.179 12.8252 202.37 12.8252C202.722 12.8252 203.352 12.8179 204.262 12.8032C205.171 12.7885 205.831 12.7812 206.242 12.7812C206.462 12.7812 206.572 12.8839 206.572 13.0892V14.9372H206.638C206.843 14.2332 207.188 13.6612 207.672 13.2212C208.214 12.7225 208.867 12.4732 209.63 12.4732C210.348 12.4732 211.03 12.6932 211.676 13.1332C212.336 13.5585 212.893 14.1305 213.348 14.8492C213.934 15.7585 214.228 16.7779 214.228 17.9072ZM212.182 17.9072C212.182 16.6752 212.035 15.6412 211.742 14.8052C211.346 13.6319 210.627 13.0452 209.586 13.0452C209.028 13.0452 208.493 13.2432 207.98 13.6392C207.026 14.3579 206.55 15.7072 206.55 17.6872V18.1052C206.55 20.0999 207.026 21.4565 207.98 22.1752C208.478 22.5565 209.014 22.7472 209.586 22.7472C210.642 22.7472 211.36 22.1825 211.742 21.0532C212.035 20.2172 212.182 19.1685 212.182 17.9072ZM225.991 20.3052C225.991 22.3292 225.316 23.3412 223.967 23.3412C223.292 23.3412 222.742 23.1652 222.317 22.8132C221.906 22.4612 221.693 21.9479 221.679 21.2732H221.613C221.422 21.9185 221.07 22.4245 220.557 22.7912C220.043 23.1432 219.427 23.3192 218.709 23.3192C217.887 23.3192 217.205 23.1432 216.663 22.7912C216.12 22.4245 215.849 21.8672 215.849 21.1192C215.849 20.7379 215.922 20.3932 216.069 20.0852C216.215 19.7625 216.435 19.4765 216.729 19.2272C217.022 18.9632 217.301 18.7505 217.565 18.5892C217.829 18.4132 218.151 18.2225 218.533 18.0172C219.046 17.7385 220.007 17.2985 221.415 16.6972C221.591 16.6239 221.679 16.4845 221.679 16.2792V14.8932C221.679 13.6759 220.975 13.0672 219.567 13.0672C218.936 13.0672 218.393 13.1552 217.939 13.3312C217.484 13.5072 217.257 13.7272 217.257 13.9912C217.257 14.0352 217.264 14.0792 217.279 14.1232C217.293 14.1525 217.308 14.1819 217.323 14.2112C217.352 14.2259 217.389 14.2552 217.433 14.2992C217.477 14.3285 217.506 14.3579 217.521 14.3872C217.55 14.4019 217.594 14.4312 217.653 14.4752C217.726 14.5192 217.777 14.5485 217.807 14.5632C218.203 14.8419 218.401 15.1865 218.401 15.5972C218.401 15.9785 218.283 16.2792 218.049 16.4992C217.814 16.7045 217.535 16.8072 217.213 16.8072C216.861 16.8072 216.553 16.6825 216.289 16.4332C216.039 16.1692 215.915 15.8099 215.915 15.3552C215.915 14.5632 216.296 13.8885 217.059 13.3312C217.821 12.7592 218.819 12.4732 220.051 12.4732C221.136 12.4732 221.987 12.6859 222.603 13.1112C223.219 13.5365 223.527 14.1599 223.527 14.9812V21.6032C223.527 22.3365 223.842 22.7032 224.473 22.7032C225.133 22.7032 225.463 21.8892 225.463 20.2612C225.463 20.0412 225.455 19.8285 225.441 19.6232C225.441 19.4032 225.441 19.2272 225.441 19.0952C225.441 18.9632 225.441 18.8899 225.441 18.8752C225.441 18.6992 225.514 18.6112 225.661 18.6112C225.793 18.6112 225.873 18.6992 225.903 18.8752C225.961 19.4325 225.991 19.9092 225.991 20.3052ZM221.679 18.8532V17.0052C220.667 17.4892 220.131 17.7459 220.073 17.7752C218.547 18.4939 217.785 19.5132 217.785 20.8332C217.785 21.3319 217.902 21.7645 218.137 22.1312C218.386 22.4832 218.76 22.6592 219.259 22.6592C220.007 22.6592 220.593 22.3219 221.019 21.6472C221.459 20.9725 221.679 20.0412 221.679 18.8532ZM244.316 22.7912C244.316 22.8352 244.301 22.9012 244.272 22.9892C244.257 23.0625 244.221 23.2019 244.162 23.4072C244.103 23.6125 244.045 23.8399 243.986 24.0892C243.971 24.1479 243.81 25.0279 243.502 26.7292C243.473 26.8905 243.385 26.9712 243.238 26.9712C243.091 26.9712 243.003 26.8905 242.974 26.7292C242.93 26.4505 242.879 26.0985 242.82 25.6732C242.776 25.2625 242.739 24.9765 242.71 24.8152C242.695 24.6539 242.659 24.4412 242.6 24.1772C242.556 23.9132 242.505 23.7372 242.446 23.6492C242.387 23.5759 242.314 23.4732 242.226 23.3412C242.138 23.2092 242.021 23.1285 241.874 23.0992C241.742 23.0699 241.588 23.0405 241.412 23.0112C241.236 22.9819 241.023 22.9672 240.774 22.9672H229.62C229.151 22.9672 228.564 22.9819 227.86 23.0112C227.156 23.0259 226.76 23.0332 226.672 23.0332C226.496 23.0332 226.408 22.9379 226.408 22.7472C226.408 22.5565 226.496 22.4612 226.672 22.4612L228.146 22.3952C228.498 22.3805 228.674 22.2045 228.674 21.8672V13.9472C228.674 13.6539 228.542 13.4999 228.278 13.4852L226.694 13.4192C226.503 13.4192 226.408 13.3239 226.408 13.1332C226.408 12.9425 226.503 12.8472 226.694 12.8472C226.782 12.8472 227.171 12.8619 227.86 12.8912C228.564 12.9059 229.151 12.9132 229.62 12.9132C230.163 12.9132 230.654 12.9132 231.094 12.9132C231.534 12.8985 231.791 12.8912 231.864 12.8912C232.055 12.8912 232.15 12.9792 232.15 13.1552C232.15 13.3459 232.055 13.4412 231.864 13.4412L230.984 13.4852C230.691 13.5145 230.544 13.6685 230.544 13.9472V21.8672C230.544 22.0432 230.595 22.1825 230.698 22.2852C230.815 22.3879 230.955 22.4392 231.116 22.4392H233.69C234.071 22.4392 234.262 22.2485 234.262 21.8672V13.9472C234.262 13.6099 234.115 13.4412 233.822 13.4412H233.052C232.861 13.4412 232.766 13.3459 232.766 13.1552C232.766 12.9792 232.861 12.8912 233.052 12.8912C233.125 12.8912 233.367 12.8985 233.778 12.9132C234.189 12.9132 234.665 12.9132 235.208 12.9132C235.751 12.9132 236.22 12.9132 236.616 12.9132C237.027 12.8985 237.269 12.8912 237.342 12.8912C237.533 12.8912 237.628 12.9792 237.628 13.1552C237.628 13.3459 237.533 13.4412 237.342 13.4412H236.572C236.279 13.4412 236.132 13.6099 236.132 13.9472V21.8672C236.132 22.0432 236.183 22.1825 236.286 22.2852C236.403 22.3879 236.543 22.4392 236.704 22.4392H239.278C239.454 22.4392 239.593 22.3879 239.696 22.2852C239.799 22.1679 239.85 22.0285 239.85 21.8672V13.9252C239.835 13.6612 239.689 13.5145 239.41 13.4852L238.53 13.4412C238.339 13.4412 238.244 13.3459 238.244 13.1552C238.244 12.9792 238.339 12.8912 238.53 12.8912C238.603 12.8912 238.86 12.8985 239.3 12.9132C239.74 12.9132 240.231 12.9132 240.774 12.9132C241.243 12.9132 241.786 12.9059 242.402 12.8912C243.033 12.8619 243.392 12.8472 243.48 12.8472C243.671 12.8472 243.766 12.9425 243.766 13.1332C243.766 13.3239 243.671 13.4192 243.48 13.4192L242.116 13.4852C241.852 13.4999 241.72 13.6539 241.72 13.9472V21.8672C241.72 22.1899 241.889 22.3732 242.226 22.4172C242.901 22.4612 243.487 22.4832 243.986 22.4832C244.206 22.4832 244.316 22.5785 244.316 22.7692V22.7912ZM257.904 22.7472C257.904 22.8059 257.874 22.8719 257.816 22.9452C257.772 23.0039 257.713 23.0332 257.64 23.0332C257.625 23.0332 257.456 23.0332 257.134 23.0332C256.826 23.0185 256.444 23.0039 255.99 22.9892C255.535 22.9745 255.124 22.9672 254.758 22.9672C254.42 22.9672 254.046 22.9672 253.636 22.9672C253.225 22.9672 252.88 22.9745 252.602 22.9892C252.323 22.9892 252.169 22.9892 252.14 22.9892C251.978 22.9892 251.898 22.9085 251.898 22.7472C251.898 22.5419 251.978 22.4392 252.14 22.4392H253.504C253.694 22.4392 253.79 22.3732 253.79 22.2412V14.9812L253.724 14.9372L249.28 21.6912C249.236 21.7645 249.214 21.9185 249.214 22.1532C249.214 22.2705 249.228 22.3512 249.258 22.3952C249.287 22.4245 249.368 22.4392 249.5 22.4392H250.886C251.047 22.4392 251.128 22.5419 251.128 22.7472C251.128 22.9085 251.047 22.9892 250.886 22.9892C249.507 22.9745 248.656 22.9672 248.334 22.9672C247.952 22.9672 247.527 22.9745 247.058 22.9892C246.588 22.9892 246.192 22.9965 245.87 23.0112C245.547 23.0259 245.378 23.0332 245.364 23.0332C245.173 23.0332 245.078 22.9379 245.078 22.7472C245.078 22.5565 245.173 22.4612 245.364 22.4612L247.08 22.4172C247.256 22.4172 247.344 22.3512 247.344 22.2192V13.6392C247.344 13.4925 247.256 13.4192 247.08 13.4192L245.364 13.3752C245.276 13.3752 245.202 13.3459 245.144 13.2872C245.1 13.2285 245.078 13.1699 245.078 13.1112C245.078 12.9059 245.173 12.8032 245.364 12.8032C245.378 12.8032 245.532 12.8105 245.826 12.8252C246.134 12.8252 246.515 12.8325 246.97 12.8472C247.424 12.8619 247.857 12.8692 248.268 12.8692L250.886 12.8472C251.062 12.8472 251.15 12.9425 251.15 13.1332C251.15 13.3092 251.062 13.3972 250.886 13.3972H249.5C249.309 13.3972 249.214 13.4705 249.214 13.6172V20.7232L249.28 20.7672L253.724 14.0352C253.768 13.9912 253.79 13.8592 253.79 13.6392C253.79 13.5365 253.768 13.4705 253.724 13.4412C253.694 13.4119 253.621 13.3972 253.504 13.3972H252.14C251.964 13.3972 251.876 13.3092 251.876 13.1332C251.876 12.9425 251.964 12.8472 252.14 12.8472L254.692 12.8692C255.073 12.8692 255.498 12.8619 255.968 12.8472C256.437 12.8325 256.826 12.8252 257.134 12.8252C257.456 12.8105 257.625 12.8032 257.64 12.8032C257.816 12.8032 257.904 12.9059 257.904 13.1112C257.904 13.1699 257.874 13.2285 257.816 13.2872C257.772 13.3459 257.713 13.3752 257.64 13.3752L255.946 13.4192C255.755 13.4192 255.66 13.4925 255.66 13.6392V22.2192C255.66 22.3512 255.755 22.4172 255.946 22.4172L257.64 22.4612C257.816 22.4612 257.904 22.5565 257.904 22.7472ZM265.256 11.3292C265.813 11.3292 266.282 11.2852 266.664 11.1972C267.016 11.1092 267.192 10.9625 267.192 10.7572C267.192 10.6985 267.089 10.5665 266.884 10.3612C266.678 10.1559 266.576 9.92854 266.576 9.6792C266.576 9.29787 266.686 9.00454 266.906 8.7992C267.14 8.59387 267.419 8.4912 267.742 8.4912C268.05 8.4912 268.321 8.6012 268.556 8.8212C268.79 9.02654 268.908 9.31254 268.908 9.6792C268.908 10.6472 268.189 11.2852 266.752 11.5932C266.312 11.6812 265.813 11.7252 265.256 11.7252C264.713 11.7252 264.222 11.6812 263.782 11.5932C262.33 11.2852 261.604 10.6472 261.604 9.6792C261.604 9.31254 261.721 9.02654 261.956 8.8212C262.19 8.6012 262.462 8.4912 262.77 8.4912C263.092 8.4912 263.364 8.59387 263.584 8.7992C263.818 9.00454 263.936 9.29787 263.936 9.6792C263.936 9.92854 263.833 10.1559 263.628 10.3612C263.422 10.5665 263.32 10.6985 263.32 10.7572C263.32 10.9625 263.503 11.1092 263.87 11.1972C264.251 11.2852 264.713 11.3292 265.256 11.3292ZM271.482 22.7472C271.482 22.8059 271.452 22.8719 271.394 22.9452C271.35 23.0039 271.291 23.0332 271.218 23.0332C271.203 23.0332 271.034 23.0332 270.712 23.0332C270.404 23.0185 270.022 23.0039 269.568 22.9892C269.113 22.9745 268.702 22.9672 268.336 22.9672C267.998 22.9672 267.624 22.9672 267.214 22.9672C266.803 22.9672 266.458 22.9745 266.18 22.9892C265.901 22.9892 265.747 22.9892 265.718 22.9892C265.556 22.9892 265.476 22.9085 265.476 22.7472C265.476 22.5419 265.556 22.4392 265.718 22.4392H267.082C267.272 22.4392 267.368 22.3732 267.368 22.2412V14.9812L267.302 14.9372L262.858 21.6912C262.814 21.7645 262.792 21.9185 262.792 22.1532C262.792 22.2705 262.806 22.3512 262.836 22.3952C262.865 22.4245 262.946 22.4392 263.078 22.4392H264.464C264.625 22.4392 264.706 22.5419 264.706 22.7472C264.706 22.9085 264.625 22.9892 264.464 22.9892C263.085 22.9745 262.234 22.9672 261.912 22.9672C261.53 22.9672 261.105 22.9745 260.636 22.9892C260.166 22.9892 259.77 22.9965 259.448 23.0112C259.125 23.0259 258.956 23.0332 258.942 23.0332C258.751 23.0332 258.656 22.9379 258.656 22.7472C258.656 22.5565 258.751 22.4612 258.942 22.4612L260.658 22.4172C260.834 22.4172 260.922 22.3512 260.922 22.2192V13.6392C260.922 13.4925 260.834 13.4192 260.658 13.4192L258.942 13.3752C258.854 13.3752 258.78 13.3459 258.722 13.2872C258.678 13.2285 258.656 13.1699 258.656 13.1112C258.656 12.9059 258.751 12.8032 258.942 12.8032C258.956 12.8032 259.11 12.8105 259.404 12.8252C259.712 12.8252 260.093 12.8325 260.548 12.8472C261.002 12.8619 261.435 12.8692 261.846 12.8692L264.464 12.8472C264.64 12.8472 264.728 12.9425 264.728 13.1332C264.728 13.3092 264.64 13.3972 264.464 13.3972H263.078C262.887 13.3972 262.792 13.4705 262.792 13.6172V20.7232L262.858 20.7672L267.302 14.0352C267.346 13.9912 267.368 13.8592 267.368 13.6392C267.368 13.5365 267.346 13.4705 267.302 13.4412C267.272 13.4119 267.199 13.3972 267.082 13.3972H265.718C265.542 13.3972 265.454 13.3092 265.454 13.1332C265.454 12.9425 265.542 12.8472 265.718 12.8472L268.27 12.8692C268.651 12.8692 269.076 12.8619 269.546 12.8472C270.015 12.8325 270.404 12.8252 270.712 12.8252C271.034 12.8105 271.203 12.8032 271.218 12.8032C271.394 12.8032 271.482 12.9059 271.482 13.1112C271.482 13.1699 271.452 13.2285 271.394 13.2872C271.35 13.3459 271.291 13.3752 271.218 13.3752L269.524 13.4192C269.333 13.4192 269.238 13.4925 269.238 13.6392V22.2192C269.238 22.3512 269.333 22.4172 269.524 22.4172L271.218 22.4612C271.394 22.4612 271.482 22.5565 271.482 22.7472ZM156.614 45.2392C156.614 45.9872 156.372 46.5885 155.888 47.0432C155.213 47.7179 154.084 48.0552 152.5 48.0552H152.456C152.236 48.0552 151.774 48.0405 151.07 48.0112C150.381 47.9672 149.809 47.9452 149.354 47.9452C149.134 47.9452 148.65 47.9599 147.902 47.9892C147.154 48.0039 146.707 48.0112 146.56 48.0112C146.369 48.0112 146.274 47.9159 146.274 47.7252C146.274 47.5345 146.369 47.4392 146.56 47.4392L148.078 47.3512C148.386 47.3512 148.54 47.2192 148.54 46.9552V38.8812C148.54 38.6319 148.401 38.4999 148.122 38.4852L146.362 38.4192C146.274 38.4192 146.201 38.3899 146.142 38.3312C146.083 38.2579 146.054 38.1919 146.054 38.1332C146.054 37.9425 146.157 37.8472 146.362 37.8472C146.406 37.8472 146.773 37.8545 147.462 37.8692C148.151 37.8839 148.767 37.8912 149.31 37.8912C149.691 37.8912 150.212 37.8765 150.872 37.8472C151.547 37.8032 152.038 37.7812 152.346 37.7812C153.945 37.7812 155.052 38.1259 155.668 38.8152C156.049 39.2405 156.24 39.7539 156.24 40.3552C156.24 40.8539 155.976 41.3305 155.448 41.7852C154.935 42.2399 154.326 42.5405 153.622 42.6872C154.517 42.8925 155.235 43.2225 155.778 43.6772C156.335 44.1319 156.614 44.6525 156.614 45.2392ZM154.216 40.4212C154.216 39.6879 154.047 39.1525 153.71 38.8152C153.402 38.4779 152.896 38.3092 152.192 38.3092C151.825 38.3092 151.356 38.3312 150.784 38.3752C150.535 38.3899 150.41 38.5219 150.41 38.7712V42.4672H152.214C152.962 42.4672 153.483 42.3205 153.776 42.0272C154.069 41.7192 154.216 41.1839 154.216 40.4212ZM154.612 45.1512C154.612 44.3445 154.429 43.7725 154.062 43.4352C153.695 43.0979 153.101 42.9292 152.28 42.9292H150.41V46.9992C150.41 47.2779 150.557 47.4245 150.85 47.4392C151.525 47.4979 152.045 47.5272 152.412 47.5272C153.189 47.5272 153.732 47.3732 154.04 47.0652C154.421 46.6839 154.612 46.0459 154.612 45.1512ZM170.806 47.7472C170.806 47.8059 170.777 47.8719 170.718 47.9452C170.674 48.0039 170.615 48.0332 170.542 48.0332C170.527 48.0332 170.359 48.0332 170.036 48.0332C169.728 48.0185 169.347 48.0039 168.892 47.9892C168.437 47.9745 168.027 47.9672 167.66 47.9672C167.323 47.9672 166.949 47.9672 166.538 47.9672C166.127 47.9672 165.783 47.9745 165.504 47.9892C165.225 47.9892 165.071 47.9892 165.042 47.9892C164.881 47.9892 164.8 47.9085 164.8 47.7472C164.8 47.5419 164.881 47.4392 165.042 47.4392H166.406C166.597 47.4392 166.692 47.3732 166.692 47.2412V39.9812L166.626 39.9372L162.182 46.6912C162.138 46.7645 162.116 46.9185 162.116 47.1532C162.116 47.2705 162.131 47.3512 162.16 47.3952C162.189 47.4245 162.27 47.4392 162.402 47.4392H163.788C163.949 47.4392 164.03 47.5419 164.03 47.7472C164.03 47.9085 163.949 47.9892 163.788 47.9892C162.409 47.9745 161.559 47.9672 161.236 47.9672C160.855 47.9672 160.429 47.9745 159.96 47.9892C159.491 47.9892 159.095 47.9965 158.772 48.0112C158.449 48.0259 158.281 48.0332 158.266 48.0332C158.075 48.0332 157.98 47.9379 157.98 47.7472C157.98 47.5565 158.075 47.4612 158.266 47.4612L159.982 47.4172C160.158 47.4172 160.246 47.3512 160.246 47.2192V38.6392C160.246 38.4925 160.158 38.4192 159.982 38.4192L158.266 38.3752C158.178 38.3752 158.105 38.3459 158.046 38.2872C158.002 38.2285 157.98 38.1699 157.98 38.1112C157.98 37.9059 158.075 37.8032 158.266 37.8032C158.281 37.8032 158.435 37.8105 158.728 37.8252C159.036 37.8252 159.417 37.8325 159.872 37.8472C160.327 37.8619 160.759 37.8692 161.17 37.8692L163.788 37.8472C163.964 37.8472 164.052 37.9425 164.052 38.1332C164.052 38.3092 163.964 38.3972 163.788 38.3972H162.402C162.211 38.3972 162.116 38.4705 162.116 38.6172V45.7232L162.182 45.7672L166.626 39.0352C166.67 38.9912 166.692 38.8592 166.692 38.6392C166.692 38.5365 166.67 38.4705 166.626 38.4412C166.597 38.4119 166.523 38.3972 166.406 38.3972H165.042C164.866 38.3972 164.778 38.3092 164.778 38.1332C164.778 37.9425 164.866 37.8472 165.042 37.8472L167.594 37.8692C167.975 37.8692 168.401 37.8619 168.87 37.8472C169.339 37.8325 169.728 37.8252 170.036 37.8252C170.359 37.8105 170.527 37.8032 170.542 37.8032C170.718 37.8032 170.806 37.9059 170.806 38.1112C170.806 38.1699 170.777 38.2285 170.718 38.2872C170.674 38.3459 170.615 38.3752 170.542 38.3752L168.848 38.4192C168.657 38.4192 168.562 38.4925 168.562 38.6392V47.2192C168.562 47.3512 168.657 47.4172 168.848 47.4172L170.542 47.4612C170.718 47.4612 170.806 47.5565 170.806 47.7472ZM180.974 39.7172C181.707 40.7292 182.074 41.7925 182.074 42.9072C182.074 44.0219 181.707 45.0852 180.974 46.0972C179.859 47.5932 178.569 48.3412 177.102 48.3412C175.782 48.3412 174.653 47.7985 173.714 46.7132C172.775 45.6132 172.306 43.8972 172.306 41.5652C172.306 40.0985 172.533 38.7272 172.988 37.4512C173.457 36.1752 174.242 35.2145 175.342 34.5692C175.914 34.2319 176.794 33.8799 177.982 33.5132C179.185 33.1319 179.947 32.8605 180.27 32.6992C180.387 32.6405 180.505 32.5232 180.622 32.3472C180.783 32.0979 180.908 31.9732 180.996 31.9732C181.172 31.9732 181.26 32.1272 181.26 32.4352C181.26 32.9925 181.135 33.4619 180.886 33.8432C180.637 34.2099 180.307 34.5252 179.896 34.7892C179.5 35.0385 179.133 35.2219 178.796 35.3392C178.459 35.4419 177.975 35.5885 177.344 35.7792C176.713 35.9552 176.222 36.1092 175.87 36.2412C173.919 36.9305 172.915 38.4925 172.856 40.9272V40.9492C172.856 41.0225 172.885 41.0592 172.944 41.0592C172.988 41.0592 173.025 41.0225 173.054 40.9492C173.069 40.9052 173.098 40.8172 173.142 40.6852C173.201 40.5532 173.252 40.4359 173.296 40.3332C173.677 39.4972 174.205 38.8152 174.88 38.2872C175.569 37.7445 176.31 37.4732 177.102 37.4732C178.554 37.4732 179.845 38.2212 180.974 39.7172ZM180.006 42.9072C180.006 41.9245 179.933 41.1105 179.786 40.4652C179.419 38.7932 178.525 37.9572 177.102 37.9572C176.559 37.9572 176.068 38.0965 175.628 38.3752C175.203 38.6392 174.909 39.0499 174.748 39.6072C174.543 40.2965 174.44 41.3892 174.44 42.8852C174.44 44.5132 174.528 45.6205 174.704 46.2072C174.88 46.7792 175.159 47.1825 175.54 47.4172C175.936 47.6372 176.457 47.7472 177.102 47.7472C178.539 47.7472 179.434 46.9259 179.786 45.2832C179.933 44.6379 180.006 43.8459 180.006 42.9072ZM187.118 33.5572C187.397 33.8065 187.536 34.1365 187.536 34.5472C187.536 34.9579 187.397 35.2952 187.118 35.5592C186.854 35.8232 186.531 35.9552 186.15 35.9552C185.769 35.9552 185.439 35.8232 185.16 35.5592C184.896 35.2952 184.764 34.9579 184.764 34.5472C184.764 34.1365 184.896 33.8065 185.16 33.5572C185.439 33.2932 185.769 33.1612 186.15 33.1612C186.531 33.1612 186.854 33.2932 187.118 33.5572ZM188.988 47.4612C189.193 47.4612 189.296 47.5565 189.296 47.7472C189.296 47.9379 189.201 48.0332 189.01 48.0332H188.988C188.753 48.0332 188.35 48.0259 187.778 48.0112C187.221 47.9819 186.795 47.9672 186.502 47.9672C186.179 47.9672 185.725 47.9819 185.138 48.0112C184.566 48.0259 184.126 48.0332 183.818 48.0332H183.796C183.605 48.0332 183.51 47.9379 183.51 47.7472C183.51 47.5565 183.613 47.4612 183.818 47.4612L185.204 47.3952C185.365 47.3952 185.446 47.3072 185.446 47.1312V39.0352C185.446 38.6392 185.255 38.4412 184.874 38.4412L183.4 38.4192C183.195 38.4192 183.092 38.3239 183.092 38.1332C183.092 37.9425 183.195 37.8472 183.4 37.8472C184.911 37.8472 186.121 37.8325 187.03 37.8032C187.25 37.8032 187.36 37.9132 187.36 38.1332V47.1312C187.36 47.3072 187.441 47.3952 187.602 47.3952L188.988 47.4612ZM201.767 42.9072C201.767 44.0659 201.473 45.0999 200.887 46.0092C200.432 46.7279 199.882 47.2999 199.237 47.7252C198.591 48.1359 197.902 48.3412 197.169 48.3412C196.421 48.3412 195.768 48.0845 195.211 47.5712C194.727 47.1312 194.382 46.5592 194.177 45.8552H194.111V52.1912C194.111 52.3525 194.353 52.4405 194.837 52.4552L196.597 52.5212C196.802 52.5212 196.905 52.6165 196.905 52.8072C196.905 52.9979 196.802 53.0932 196.597 53.0932C196.362 53.0932 195.841 53.0785 195.035 53.0492C194.243 53.0345 193.7 53.0272 193.407 53.0272C193.113 53.0272 192.563 53.0345 191.757 53.0492C190.965 53.0785 190.451 53.0932 190.217 53.0932C190.011 53.0932 189.909 52.9979 189.909 52.8072C189.909 52.6165 190.011 52.5212 190.217 52.5212L191.977 52.4552C192.153 52.4552 192.241 52.3672 192.241 52.1912V39.0132C192.241 38.6172 192.035 38.4192 191.625 38.4192H189.909C189.718 38.4192 189.623 38.3092 189.623 38.0892C189.623 37.9132 189.718 37.8252 189.909 37.8252C190.261 37.8252 190.891 37.8179 191.801 37.8032C192.71 37.7885 193.37 37.7812 193.781 37.7812C194.001 37.7812 194.111 37.8839 194.111 38.0892V39.9372H194.177C194.382 39.2332 194.727 38.6612 195.211 38.2212C195.753 37.7225 196.406 37.4732 197.169 37.4732C197.887 37.4732 198.569 37.6932 199.215 38.1332C199.875 38.5585 200.432 39.1305 200.887 39.8492C201.473 40.7585 201.767 41.7779 201.767 42.9072ZM199.721 42.9072C199.721 41.6752 199.574 40.6412 199.281 39.8052C198.885 38.6319 198.166 38.0452 197.125 38.0452C196.567 38.0452 196.032 38.2432 195.519 38.6392C194.565 39.3579 194.089 40.7072 194.089 42.6872V43.1052C194.089 45.0999 194.565 46.4565 195.519 47.1752C196.017 47.5565 196.553 47.7472 197.125 47.7472C198.181 47.7472 198.899 47.1825 199.281 46.0532C199.574 45.2172 199.721 44.1685 199.721 42.9072ZM158.088 72.7912C158.088 72.8059 158.066 73.0112 158.022 73.4072C157.993 73.8179 157.956 74.3385 157.912 74.9692C157.868 75.5999 157.839 76.1865 157.824 76.7292C157.795 76.8905 157.707 76.9712 157.56 76.9712C157.413 76.9712 157.325 76.8905 157.296 76.7292C157.208 76.4652 157.105 76.1205 156.988 75.6952C156.871 75.2845 156.805 75.0499 156.79 74.9912C156.511 74.0819 156.167 73.5099 155.756 73.2752C155.345 73.0552 154.641 72.9452 153.644 72.9452H151.026C149.941 72.9452 149.171 73.1139 148.716 73.4512C148.276 73.8032 147.887 74.5072 147.55 75.5632L147.198 76.7292C147.154 76.8905 147.051 76.9712 146.89 76.9712C146.743 76.9712 146.67 76.8905 146.67 76.7292V75.5192C146.67 75.0205 146.655 74.5439 146.626 74.0892C146.611 73.6492 146.597 73.3119 146.582 73.0772L146.538 72.7252V72.6812C146.538 72.5052 146.648 72.4172 146.868 72.4172L147.748 72.3952C148.393 72.3952 148.833 72.0799 149.068 71.4492C149.713 69.6012 150.036 67.2985 150.036 64.5412V64.4312C150.036 63.8885 149.757 63.5952 149.2 63.5512L147.506 63.4192C147.33 63.4045 147.242 63.3019 147.242 63.1112C147.242 62.9352 147.33 62.8472 147.506 62.8472C147.55 62.8472 147.719 62.8545 148.012 62.8692C148.305 62.8692 148.679 62.8765 149.134 62.8912C149.603 62.8912 150.058 62.8912 150.498 62.8912H154.744C155.213 62.8912 155.8 62.8839 156.504 62.8692C157.223 62.8545 157.626 62.8472 157.714 62.8472C157.89 62.8472 157.978 62.9352 157.978 63.1112C157.978 63.3165 157.89 63.4192 157.714 63.4192L155.888 63.4852C155.639 63.5145 155.514 63.6319 155.514 63.8372V71.9112C155.514 72.0872 155.536 72.2119 155.58 72.2852C155.639 72.3439 155.749 72.3805 155.91 72.3952L157.758 72.4612C157.978 72.4612 158.088 72.5492 158.088 72.7252V72.7912ZM153.644 71.9552V63.8592C153.644 63.7419 153.6 63.6465 153.512 63.5732C153.439 63.4999 153.351 63.4632 153.248 63.4632H151.554C151.202 63.4632 150.953 63.5365 150.806 63.6832C150.674 63.8299 150.608 64.0792 150.608 64.4312V64.5412C150.608 65.9345 150.498 67.3645 150.278 68.8312C150.058 70.2979 149.735 71.4859 149.31 72.3952C149.31 72.4392 149.332 72.4612 149.376 72.4612H153.204C153.497 72.4465 153.644 72.2779 153.644 71.9552ZM168.471 64.7172C169.189 65.7439 169.549 66.8072 169.549 67.9072C169.549 69.0072 169.189 70.0705 168.471 71.0972C167.781 72.0505 166.967 72.7105 166.029 73.0772C165.574 73.2532 165.105 73.3412 164.621 73.3412C164.151 73.3412 163.682 73.2532 163.213 73.0772C162.245 72.6812 161.423 72.0212 160.749 71.0972C160.045 70.0999 159.693 69.0365 159.693 67.9072C159.693 66.7779 160.045 65.7145 160.749 64.7172C161.423 63.7932 162.245 63.1332 163.213 62.7372C163.682 62.5612 164.151 62.4732 164.621 62.4732C165.09 62.4732 165.559 62.5612 166.029 62.7372C166.967 63.1039 167.781 63.7639 168.471 64.7172ZM167.459 67.9072C167.459 66.9539 167.385 66.1545 167.239 65.5092C166.989 64.3359 166.498 63.5879 165.765 63.2652C165.471 63.1185 165.09 63.0452 164.621 63.0452C164.137 63.0452 163.748 63.1185 163.455 63.2652C162.736 63.5732 162.252 64.3212 162.003 65.5092C161.841 66.2279 161.761 67.0272 161.761 67.9072C161.761 68.7725 161.841 69.5645 162.003 70.2832C162.267 71.4859 162.751 72.2412 163.455 72.5492C163.719 72.6812 164.107 72.7472 164.621 72.7472C165.119 72.7472 165.501 72.6812 165.765 72.5492C166.498 72.2265 166.989 71.4712 167.239 70.2832C167.385 69.6379 167.459 68.8459 167.459 67.9072ZM187.588 66.9832C187.588 67.1445 187.507 67.2252 187.346 67.2252C187.17 67.2252 187.074 67.1519 187.06 67.0052L186.796 65.7512C186.429 64.1379 185.776 63.3165 184.838 63.2872C184.794 63.2872 184.647 63.2872 184.398 63.2872C184.163 63.2725 184.031 63.2652 184.002 63.2652C183.84 63.2652 183.76 63.3459 183.76 63.5072V72.0872C183.76 72.2632 183.87 72.3585 184.09 72.3732L185.916 72.4612C186.106 72.4612 186.202 72.5565 186.202 72.7472C186.202 72.9379 186.106 73.0332 185.916 73.0332C185.842 73.0332 185.446 73.0259 184.728 73.0112C184.009 72.9819 183.378 72.9672 182.836 72.9672C182.366 72.9672 181.75 72.9819 180.988 73.0112C180.225 73.0259 179.8 73.0332 179.712 73.0332C179.536 73.0332 179.448 72.9379 179.448 72.7472C179.448 72.5565 179.536 72.4612 179.712 72.4612L181.56 72.3732C181.78 72.3585 181.89 72.2632 181.89 72.0872V63.5072C181.89 63.3459 181.809 63.2652 181.648 63.2652C181.633 63.2652 181.516 63.2725 181.296 63.2872C181.076 63.2872 180.922 63.2872 180.834 63.2872C179.866 63.3165 179.213 64.1159 178.876 65.6852L178.568 67.0052C178.538 67.1519 178.45 67.2252 178.304 67.2252C178.142 67.2252 178.062 67.1445 178.062 66.9832C178.062 66.8072 178.069 66.5285 178.084 66.1472C178.098 65.7512 178.106 65.4359 178.106 65.2012V63.0012C178.106 62.8839 178.157 62.8252 178.26 62.8252C178.524 62.8252 178.956 62.8325 179.558 62.8472C180.174 62.8619 180.562 62.8692 180.724 62.8692H184.904C185.153 62.8692 185.564 62.8619 186.136 62.8472C186.708 62.8325 187.118 62.8252 187.368 62.8252C187.397 62.8252 187.434 62.8472 187.478 62.8912C187.522 62.9205 187.544 62.9572 187.544 63.0012V65.2012C187.544 65.4065 187.551 65.7072 187.566 66.1032C187.58 66.4992 187.588 66.7925 187.588 66.9832ZM198.312 64.7172C199.031 65.7439 199.39 66.8072 199.39 67.9072C199.39 69.0072 199.031 70.0705 198.312 71.0972C197.623 72.0505 196.809 72.7105 195.87 73.0772C195.416 73.2532 194.946 73.3412 194.462 73.3412C193.993 73.3412 193.524 73.2532 193.054 73.0772C192.086 72.6812 191.265 72.0212 190.59 71.0972C189.886 70.0999 189.534 69.0365 189.534 67.9072C189.534 66.7779 189.886 65.7145 190.59 64.7172C191.265 63.7932 192.086 63.1332 193.054 62.7372C193.524 62.5612 193.993 62.4732 194.462 62.4732C194.932 62.4732 195.401 62.5612 195.87 62.7372C196.809 63.1039 197.623 63.7639 198.312 64.7172ZM197.3 67.9072C197.3 66.9539 197.227 66.1545 197.08 65.5092C196.831 64.3359 196.34 63.5879 195.606 63.2652C195.313 63.1185 194.932 63.0452 194.462 63.0452C193.978 63.0452 193.59 63.1185 193.296 63.2652C192.578 63.5732 192.094 64.3212 191.844 65.5092C191.683 66.2279 191.602 67.0272 191.602 67.9072C191.602 68.7725 191.683 69.5645 191.844 70.2832C192.108 71.4859 192.592 72.2412 193.296 72.5492C193.56 72.6812 193.949 72.7472 194.462 72.7472C194.961 72.7472 195.342 72.6812 195.606 72.5492C196.34 72.2265 196.831 71.4712 197.08 70.2832C197.227 69.6379 197.3 68.8459 197.3 67.9072ZM211.12 70.2392C211.12 70.9872 210.878 71.5885 210.394 72.0432C209.719 72.7179 208.59 73.0552 207.006 73.0552H206.962C206.742 73.0552 206.28 73.0405 205.576 73.0112C204.887 72.9672 204.315 72.9452 203.86 72.9452C203.64 72.9452 203.156 72.9599 202.408 72.9892C201.66 73.0039 201.213 73.0112 201.066 73.0112C200.875 73.0112 200.78 72.9159 200.78 72.7252C200.78 72.5345 200.875 72.4392 201.066 72.4392L202.584 72.3512C202.892 72.3512 203.046 72.2192 203.046 71.9552V63.8812C203.046 63.6319 202.907 63.4999 202.628 63.4852L200.868 63.4192C200.78 63.4192 200.707 63.3899 200.648 63.3312C200.589 63.2579 200.56 63.1919 200.56 63.1332C200.56 62.9425 200.663 62.8472 200.868 62.8472C200.912 62.8472 201.279 62.8545 201.968 62.8692C202.657 62.8839 203.273 62.8912 203.816 62.8912C204.197 62.8912 204.718 62.8765 205.378 62.8472C206.053 62.8032 206.544 62.7812 206.852 62.7812C208.451 62.7812 209.558 63.1259 210.174 63.8152C210.555 64.2405 210.746 64.7539 210.746 65.3552C210.746 65.8539 210.482 66.3305 209.954 66.7852C209.441 67.2399 208.832 67.5405 208.128 67.6872C209.023 67.8925 209.741 68.2225 210.284 68.6772C210.841 69.1319 211.12 69.6525 211.12 70.2392ZM208.722 65.4212C208.722 64.6879 208.553 64.1525 208.216 63.8152C207.908 63.4779 207.402 63.3092 206.698 63.3092C206.331 63.3092 205.862 63.3312 205.29 63.3752C205.041 63.3899 204.916 63.5219 204.916 63.7712V67.4672H206.72C207.468 67.4672 207.989 67.3205 208.282 67.0272C208.575 66.7192 208.722 66.1839 208.722 65.4212ZM209.118 70.1512C209.118 69.3445 208.935 68.7725 208.568 68.4352C208.201 68.0979 207.607 67.9292 206.786 67.9292H204.916V71.9992C204.916 72.2779 205.063 72.4245 205.356 72.4392C206.031 72.4979 206.551 72.5272 206.918 72.5272C207.695 72.5272 208.238 72.3732 208.546 72.0652C208.927 71.6839 209.118 71.0459 209.118 70.1512ZM223.112 70.3052C223.112 72.3292 222.437 73.3412 221.088 73.3412C220.413 73.3412 219.863 73.1652 219.438 72.8132C219.027 72.4612 218.814 71.9479 218.8 71.2732H218.734C218.543 71.9185 218.191 72.4245 217.678 72.7912C217.164 73.1432 216.548 73.3192 215.83 73.3192C215.008 73.3192 214.326 73.1432 213.784 72.7912C213.241 72.4245 212.97 71.8672 212.97 71.1192C212.97 70.7379 213.043 70.3932 213.19 70.0852C213.336 69.7625 213.556 69.4765 213.85 69.2272C214.143 68.9632 214.422 68.7505 214.686 68.5892C214.95 68.4132 215.272 68.2225 215.654 68.0172C216.167 67.7385 217.128 67.2985 218.536 66.6972C218.712 66.6239 218.8 66.4845 218.8 66.2792V64.8932C218.8 63.6759 218.096 63.0672 216.688 63.0672C216.057 63.0672 215.514 63.1552 215.06 63.3312C214.605 63.5072 214.378 63.7272 214.378 63.9912C214.378 64.0352 214.385 64.0792 214.4 64.1232C214.414 64.1525 214.429 64.1819 214.444 64.2112C214.473 64.2259 214.51 64.2552 214.554 64.2992C214.598 64.3285 214.627 64.3579 214.642 64.3872C214.671 64.4019 214.715 64.4312 214.774 64.4752C214.847 64.5192 214.898 64.5485 214.928 64.5632C215.324 64.8419 215.522 65.1865 215.522 65.5972C215.522 65.9785 215.404 66.2792 215.17 66.4992C214.935 66.7045 214.656 66.8072 214.334 66.8072C213.982 66.8072 213.674 66.6825 213.41 66.4332C213.16 66.1692 213.036 65.8099 213.036 65.3552C213.036 64.5632 213.417 63.8885 214.18 63.3312C214.942 62.7592 215.94 62.4732 217.172 62.4732C218.257 62.4732 219.108 62.6859 219.724 63.1112C220.34 63.5365 220.648 64.1599 220.648 64.9812V71.6032C220.648 72.3365 220.963 72.7032 221.594 72.7032C222.254 72.7032 222.584 71.8892 222.584 70.2612C222.584 70.0412 222.576 69.8285 222.562 69.6232C222.562 69.4032 222.562 69.2272 222.562 69.0952C222.562 68.9632 222.562 68.8899 222.562 68.8752C222.562 68.6992 222.635 68.6112 222.782 68.6112C222.914 68.6112 222.994 68.6992 223.024 68.8752C223.082 69.4325 223.112 69.9092 223.112 70.3052ZM218.8 68.8532V67.0052C217.788 67.4892 217.252 67.7459 217.194 67.7752C215.668 68.4939 214.906 69.5132 214.906 70.8332C214.906 71.3319 215.023 71.7645 215.258 72.1312C215.507 72.4832 215.881 72.6592 216.38 72.6592C217.128 72.6592 217.714 72.3219 218.14 71.6472C218.58 70.9725 218.8 70.0412 218.8 68.8532ZM235.497 67.9072C235.497 69.0659 235.204 70.0999 234.617 71.0092C234.163 71.7279 233.613 72.2999 232.967 72.7252C232.322 73.1359 231.633 73.3412 230.899 73.3412C230.151 73.3412 229.499 73.0845 228.941 72.5712C228.457 72.1312 228.113 71.5592 227.907 70.8552H227.841V77.1912C227.841 77.3525 228.083 77.4405 228.567 77.4552L230.327 77.5212C230.533 77.5212 230.635 77.6165 230.635 77.8072C230.635 77.9979 230.533 78.0932 230.327 78.0932C230.093 78.0932 229.572 78.0785 228.765 78.0492C227.973 78.0345 227.431 78.0272 227.137 78.0272C226.844 78.0272 226.294 78.0345 225.487 78.0492C224.695 78.0785 224.182 78.0932 223.947 78.0932C223.742 78.0932 223.639 77.9979 223.639 77.8072C223.639 77.6165 223.742 77.5212 223.947 77.5212L225.707 77.4552C225.883 77.4552 225.971 77.3672 225.971 77.1912V64.0132C225.971 63.6172 225.766 63.4192 225.355 63.4192H223.639C223.449 63.4192 223.353 63.3092 223.353 63.0892C223.353 62.9132 223.449 62.8252 223.639 62.8252C223.991 62.8252 224.622 62.8179 225.531 62.8032C226.441 62.7885 227.101 62.7812 227.511 62.7812C227.731 62.7812 227.841 62.8839 227.841 63.0892V64.9372H227.907C228.113 64.2332 228.457 63.6612 228.941 63.2212C229.484 62.7225 230.137 62.4732 230.899 62.4732C231.618 62.4732 232.3 62.6932 232.945 63.1332C233.605 63.5585 234.163 64.1305 234.617 64.8492C235.204 65.7585 235.497 66.7779 235.497 67.9072ZM233.451 67.9072C233.451 66.6752 233.305 65.6412 233.011 64.8052C232.615 63.6319 231.897 63.0452 230.855 63.0452C230.298 63.0452 229.763 63.2432 229.249 63.6392C228.296 64.3579 227.819 65.7072 227.819 67.6872V68.1052C227.819 70.0999 228.296 71.4565 229.249 72.1752C229.748 72.5565 230.283 72.7472 230.855 72.7472C231.911 72.7472 232.63 72.1825 233.011 71.0532C233.305 70.2172 233.451 69.1685 233.451 67.9072ZM248.1 63.1332C248.1 63.2945 248.02 63.3825 247.858 63.3972L247.198 63.5072C246.788 63.5805 246.45 63.7272 246.186 63.9472C245.937 64.1672 245.702 64.5632 245.482 65.1352L243.326 70.6572C242.989 71.5079 242.615 72.5859 242.204 73.8912C241.808 75.1965 241.552 75.9885 241.434 76.2672C241.126 76.9859 240.811 77.4845 240.488 77.7632C240.18 78.0419 239.77 78.1812 239.256 78.1812C238.655 78.1812 238.164 78.0052 237.782 77.6532C237.416 77.3159 237.232 76.8759 237.232 76.3332C237.232 75.8639 237.342 75.5045 237.562 75.2552C237.797 75.0205 238.076 74.9032 238.398 74.9032C238.706 74.9032 238.948 74.9985 239.124 75.1892C239.315 75.3945 239.41 75.6365 239.41 75.9152C239.41 76.2085 239.322 76.4652 239.146 76.6852C238.956 76.9345 238.86 77.1472 238.86 77.3232C238.86 77.6019 239.029 77.7412 239.366 77.7412C239.997 77.7412 240.532 77.1692 240.972 76.0252C241.251 75.2919 241.471 74.6099 241.632 73.9792C241.691 73.7445 241.72 73.5025 241.72 73.2532C241.72 73.0919 241.669 72.8425 241.566 72.5052L238.684 64.0572C238.64 63.9252 238.552 63.8079 238.42 63.7052C238.303 63.6025 238.178 63.5439 238.046 63.5292L236.594 63.3532C236.433 63.3239 236.352 63.2285 236.352 63.0672C236.352 62.9205 236.426 62.8472 236.572 62.8472C236.88 62.8472 237.394 62.8619 238.112 62.8912C238.846 62.9059 239.344 62.9132 239.608 62.9132C239.902 62.9132 240.342 62.9059 240.928 62.8912C241.53 62.8619 241.992 62.8472 242.314 62.8472C242.476 62.8472 242.556 62.9132 242.556 63.0452C242.556 63.1919 242.476 63.2799 242.314 63.3092L241.016 63.4852C240.767 63.5292 240.642 63.6612 240.642 63.8812C240.642 63.9252 240.657 64.0059 240.686 64.1232L242.82 70.5252H242.908L244.866 65.3552C244.984 65.0325 245.042 64.7465 245.042 64.4972C245.042 63.8665 244.742 63.5072 244.14 63.4192L243.304 63.3092C243.172 63.2945 243.106 63.2065 243.106 63.0452C243.106 62.9132 243.172 62.8472 243.304 62.8472C243.627 62.8472 244.016 62.8619 244.47 62.8912C244.925 62.9059 245.299 62.9132 245.592 62.9132C245.856 62.9132 246.223 62.9059 246.692 62.8912C247.162 62.8619 247.543 62.8472 247.836 62.8472C248.012 62.8472 248.1 62.9425 248.1 63.1332Z" fill="#1A1A1A"/>
<defs>
<clipPath id="clip0_1483_27743">
<rect width="105.833" height="80" fill="white" transform="translate(0 2.5332)"/>
</clipPath>
</defs>
</svg>
