<svg width="288" height="219" viewBox="0 0 288 219" fill="none" xmlns="http://www.w3.org/2000/svg">
<g clip-path="url(#clip0_1460_24235)">
<path d="M203.96 4.15184C203.807 4.16234 203.663 4.12557 203.527 4.04151C203.49 4.01815 203.446 4.00666 203.401 4.00855C201.287 4.08975 199.18 4.24688 197.08 4.47996C196.624 4.53154 196.45 4.74217 196.093 5.01297C195.04 5.80819 194.896 6.40282 194.894 7.77691C194.893 13.5971 194.893 19.4173 194.893 25.2374C194.893 26.6302 195.486 27.7072 196.672 28.4685C196.721 28.501 196.717 28.521 196.657 28.5287L190.178 29.417C190.123 29.4237 190.117 29.4099 190.159 29.3755C190.932 28.7317 191.46 27.9546 191.742 27.0443C191.878 26.6049 191.948 25.9419 191.951 25.0555C191.971 19.2047 191.973 13.3545 191.958 7.50467C191.955 6.42431 191.27 5.8827 190.334 5.54169C190.133 5.46909 189.91 5.45333 189.664 5.4944C186.928 5.95005 184.9 6.33596 183.578 6.65213C182.265 6.96736 180.081 10.73 179.353 11.892C179.319 11.9455 179.308 11.9412 179.318 11.8791L180.531 4.60605C180.539 4.55542 180.569 4.52485 180.618 4.51434C188.24 2.79781 195.95 1.69834 203.747 1.21596C203.795 1.21309 203.838 1.19924 203.875 1.1744C203.902 1.15625 203.928 1.13715 203.954 1.11709C203.987 1.0913 204.026 1.07745 204.069 1.07554L206.231 0.976673C206.28 0.974762 206.308 0.997688 206.316 1.04545L207.528 8.07924C207.53 8.08456 207.53 8.09049 207.528 8.09573C207.526 8.10097 207.521 8.10509 207.516 8.10718C207.511 8.10927 207.505 8.10916 207.5 8.10688C207.494 8.10459 207.49 8.10032 207.488 8.095C206.54 6.70802 205.437 5.23363 204.098 4.19339C204.057 4.16187 204.011 4.14802 203.96 4.15184Z" fill="#1A1A1A"/>
<path d="M160.881 24.8063C158.191 24.875 153.982 24.6974 153.308 21.3574C152.939 19.522 153.621 17.0546 154.667 15.3854C157.627 10.667 163.619 8.12375 168.998 7.85867C173.269 7.64948 177.297 9.24852 177.1 14.2506C177.099 14.2888 177.079 14.3107 177.042 14.3165L173.947 14.7707C173.85 14.785 173.802 14.7434 173.803 14.646C173.832 12.0626 172.245 10.7831 169.85 10.5911C166.203 10.3002 162.652 11.8362 159.753 13.8637C158.256 14.9111 155.852 17.0303 156.166 19.1265C156.513 21.4549 160.748 21.1754 162.352 21.0866C164.363 20.9749 166.375 20.866 168.387 20.7599C170.023 20.674 171.579 20.7351 173.056 20.9433C175.151 21.2371 177.108 22.2759 177.369 24.5899C177.781 28.2422 174.522 31.3199 171.719 33.0365C169.399 34.4569 166.925 35.5239 164.296 36.2374C161.138 37.0957 156.635 37.3579 154.239 34.624C152.927 33.1296 152.537 30.9818 152.636 29.0303C152.638 28.9825 152.662 28.9534 152.709 28.9429L155.885 28.2164C155.896 28.214 155.907 28.214 155.917 28.2165C155.927 28.219 155.937 28.2239 155.945 28.2308C155.953 28.2378 155.96 28.2466 155.964 28.2565C155.969 28.2664 155.971 28.2772 155.97 28.288C155.704 33.4004 159.971 34.5696 164.092 33.5036C164.726 33.3393 165.594 33.0422 166.696 32.6123C169.091 31.6781 174.453 29.2882 174.451 26.219C174.451 24.4968 172.686 24.2002 171.367 24.1572C167.866 24.0411 163.783 24.7317 160.881 24.8063Z" fill="#1A1A1A"/>
<path d="M150.294 13.6273C149.174 14.8681 148.496 16.0416 148.493 17.6779C148.486 21.3316 148.482 24.9858 148.48 28.6405C148.48 29.9597 148.448 30.9135 148.384 31.5019C147.556 39.159 141.557 44.4648 134.353 46.273C128.403 47.7675 123.616 45.154 123.635 38.5615C123.653 32.5254 123.655 28.3105 123.64 25.9167C123.633 24.6262 123.045 23.7206 121.876 23.2001C121.832 23.1809 121.833 23.1642 121.879 23.1499L128.381 21.0995C128.432 21.0833 128.44 21.0952 128.404 21.1353C127.616 22.0423 126.953 23.0267 126.705 24.2116C126.629 24.5679 126.592 25.1817 126.593 26.0528C126.594 29.9358 126.593 33.8188 126.591 37.7018C126.588 42.6035 130.079 44.5565 134.517 43.4374C136.294 42.9894 137.967 42.2959 139.535 41.357C142.928 39.3271 144.886 36.4242 145.41 32.6482C145.496 32.0292 145.538 31.0759 145.536 29.7882C145.532 26.2262 145.524 22.6656 145.51 19.1064C145.505 17.5604 145.235 16.4944 143.753 15.9313C143.694 15.9084 143.695 15.8869 143.755 15.8668L150.284 13.6115C150.286 13.6111 150.288 13.6113 150.29 13.6121C150.292 13.6129 150.294 13.6143 150.295 13.616C150.296 13.6177 150.296 13.6197 150.296 13.6217C150.296 13.6237 150.296 13.6256 150.294 13.6273Z" fill="#1A1A1A"/>
<path d="M115.444 27.8211L113.699 28.2953C113.652 28.3078 113.62 28.3369 113.603 28.3828L104.023 54.5879C104.012 54.6193 103.992 54.6473 103.967 54.6689C103.941 54.6905 103.911 54.705 103.878 54.7111L97.0811 55.9663C97.0528 55.9716 97.0235 55.967 96.9982 55.9532C96.9728 55.9394 96.9528 55.9172 96.9417 55.8903L87.3564 33.0552C87.3411 33.0199 87.3143 33.0036 87.2759 33.0065L85.4974 33.1154C85.4533 33.1183 85.4313 33.1417 85.4313 33.1856C85.4179 39.6296 85.4155 46.0725 85.4241 52.5146C85.426 53.7086 85.5012 54.5234 85.6497 54.959C85.9293 55.7814 86.4647 56.4553 87.2558 56.9807C87.2623 56.9853 87.2673 56.9917 87.27 56.9991C87.2727 57.0066 87.2731 57.0147 87.2711 57.0223C87.269 57.03 87.2647 57.0368 87.2586 57.042C87.2526 57.0471 87.2451 57.0502 87.2372 57.0509C85.063 57.2085 82.8865 57.2912 80.7076 57.2988C80.6099 57.2988 80.5989 57.2682 80.6745 57.2071C81.8842 56.2285 82.4761 55.0478 82.4775 53.5032C82.4852 45.8347 82.4847 38.1685 82.4761 30.5048C82.4761 30.4522 82.502 30.4255 82.5537 30.4245C84.7968 30.3758 87.0351 30.2473 89.2686 30.0391C89.3107 30.0353 89.3404 30.053 89.3577 30.0921L98.9516 52.7381C98.9717 52.7859 99.0072 52.805 99.0579 52.7954L101.941 52.2667C101.956 52.2641 101.969 52.2577 101.98 52.2482C101.991 52.2386 102 52.2262 102.005 52.2122L111.603 26.1203C111.617 26.0811 111.644 26.0563 111.683 26.0458L118.438 24.1831C118.445 24.1813 118.453 24.1812 118.46 24.1826C118.467 24.184 118.473 24.187 118.479 24.1912C118.485 24.1955 118.489 24.201 118.493 24.2073C118.496 24.2136 118.497 24.2205 118.497 24.2275C118.484 32.1005 118.483 39.9591 118.496 47.8034C118.498 49.0185 119.078 49.8844 120.237 50.4011C120.329 50.4422 120.327 50.4766 120.23 50.5043L113.834 52.3283C113.646 52.3818 113.624 52.3431 113.768 52.2122C114.98 51.1032 115.535 49.7091 115.538 48.0599C115.548 41.3361 115.547 34.6132 115.535 27.8913C115.535 27.8282 115.505 27.8048 115.444 27.8211Z" fill="#1A1A1A"/>
<path d="M181.591 54.8417C184.777 54.1405 187.978 53.5258 191.197 52.9976C191.436 52.9584 191.818 52.7426 192.342 52.35C192.687 52.0921 193.182 51.5724 193.826 50.791C193.868 50.7404 193.889 50.7481 193.889 50.814V57.4394C193.889 57.5053 193.866 57.5149 193.82 57.4681C192.863 56.4765 192.051 55.816 190.579 56.0495C187.557 56.5281 184.557 57.1127 181.578 57.8033C181.528 57.8148 181.503 57.8458 181.503 57.8965C181.493 60.019 181.491 62.1391 181.498 64.2568C181.501 64.9866 181.572 65.5182 181.713 65.8516C182.265 67.1597 183.466 67.23 184.772 66.9864C188.775 66.2394 192.796 65.6027 196.835 65.0764C198.115 64.9102 200.584 60.5988 201.262 59.4697C201.264 59.4658 201.267 59.4629 201.271 59.4613C201.274 59.4598 201.279 59.4598 201.283 59.4614C201.287 59.4629 201.29 59.466 201.292 59.4699C201.295 59.4738 201.295 59.4783 201.295 59.4826L199.648 67.6813C199.64 67.7243 199.614 67.7482 199.571 67.7529C191.802 68.5878 184.128 69.949 176.547 71.8365C176.535 71.8398 176.523 71.8389 176.511 71.8341C176.5 71.8292 176.491 71.8207 176.485 71.8098C176.48 71.7989 176.477 71.7863 176.48 71.774C176.482 71.7618 176.488 71.7505 176.497 71.742C177.338 70.9854 177.903 70.0904 178.193 69.0568C178.341 68.5286 178.414 67.5829 178.413 66.2198C178.408 59.9344 178.407 53.65 178.41 47.3666C178.41 46.6587 178.345 46.1224 178.215 45.7575C177.912 44.9131 177.338 44.2621 176.491 43.8045C176.485 43.801 176.48 43.7957 176.476 43.7894C176.473 43.783 176.472 43.7758 176.473 43.7687C176.474 43.7616 176.477 43.7549 176.482 43.7496C176.486 43.7442 176.493 43.7404 176.5 43.7386C182.848 42.1692 189.267 40.9498 195.758 40.0806C196.696 39.9545 197.636 39.8461 198.579 39.7553C198.625 39.7515 198.654 39.7721 198.664 39.8169L200.306 46.9482C200.339 47.0895 200.313 47.1015 200.227 46.984C199.447 45.9094 197.466 43.2873 196.116 43.0079C195.965 42.9763 195.75 42.9773 195.471 43.0107C191.917 43.432 188.39 44.007 184.888 44.7359C184.194 44.8811 183.668 45.0606 183.312 45.2746C182.534 45.7427 181.997 46.4051 181.703 47.262C181.57 47.6517 181.502 48.2134 181.499 48.947C181.493 50.8899 181.496 52.8323 181.506 54.7743C181.506 54.8316 181.535 54.8541 181.591 54.8417Z" fill="#1A1A1A"/>
<path d="M157.026 74.7234L159.754 73.825C159.805 73.8088 159.839 73.7754 159.857 73.7247C162.684 65.718 165.523 57.7176 168.375 49.7233C168.822 48.4681 166.644 47.2173 165.766 46.8433C165.758 46.8398 165.751 46.8339 165.747 46.8265C165.742 46.819 165.74 46.8104 165.741 46.8017C165.741 46.793 165.744 46.7846 165.75 46.7777C165.755 46.7708 165.762 46.7657 165.771 46.7631C168.949 45.782 172.147 44.8674 175.363 44.0192C175.455 43.9943 175.465 44.012 175.392 44.0722C174.072 45.1478 173.001 46.4278 172.178 47.9122C171.861 48.4853 171.49 49.3641 171.065 50.5486C168.027 59.0148 165.011 67.4881 162.015 75.9686C162.009 75.9865 161.998 76.0027 161.985 76.0161C161.971 76.0295 161.954 76.0397 161.936 76.0459L154.802 78.39C154.794 78.3924 154.786 78.3921 154.779 78.3892C154.771 78.3863 154.766 78.381 154.763 78.3743C151.778 71.8969 148.792 65.4363 145.807 58.9923C145.318 57.9387 144.903 57.2113 144.56 56.8101C143.756 55.8711 142.708 55.2579 141.416 54.9703C141.334 54.9522 141.333 54.9293 141.412 54.9016L150.993 51.5917C151 51.5887 151.008 51.5882 151.015 51.5904C151.022 51.5927 151.029 51.5975 151.033 51.6039C151.037 51.6104 151.038 51.618 151.037 51.6255C151.036 51.633 151.032 51.6399 151.026 51.6447C150.21 52.4772 148.35 54.6738 148.351 55.8601C148.351 56.0502 148.403 56.2589 148.508 56.4863C151.302 62.5501 154.101 68.6114 156.903 74.6704C156.914 74.6926 156.932 74.7102 156.954 74.72C156.977 74.7297 157.002 74.731 157.026 74.7234Z" fill="#1A1A1A"/>
<path d="M121.855 79.5621C121.018 81.8929 120.187 84.2255 119.361 86.5601C119.152 87.1561 119.837 87.9743 120.357 88.3884C120.396 88.4209 120.442 88.439 120.493 88.4428C120.624 88.4524 120.713 88.5188 120.762 88.642C120.785 88.6993 120.823 88.7428 120.877 88.7724L121.947 89.3541C122.014 89.3904 122.011 89.42 121.939 89.443C118.789 90.4125 115.619 91.3128 112.43 92.1439C112.322 92.1716 112.311 92.1505 112.396 92.0808C113.732 90.9938 114.81 89.6951 115.632 88.1849C115.937 87.6242 116.305 86.744 116.735 85.5442C119.759 77.1115 122.765 68.6726 125.753 60.2274C125.768 60.1835 125.798 60.1544 125.842 60.14L132.922 57.8217C132.971 57.8055 133.006 57.8207 133.028 57.8676C136.011 64.343 138.998 70.8108 141.991 77.271C142.46 78.2816 142.864 78.9856 143.204 79.383C144.013 80.3296 145.067 80.9453 146.366 81.2299C146.446 81.2471 146.447 81.2686 146.37 81.2944L136.822 84.5928C136.752 84.6167 136.74 84.5995 136.785 84.5412C137.511 83.5884 139.916 81.101 139.324 79.8086C138.533 78.0892 137.729 76.376 136.911 74.669C136.89 74.6241 136.856 74.6093 136.809 74.6246L121.939 79.4819C121.898 79.4953 121.87 79.522 121.855 79.5621ZM123.105 76.0474C123.1 76.0623 123.099 76.0784 123.102 76.0939C123.106 76.1094 123.113 76.1236 123.124 76.135C123.135 76.1463 123.149 76.1543 123.165 76.1581C123.18 76.1619 123.196 76.1612 123.212 76.1563L135.631 72.0884C135.643 72.0847 135.653 72.0786 135.662 72.0706C135.671 72.0625 135.678 72.0527 135.683 72.0417C135.687 72.0307 135.69 72.0189 135.69 72.0069C135.689 71.995 135.687 71.9832 135.682 71.9724L130.863 61.5156C130.855 61.4965 130.839 61.4813 130.82 61.4729C130.801 61.4644 130.78 61.4633 130.76 61.4697L127.983 62.3824C127.97 62.3862 127.959 62.3929 127.949 62.4018C127.94 62.4108 127.933 62.4218 127.928 62.434L123.105 76.0474Z" fill="#1A1A1A"/>
<path d="M106.245 80.8304C99.9457 82.1639 93.5904 83.1282 87.1791 83.7233C87.1293 83.7281 87.1044 83.7553 87.1044 83.805C87.0919 86.7289 87.0905 89.6572 87.1001 92.5897C87.1058 94.1873 87.6762 95.378 88.9993 96.3079C89.0645 96.3538 89.0573 96.3801 88.9778 96.3867C86.6935 96.5912 84.4049 96.7101 82.112 96.7435C82.1017 96.7438 82.0916 96.7409 82.0832 96.735C82.0748 96.7291 82.0685 96.7207 82.0651 96.7109C82.0618 96.701 82.0616 96.6903 82.0646 96.6802C82.0676 96.6702 82.0737 96.6612 82.0819 96.6547C82.9352 96.0109 83.5099 95.2056 83.8058 94.2389C83.9457 93.7814 84.0151 93.0506 84.0142 92.0467C84.0113 85.4537 84.0084 78.8612 84.0055 72.2692C84.0046 70.7371 83.3772 69.5464 82.1235 68.6972C82.1219 68.6959 82.1206 68.6941 82.1199 68.6921C82.1191 68.6901 82.119 68.6879 82.1195 68.686C82.12 68.6841 82.121 68.6824 82.1225 68.6814C82.124 68.6803 82.1259 68.6798 82.1278 68.68L88.9419 68.3289C88.9515 68.3289 88.9515 68.3323 88.9419 68.339C88.1575 68.893 87.6226 69.5932 87.3371 70.4395C87.1849 70.8932 87.1068 71.6918 87.103 72.8352C87.0943 75.4678 87.0939 78.1018 87.1015 80.7373C87.1015 80.744 87.1029 80.7507 87.1056 80.7568C87.1083 80.763 87.1123 80.7685 87.1174 80.7729C87.1224 80.7774 87.1283 80.7808 87.1348 80.7828C87.1412 80.7848 87.148 80.7854 87.1547 80.7846C93.5765 80.1895 99.9423 79.2247 106.252 77.8903C106.296 77.8807 106.318 77.853 106.318 77.8072C106.33 75.4296 106.331 73.0521 106.322 70.6745C106.314 68.4292 106.407 67.0365 104.472 65.9891C104.44 65.9719 104.442 65.959 104.478 65.9504L111.217 64.3772C111.278 64.3629 111.288 64.3786 111.244 64.4245C110.45 65.2632 109.91 66.1549 109.627 67.0996C109.482 67.5839 109.41 68.4106 109.41 69.5798C109.413 75.9951 109.414 82.4104 109.413 88.8257C109.413 89.5335 109.478 90.0698 109.61 90.4347C109.912 91.2744 110.485 91.9149 111.329 92.3562C111.339 92.3615 111.346 92.3695 111.351 92.3792C111.356 92.3889 111.358 92.3999 111.357 92.4107C111.355 92.4215 111.351 92.4316 111.344 92.4398C111.336 92.4479 111.327 92.4538 111.316 92.4565L104.466 94.0584C104.454 94.0616 104.442 94.0608 104.43 94.0562C104.419 94.0515 104.41 94.0433 104.403 94.0327C104.397 94.0221 104.395 94.0097 104.396 93.9975C104.398 93.9853 104.403 93.974 104.412 93.9652C105.703 92.5496 106.317 91.4764 106.322 89.4876C106.33 86.621 106.329 83.7553 106.32 80.8906C106.32 80.8814 106.318 80.8724 106.314 80.8641C106.31 80.8558 106.304 80.8485 106.297 80.8428C106.289 80.837 106.281 80.8329 106.272 80.8308C106.263 80.8286 106.254 80.8285 106.245 80.8304Z" fill="#1A1A1A"/>
</g>
<path d="M0 127.771H288V125.771H0V127.771Z" fill="#1A1A1A" mask="url(#path-9-inside-1_1460_24235)"/>
<path d="M39.9333 178.095C40.1586 178.095 40.2713 178.207 40.2713 178.433C40.2713 178.658 40.1586 178.771 39.9333 178.771C39.8986 178.771 39.6473 178.771 39.1793 178.771C38.7113 178.753 38.1046 178.736 37.3593 178.719C36.6139 178.701 35.9033 178.693 35.2273 178.693C34.5859 178.693 33.8926 178.701 33.1473 178.719C32.4019 178.719 31.7693 178.727 31.2493 178.745C30.7466 178.745 30.4693 178.745 30.4173 178.745C30.1919 178.745 30.0793 178.632 30.0793 178.407C30.0793 178.181 30.1919 178.069 30.4173 178.069L33.1213 177.991C33.3639 177.973 33.5286 177.93 33.6153 177.861C33.7193 177.774 33.7713 177.635 33.7713 177.445V169.541H25.3993V177.445C25.3993 177.791 25.6246 177.973 26.0753 177.991L28.8053 178.069C29.0133 178.069 29.1173 178.181 29.1173 178.407C29.1173 178.632 29.0133 178.745 28.8053 178.745C28.7706 178.745 28.5279 178.745 28.0773 178.745C27.6266 178.727 27.0373 178.719 26.3093 178.719C25.5986 178.701 24.9053 178.693 24.2293 178.693C23.5186 178.693 22.7733 178.701 21.9933 178.719C21.2133 178.719 20.5719 178.727 20.0693 178.745C19.5666 178.762 19.2893 178.771 19.2373 178.771C19.0119 178.771 18.8993 178.658 18.8993 178.433C18.8993 178.207 19.0119 178.095 19.2373 178.095L21.9933 177.991C22.2533 177.973 22.4266 177.93 22.5133 177.861C22.5999 177.791 22.6433 177.653 22.6433 177.445V161.455C22.6433 161.091 22.4266 160.9 21.9933 160.883L19.2373 160.779C19.0119 160.779 18.8993 160.666 18.8993 160.441C18.8993 160.215 19.0119 160.103 19.2373 160.103C19.2719 160.103 19.5146 160.111 19.9653 160.129C20.4159 160.146 21.0053 160.163 21.7333 160.181C22.4786 160.181 23.2239 160.181 23.9693 160.181C24.6799 160.181 25.4079 160.181 26.1533 160.181C26.9159 160.163 27.5399 160.155 28.0253 160.155C28.5106 160.137 28.7706 160.129 28.8053 160.129C29.0133 160.129 29.1173 160.241 29.1173 160.467C29.1173 160.692 29.0133 160.805 28.8053 160.805L26.0753 160.883C25.6246 160.9 25.3993 161.091 25.3993 161.455V168.865H33.7713V161.455C33.7713 161.247 33.7193 161.108 33.6153 161.039C33.5286 160.952 33.3639 160.9 33.1213 160.883L30.4173 160.805C30.1919 160.805 30.0793 160.692 30.0793 160.467C30.0793 160.241 30.1919 160.129 30.4173 160.129C30.4519 160.129 30.7033 160.137 31.1713 160.155C31.6393 160.155 32.2199 160.163 32.9133 160.181C33.6239 160.181 34.2999 160.181 34.9413 160.181C35.6519 160.181 36.3973 160.181 37.1773 160.181C37.9746 160.163 38.6246 160.146 39.1273 160.129C39.6299 160.111 39.8986 160.103 39.9333 160.103C40.1586 160.103 40.2713 160.215 40.2713 160.441C40.2713 160.666 40.1586 160.779 39.9333 160.779L37.1773 160.883C36.7439 160.9 36.5273 161.091 36.5273 161.455V177.445C36.5273 177.635 36.5706 177.774 36.6573 177.861C36.7439 177.93 36.9173 177.973 37.1773 177.991L39.9333 178.095ZM54.8949 175.547C54.8949 177.939 54.0975 179.135 52.5029 179.135C51.7055 179.135 51.0555 178.927 50.5529 178.511C50.0675 178.095 49.8162 177.488 49.7989 176.691H49.7209C49.4955 177.453 49.0795 178.051 48.4729 178.485C47.8662 178.901 47.1382 179.109 46.2889 179.109C45.3182 179.109 44.5122 178.901 43.8709 178.485C43.2295 178.051 42.9089 177.393 42.9089 176.509C42.9089 176.058 42.9955 175.651 43.1689 175.287C43.3422 174.905 43.6022 174.567 43.9489 174.273C44.2955 173.961 44.6249 173.709 44.9369 173.519C45.2489 173.311 45.6302 173.085 46.0809 172.843C46.6875 172.513 47.8229 171.993 49.4869 171.283C49.6949 171.196 49.7989 171.031 49.7989 170.789V169.151C49.7989 167.712 48.9669 166.993 47.3029 166.993C46.5575 166.993 45.9162 167.097 45.3789 167.305C44.8415 167.513 44.5729 167.773 44.5729 168.085C44.5729 168.137 44.5815 168.189 44.5989 168.241C44.6162 168.275 44.6335 168.31 44.6509 168.345C44.6855 168.362 44.7289 168.397 44.7809 168.449C44.8329 168.483 44.8675 168.518 44.8849 168.553C44.9195 168.57 44.9715 168.605 45.0409 168.657C45.1275 168.709 45.1882 168.743 45.2229 168.761C45.6909 169.09 45.9249 169.497 45.9249 169.983C45.9249 170.433 45.7862 170.789 45.5089 171.049C45.2315 171.291 44.9022 171.413 44.5209 171.413C44.1049 171.413 43.7409 171.265 43.4289 170.971C43.1342 170.659 42.9869 170.234 42.9869 169.697C42.9869 168.761 43.4375 167.963 44.3389 167.305C45.2402 166.629 46.4189 166.291 47.8749 166.291C49.1575 166.291 50.1629 166.542 50.8909 167.045C51.6189 167.547 51.9829 168.284 51.9829 169.255V177.081C51.9829 177.947 52.3555 178.381 53.1009 178.381C53.8809 178.381 54.2709 177.419 54.2709 175.495C54.2709 175.235 54.2622 174.983 54.2449 174.741C54.2449 174.481 54.2449 174.273 54.2449 174.117C54.2449 173.961 54.2449 173.874 54.2449 173.857C54.2449 173.649 54.3315 173.545 54.5049 173.545C54.6609 173.545 54.7562 173.649 54.7909 173.857C54.8602 174.515 54.8949 175.079 54.8949 175.547ZM49.7989 173.831V171.647C48.6029 172.219 47.9702 172.522 47.9009 172.557C46.0982 173.406 45.1969 174.611 45.1969 176.171C45.1969 176.76 45.3355 177.271 45.6129 177.705C45.9075 178.121 46.3495 178.329 46.9389 178.329C47.8229 178.329 48.5162 177.93 49.0189 177.133C49.5389 176.335 49.7989 175.235 49.7989 173.831ZM64.4622 164.939C65.1209 164.939 65.6756 164.887 66.1262 164.783C66.5422 164.679 66.7502 164.505 66.7502 164.263C66.7502 164.193 66.6289 164.037 66.3862 163.795C66.1436 163.552 66.0222 163.283 66.0222 162.989C66.0222 162.538 66.1522 162.191 66.4122 161.949C66.6896 161.706 67.0189 161.585 67.4002 161.585C67.7642 161.585 68.0849 161.715 68.3622 161.975C68.6396 162.217 68.7782 162.555 68.7782 162.989C68.7782 164.133 67.9289 164.887 66.2302 165.251C65.7102 165.355 65.1209 165.407 64.4622 165.407C63.8209 165.407 63.2402 165.355 62.7202 165.251C61.0042 164.887 60.1462 164.133 60.1462 162.989C60.1462 162.555 60.2849 162.217 60.5622 161.975C60.8396 161.715 61.1602 161.585 61.5242 161.585C61.9056 161.585 62.2262 161.706 62.4862 161.949C62.7636 162.191 62.9022 162.538 62.9022 162.989C62.9022 163.283 62.7809 163.552 62.5382 163.795C62.2956 164.037 62.1742 164.193 62.1742 164.263C62.1742 164.505 62.3909 164.679 62.8242 164.783C63.2749 164.887 63.8209 164.939 64.4622 164.939ZM71.8202 178.433C71.8202 178.502 71.7856 178.58 71.7162 178.667C71.6642 178.736 71.5949 178.771 71.5082 178.771C71.4909 178.771 71.2916 178.771 70.9102 178.771C70.5462 178.753 70.0956 178.736 69.5582 178.719C69.0209 178.701 68.5356 178.693 68.1022 178.693C67.7036 178.693 67.2616 178.693 66.7762 178.693C66.2909 178.693 65.8836 178.701 65.5542 178.719C65.2249 178.719 65.0429 178.719 65.0082 178.719C64.8176 178.719 64.7222 178.623 64.7222 178.433C64.7222 178.19 64.8176 178.069 65.0082 178.069H66.6202C66.8456 178.069 66.9582 177.991 66.9582 177.835V169.255L66.8802 169.203L61.6282 177.185C61.5762 177.271 61.5502 177.453 61.5502 177.731C61.5502 177.869 61.5676 177.965 61.6022 178.017C61.6369 178.051 61.7322 178.069 61.8882 178.069H63.5262C63.7169 178.069 63.8122 178.19 63.8122 178.433C63.8122 178.623 63.7169 178.719 63.5262 178.719C61.8969 178.701 60.8916 178.693 60.5102 178.693C60.0596 178.693 59.5569 178.701 59.0022 178.719C58.4476 178.719 57.9796 178.727 57.5982 178.745C57.2169 178.762 57.0176 178.771 57.0002 178.771C56.7749 178.771 56.6622 178.658 56.6622 178.433C56.6622 178.207 56.7749 178.095 57.0002 178.095L59.0282 178.043C59.2362 178.043 59.3402 177.965 59.3402 177.809V167.669C59.3402 167.495 59.2362 167.409 59.0282 167.409L57.0002 167.357C56.8962 167.357 56.8096 167.322 56.7402 167.253C56.6882 167.183 56.6622 167.114 56.6622 167.045C56.6622 166.802 56.7749 166.681 57.0002 166.681C57.0176 166.681 57.1996 166.689 57.5462 166.707C57.9102 166.707 58.3609 166.715 58.8982 166.733C59.4356 166.75 59.9469 166.759 60.4322 166.759L63.5262 166.733C63.7342 166.733 63.8382 166.845 63.8382 167.071C63.8382 167.279 63.7342 167.383 63.5262 167.383H61.8882C61.6629 167.383 61.5502 167.469 61.5502 167.643V176.041L61.6282 176.093L66.8802 168.137C66.9322 168.085 66.9582 167.929 66.9582 167.669C66.9582 167.547 66.9322 167.469 66.8802 167.435C66.8456 167.4 66.7589 167.383 66.6202 167.383H65.0082C64.8002 167.383 64.6962 167.279 64.6962 167.071C64.6962 166.845 64.8002 166.733 65.0082 166.733L68.0242 166.759C68.4749 166.759 68.9776 166.75 69.5322 166.733C70.0869 166.715 70.5462 166.707 70.9102 166.707C71.2916 166.689 71.4909 166.681 71.5082 166.681C71.7162 166.681 71.8202 166.802 71.8202 167.045C71.8202 167.114 71.7856 167.183 71.7162 167.253C71.6642 167.322 71.5949 167.357 71.5082 167.357L69.5062 167.409C69.2809 167.409 69.1682 167.495 69.1682 167.669V177.809C69.1682 177.965 69.2809 178.043 69.5062 178.043L71.5082 178.095C71.7162 178.095 71.8202 178.207 71.8202 178.433ZM80.8471 173.077H79.0531V177.419C79.0531 177.8 79.2351 177.999 79.5991 178.017L81.6011 178.095C81.8265 178.095 81.9391 178.207 81.9391 178.433C81.9391 178.658 81.8265 178.771 81.6011 178.771C81.5318 178.771 81.0811 178.762 80.2491 178.745C79.4171 178.71 78.6371 178.693 77.9091 178.693C77.2505 178.693 76.5138 178.71 75.6991 178.745C74.8845 178.762 74.4338 178.771 74.3471 178.771C74.1218 178.771 74.0091 178.658 74.0091 178.433C74.0091 178.207 74.1218 178.095 74.3471 178.095L76.2711 177.991C76.6525 177.973 76.8431 177.783 76.8431 177.419V167.955C76.8431 167.66 76.6785 167.504 76.3491 167.487L74.3731 167.409C74.2691 167.409 74.1825 167.374 74.1131 167.305C74.0438 167.218 74.0091 167.14 74.0091 167.071C74.0091 166.845 74.1305 166.733 74.3731 166.733C74.4251 166.733 74.8498 166.741 75.6471 166.759C76.4445 166.776 77.1638 166.785 77.8051 166.785C78.4465 166.785 79.2178 166.776 80.1191 166.759C81.0205 166.741 81.4971 166.733 81.5491 166.733C81.7918 166.733 81.9131 166.845 81.9131 167.071C81.9131 167.14 81.8785 167.218 81.8091 167.305C81.7398 167.374 81.6531 167.409 81.5491 167.409L79.5471 167.487C79.2178 167.504 79.0531 167.66 79.0531 167.955V172.557H81.0551C81.5405 172.557 81.9391 172.427 82.2511 172.167C82.5805 171.889 82.7625 171.517 82.7971 171.049L82.9791 169.021C83.0485 168.154 83.2998 167.504 83.7331 167.071C84.1838 166.637 84.6951 166.421 85.2671 166.421C85.7525 166.421 86.1598 166.568 86.4891 166.863C86.8358 167.14 87.0091 167.521 87.0091 168.007C87.0091 168.388 86.8791 168.726 86.6191 169.021C86.3591 169.298 85.9865 169.437 85.5011 169.437C85.2238 169.437 84.8598 169.272 84.4091 168.943C84.2358 168.787 84.0798 168.709 83.9411 168.709C83.7505 168.709 83.6291 168.908 83.5771 169.307L83.3691 171.153C83.2651 171.967 82.8231 172.505 82.0431 172.765C81.9738 172.782 81.9391 172.808 81.9391 172.843L81.9651 172.895C82.4678 173.051 82.9965 173.267 83.5511 173.545C84.3485 173.978 84.8945 174.455 85.1891 174.975C85.5011 175.477 85.7005 176.197 85.7871 177.133C85.8045 177.514 85.9085 177.817 86.0991 178.043C86.3071 178.268 86.5411 178.381 86.8011 178.381C87.2171 178.381 87.5638 178.069 87.8411 177.445C87.9105 177.306 88.0145 177.237 88.1531 177.237C88.3611 177.237 88.4651 177.332 88.4651 177.523C88.4651 177.575 88.4305 177.67 88.3611 177.809C88.1358 178.294 87.8411 178.623 87.4771 178.797C87.1305 178.987 86.6018 179.083 85.8911 179.083C85.1285 179.083 84.4958 178.875 83.9931 178.459C83.5078 178.025 83.2651 177.436 83.2651 176.691V175.651C83.2651 174.697 83.0311 174.03 82.5631 173.649C82.0951 173.267 81.5231 173.077 80.8471 173.077ZM104.434 172.713C104.434 174.082 104.088 175.304 103.394 176.379C102.857 177.228 102.207 177.904 101.444 178.407C100.682 178.892 99.8669 179.135 99.0002 179.135C98.1162 179.135 97.3449 178.831 96.6862 178.225C96.1142 177.705 95.7069 177.029 95.4642 176.197H95.3862V183.685C95.3862 183.875 95.6722 183.979 96.2442 183.997L98.3242 184.075C98.5669 184.075 98.6882 184.187 98.6882 184.413C98.6882 184.638 98.5669 184.751 98.3242 184.751C98.0469 184.751 97.4315 184.733 96.4782 184.699C95.5422 184.681 94.9009 184.673 94.5542 184.673C94.2075 184.673 93.5575 184.681 92.6042 184.699C91.6682 184.733 91.0615 184.751 90.7842 184.751C90.5415 184.751 90.4202 184.638 90.4202 184.413C90.4202 184.187 90.5415 184.075 90.7842 184.075L92.8642 183.997C93.0722 183.997 93.1762 183.893 93.1762 183.685V168.111C93.1762 167.643 92.9335 167.409 92.4482 167.409H90.4202C90.1949 167.409 90.0822 167.279 90.0822 167.019C90.0822 166.811 90.1949 166.707 90.4202 166.707C90.8362 166.707 91.5815 166.698 92.6562 166.681C93.7309 166.663 94.5109 166.655 94.9962 166.655C95.2562 166.655 95.3862 166.776 95.3862 167.019V169.203H95.4642C95.7069 168.371 96.1142 167.695 96.6862 167.175C97.3275 166.585 98.0989 166.291 99.0002 166.291C99.8495 166.291 100.656 166.551 101.418 167.071C102.198 167.573 102.857 168.249 103.394 169.099C104.088 170.173 104.434 171.378 104.434 172.713ZM102.016 172.713C102.016 171.257 101.843 170.035 101.496 169.047C101.028 167.66 100.179 166.967 98.9482 166.967C98.2895 166.967 97.6569 167.201 97.0502 167.669C95.9235 168.518 95.3602 170.113 95.3602 172.453V172.947C95.3602 175.304 95.9235 176.907 97.0502 177.757C97.6395 178.207 98.2722 178.433 98.9482 178.433C100.196 178.433 101.046 177.765 101.496 176.431C101.843 175.443 102.016 174.203 102.016 172.713ZM119.636 175.547C119.636 177.939 118.839 179.135 117.244 179.135C116.447 179.135 115.797 178.927 115.294 178.511C114.809 178.095 114.557 177.488 114.54 176.691H114.462C114.237 177.453 113.821 178.051 113.214 178.485C112.607 178.901 111.879 179.109 111.03 179.109C110.059 179.109 109.253 178.901 108.612 178.485C107.971 178.051 107.65 177.393 107.65 176.509C107.65 176.058 107.737 175.651 107.91 175.287C108.083 174.905 108.343 174.567 108.69 174.273C109.037 173.961 109.366 173.709 109.678 173.519C109.99 173.311 110.371 173.085 110.822 172.843C111.429 172.513 112.564 171.993 114.228 171.283C114.436 171.196 114.54 171.031 114.54 170.789V169.151C114.54 167.712 113.708 166.993 112.044 166.993C111.299 166.993 110.657 167.097 110.12 167.305C109.583 167.513 109.314 167.773 109.314 168.085C109.314 168.137 109.323 168.189 109.34 168.241C109.357 168.275 109.375 168.31 109.392 168.345C109.427 168.362 109.47 168.397 109.522 168.449C109.574 168.483 109.609 168.518 109.626 168.553C109.661 168.57 109.713 168.605 109.782 168.657C109.869 168.709 109.929 168.743 109.964 168.761C110.432 169.09 110.666 169.497 110.666 169.983C110.666 170.433 110.527 170.789 110.25 171.049C109.973 171.291 109.643 171.413 109.262 171.413C108.846 171.413 108.482 171.265 108.17 170.971C107.875 170.659 107.728 170.234 107.728 169.697C107.728 168.761 108.179 167.963 109.08 167.305C109.981 166.629 111.16 166.291 112.616 166.291C113.899 166.291 114.904 166.542 115.632 167.045C116.36 167.547 116.724 168.284 116.724 169.255V177.081C116.724 177.947 117.097 178.381 117.842 178.381C118.622 178.381 119.012 177.419 119.012 175.495C119.012 175.235 119.003 174.983 118.986 174.741C118.986 174.481 118.986 174.273 118.986 174.117C118.986 173.961 118.986 173.874 118.986 173.857C118.986 173.649 119.073 173.545 119.246 173.545C119.402 173.545 119.497 173.649 119.532 173.857C119.601 174.515 119.636 175.079 119.636 175.547ZM114.54 173.831V171.647C113.344 172.219 112.711 172.522 112.642 172.557C110.839 173.406 109.938 174.611 109.938 176.171C109.938 176.76 110.077 177.271 110.354 177.705C110.649 178.121 111.091 178.329 111.68 178.329C112.564 178.329 113.257 177.93 113.76 177.133C114.28 176.335 114.54 175.235 114.54 173.831ZM142.593 178.485C142.593 178.537 142.576 178.615 142.541 178.719C142.524 178.805 142.481 178.97 142.411 179.213C142.342 179.455 142.273 179.724 142.203 180.019C142.186 180.088 141.995 181.128 141.631 183.139C141.597 183.329 141.493 183.425 141.319 183.425C141.146 183.425 141.042 183.329 141.007 183.139C140.955 182.809 140.895 182.393 140.825 181.891C140.773 181.405 140.73 181.067 140.695 180.877C140.678 180.686 140.635 180.435 140.565 180.123C140.513 179.811 140.453 179.603 140.383 179.499C140.314 179.412 140.227 179.291 140.123 179.135C140.019 178.979 139.881 178.883 139.707 178.849C139.551 178.814 139.369 178.779 139.161 178.745C138.953 178.71 138.702 178.693 138.407 178.693H125.225C124.671 178.693 123.977 178.71 123.145 178.745C122.313 178.762 121.845 178.771 121.741 178.771C121.533 178.771 121.429 178.658 121.429 178.433C121.429 178.207 121.533 178.095 121.741 178.095L123.483 178.017C123.899 177.999 124.107 177.791 124.107 177.393V168.033C124.107 167.686 123.951 167.504 123.639 167.487L121.767 167.409C121.542 167.409 121.429 167.296 121.429 167.071C121.429 166.845 121.542 166.733 121.767 166.733C121.871 166.733 122.331 166.75 123.145 166.785C123.977 166.802 124.671 166.811 125.225 166.811C125.867 166.811 126.447 166.811 126.967 166.811C127.487 166.793 127.791 166.785 127.877 166.785C128.103 166.785 128.215 166.889 128.215 167.097C128.215 167.322 128.103 167.435 127.877 167.435L126.837 167.487C126.491 167.521 126.317 167.703 126.317 168.033V177.393C126.317 177.601 126.378 177.765 126.499 177.887C126.638 178.008 126.803 178.069 126.993 178.069H130.035C130.486 178.069 130.711 177.843 130.711 177.393V168.033C130.711 167.634 130.538 167.435 130.191 167.435H129.281C129.056 167.435 128.943 167.322 128.943 167.097C128.943 166.889 129.056 166.785 129.281 166.785C129.368 166.785 129.654 166.793 130.139 166.811C130.625 166.811 131.188 166.811 131.829 166.811C132.471 166.811 133.025 166.811 133.493 166.811C133.979 166.793 134.265 166.785 134.351 166.785C134.577 166.785 134.689 166.889 134.689 167.097C134.689 167.322 134.577 167.435 134.351 167.435H133.441C133.095 167.435 132.921 167.634 132.921 168.033V177.393C132.921 177.601 132.982 177.765 133.103 177.887C133.242 178.008 133.407 178.069 133.597 178.069H136.639C136.847 178.069 137.012 178.008 137.133 177.887C137.255 177.748 137.315 177.583 137.315 177.393V168.007C137.298 167.695 137.125 167.521 136.795 167.487L135.755 167.435C135.53 167.435 135.417 167.322 135.417 167.097C135.417 166.889 135.53 166.785 135.755 166.785C135.842 166.785 136.145 166.793 136.665 166.811C137.185 166.811 137.766 166.811 138.407 166.811C138.962 166.811 139.603 166.802 140.331 166.785C141.077 166.75 141.501 166.733 141.605 166.733C141.831 166.733 141.943 166.845 141.943 167.071C141.943 167.296 141.831 167.409 141.605 167.409L139.993 167.487C139.681 167.504 139.525 167.686 139.525 168.033V177.393C139.525 177.774 139.725 177.991 140.123 178.043C140.921 178.095 141.614 178.121 142.203 178.121C142.463 178.121 142.593 178.233 142.593 178.459V178.485ZM159.951 178.433C159.951 178.502 159.916 178.58 159.847 178.667C159.795 178.736 159.726 178.771 159.639 178.771C159.622 178.771 159.422 178.771 159.041 178.771C158.677 178.753 158.226 178.736 157.689 178.719C157.152 178.701 156.666 178.693 156.233 178.693C155.834 178.693 155.392 178.693 154.907 178.693C154.422 178.693 154.014 178.701 153.685 178.719C153.356 178.719 153.174 178.719 153.139 178.719C152.948 178.719 152.853 178.623 152.853 178.433C152.853 178.19 152.948 178.069 153.139 178.069H154.751C154.976 178.069 155.089 177.991 155.089 177.835V169.255L155.011 169.203L149.759 177.185C149.707 177.271 149.681 177.453 149.681 177.731C149.681 177.869 149.698 177.965 149.733 178.017C149.768 178.051 149.863 178.069 150.019 178.069H151.657C151.848 178.069 151.943 178.19 151.943 178.433C151.943 178.623 151.848 178.719 151.657 178.719C150.028 178.701 149.022 178.693 148.641 178.693C148.19 178.693 147.688 178.701 147.133 178.719C146.578 178.719 146.11 178.727 145.729 178.745C145.348 178.762 145.148 178.771 145.131 178.771C144.906 178.771 144.793 178.658 144.793 178.433C144.793 178.207 144.906 178.095 145.131 178.095L147.159 178.043C147.367 178.043 147.471 177.965 147.471 177.809V167.669C147.471 167.495 147.367 167.409 147.159 167.409L145.131 167.357C145.027 167.357 144.94 167.322 144.871 167.253C144.819 167.183 144.793 167.114 144.793 167.045C144.793 166.802 144.906 166.681 145.131 166.681C145.148 166.681 145.33 166.689 145.677 166.707C146.041 166.707 146.492 166.715 147.029 166.733C147.566 166.75 148.078 166.759 148.563 166.759L151.657 166.733C151.865 166.733 151.969 166.845 151.969 167.071C151.969 167.279 151.865 167.383 151.657 167.383H150.019C149.794 167.383 149.681 167.469 149.681 167.643V176.041L149.759 176.093L155.011 168.137C155.063 168.085 155.089 167.929 155.089 167.669C155.089 167.547 155.063 167.469 155.011 167.435C154.976 167.4 154.89 167.383 154.751 167.383H153.139C152.931 167.383 152.827 167.279 152.827 167.071C152.827 166.845 152.931 166.733 153.139 166.733L156.155 166.759C156.606 166.759 157.108 166.75 157.663 166.733C158.218 166.715 158.677 166.707 159.041 166.707C159.422 166.689 159.622 166.681 159.639 166.681C159.847 166.681 159.951 166.802 159.951 167.045C159.951 167.114 159.916 167.183 159.847 167.253C159.795 167.322 159.726 167.357 159.639 167.357L157.637 167.409C157.412 167.409 157.299 167.495 157.299 167.669V177.809C157.299 177.965 157.412 178.043 157.637 178.043L159.639 178.095C159.847 178.095 159.951 178.207 159.951 178.433ZM169.94 164.939C170.599 164.939 171.153 164.887 171.604 164.783C172.02 164.679 172.228 164.505 172.228 164.263C172.228 164.193 172.107 164.037 171.864 163.795C171.621 163.552 171.5 163.283 171.5 162.989C171.5 162.538 171.63 162.191 171.89 161.949C172.167 161.706 172.497 161.585 172.878 161.585C173.242 161.585 173.563 161.715 173.84 161.975C174.117 162.217 174.256 162.555 174.256 162.989C174.256 164.133 173.407 164.887 171.708 165.251C171.188 165.355 170.599 165.407 169.94 165.407C169.299 165.407 168.718 165.355 168.198 165.251C166.482 164.887 165.624 164.133 165.624 162.989C165.624 162.555 165.763 162.217 166.04 161.975C166.317 161.715 166.638 161.585 167.002 161.585C167.383 161.585 167.704 161.706 167.964 161.949C168.241 162.191 168.38 162.538 168.38 162.989C168.38 163.283 168.259 163.552 168.016 163.795C167.773 164.037 167.652 164.193 167.652 164.263C167.652 164.505 167.869 164.679 168.302 164.783C168.753 164.887 169.299 164.939 169.94 164.939ZM177.298 178.433C177.298 178.502 177.263 178.58 177.194 178.667C177.142 178.736 177.073 178.771 176.986 178.771C176.969 178.771 176.769 178.771 176.388 178.771C176.024 178.753 175.573 178.736 175.036 178.719C174.499 178.701 174.013 178.693 173.58 178.693C173.181 178.693 172.739 178.693 172.254 178.693C171.769 178.693 171.361 178.701 171.032 178.719C170.703 178.719 170.521 178.719 170.486 178.719C170.295 178.719 170.2 178.623 170.2 178.433C170.2 178.19 170.295 178.069 170.486 178.069H172.098C172.323 178.069 172.436 177.991 172.436 177.835V169.255L172.358 169.203L167.106 177.185C167.054 177.271 167.028 177.453 167.028 177.731C167.028 177.869 167.045 177.965 167.08 178.017C167.115 178.051 167.21 178.069 167.366 178.069H169.004C169.195 178.069 169.29 178.19 169.29 178.433C169.29 178.623 169.195 178.719 169.004 178.719C167.375 178.701 166.369 178.693 165.988 178.693C165.537 178.693 165.035 178.701 164.48 178.719C163.925 178.719 163.457 178.727 163.076 178.745C162.695 178.762 162.495 178.771 162.478 178.771C162.253 178.771 162.14 178.658 162.14 178.433C162.14 178.207 162.253 178.095 162.478 178.095L164.506 178.043C164.714 178.043 164.818 177.965 164.818 177.809V167.669C164.818 167.495 164.714 167.409 164.506 167.409L162.478 167.357C162.374 167.357 162.287 167.322 162.218 167.253C162.166 167.183 162.14 167.114 162.14 167.045C162.14 166.802 162.253 166.681 162.478 166.681C162.495 166.681 162.677 166.689 163.024 166.707C163.388 166.707 163.839 166.715 164.376 166.733C164.913 166.75 165.425 166.759 165.91 166.759L169.004 166.733C169.212 166.733 169.316 166.845 169.316 167.071C169.316 167.279 169.212 167.383 169.004 167.383H167.366C167.141 167.383 167.028 167.469 167.028 167.643V176.041L167.106 176.093L172.358 168.137C172.41 168.085 172.436 167.929 172.436 167.669C172.436 167.547 172.41 167.469 172.358 167.435C172.323 167.4 172.237 167.383 172.098 167.383H170.486C170.278 167.383 170.174 167.279 170.174 167.071C170.174 166.845 170.278 166.733 170.486 166.733L173.502 166.759C173.953 166.759 174.455 166.75 175.01 166.733C175.565 166.715 176.024 166.707 176.388 166.707C176.769 166.689 176.969 166.681 176.986 166.681C177.194 166.681 177.298 166.802 177.298 167.045C177.298 167.114 177.263 167.183 177.194 167.253C177.142 167.322 177.073 167.357 176.986 167.357L174.984 167.409C174.759 167.409 174.646 167.495 174.646 167.669V177.809C174.646 177.965 174.759 178.043 174.984 178.043L176.986 178.095C177.194 178.095 177.298 178.207 177.298 178.433ZM200.958 175.469C200.958 176.353 200.672 177.063 200.1 177.601C199.302 178.398 197.968 178.797 196.096 178.797H196.044C195.784 178.797 195.238 178.779 194.406 178.745C193.591 178.693 192.915 178.667 192.378 178.667C192.118 178.667 191.546 178.684 190.662 178.719C189.778 178.736 189.249 178.745 189.076 178.745C188.85 178.745 188.738 178.632 188.738 178.407C188.738 178.181 188.85 178.069 189.076 178.069L190.87 177.965C191.234 177.965 191.416 177.809 191.416 177.497V167.955C191.416 167.66 191.251 167.504 190.922 167.487L188.842 167.409C188.738 167.409 188.651 167.374 188.582 167.305C188.512 167.218 188.478 167.14 188.478 167.071C188.478 166.845 188.599 166.733 188.842 166.733C188.894 166.733 189.327 166.741 190.142 166.759C190.956 166.776 191.684 166.785 192.326 166.785C192.776 166.785 193.392 166.767 194.172 166.733C194.969 166.681 195.55 166.655 195.914 166.655C197.803 166.655 199.112 167.062 199.84 167.877C200.29 168.379 200.516 168.986 200.516 169.697C200.516 170.286 200.204 170.849 199.58 171.387C198.973 171.924 198.254 172.279 197.422 172.453C198.479 172.695 199.328 173.085 199.97 173.623C200.628 174.16 200.958 174.775 200.958 175.469ZM198.124 169.775C198.124 168.908 197.924 168.275 197.526 167.877C197.162 167.478 196.564 167.279 195.732 167.279C195.298 167.279 194.744 167.305 194.068 167.357C193.773 167.374 193.626 167.53 193.626 167.825V172.193H195.758C196.642 172.193 197.257 172.019 197.604 171.673C197.95 171.309 198.124 170.676 198.124 169.775ZM198.592 175.365C198.592 174.411 198.375 173.735 197.942 173.337C197.508 172.938 196.806 172.739 195.836 172.739H193.626V177.549C193.626 177.878 193.799 178.051 194.146 178.069C194.943 178.138 195.558 178.173 195.992 178.173C196.91 178.173 197.552 177.991 197.916 177.627C198.366 177.176 198.592 176.422 198.592 175.365ZM219.03 178.433C219.03 178.502 218.995 178.58 218.926 178.667C218.874 178.736 218.805 178.771 218.718 178.771C218.701 178.771 218.501 178.771 218.12 178.771C217.756 178.753 217.305 178.736 216.768 178.719C216.231 178.701 215.745 178.693 215.312 178.693C214.913 178.693 214.471 178.693 213.986 178.693C213.501 178.693 213.093 178.701 212.764 178.719C212.435 178.719 212.253 178.719 212.218 178.719C212.027 178.719 211.932 178.623 211.932 178.433C211.932 178.19 212.027 178.069 212.218 178.069H213.83C214.055 178.069 214.168 177.991 214.168 177.835V169.255L214.09 169.203L208.838 177.185C208.786 177.271 208.76 177.453 208.76 177.731C208.76 177.869 208.777 177.965 208.812 178.017C208.847 178.051 208.942 178.069 209.098 178.069H210.736C210.927 178.069 211.022 178.19 211.022 178.433C211.022 178.623 210.927 178.719 210.736 178.719C209.107 178.701 208.101 178.693 207.72 178.693C207.269 178.693 206.767 178.701 206.212 178.719C205.657 178.719 205.189 178.727 204.808 178.745C204.427 178.762 204.227 178.771 204.21 178.771C203.985 178.771 203.872 178.658 203.872 178.433C203.872 178.207 203.985 178.095 204.21 178.095L206.238 178.043C206.446 178.043 206.55 177.965 206.55 177.809V167.669C206.55 167.495 206.446 167.409 206.238 167.409L204.21 167.357C204.106 167.357 204.019 167.322 203.95 167.253C203.898 167.183 203.872 167.114 203.872 167.045C203.872 166.802 203.985 166.681 204.21 166.681C204.227 166.681 204.409 166.689 204.756 166.707C205.12 166.707 205.571 166.715 206.108 166.733C206.645 166.75 207.157 166.759 207.642 166.759L210.736 166.733C210.944 166.733 211.048 166.845 211.048 167.071C211.048 167.279 210.944 167.383 210.736 167.383H209.098C208.873 167.383 208.76 167.469 208.76 167.643V176.041L208.838 176.093L214.09 168.137C214.142 168.085 214.168 167.929 214.168 167.669C214.168 167.547 214.142 167.469 214.09 167.435C214.055 167.4 213.969 167.383 213.83 167.383H212.218C212.01 167.383 211.906 167.279 211.906 167.071C211.906 166.845 212.01 166.733 212.218 166.733L215.234 166.759C215.685 166.759 216.187 166.75 216.742 166.733C217.297 166.715 217.756 166.707 218.12 166.707C218.501 166.689 218.701 166.681 218.718 166.681C218.926 166.681 219.03 166.802 219.03 167.045C219.03 167.114 218.995 167.183 218.926 167.253C218.874 167.322 218.805 167.357 218.718 167.357L216.716 167.409C216.491 167.409 216.378 167.495 216.378 167.669V177.809C216.378 177.965 216.491 178.043 216.716 178.043L218.718 178.095C218.926 178.095 219.03 178.207 219.03 178.433ZM232.347 168.943C233.214 170.139 233.647 171.395 233.647 172.713C233.647 174.03 233.214 175.287 232.347 176.483C231.03 178.251 229.504 179.135 227.771 179.135C226.211 179.135 224.876 178.493 223.767 177.211C222.658 175.911 222.103 173.883 222.103 171.127C222.103 169.393 222.372 167.773 222.909 166.265C223.464 164.757 224.391 163.621 225.691 162.859C226.367 162.46 227.407 162.044 228.811 161.611C230.232 161.16 231.134 160.839 231.515 160.649C231.654 160.579 231.792 160.441 231.931 160.233C232.122 159.938 232.269 159.791 232.373 159.791C232.581 159.791 232.685 159.973 232.685 160.337C232.685 160.995 232.538 161.55 232.243 162.001C231.948 162.434 231.558 162.807 231.073 163.119C230.605 163.413 230.172 163.63 229.773 163.769C229.374 163.89 228.802 164.063 228.057 164.289C227.312 164.497 226.731 164.679 226.315 164.835C224.01 165.649 222.822 167.495 222.753 170.373V170.399C222.753 170.485 222.788 170.529 222.857 170.529C222.909 170.529 222.952 170.485 222.987 170.399C223.004 170.347 223.039 170.243 223.091 170.087C223.16 169.931 223.221 169.792 223.273 169.671C223.724 168.683 224.348 167.877 225.145 167.253C225.96 166.611 226.835 166.291 227.771 166.291C229.487 166.291 231.012 167.175 232.347 168.943ZM231.203 172.713C231.203 171.551 231.116 170.589 230.943 169.827C230.51 167.851 229.452 166.863 227.771 166.863C227.13 166.863 226.549 167.027 226.029 167.357C225.526 167.669 225.18 168.154 224.989 168.813C224.746 169.627 224.625 170.919 224.625 172.687C224.625 174.611 224.729 175.919 224.937 176.613C225.145 177.289 225.474 177.765 225.925 178.043C226.393 178.303 227.008 178.433 227.771 178.433C229.47 178.433 230.527 177.462 230.943 175.521C231.116 174.758 231.203 173.822 231.203 172.713ZM240.908 161.663C241.237 161.957 241.402 162.347 241.402 162.833C241.402 163.318 241.237 163.717 240.908 164.029C240.596 164.341 240.215 164.497 239.764 164.497C239.313 164.497 238.923 164.341 238.594 164.029C238.282 163.717 238.126 163.318 238.126 162.833C238.126 162.347 238.282 161.957 238.594 161.663C238.923 161.351 239.313 161.195 239.764 161.195C240.215 161.195 240.596 161.351 240.908 161.663ZM243.118 178.095C243.361 178.095 243.482 178.207 243.482 178.433C243.482 178.658 243.369 178.771 243.144 178.771H243.118C242.841 178.771 242.364 178.762 241.688 178.745C241.029 178.71 240.527 178.693 240.18 178.693C239.799 178.693 239.261 178.71 238.568 178.745C237.892 178.762 237.372 178.771 237.008 178.771H236.982C236.757 178.771 236.644 178.658 236.644 178.433C236.644 178.207 236.765 178.095 237.008 178.095L238.646 178.017C238.837 178.017 238.932 177.913 238.932 177.705V168.137C238.932 167.669 238.707 167.435 238.256 167.435L236.514 167.409C236.271 167.409 236.15 167.296 236.15 167.071C236.15 166.845 236.271 166.733 236.514 166.733C238.299 166.733 239.729 166.715 240.804 166.681C241.064 166.681 241.194 166.811 241.194 167.071V177.705C241.194 177.913 241.289 178.017 241.48 178.017L243.118 178.095ZM259.52 172.713C259.52 174.082 259.173 175.304 258.48 176.379C257.943 177.228 257.293 177.904 256.53 178.407C255.767 178.892 254.953 179.135 254.086 179.135C253.202 179.135 252.431 178.831 251.772 178.225C251.2 177.705 250.793 177.029 250.55 176.197H250.472V183.685C250.472 183.875 250.758 183.979 251.33 183.997L253.41 184.075C253.653 184.075 253.774 184.187 253.774 184.413C253.774 184.638 253.653 184.751 253.41 184.751C253.133 184.751 252.517 184.733 251.564 184.699C250.628 184.681 249.987 184.673 249.64 184.673C249.293 184.673 248.643 184.681 247.69 184.699C246.754 184.733 246.147 184.751 245.87 184.751C245.627 184.751 245.506 184.638 245.506 184.413C245.506 184.187 245.627 184.075 245.87 184.075L247.95 183.997C248.158 183.997 248.262 183.893 248.262 183.685V168.111C248.262 167.643 248.019 167.409 247.534 167.409H245.506C245.281 167.409 245.168 167.279 245.168 167.019C245.168 166.811 245.281 166.707 245.506 166.707C245.922 166.707 246.667 166.698 247.742 166.681C248.817 166.663 249.597 166.655 250.082 166.655C250.342 166.655 250.472 166.776 250.472 167.019V169.203H250.55C250.793 168.371 251.2 167.695 251.772 167.175C252.413 166.585 253.185 166.291 254.086 166.291C254.935 166.291 255.741 166.551 256.504 167.071C257.284 167.573 257.943 168.249 258.48 169.099C259.173 170.173 259.52 171.378 259.52 172.713ZM257.102 172.713C257.102 171.257 256.929 170.035 256.582 169.047C256.114 167.66 255.265 166.967 254.034 166.967C253.375 166.967 252.743 167.201 252.136 167.669C251.009 168.518 250.446 170.113 250.446 172.453V172.947C250.446 175.304 251.009 176.907 252.136 177.757C252.725 178.207 253.358 178.433 254.034 178.433C255.282 178.433 256.131 177.765 256.582 176.431C256.929 175.443 257.102 174.203 257.102 172.713ZM92.7634 209.485C92.7634 209.502 92.7374 209.745 92.6854 210.213C92.6508 210.698 92.6074 211.313 92.5554 212.059C92.5034 212.804 92.4688 213.497 92.4514 214.139C92.4168 214.329 92.3128 214.425 92.1394 214.425C91.9661 214.425 91.8621 214.329 91.8274 214.139C91.7234 213.827 91.6021 213.419 91.4634 212.917C91.3248 212.431 91.2468 212.154 91.2294 212.085C90.9001 211.01 90.4928 210.334 90.0074 210.057C89.5221 209.797 88.6901 209.667 87.5114 209.667H84.4174C83.1348 209.667 82.2248 209.866 81.6874 210.265C81.1674 210.681 80.7081 211.513 80.3094 212.761L79.8934 214.139C79.8414 214.329 79.7201 214.425 79.5294 214.425C79.3561 214.425 79.2694 214.329 79.2694 214.139V212.709C79.2694 212.119 79.2521 211.556 79.2174 211.019C79.2001 210.499 79.1828 210.1 79.1654 209.823L79.1134 209.407V209.355C79.1134 209.147 79.2434 209.043 79.5034 209.043L80.5434 209.017C81.3061 209.017 81.8261 208.644 82.1034 207.899C82.8661 205.715 83.2474 202.993 83.2474 199.735V199.605C83.2474 198.963 82.9181 198.617 82.2594 198.565L80.2574 198.409C80.0494 198.391 79.9454 198.27 79.9454 198.045C79.9454 197.837 80.0494 197.733 80.2574 197.733C80.3094 197.733 80.5088 197.741 80.8554 197.759C81.2021 197.759 81.6441 197.767 82.1814 197.785C82.7361 197.785 83.2734 197.785 83.7934 197.785H88.8114C89.3661 197.785 90.0594 197.776 90.8914 197.759C91.7408 197.741 92.2174 197.733 92.3214 197.733C92.5294 197.733 92.6334 197.837 92.6334 198.045C92.6334 198.287 92.5294 198.409 92.3214 198.409L90.1634 198.487C89.8688 198.521 89.7214 198.66 89.7214 198.903V208.445C89.7214 208.653 89.7474 208.8 89.7994 208.887C89.8688 208.956 89.9988 208.999 90.1894 209.017L92.3734 209.095C92.6334 209.095 92.7634 209.199 92.7634 209.407V209.485ZM87.5114 208.497V198.929C87.5114 198.79 87.4594 198.677 87.3554 198.591C87.2688 198.504 87.1648 198.461 87.0434 198.461H85.0414C84.6254 198.461 84.3308 198.547 84.1574 198.721C84.0014 198.894 83.9234 199.189 83.9234 199.605V199.735C83.9234 201.381 83.7934 203.071 83.5334 204.805C83.2734 206.538 82.8921 207.942 82.3894 209.017C82.3894 209.069 82.4154 209.095 82.4674 209.095H86.9914C87.3381 209.077 87.5114 208.878 87.5114 208.497ZM106.334 199.943C107.183 201.156 107.608 202.413 107.608 203.713C107.608 205.013 107.183 206.269 106.334 207.483C105.519 208.609 104.557 209.389 103.448 209.823C102.91 210.031 102.356 210.135 101.784 210.135C101.229 210.135 100.674 210.031 100.12 209.823C98.9758 209.355 98.0052 208.575 97.2078 207.483C96.3758 206.304 95.9598 205.047 95.9598 203.713C95.9598 202.378 96.3758 201.121 97.2078 199.943C98.0052 198.851 98.9758 198.071 100.12 197.603C100.674 197.395 101.229 197.291 101.784 197.291C102.338 197.291 102.893 197.395 103.448 197.603C104.557 198.036 105.519 198.816 106.334 199.943ZM105.138 203.713C105.138 202.586 105.051 201.641 104.878 200.879C104.583 199.492 104.002 198.608 103.136 198.227C102.789 198.053 102.338 197.967 101.784 197.967C101.212 197.967 100.752 198.053 100.406 198.227C99.5565 198.591 98.9845 199.475 98.6898 200.879C98.4992 201.728 98.4038 202.673 98.4038 203.713C98.4038 204.735 98.4992 205.671 98.6898 206.521C99.0018 207.942 99.5738 208.835 100.406 209.199C100.718 209.355 101.177 209.433 101.784 209.433C102.373 209.433 102.824 209.355 103.136 209.199C104.002 208.817 104.583 207.925 104.878 206.521C105.051 205.758 105.138 204.822 105.138 203.713ZM131.527 202.621C131.527 202.811 131.431 202.907 131.241 202.907C131.033 202.907 130.92 202.82 130.903 202.647L130.591 201.165C130.157 199.258 129.386 198.287 128.277 198.253C128.225 198.253 128.051 198.253 127.757 198.253C127.479 198.235 127.323 198.227 127.289 198.227C127.098 198.227 127.003 198.322 127.003 198.513V208.653C127.003 208.861 127.133 208.973 127.393 208.991L129.551 209.095C129.776 209.095 129.889 209.207 129.889 209.433C129.889 209.658 129.776 209.771 129.551 209.771C129.464 209.771 128.996 209.762 128.147 209.745C127.297 209.71 126.552 209.693 125.911 209.693C125.356 209.693 124.628 209.71 123.727 209.745C122.825 209.762 122.323 209.771 122.219 209.771C122.011 209.771 121.907 209.658 121.907 209.433C121.907 209.207 122.011 209.095 122.219 209.095L124.403 208.991C124.663 208.973 124.793 208.861 124.793 208.653V198.513C124.793 198.322 124.697 198.227 124.507 198.227C124.489 198.227 124.351 198.235 124.091 198.253C123.831 198.253 123.649 198.253 123.545 198.253C122.401 198.287 121.629 199.232 121.231 201.087L120.867 202.647C120.832 202.82 120.728 202.907 120.555 202.907C120.364 202.907 120.269 202.811 120.269 202.621C120.269 202.413 120.277 202.083 120.295 201.633C120.312 201.165 120.321 200.792 120.321 200.515V197.915C120.321 197.776 120.381 197.707 120.503 197.707C120.815 197.707 121.326 197.715 122.037 197.733C122.765 197.75 123.224 197.759 123.415 197.759H128.355C128.649 197.759 129.135 197.75 129.811 197.733C130.487 197.715 130.972 197.707 131.267 197.707C131.301 197.707 131.345 197.733 131.397 197.785C131.449 197.819 131.475 197.863 131.475 197.915V200.515C131.475 200.757 131.483 201.113 131.501 201.581C131.518 202.049 131.527 202.395 131.527 202.621ZM145.501 199.943C146.351 201.156 146.775 202.413 146.775 203.713C146.775 205.013 146.351 206.269 145.501 207.483C144.687 208.609 143.725 209.389 142.615 209.823C142.078 210.031 141.523 210.135 140.951 210.135C140.397 210.135 139.842 210.031 139.287 209.823C138.143 209.355 137.173 208.575 136.375 207.483C135.543 206.304 135.127 205.047 135.127 203.713C135.127 202.378 135.543 201.121 136.375 199.943C137.173 198.851 138.143 198.071 139.287 197.603C139.842 197.395 140.397 197.291 140.951 197.291C141.506 197.291 142.061 197.395 142.615 197.603C143.725 198.036 144.687 198.816 145.501 199.943ZM144.305 203.713C144.305 202.586 144.219 201.641 144.045 200.879C143.751 199.492 143.17 198.608 142.303 198.227C141.957 198.053 141.506 197.967 140.951 197.967C140.379 197.967 139.92 198.053 139.573 198.227C138.724 198.591 138.152 199.475 137.857 200.879C137.667 201.728 137.571 202.673 137.571 203.713C137.571 204.735 137.667 205.671 137.857 206.521C138.169 207.942 138.741 208.835 139.573 209.199C139.885 209.355 140.345 209.433 140.951 209.433C141.541 209.433 141.991 209.355 142.303 209.199C143.17 208.817 143.751 207.925 144.045 206.521C144.219 205.758 144.305 204.822 144.305 203.713ZM161.937 206.469C161.937 207.353 161.651 208.063 161.079 208.601C160.282 209.398 158.947 209.797 157.075 209.797H157.023C156.763 209.797 156.217 209.779 155.385 209.745C154.571 209.693 153.895 209.667 153.357 209.667C153.097 209.667 152.525 209.684 151.641 209.719C150.757 209.736 150.229 209.745 150.055 209.745C149.83 209.745 149.717 209.632 149.717 209.407C149.717 209.181 149.83 209.069 150.055 209.069L151.849 208.965C152.213 208.965 152.395 208.809 152.395 208.497V198.955C152.395 198.66 152.231 198.504 151.901 198.487L149.821 198.409C149.717 198.409 149.631 198.374 149.561 198.305C149.492 198.218 149.457 198.14 149.457 198.071C149.457 197.845 149.579 197.733 149.821 197.733C149.873 197.733 150.307 197.741 151.121 197.759C151.936 197.776 152.664 197.785 153.305 197.785C153.756 197.785 154.371 197.767 155.151 197.733C155.949 197.681 156.529 197.655 156.893 197.655C158.783 197.655 160.091 198.062 160.819 198.877C161.27 199.379 161.495 199.986 161.495 200.697C161.495 201.286 161.183 201.849 160.559 202.387C159.953 202.924 159.233 203.279 158.401 203.453C159.459 203.695 160.308 204.085 160.949 204.623C161.608 205.16 161.937 205.775 161.937 206.469ZM159.103 200.775C159.103 199.908 158.904 199.275 158.505 198.877C158.141 198.478 157.543 198.279 156.711 198.279C156.278 198.279 155.723 198.305 155.047 198.357C154.753 198.374 154.605 198.53 154.605 198.825V203.193H156.737C157.621 203.193 158.237 203.019 158.583 202.673C158.93 202.309 159.103 201.676 159.103 200.775ZM159.571 206.365C159.571 205.411 159.355 204.735 158.921 204.337C158.488 203.938 157.786 203.739 156.815 203.739H154.605V208.549C154.605 208.878 154.779 209.051 155.125 209.069C155.923 209.138 156.538 209.173 156.971 209.173C157.89 209.173 158.531 208.991 158.895 208.627C159.346 208.176 159.571 207.422 159.571 206.365ZM177.41 206.547C177.41 208.939 176.612 210.135 175.018 210.135C174.22 210.135 173.57 209.927 173.068 209.511C172.582 209.095 172.331 208.488 172.314 207.691H172.236C172.01 208.453 171.594 209.051 170.988 209.485C170.381 209.901 169.653 210.109 168.804 210.109C167.833 210.109 167.027 209.901 166.386 209.485C165.744 209.051 165.424 208.393 165.424 207.509C165.424 207.058 165.51 206.651 165.684 206.287C165.857 205.905 166.117 205.567 166.464 205.273C166.81 204.961 167.14 204.709 167.452 204.519C167.764 204.311 168.145 204.085 168.596 203.843C169.202 203.513 170.338 202.993 172.002 202.283C172.21 202.196 172.314 202.031 172.314 201.789V200.151C172.314 198.712 171.482 197.993 169.818 197.993C169.072 197.993 168.431 198.097 167.894 198.305C167.356 198.513 167.088 198.773 167.088 199.085C167.088 199.137 167.096 199.189 167.114 199.241C167.131 199.275 167.148 199.31 167.166 199.345C167.2 199.362 167.244 199.397 167.296 199.449C167.348 199.483 167.382 199.518 167.4 199.553C167.434 199.57 167.486 199.605 167.556 199.657C167.642 199.709 167.703 199.743 167.738 199.761C168.206 200.09 168.44 200.497 168.44 200.983C168.44 201.433 168.301 201.789 168.024 202.049C167.746 202.291 167.417 202.413 167.036 202.413C166.62 202.413 166.256 202.265 165.944 201.971C165.649 201.659 165.502 201.234 165.502 200.697C165.502 199.761 165.952 198.963 166.854 198.305C167.755 197.629 168.934 197.291 170.39 197.291C171.672 197.291 172.678 197.542 173.406 198.045C174.134 198.547 174.498 199.284 174.498 200.255V208.081C174.498 208.947 174.87 209.381 175.616 209.381C176.396 209.381 176.786 208.419 176.786 206.495C176.786 206.235 176.777 205.983 176.76 205.741C176.76 205.481 176.76 205.273 176.76 205.117C176.76 204.961 176.76 204.874 176.76 204.857C176.76 204.649 176.846 204.545 177.02 204.545C177.176 204.545 177.271 204.649 177.306 204.857C177.375 205.515 177.41 206.079 177.41 206.547ZM172.314 204.831V202.647C171.118 203.219 170.485 203.522 170.416 203.557C168.613 204.406 167.712 205.611 167.712 207.171C167.712 207.76 167.85 208.271 168.128 208.705C168.422 209.121 168.864 209.329 169.454 209.329C170.338 209.329 171.031 208.93 171.534 208.133C172.054 207.335 172.314 206.235 172.314 204.831ZM193.347 203.713C193.347 205.082 193 206.304 192.307 207.379C191.77 208.228 191.12 208.904 190.357 209.407C189.594 209.892 188.78 210.135 187.913 210.135C187.029 210.135 186.258 209.831 185.599 209.225C185.027 208.705 184.62 208.029 184.377 207.197H184.299V214.685C184.299 214.875 184.585 214.979 185.157 214.997L187.237 215.075C187.48 215.075 187.601 215.187 187.601 215.413C187.601 215.638 187.48 215.751 187.237 215.751C186.96 215.751 186.344 215.733 185.391 215.699C184.455 215.681 183.814 215.673 183.467 215.673C183.12 215.673 182.47 215.681 181.517 215.699C180.581 215.733 179.974 215.751 179.697 215.751C179.454 215.751 179.333 215.638 179.333 215.413C179.333 215.187 179.454 215.075 179.697 215.075L181.777 214.997C181.985 214.997 182.089 214.893 182.089 214.685V199.111C182.089 198.643 181.846 198.409 181.361 198.409H179.333C179.108 198.409 178.995 198.279 178.995 198.019C178.995 197.811 179.108 197.707 179.333 197.707C179.749 197.707 180.494 197.698 181.569 197.681C182.644 197.663 183.424 197.655 183.909 197.655C184.169 197.655 184.299 197.776 184.299 198.019V200.203H184.377C184.62 199.371 185.027 198.695 185.599 198.175C186.24 197.585 187.012 197.291 187.913 197.291C188.762 197.291 189.568 197.551 190.331 198.071C191.111 198.573 191.77 199.249 192.307 200.099C193 201.173 193.347 202.378 193.347 203.713ZM190.929 203.713C190.929 202.257 190.756 201.035 190.409 200.047C189.941 198.66 189.092 197.967 187.861 197.967C187.202 197.967 186.57 198.201 185.963 198.669C184.836 199.518 184.273 201.113 184.273 203.453V203.947C184.273 206.304 184.836 207.907 185.963 208.757C186.552 209.207 187.185 209.433 187.861 209.433C189.109 209.433 189.958 208.765 190.409 207.431C190.756 206.443 190.929 205.203 190.929 203.713ZM209.542 198.071C209.542 198.261 209.446 198.365 209.256 198.383L208.476 198.513C207.99 198.599 207.592 198.773 207.28 199.033C206.985 199.293 206.708 199.761 206.448 200.437L203.9 206.963C203.501 207.968 203.059 209.242 202.574 210.785C202.106 212.327 201.802 213.263 201.664 213.593C201.3 214.442 200.927 215.031 200.546 215.361C200.182 215.69 199.696 215.855 199.09 215.855C198.379 215.855 197.798 215.647 197.348 215.231C196.914 214.832 196.698 214.312 196.698 213.671C196.698 213.116 196.828 212.691 197.088 212.397C197.365 212.119 197.694 211.981 198.076 211.981C198.44 211.981 198.726 212.093 198.934 212.319C199.159 212.561 199.272 212.847 199.272 213.177C199.272 213.523 199.168 213.827 198.96 214.087C198.734 214.381 198.622 214.633 198.622 214.841C198.622 215.17 198.821 215.335 199.22 215.335C199.965 215.335 200.598 214.659 201.118 213.307C201.447 212.44 201.707 211.634 201.898 210.889C201.967 210.611 202.002 210.325 202.002 210.031C202.002 209.84 201.941 209.545 201.82 209.147L198.414 199.163C198.362 199.007 198.258 198.868 198.102 198.747C197.963 198.625 197.816 198.556 197.66 198.539L195.944 198.331C195.753 198.296 195.658 198.183 195.658 197.993C195.658 197.819 195.744 197.733 195.918 197.733C196.282 197.733 196.888 197.75 197.738 197.785C198.604 197.802 199.194 197.811 199.506 197.811C199.852 197.811 200.372 197.802 201.066 197.785C201.776 197.75 202.322 197.733 202.704 197.733C202.894 197.733 202.99 197.811 202.99 197.967C202.99 198.14 202.894 198.244 202.704 198.279L201.17 198.487C200.875 198.539 200.728 198.695 200.728 198.955C200.728 199.007 200.745 199.102 200.78 199.241L203.302 206.807H203.406L205.72 200.697C205.858 200.315 205.928 199.977 205.928 199.683C205.928 198.937 205.572 198.513 204.862 198.409L203.874 198.279C203.718 198.261 203.64 198.157 203.64 197.967C203.64 197.811 203.718 197.733 203.874 197.733C204.255 197.733 204.714 197.75 205.252 197.785C205.789 197.802 206.231 197.811 206.578 197.811C206.89 197.811 207.323 197.802 207.878 197.785C208.432 197.75 208.883 197.733 209.23 197.733C209.438 197.733 209.542 197.845 209.542 198.071Z" fill="#1A1A1A"/>
<defs>
<clipPath id="clip0_1460_24235">
<rect width="127" height="96" fill="white" transform="translate(80.5 0.770508)"/>
</clipPath>
</defs>
</svg>
