<svg width="288" height="259" viewBox="0 0 288 259" fill="none" xmlns="http://www.w3.org/2000/svg">
<path d="M101.255 63.9141C101.02 53.5294 101.026 42.8186 101.272 31.7818C101.299 30.5863 100.574 29.3147 99.0982 27.967C98.7593 27.6518 98.8221 27.4943 99.2869 27.4943L108.185 27.4535C108.655 27.4481 108.721 27.6084 108.382 27.9344C106.791 29.4451 105.968 30.7276 105.913 31.7818C105.536 38.5528 105.602 50.9237 106.11 68.8945C106.112 68.9547 106.102 69.0148 106.081 69.0711C106.059 69.1274 106.026 69.1787 105.984 69.2221C105.942 69.2655 105.892 69.3 105.836 69.3235C105.78 69.3471 105.72 69.3592 105.659 69.3591L96.6871 69.3184C96.4192 69.3184 96.2169 69.2015 96.0802 68.9679L74.5356 32.2627C74.3989 32.0345 74.1939 31.9204 73.9205 31.9204L71.8128 31.9367C71.5613 31.9421 71.4301 32.0698 71.4191 32.3198C70.6373 46.5193 70.6209 57.4175 71.3699 65.0145C71.4738 66.0579 72.3759 67.305 74.0763 68.7559C74.1228 68.7943 74.1559 68.8458 74.1712 68.9037C74.1864 68.9615 74.1831 69.0229 74.1617 69.0797C74.1403 69.1364 74.1019 69.1857 74.0514 69.2211C74.001 69.2565 73.941 69.2762 73.8795 69.2776L64.8581 69.2369C64.3825 69.2369 64.3114 69.0657 64.6449 68.7233C66.0719 67.2615 66.7663 66.0253 66.728 65.0145C66.2688 52.6789 66.3644 40.3542 67.0151 28.0404C67.0315 27.7198 67.2037 27.5568 67.5317 27.5513L76.7663 27.5187C77.0233 27.5187 77.2146 27.6274 77.3404 27.8448L98.5077 64.6722C98.6685 64.9568 98.9207 65.1796 99.224 65.305C99.5272 65.4304 99.864 65.451 100.18 65.3637C100.497 65.2764 100.775 65.0861 100.97 64.8233C101.164 64.5605 101.265 64.2404 101.255 63.9141Z" fill="#1A1A1A"/>
<path d="M120.323 45.8263C124.615 45.897 128.91 45.9024 133.207 45.8426C135.463 45.81 136.594 44.9623 138.03 43.438C138.308 43.1391 138.448 43.1935 138.448 43.601L138.44 52.5593C138.44 52.9614 138.303 53.013 138.03 52.7142C136.75 51.3447 135.659 50.3584 133.634 50.3177C129.172 50.2362 124.719 50.2335 120.274 50.3095C119.99 50.315 119.845 50.4563 119.839 50.7334C119.801 52.8473 119.809 54.9422 119.864 57.018C119.995 61.6561 119.667 64.9655 125.137 64.9981C131.277 65.0307 137.412 65.028 143.541 64.99C143.648 64.9898 143.752 64.9653 143.846 64.9186C143.94 64.8719 144.021 64.8041 144.082 64.721L149.183 57.9228C149.198 57.9047 149.218 57.8919 149.241 57.8863C149.264 57.8807 149.287 57.8827 149.309 57.892C149.33 57.9013 149.348 57.9173 149.359 57.9376C149.371 57.9579 149.375 57.9813 149.372 58.0043L147.141 68.9759C147.076 69.2857 146.884 69.4405 146.567 69.4405L113.254 69.3916C112.844 69.3916 112.784 69.2449 113.073 68.9515C114.604 67.3919 115.364 66.0795 115.353 65.0144C115.211 54.3906 115.203 43.7722 115.329 33.1593C115.361 30.8362 114.623 29.6135 113.18 27.9669C112.868 27.6137 112.948 27.4371 113.418 27.4371L145.132 27.3882C145.433 27.3882 145.616 27.5322 145.681 27.8202L147.879 37.6751C147.983 38.137 147.882 38.1859 147.576 37.8218C145.526 35.3927 143.77 31.7817 140.096 31.7817C135.192 31.7871 130.29 31.7926 125.392 31.798C122.841 31.8062 120.454 32.6457 120.02 35.2542C119.785 36.6616 119.744 40.0498 119.897 45.4188C119.908 45.6851 120.05 45.8209 120.323 45.8263Z" fill="#1A1A1A"/>
<path d="M174.558 63.8243L185.777 27.861C185.864 27.5838 186.056 27.4452 186.351 27.4452L195.84 27.4778C196.075 27.4778 196.234 27.5865 196.316 27.8039C200.684 39.8895 204.621 52.111 208.125 64.4683C208.218 64.7889 208.431 64.9519 208.765 64.9573L211.029 64.9655C211.351 64.9709 211.564 64.8215 211.668 64.5172C215.135 54.5998 218.333 44.6036 221.264 34.5287C222.469 30.3797 220.329 30.0455 217.672 27.8854C217.365 27.6354 217.409 27.5105 217.803 27.5105L230.925 27.5594C231.422 27.5594 231.461 27.6898 231.04 27.9506C228.268 29.6461 227.013 31.3986 226.094 34.6673C222.857 46.2529 219.104 57.6701 214.834 68.9189C214.741 69.1634 214.563 69.2857 214.301 69.2857L205.058 69.302C204.757 69.302 204.566 69.158 204.484 68.87C201.111 56.5507 197.316 44.3591 193.101 32.2952C193.051 32.1501 192.956 32.0241 192.83 31.9349C192.703 31.8457 192.551 31.7978 192.395 31.798L190.058 31.8062C189.686 31.8062 189.446 31.9828 189.336 32.336L177.658 68.8944C177.554 69.2259 177.324 69.3916 176.969 69.3916L167.595 69.4079C167.283 69.4079 167.084 69.2585 166.996 68.9596C161.359 49.8422 157.554 37.6479 155.58 32.3768C155.05 30.9584 153.53 29.4477 151.02 27.8447C150.539 27.5403 150.586 27.3882 151.16 27.3882L164.085 27.3963C164.473 27.3963 164.522 27.5268 164.232 27.7876C162.281 29.5075 159.771 30.2737 160.829 33.5587C164.202 43.9706 167.368 54.0537 170.326 63.808C170.464 64.258 170.743 64.6524 171.123 64.9331C171.502 65.2139 171.962 65.3664 172.436 65.3682C172.909 65.37 173.37 65.2211 173.752 64.9433C174.134 64.6654 174.416 64.2733 174.558 63.8243Z" fill="#1A1A1A"/>
<path d="M29.9129 42.9653C29.8746 42.9671 29.8374 42.956 29.8068 42.9338C29.7763 42.9116 29.7542 42.8795 29.7439 42.8424C29.7337 42.8053 29.7358 42.7653 29.7501 42.7286C29.7643 42.6919 29.7898 42.6605 29.8227 42.6393C32.9173 40.7645 34.4673 37.9822 34.4728 34.2924C34.4728 33.7489 34.6204 33.7055 34.9156 34.1619C36.7691 37.0529 39.4427 38.5908 42.9364 38.7756C42.9919 38.7803 43.0446 38.8019 43.0873 38.8374C43.13 38.873 43.1606 38.9208 43.1749 38.9743C43.1893 39.0278 43.1867 39.0843 43.1675 39.1363C43.1483 39.1883 43.1134 39.2331 43.0676 39.2646C40.2956 41.0851 38.8795 43.6826 38.8194 47.0572C38.8085 47.655 38.6362 47.7066 38.3027 47.2121C36.3563 44.2885 33.5597 42.8729 29.9129 42.9653Z" fill="#1A1A1A"/>
<path d="M244.375 49.6657C249.173 49.2581 252.42 46.6253 254.569 42.3459C254.738 42.009 254.842 42.028 254.881 42.4029C255.373 47.0872 257.724 50.4781 261.934 52.5757C262.377 52.7931 262.355 52.9317 261.868 52.9914C257.248 53.5457 253.965 55.9259 252.018 60.1319C251.827 60.5395 251.707 60.5205 251.658 60.0749C251.149 55.3526 248.697 52.035 244.301 50.1222C243.727 49.8722 243.752 49.7201 244.375 49.6657Z" fill="#1A1A1A"/>
<path d="M44.9702 55.3797C45.4377 57.8251 46.061 58.4364 47.5864 60.246C47.7996 60.5014 47.7395 60.64 47.406 60.6617C45.476 60.7704 44.0107 61.6399 43.0101 63.2701C42.9787 63.3188 42.9327 63.3571 42.8787 63.3793C42.8246 63.4016 42.7653 63.4068 42.709 63.3941C42.6527 63.3815 42.6024 63.3517 42.5652 63.309C42.528 63.2662 42.5057 63.2127 42.5016 63.156C42.3103 61.1888 41.3863 59.6754 39.7296 58.6157C39.243 58.306 39.2868 58.1185 39.8608 58.0533C41.8401 57.8305 43.3928 56.9067 44.5191 55.2819C44.7488 54.9558 44.8991 54.9884 44.9702 55.3797Z" fill="#1A1A1A"/>
<path d="M0 114H288V112H0V114Z" fill="#1A1A1A" mask="url(#path-7-inside-1_857_12516)"/>
<path d="M87.528 161.324C87.7533 161.324 87.866 161.437 87.866 161.662C87.866 161.887 87.7533 162 87.528 162C87.4933 162 87.242 162 86.774 162C86.306 161.983 85.6993 161.965 84.954 161.948C84.2087 161.931 83.498 161.922 82.822 161.922C82.1807 161.922 81.4873 161.931 80.742 161.948C79.9967 161.948 79.364 161.957 78.844 161.974C78.3413 161.974 78.064 161.974 78.012 161.974C77.7867 161.974 77.674 161.861 77.674 161.636C77.674 161.411 77.7867 161.298 78.012 161.298L80.716 161.22C80.9587 161.203 81.1233 161.159 81.21 161.09C81.314 161.003 81.366 160.865 81.366 160.674V152.77H72.994V160.674C72.994 161.021 73.2193 161.203 73.67 161.22L76.4 161.298C76.608 161.298 76.712 161.411 76.712 161.636C76.712 161.861 76.608 161.974 76.4 161.974C76.3653 161.974 76.1227 161.974 75.672 161.974C75.2213 161.957 74.632 161.948 73.904 161.948C73.1933 161.931 72.5 161.922 71.824 161.922C71.1133 161.922 70.368 161.931 69.588 161.948C68.808 161.948 68.1667 161.957 67.664 161.974C67.1613 161.991 66.884 162 66.832 162C66.6067 162 66.494 161.887 66.494 161.662C66.494 161.437 66.6067 161.324 66.832 161.324L69.588 161.22C69.848 161.203 70.0213 161.159 70.108 161.09C70.1947 161.021 70.238 160.882 70.238 160.674V144.684C70.238 144.32 70.0213 144.129 69.588 144.112L66.832 144.008C66.6067 144.008 66.494 143.895 66.494 143.67C66.494 143.445 66.6067 143.332 66.832 143.332C66.8667 143.332 67.1093 143.341 67.56 143.358C68.0107 143.375 68.6 143.393 69.328 143.41C70.0733 143.41 70.8187 143.41 71.564 143.41C72.2747 143.41 73.0027 143.41 73.748 143.41C74.5107 143.393 75.1347 143.384 75.62 143.384C76.1053 143.367 76.3653 143.358 76.4 143.358C76.608 143.358 76.712 143.471 76.712 143.696C76.712 143.921 76.608 144.034 76.4 144.034L73.67 144.112C73.2193 144.129 72.994 144.32 72.994 144.684V152.094H81.366V144.684C81.366 144.476 81.314 144.337 81.21 144.268C81.1233 144.181 80.9587 144.129 80.716 144.112L78.012 144.034C77.7867 144.034 77.674 143.921 77.674 143.696C77.674 143.471 77.7867 143.358 78.012 143.358C78.0467 143.358 78.298 143.367 78.766 143.384C79.234 143.384 79.8147 143.393 80.508 143.41C81.2187 143.41 81.8947 143.41 82.536 143.41C83.2467 143.41 83.992 143.41 84.772 143.41C85.5693 143.393 86.2193 143.375 86.722 143.358C87.2247 143.341 87.4933 143.332 87.528 143.332C87.7533 143.332 87.866 143.445 87.866 143.67C87.866 143.895 87.7533 144.008 87.528 144.008L84.772 144.112C84.3387 144.129 84.122 144.32 84.122 144.684V160.674C84.122 160.865 84.1653 161.003 84.252 161.09C84.3387 161.159 84.512 161.203 84.772 161.22L87.528 161.324ZM107.17 149.234C107.62 150.395 107.846 151.557 107.846 152.718C107.846 153.879 107.62 155.041 107.17 156.202C106.736 157.363 106.147 158.369 105.402 159.218C103.547 161.333 101.493 162.39 99.2396 162.39C96.9862 162.39 94.9322 161.333 93.0776 159.218C92.3322 158.369 91.7342 157.363 91.2836 156.202C90.8502 155.041 90.6336 153.879 90.6336 152.718C90.6336 151.557 90.8502 150.395 91.2836 149.234C91.7342 148.073 92.3322 147.067 93.0776 146.218C94.9322 144.103 96.9862 143.046 99.2396 143.046C101.476 143.046 103.53 144.103 105.402 146.218C106.147 147.067 106.736 148.073 107.17 149.234ZM104.57 154.46C104.587 153.975 104.596 153.394 104.596 152.718C104.596 152.042 104.587 151.47 104.57 151.002C104.552 150.517 104.5 149.945 104.414 149.286C104.344 148.61 104.24 148.038 104.102 147.57C103.963 147.102 103.755 146.617 103.478 146.114C103.218 145.594 102.906 145.178 102.542 144.866C102.178 144.554 101.71 144.294 101.138 144.086C100.583 143.878 99.9502 143.774 99.2396 143.774C98.5289 143.774 97.8876 143.878 97.3156 144.086C96.7609 144.294 96.3016 144.554 95.9376 144.866C95.5736 145.178 95.2529 145.594 94.9756 146.114C94.7156 146.617 94.5162 147.102 94.3776 147.57C94.2389 148.038 94.1262 148.61 94.0396 149.286C93.9702 149.945 93.9269 150.517 93.9096 151.002C93.8922 151.47 93.8836 152.042 93.8836 152.718C93.8836 153.394 93.8922 153.975 93.9096 154.46C93.9269 154.928 93.9702 155.5 94.0396 156.176C94.1262 156.835 94.2389 157.398 94.3776 157.866C94.5162 158.334 94.7156 158.828 94.9756 159.348C95.2529 159.851 95.5736 160.258 95.9376 160.57C96.3016 160.882 96.7609 161.142 97.3156 161.35C97.8876 161.558 98.5289 161.662 99.2396 161.662C99.9502 161.662 100.583 161.558 101.138 161.35C101.71 161.142 102.178 160.882 102.542 160.57C102.906 160.258 103.218 159.851 103.478 159.348C103.755 158.828 103.963 158.334 104.102 157.866C104.24 157.398 104.344 156.835 104.414 156.176C104.5 155.5 104.552 154.928 104.57 154.46ZM128.025 156.93C128.025 158.23 127.592 159.313 126.725 160.18C126.153 160.752 125.313 161.203 124.203 161.532C123.094 161.844 121.915 162 120.667 162H120.563C120.147 162 119.471 161.991 118.535 161.974C117.617 161.939 116.733 161.922 115.883 161.922C115.485 161.922 114.618 161.939 113.283 161.974C111.966 161.991 111.177 162 110.917 162C110.675 162 110.553 161.887 110.553 161.662C110.553 161.454 110.675 161.333 110.917 161.298L113.465 161.142C114.124 161.107 114.453 160.813 114.453 160.258V145.048C114.453 144.493 114.15 144.199 113.543 144.164L110.943 144.06C110.683 144.06 110.553 143.939 110.553 143.696C110.553 143.453 110.683 143.332 110.943 143.332C111.03 143.332 111.611 143.349 112.685 143.384C113.76 143.401 114.791 143.41 115.779 143.41C116.473 143.41 117.261 143.401 118.145 143.384C119.047 143.349 119.775 143.332 120.329 143.332C121.716 143.332 122.929 143.505 123.969 143.852C125.027 144.199 125.807 144.649 126.309 145.204C127.003 145.984 127.349 146.868 127.349 147.856C127.349 148.861 126.838 149.797 125.815 150.664C124.81 151.531 123.683 152.033 122.435 152.172V152.224C124.134 152.38 125.486 152.909 126.491 153.81C127.514 154.711 128.025 155.751 128.025 156.93ZM124.333 147.96C124.333 146.66 124.013 145.663 123.371 144.97C122.782 144.329 121.811 144.008 120.459 144.008C119.489 144.008 118.691 144.025 118.067 144.06C117.495 144.112 117.209 144.398 117.209 144.918V151.938L120.511 151.886C121.95 151.851 122.947 151.557 123.501 151.002C124.056 150.43 124.333 149.416 124.333 147.96ZM125.035 156.8C125.035 155.275 124.68 154.191 123.969 153.55C123.276 152.891 122.158 152.553 120.615 152.536L117.209 152.51V160.284C117.209 160.908 117.556 161.237 118.249 161.272C119.497 161.307 120.269 161.324 120.563 161.324H120.901C122.34 161.324 123.354 161.029 123.943 160.44C124.671 159.712 125.035 158.499 125.035 156.8ZM152.399 161.636C152.399 161.879 152.286 162 152.061 162C152.026 162 151.775 162 151.307 162C150.839 161.983 150.232 161.965 149.487 161.948C148.741 161.931 148.031 161.922 147.355 161.922C146.713 161.922 146.02 161.931 145.275 161.948C144.529 161.948 143.897 161.957 143.377 161.974C142.874 161.974 142.597 161.974 142.545 161.974C142.319 161.974 142.207 161.861 142.207 161.636C142.207 161.411 142.319 161.298 142.545 161.298L145.249 161.246C145.682 161.246 145.899 161.064 145.899 160.7V147.05L145.847 147.024L137.865 159.088C137.639 159.469 137.527 159.833 137.527 160.18V160.7C137.527 161.064 137.752 161.246 138.203 161.246L140.933 161.298C141.141 161.298 141.245 161.411 141.245 161.636C141.245 161.861 141.141 161.974 140.933 161.974C140.898 161.974 140.655 161.974 140.205 161.974C139.754 161.957 139.165 161.948 138.437 161.948C137.726 161.931 137.033 161.922 136.357 161.922C135.646 161.922 134.901 161.931 134.121 161.948C133.341 161.948 132.699 161.957 132.197 161.974C131.694 161.991 131.417 162 131.365 162C131.139 162 131.027 161.887 131.027 161.662C131.027 161.437 131.139 161.324 131.365 161.324L134.121 161.246C134.554 161.246 134.771 161.064 134.771 160.7V144.658C134.771 144.277 134.554 144.086 134.121 144.086L131.365 144.008C131.139 144.008 131.027 143.895 131.027 143.67C131.027 143.445 131.139 143.332 131.365 143.332C131.399 143.332 131.642 143.341 132.093 143.358C132.543 143.375 133.133 143.393 133.861 143.41C134.606 143.41 135.351 143.41 136.097 143.41C136.807 143.41 137.535 143.41 138.281 143.41C139.043 143.393 139.667 143.384 140.153 143.384C140.638 143.367 140.898 143.358 140.933 143.358C141.141 143.358 141.245 143.471 141.245 143.696C141.245 143.921 141.141 144.034 140.933 144.034L138.203 144.086C137.752 144.086 137.527 144.277 137.527 144.658V158.282L137.579 158.308L145.587 146.218C145.795 145.923 145.899 145.594 145.899 145.23V144.658C145.899 144.277 145.682 144.086 145.249 144.086L142.545 144.034C142.319 144.034 142.207 143.921 142.207 143.696C142.207 143.471 142.319 143.358 142.545 143.358C142.579 143.358 142.831 143.367 143.299 143.384C143.767 143.384 144.347 143.393 145.041 143.41C145.751 143.41 146.427 143.41 147.069 143.41C147.779 143.41 148.525 143.41 149.305 143.41C150.102 143.393 150.752 143.375 151.255 143.358C151.757 143.341 152.026 143.332 152.061 143.332C152.286 143.332 152.399 143.445 152.399 143.67C152.399 143.895 152.286 144.008 152.061 144.008L149.305 144.086C148.871 144.103 148.655 144.294 148.655 144.658V160.7C148.655 160.891 148.698 161.029 148.785 161.116C148.871 161.185 149.045 161.229 149.305 161.246L152.061 161.324C152.286 161.324 152.399 161.428 152.399 161.636ZM175.628 161.324C175.854 161.324 175.966 161.437 175.966 161.662C175.966 161.887 175.854 162 175.628 162C175.594 162 175.342 162 174.874 162C174.406 161.983 173.8 161.965 173.054 161.948C172.309 161.931 171.598 161.922 170.922 161.922C170.281 161.922 169.588 161.931 168.842 161.948C168.097 161.948 167.464 161.957 166.944 161.974C166.442 161.974 166.164 161.974 166.112 161.974C165.887 161.974 165.774 161.861 165.774 161.636C165.774 161.411 165.887 161.298 166.112 161.298L168.816 161.22C169.059 161.203 169.224 161.159 169.31 161.09C169.414 161.003 169.466 160.865 169.466 160.674V152.77H161.094V160.674C161.094 161.021 161.32 161.203 161.77 161.22L164.5 161.298C164.708 161.298 164.812 161.411 164.812 161.636C164.812 161.861 164.708 161.974 164.5 161.974C164.466 161.974 164.223 161.974 163.772 161.974C163.322 161.957 162.732 161.948 162.004 161.948C161.294 161.931 160.6 161.922 159.924 161.922C159.214 161.922 158.468 161.931 157.688 161.948C156.908 161.948 156.267 161.957 155.764 161.974C155.262 161.991 154.984 162 154.932 162C154.707 162 154.594 161.887 154.594 161.662C154.594 161.437 154.707 161.324 154.932 161.324L157.688 161.22C157.948 161.203 158.122 161.159 158.208 161.09C158.295 161.021 158.338 160.882 158.338 160.674V144.684C158.338 144.32 158.122 144.129 157.688 144.112L154.932 144.008C154.707 144.008 154.594 143.895 154.594 143.67C154.594 143.445 154.707 143.332 154.932 143.332C154.967 143.332 155.21 143.341 155.66 143.358C156.111 143.375 156.7 143.393 157.428 143.41C158.174 143.41 158.919 143.41 159.664 143.41C160.375 143.41 161.103 143.41 161.848 143.41C162.611 143.393 163.235 143.384 163.72 143.384C164.206 143.367 164.466 143.358 164.5 143.358C164.708 143.358 164.812 143.471 164.812 143.696C164.812 143.921 164.708 144.034 164.5 144.034L161.77 144.112C161.32 144.129 161.094 144.32 161.094 144.684V152.094H169.466V144.684C169.466 144.476 169.414 144.337 169.31 144.268C169.224 144.181 169.059 144.129 168.816 144.112L166.112 144.034C165.887 144.034 165.774 143.921 165.774 143.696C165.774 143.471 165.887 143.358 166.112 143.358C166.147 143.358 166.398 143.367 166.866 143.384C167.334 143.384 167.915 143.393 168.608 143.41C169.319 143.41 169.995 143.41 170.636 143.41C171.347 143.41 172.092 143.41 172.872 143.41C173.67 143.393 174.32 143.375 174.822 143.358C175.325 143.341 175.594 143.332 175.628 143.332C175.854 143.332 175.966 143.445 175.966 143.67C175.966 143.895 175.854 144.008 175.628 144.008L172.872 144.112C172.439 144.129 172.222 144.32 172.222 144.684V160.674C172.222 160.865 172.266 161.003 172.352 161.09C172.439 161.159 172.612 161.203 172.872 161.22L175.628 161.324ZM196.206 161.09C197.107 161.09 197.558 160.379 197.558 158.958V157.268C197.558 157.077 197.653 156.982 197.844 156.982C198.017 156.982 198.121 157.077 198.156 157.268C198.191 157.632 198.208 158.221 198.208 159.036C198.208 161.255 197.177 162.364 195.114 162.364C193.918 162.364 192.982 162.069 192.306 161.48C191.647 160.873 191.318 159.989 191.318 158.828C191.318 158.637 191.327 158.377 191.344 158.048C191.361 157.701 191.37 157.441 191.37 157.268C191.37 156.679 191.344 156.211 191.292 155.864C191.136 154.685 190.781 153.888 190.226 153.472C189.689 153.056 188.848 152.848 187.704 152.848H184.506V160.31C184.506 160.605 184.575 160.821 184.714 160.96C184.87 161.099 185.139 161.177 185.52 161.194L187.834 161.35C188.042 161.367 188.146 161.48 188.146 161.688C188.146 161.931 188.042 162.052 187.834 162.052C187.574 162.052 186.837 162.035 185.624 162C184.428 161.965 183.631 161.948 183.232 161.948C182.833 161.948 182.001 161.965 180.736 162C179.488 162.017 178.734 162.026 178.474 162.026C178.231 162.026 178.11 161.905 178.11 161.662C178.11 161.471 178.231 161.359 178.474 161.324L180.736 161.168C181.1 161.133 181.36 161.055 181.516 160.934C181.672 160.813 181.75 160.596 181.75 160.284V145.074C181.75 144.519 181.447 144.225 180.84 144.19L178.5 144.086C178.24 144.086 178.11 143.956 178.11 143.696C178.11 143.471 178.24 143.358 178.5 143.358C178.587 143.358 179.124 143.375 180.112 143.41C181.1 143.427 182.088 143.436 183.076 143.436C184.064 143.436 185.069 143.427 186.092 143.41C187.115 143.375 187.669 143.358 187.756 143.358C188.016 143.358 188.146 143.471 188.146 143.696C188.146 143.956 188.016 144.086 187.756 144.086L185.416 144.19C184.809 144.225 184.506 144.519 184.506 145.074V152.302H187.938C188.735 152.302 189.403 152.068 189.94 151.6C190.477 151.115 190.781 150.421 190.85 149.52L191.006 146.946C191.145 144.329 192.115 143.02 193.918 143.02C194.629 143.02 195.227 143.245 195.712 143.696C196.215 144.147 196.466 144.71 196.466 145.386C196.466 146.062 196.284 146.582 195.92 146.946C195.573 147.31 195.149 147.492 194.646 147.492C194.195 147.492 193.797 147.353 193.45 147.076C193.103 146.781 192.93 146.409 192.93 145.958C192.93 145.577 193.017 145.239 193.19 144.944C193.363 144.632 193.45 144.407 193.45 144.268C193.45 144.043 193.337 143.93 193.112 143.93C193.043 143.93 192.991 143.939 192.956 143.956C192.557 144.147 192.271 144.467 192.098 144.918C191.925 145.369 191.803 146.019 191.734 146.868L191.552 149.338C191.448 150.863 190.807 151.877 189.628 152.38C189.559 152.415 189.524 152.441 189.524 152.458C189.524 152.493 189.55 152.519 189.602 152.536C189.931 152.623 190.417 152.822 191.058 153.134C191.717 153.429 192.159 153.663 192.384 153.836C193.528 154.72 194.152 155.968 194.256 157.58L194.464 159.348C194.533 159.833 194.715 160.249 195.01 160.596C195.322 160.925 195.721 161.09 196.206 161.09ZM221.578 161.636C221.578 161.879 221.465 162 221.24 162C221.205 162 220.954 162 220.486 162C220.018 161.983 219.411 161.965 218.666 161.948C217.921 161.931 217.21 161.922 216.534 161.922C215.893 161.922 215.199 161.931 214.454 161.948C213.709 161.948 213.076 161.957 212.556 161.974C212.053 161.974 211.776 161.974 211.724 161.974C211.499 161.974 211.386 161.861 211.386 161.636C211.386 161.411 211.499 161.298 211.724 161.298L214.428 161.246C214.861 161.246 215.078 161.064 215.078 160.7V147.05L215.026 147.024L207.044 159.088C206.819 159.469 206.706 159.833 206.706 160.18V160.7C206.706 161.064 206.931 161.246 207.382 161.246L210.112 161.298C210.32 161.298 210.424 161.411 210.424 161.636C210.424 161.861 210.32 161.974 210.112 161.974C210.077 161.974 209.835 161.974 209.384 161.974C208.933 161.957 208.344 161.948 207.616 161.948C206.905 161.931 206.212 161.922 205.536 161.922C204.825 161.922 204.08 161.931 203.3 161.948C202.52 161.948 201.879 161.957 201.376 161.974C200.873 161.991 200.596 162 200.544 162C200.319 162 200.206 161.887 200.206 161.662C200.206 161.437 200.319 161.324 200.544 161.324L203.3 161.246C203.733 161.246 203.95 161.064 203.95 160.7V144.658C203.95 144.277 203.733 144.086 203.3 144.086L200.544 144.008C200.319 144.008 200.206 143.895 200.206 143.67C200.206 143.445 200.319 143.332 200.544 143.332C200.579 143.332 200.821 143.341 201.272 143.358C201.723 143.375 202.312 143.393 203.04 143.41C203.785 143.41 204.531 143.41 205.276 143.41C205.987 143.41 206.715 143.41 207.46 143.41C208.223 143.393 208.847 143.384 209.332 143.384C209.817 143.367 210.077 143.358 210.112 143.358C210.32 143.358 210.424 143.471 210.424 143.696C210.424 143.921 210.32 144.034 210.112 144.034L207.382 144.086C206.931 144.086 206.706 144.277 206.706 144.658V158.282L206.758 158.308L214.766 146.218C214.974 145.923 215.078 145.594 215.078 145.23V144.658C215.078 144.277 214.861 144.086 214.428 144.086L211.724 144.034C211.499 144.034 211.386 143.921 211.386 143.696C211.386 143.471 211.499 143.358 211.724 143.358C211.759 143.358 212.01 143.367 212.478 143.384C212.946 143.384 213.527 143.393 214.22 143.41C214.931 143.41 215.607 143.41 216.248 143.41C216.959 143.41 217.704 143.41 218.484 143.41C219.281 143.393 219.931 143.375 220.434 143.358C220.937 143.341 221.205 143.332 221.24 143.332C221.465 143.332 221.578 143.445 221.578 143.67C221.578 143.895 221.465 144.008 221.24 144.008L218.484 144.086C218.051 144.103 217.834 144.294 217.834 144.658V160.7C217.834 160.891 217.877 161.029 217.964 161.116C218.051 161.185 218.224 161.229 218.484 161.246L221.24 161.324C221.465 161.324 221.578 161.428 221.578 161.636Z" fill="#1A1A1A"/>
<path d="M71.5267 249H69.7567C69.9067 248.46 69.9967 247.74 69.9967 246.75V240.75C69.9967 239.76 69.9067 239.04 69.7567 238.5H79.4017C79.2517 239.04 79.1617 239.76 79.1617 240.75V246.75C79.1617 247.74 79.2517 248.46 79.4017 249H77.6317C77.7817 248.46 77.8717 247.74 77.8717 246.75V240.75C77.8717 240.36 77.8567 240.015 77.8267 239.7H71.3317C71.3017 240.015 71.2867 240.36 71.2867 240.75V246.75C71.2867 247.74 71.3767 248.46 71.5267 249ZM85.2156 241.38C87.2856 241.38 88.8606 243.06 88.9356 245.28C88.9506 245.325 88.9506 245.49 88.9356 245.64H82.6056C82.8306 247.02 84.0756 248.055 85.5756 248.055C86.4006 248.055 87.1506 247.74 87.6906 247.215L88.6506 247.845C87.8856 248.655 86.7906 249.12 85.6206 249.12C83.3556 249.12 81.4206 247.425 81.4206 245.22C81.4206 243.15 83.0706 241.38 85.2156 241.38ZM82.6206 244.755H87.7356C87.6306 243.495 86.4756 242.445 85.1856 242.445C83.8356 242.445 82.8156 243.495 82.6206 244.755ZM98.7673 245.25C98.7673 247.395 97.1323 249.12 95.1073 249.12C93.9223 249.12 92.8723 248.505 92.2273 247.56V250.2C92.2273 251.19 92.3173 251.91 92.4673 252.45H90.7873C90.9373 251.91 91.0273 251.19 91.0273 250.2V243.75C91.0273 242.76 90.9373 242.04 90.7873 241.5H91.9873C92.0923 241.89 92.1673 242.37 92.2123 242.97C92.8573 242.01 93.9073 241.38 95.1073 241.38C97.1323 241.38 98.7673 243.12 98.7673 245.25ZM97.5673 245.25C97.5673 243.72 96.3673 242.49 94.8973 242.49C93.4273 242.49 92.2273 243.72 92.2273 245.25C92.2273 246.78 93.4273 248.01 94.8973 248.01C96.3673 248.01 97.5673 246.78 97.5673 245.25ZM104.127 241.38C106.197 241.38 107.772 243.06 107.847 245.28C107.862 245.325 107.862 245.49 107.847 245.64H101.517C101.742 247.02 102.987 248.055 104.487 248.055C105.312 248.055 106.062 247.74 106.602 247.215L107.562 247.845C106.797 248.655 105.702 249.12 104.532 249.12C102.267 249.12 100.332 247.425 100.332 245.22C100.332 243.15 101.982 241.38 104.127 241.38ZM101.532 244.755H106.647C106.542 243.495 105.387 242.445 104.097 242.445C102.747 242.445 101.727 243.495 101.532 244.755ZM111.138 243.75V246.75C111.138 247.74 111.228 248.46 111.378 249H109.698C109.848 248.46 109.938 247.74 109.938 246.75V243.75C109.938 242.76 109.848 242.04 109.698 241.5H115.113V242.85C114.573 242.7 113.868 242.61 112.893 242.61H111.183C111.153 242.94 111.138 243.33 111.138 243.75ZM123.554 249H121.874C122.024 248.46 122.114 247.74 122.114 246.75V243.75C122.114 243.33 122.099 242.94 122.069 242.61H118.529C118.499 242.94 118.484 243.33 118.484 243.75C118.484 247.95 118.034 249.12 116.459 249.12C116.054 249.12 115.679 249.03 115.454 248.925V247.77C115.664 247.86 115.964 247.935 116.219 247.935C117.104 247.935 117.284 247.2 117.284 243.75C117.284 242.76 117.194 242.04 117.044 241.5H123.554C123.404 242.04 123.314 242.76 123.314 243.75V246.75C123.314 247.74 123.404 248.46 123.554 249ZM125.111 249C125.696 248.445 126.356 247.71 127.181 246.72L127.706 246.075C126.506 245.895 125.591 244.95 125.591 243.81C125.591 242.535 126.716 241.5 128.111 241.5H132.326C132.161 242.04 132.086 242.76 132.086 243.75V246.75C132.086 247.74 132.161 248.46 132.326 249H130.646C130.796 248.46 130.886 247.74 130.886 246.75V246.105H129.041L128.666 246.555C127.826 247.605 127.301 248.415 127.016 249H125.111ZM130.886 245.04V243.75C130.886 243.3 130.871 242.91 130.826 242.565H128.111C127.376 242.565 126.791 243.12 126.791 243.84C126.791 244.5 127.376 245.04 128.111 245.04H130.886ZM136.105 249H134.425C134.575 248.46 134.665 247.74 134.665 246.75V243.75C134.665 242.76 134.575 242.04 134.425 241.5H136.105C135.955 242.04 135.865 242.76 135.865 243.75V244.62H140.455V243.75C140.455 242.76 140.365 242.04 140.215 241.5H141.895C141.745 242.04 141.655 242.76 141.655 243.75V246.75C141.655 247.74 141.745 248.46 141.895 249H140.215C140.365 248.46 140.455 247.74 140.455 246.75V245.73H135.865V246.75C135.865 247.74 135.955 248.46 136.105 249ZM150.35 243.75L147.32 250.8C146.825 251.97 145.955 252.57 144.965 252.57C144.62 252.57 144.215 252.495 143.975 252.39L144.095 251.31C144.365 251.415 144.77 251.49 145.01 251.49C145.535 251.49 145.865 251.13 146.165 250.5L146.9 249H146.6L144.44 243.75C144.035 242.76 143.675 242.04 143.285 241.5H144.995C145.07 242.04 145.265 242.76 145.67 243.75L147.365 247.905L149.12 243.75C149.54 242.76 149.72 242.04 149.795 241.5H151.505C151.115 242.04 150.755 242.76 150.35 243.75ZM156.632 243.75V246.75C156.632 247.74 156.722 248.46 156.872 249H155.192C155.342 248.46 155.432 247.74 155.432 246.75V243.75C155.432 243.33 155.417 242.94 155.387 242.61H154.532C153.557 242.61 152.837 242.7 152.297 242.85V241.5H159.767V242.85C159.227 242.7 158.507 242.61 157.532 242.61H156.677C156.647 242.94 156.632 243.33 156.632 243.75ZM162.941 249H161.261C161.411 248.46 161.501 247.74 161.501 246.75V243.75C161.501 242.76 161.411 242.04 161.261 241.5H162.941C162.791 242.04 162.701 242.76 162.701 243.75V246.75C162.701 247.005 162.701 247.26 162.716 247.485L167.186 241.5H168.866C168.716 242.04 168.626 242.76 168.626 243.75V246.75C168.626 247.74 168.716 248.46 168.866 249H167.186C167.336 248.46 167.426 247.74 167.426 246.75V243.75C167.426 243.495 167.426 243.24 167.411 243.015L162.941 249ZM178.801 241.5C180.166 241.5 181.276 242.415 181.276 243.495C181.276 244.14 180.916 244.71 180.331 245.085C181.141 245.43 181.681 246.135 181.681 246.915C181.681 248.07 180.571 249 179.206 249H174.841C174.991 248.46 175.081 247.74 175.081 246.75V243.75C175.081 242.76 174.991 242.04 174.841 241.5H178.801ZM176.281 244.725H178.801C179.506 244.725 180.076 244.23 180.076 243.615C180.076 243.03 179.506 242.565 178.801 242.565H176.326C176.296 242.91 176.281 243.3 176.281 243.75V244.725ZM176.326 247.935H179.221C179.926 247.935 180.496 247.41 180.496 246.765C180.496 246.165 179.926 245.655 179.221 245.655H176.281V246.75C176.281 247.2 176.296 247.59 176.326 247.935ZM184.369 245.25C184.369 246.78 185.569 248.01 187.039 248.01C187.849 248.01 188.584 247.635 189.064 247.035L190.054 247.68C189.334 248.55 188.254 249.12 187.039 249.12C184.894 249.12 183.169 247.38 183.169 245.25C183.169 243.105 184.894 241.38 187.039 241.38C188.254 241.38 189.334 241.95 190.054 242.82L189.064 243.465C188.584 242.865 187.849 242.49 187.039 242.49C185.569 242.49 184.369 243.72 184.369 245.25ZM191.579 238.83C191.579 238.26 192.044 237.81 192.599 237.81C193.169 237.81 193.619 238.26 193.619 238.83C193.619 239.385 193.169 239.85 192.599 239.85C192.044 239.85 191.579 239.385 191.579 238.83ZM193.439 249H191.759C191.909 248.46 191.999 247.74 191.999 246.75V243.75C191.999 242.76 191.909 242.04 191.759 241.5H193.439C193.289 242.04 193.199 242.76 193.199 243.75V246.75C193.199 247.74 193.289 248.46 193.439 249Z" fill="#1A1A1A"/>
<path d="M214.216 239.781L219.031 243.965L214.36 248.025M219.031 243.984L204.969 243.984" stroke="#1A1A1A" stroke-linecap="round" stroke-linejoin="round"/>
</svg>
