<svg width="312" height="85" viewBox="0 0 312 85" fill="none" xmlns="http://www.w3.org/2000/svg">
<path d="M51.6824 50.5573C51.5514 44.7523 51.5545 38.7651 51.6915 32.5956C51.7068 31.9273 51.3031 31.2165 50.4806 30.4632C50.2917 30.287 50.3267 30.1989 50.5857 30.1989L55.5438 30.1761C55.8058 30.1731 55.8424 30.2627 55.6535 30.4449C54.767 31.2894 54.3085 32.0063 54.278 32.5956C54.0678 36.3805 54.1043 43.2958 54.3877 53.3413C54.3889 53.375 54.3833 53.4086 54.3712 53.44C54.3591 53.4715 54.3408 53.5002 54.3174 53.5245C54.2939 53.5487 54.2658 53.568 54.2347 53.5812C54.2036 53.5943 54.1701 53.6011 54.1363 53.6011L49.1371 53.5783C48.9878 53.5783 48.8751 53.513 48.7989 53.3823L36.7944 32.8644C36.7182 32.7369 36.604 32.6731 36.4517 32.6731L35.2772 32.6822C35.1371 32.6852 35.064 32.7566 35.0579 32.8963C34.6223 40.8337 34.6131 46.9258 35.0305 51.1724C35.0884 51.7557 35.591 52.4528 36.5385 53.2639C36.5644 53.2853 36.5828 53.3141 36.5913 53.3465C36.5998 53.3788 36.598 53.4131 36.5861 53.4448C36.5742 53.4765 36.5527 53.5041 36.5246 53.5239C36.4965 53.5437 36.4631 53.5547 36.4288 53.5555L31.4022 53.5327C31.1371 53.5327 31.0975 53.437 31.2833 53.2456C32.0785 52.4285 32.4654 51.7374 32.444 51.1724C32.1881 44.2769 32.2415 37.3875 32.604 30.5042C32.6131 30.3249 32.7091 30.2338 32.8919 30.2308L38.0373 30.2126C38.1805 30.2126 38.2871 30.2733 38.3572 30.3948L50.1516 50.9811C50.2412 51.1402 50.3817 51.2647 50.5506 51.3348C50.7196 51.4049 50.9073 51.4165 51.0836 51.3677C51.2599 51.3188 51.4148 51.2125 51.5233 51.0656C51.6319 50.9187 51.6879 50.7397 51.6824 50.5573Z" fill="#1A1A1A"/>
<path d="M62.3074 40.4464C64.6988 40.4859 67.0918 40.489 69.4863 40.4556C70.743 40.4373 71.3736 39.9635 72.1733 39.1114C72.3287 38.9443 72.4064 38.9747 72.4064 39.2025L72.4018 44.2101C72.4018 44.4349 72.3256 44.4638 72.1733 44.2967C71.4604 43.5312 70.8527 42.9799 69.724 42.9571C67.2381 42.9115 64.7567 42.91 62.28 42.9525C62.1215 42.9556 62.0408 43.0345 62.0378 43.1895C62.0164 44.3711 62.021 45.5421 62.0515 46.7025C62.1246 49.2952 61.9418 51.1451 64.9898 51.1633C68.4109 51.1816 71.8291 51.18 75.2441 51.1588C75.3036 51.1587 75.3619 51.145 75.4143 51.1189C75.4667 51.0928 75.5117 51.0549 75.5457 51.0084L78.3881 47.2083C78.3962 47.1982 78.4075 47.191 78.4202 47.1879C78.4328 47.1848 78.4461 47.1859 78.4581 47.1911C78.47 47.1963 78.4799 47.2052 78.4863 47.2166C78.4926 47.2279 78.495 47.241 78.4932 47.2539L77.2502 53.3869C77.2137 53.56 77.107 53.6466 76.9304 53.6466L58.3683 53.6193C58.1398 53.6193 58.1063 53.5373 58.2678 53.3732C59.1208 52.5014 59.5442 51.7678 59.5381 51.1724C59.4589 45.2338 59.4544 39.2982 59.5244 33.3657C59.5427 32.067 59.1314 31.3836 58.3272 30.4632C58.1535 30.2657 58.1977 30.167 58.4597 30.167L76.1307 30.1396C76.2982 30.1396 76.4003 30.2201 76.4368 30.3811L77.6615 35.89C77.7194 36.1482 77.663 36.1755 77.4924 35.972C76.35 34.6141 75.3721 32.5956 73.3249 32.5956C70.5922 32.5986 67.8611 32.6017 65.1314 32.6047C63.7103 32.6093 62.3805 33.0786 62.1383 34.5367C62.0073 35.3234 61.9844 37.2174 62.0697 40.2186C62.0758 40.3675 62.155 40.4434 62.3074 40.4464Z" fill="#1A1A1A"/>
<path d="M92.5269 50.5072L98.7782 30.4039C98.8269 30.249 98.9336 30.1715 99.0981 30.1715L104.385 30.1898C104.516 30.1898 104.605 30.2505 104.65 30.372C107.084 37.1278 109.278 43.9595 111.231 50.8672C111.282 51.0464 111.401 51.1375 111.587 51.1406L112.848 51.1451C113.028 51.1481 113.147 51.0646 113.205 50.8945C115.136 45.3508 116.918 39.763 118.551 34.1311C119.223 31.8119 118.03 31.6251 116.55 30.4176C116.379 30.2779 116.403 30.208 116.623 30.208L123.934 30.2353C124.212 30.2353 124.233 30.3082 123.998 30.454C122.454 31.4018 121.755 32.3814 121.243 34.2086C119.439 40.6849 117.348 47.067 114.969 53.355C114.917 53.4917 114.818 53.56 114.672 53.56L109.522 53.5692C109.354 53.5692 109.247 53.4887 109.202 53.3277C107.322 46.4413 105.208 39.6263 102.859 32.8827C102.831 32.8015 102.778 32.7311 102.708 32.6812C102.637 32.6314 102.553 32.6046 102.466 32.6047L101.164 32.6093C100.956 32.6093 100.822 32.708 100.761 32.9054L94.2542 53.3413C94.1963 53.5266 94.0684 53.6193 93.8704 53.6193L88.6472 53.6284C88.4735 53.6284 88.3624 53.5449 88.3136 53.3778C85.1727 42.6913 83.0524 35.8748 81.9526 32.9282C81.6571 32.1354 80.8102 31.2909 79.4119 30.3948C79.1438 30.2247 79.1697 30.1396 79.4896 30.1396L86.6914 30.1442C86.9077 30.1442 86.9351 30.2171 86.7736 30.3629C85.6861 31.3243 84.2877 31.7526 84.8772 33.5889C86.7569 39.4091 88.5208 45.0455 90.1689 50.4981C90.2457 50.7496 90.4012 50.9701 90.6128 51.127C90.8244 51.284 91.0808 51.3692 91.3445 51.3702C91.6082 51.3712 91.8653 51.288 92.0781 51.1327C92.2909 50.9774 92.4482 50.7582 92.5269 50.5072Z" fill="#1A1A1A"/>
<path d="M11.9312 38.8471C11.9099 38.8481 11.8891 38.8419 11.8721 38.8295C11.8551 38.8171 11.8428 38.7991 11.8371 38.7784C11.8313 38.7576 11.8325 38.7353 11.8405 38.7148C11.8484 38.6942 11.8626 38.6767 11.8809 38.6648C13.6052 37.6168 14.4689 36.0616 14.4719 33.999C14.4719 33.6952 14.5542 33.6709 14.7187 33.9261C15.7514 35.5421 17.2412 36.4018 19.1878 36.5051C19.2188 36.5077 19.2481 36.5198 19.2719 36.5396C19.2957 36.5595 19.3127 36.5862 19.3207 36.6161C19.3287 36.646 19.3273 36.6777 19.3166 36.7067C19.3059 36.7358 19.2865 36.7608 19.261 36.7784C17.7164 37.7961 16.9274 39.2481 16.8939 41.1345C16.8878 41.4686 16.7918 41.4975 16.606 41.221C15.5214 39.5868 13.9632 38.7955 11.9312 38.8471Z" fill="#1A1A1A"/>
<path d="M131.428 42.5926C134.102 42.3648 135.911 40.8931 137.109 38.5009C137.203 38.3126 137.261 38.3232 137.282 38.5328C137.556 41.1513 138.866 43.0468 141.212 44.2193C141.459 44.3408 141.447 44.4183 141.176 44.4517C138.601 44.7615 136.772 46.092 135.687 48.4432C135.581 48.671 135.514 48.6604 135.486 48.4113C135.203 45.7715 133.837 43.917 131.387 42.8478C131.067 42.7081 131.081 42.623 131.428 42.5926Z" fill="#1A1A1A"/>
<path d="M20.321 45.7867C20.5814 47.1537 20.9287 47.4954 21.7787 48.507C21.8975 48.6497 21.864 48.7272 21.6782 48.7393C20.6028 48.8001 19.7863 49.2861 19.2288 50.1974C19.2113 50.2247 19.1857 50.246 19.1556 50.2585C19.1255 50.2709 19.0924 50.2738 19.061 50.2668C19.0297 50.2597 19.0016 50.243 18.9809 50.2191C18.9602 50.1952 18.9478 50.1653 18.9455 50.1336C18.8389 49.034 18.324 48.188 17.4009 47.5957C17.1298 47.4225 17.1542 47.3177 17.474 47.2813C18.5769 47.1567 19.4421 46.6403 20.0696 45.7321C20.1976 45.5498 20.2814 45.568 20.321 45.7867Z" fill="#1A1A1A"/>
<path d="M167 85V0H165V85H167Z" fill="#1A1A1A" mask="url(#path-7-inside-1_861_16772)"/>
<path d="M204.216 47.428C204.407 47.428 204.502 47.5233 204.502 47.714C204.502 47.9047 204.407 48 204.216 48C204.187 48 203.974 48 203.578 48C203.182 47.9853 202.669 47.9707 202.038 47.956C201.407 47.9413 200.806 47.934 200.234 47.934C199.691 47.934 199.105 47.9413 198.474 47.956C197.843 47.956 197.308 47.9633 196.868 47.978C196.443 47.978 196.208 47.978 196.164 47.978C195.973 47.978 195.878 47.8827 195.878 47.692C195.878 47.5013 195.973 47.406 196.164 47.406L198.452 47.34C198.657 47.3253 198.797 47.2887 198.87 47.23C198.958 47.1567 199.002 47.0393 199.002 46.878V40.19H191.918V46.878C191.918 47.1713 192.109 47.3253 192.49 47.34L194.8 47.406C194.976 47.406 195.064 47.5013 195.064 47.692C195.064 47.8827 194.976 47.978 194.8 47.978C194.771 47.978 194.565 47.978 194.184 47.978C193.803 47.9633 193.304 47.956 192.688 47.956C192.087 47.9413 191.5 47.934 190.928 47.934C190.327 47.934 189.696 47.9413 189.036 47.956C188.376 47.956 187.833 47.9633 187.408 47.978C186.983 47.9927 186.748 48 186.704 48C186.513 48 186.418 47.9047 186.418 47.714C186.418 47.5233 186.513 47.428 186.704 47.428L189.036 47.34C189.256 47.3253 189.403 47.2887 189.476 47.23C189.549 47.1713 189.586 47.054 189.586 46.878V33.348C189.586 33.04 189.403 32.8787 189.036 32.864L186.704 32.776C186.513 32.776 186.418 32.6807 186.418 32.49C186.418 32.2993 186.513 32.204 186.704 32.204C186.733 32.204 186.939 32.2113 187.32 32.226C187.701 32.2407 188.2 32.2553 188.816 32.27C189.447 32.27 190.077 32.27 190.708 32.27C191.309 32.27 191.925 32.27 192.556 32.27C193.201 32.2553 193.729 32.248 194.14 32.248C194.551 32.2333 194.771 32.226 194.8 32.226C194.976 32.226 195.064 32.3213 195.064 32.512C195.064 32.7027 194.976 32.798 194.8 32.798L192.49 32.864C192.109 32.8787 191.918 33.04 191.918 33.348V39.618H199.002V33.348C199.002 33.172 198.958 33.0547 198.87 32.996C198.797 32.9227 198.657 32.8787 198.452 32.864L196.164 32.798C195.973 32.798 195.878 32.7027 195.878 32.512C195.878 32.3213 195.973 32.226 196.164 32.226C196.193 32.226 196.406 32.2333 196.802 32.248C197.198 32.248 197.689 32.2553 198.276 32.27C198.877 32.27 199.449 32.27 199.992 32.27C200.593 32.27 201.224 32.27 201.884 32.27C202.559 32.2553 203.109 32.2407 203.534 32.226C203.959 32.2113 204.187 32.204 204.216 32.204C204.407 32.204 204.502 32.2993 204.502 32.49C204.502 32.6807 204.407 32.776 204.216 32.776L201.884 32.864C201.517 32.8787 201.334 33.04 201.334 33.348V46.878C201.334 47.0393 201.371 47.1567 201.444 47.23C201.517 47.2887 201.664 47.3253 201.884 47.34L204.216 47.428ZM219.736 37.198C220.117 38.1807 220.308 39.1633 220.308 40.146C220.308 41.1287 220.117 42.1113 219.736 43.094C219.369 44.0767 218.87 44.9273 218.24 45.646C216.67 47.4353 214.932 48.33 213.026 48.33C211.119 48.33 209.381 47.4353 207.812 45.646C207.181 44.9273 206.675 44.0767 206.294 43.094C205.927 42.1113 205.744 41.1287 205.744 40.146C205.744 39.1633 205.927 38.1807 206.294 37.198C206.675 36.2153 207.181 35.3647 207.812 34.646C209.381 32.8567 211.119 31.962 213.026 31.962C214.918 31.962 216.656 32.8567 218.24 34.646C218.87 35.3647 219.369 36.2153 219.736 37.198ZM217.536 41.62C217.55 41.2093 217.558 40.718 217.558 40.146C217.558 39.574 217.55 39.09 217.536 38.694C217.521 38.2833 217.477 37.7993 217.404 37.242C217.345 36.67 217.257 36.186 217.14 35.79C217.022 35.394 216.846 34.9833 216.612 34.558C216.392 34.118 216.128 33.766 215.82 33.502C215.512 33.238 215.116 33.018 214.632 32.842C214.162 32.666 213.627 32.578 213.026 32.578C212.424 32.578 211.882 32.666 211.398 32.842C210.928 33.018 210.54 33.238 210.232 33.502C209.924 33.766 209.652 34.118 209.418 34.558C209.198 34.9833 209.029 35.394 208.912 35.79C208.794 36.186 208.699 36.67 208.626 37.242C208.567 37.7993 208.53 38.2833 208.516 38.694C208.501 39.09 208.494 39.574 208.494 40.146C208.494 40.718 208.501 41.2093 208.516 41.62C208.53 42.016 208.567 42.5 208.626 43.072C208.699 43.6293 208.794 44.106 208.912 44.502C209.029 44.898 209.198 45.316 209.418 45.756C209.652 46.1813 209.924 46.526 210.232 46.79C210.54 47.054 210.928 47.274 211.398 47.45C211.882 47.626 212.424 47.714 213.026 47.714C213.627 47.714 214.162 47.626 214.632 47.45C215.116 47.274 215.512 47.054 215.82 46.79C216.128 46.526 216.392 46.1813 216.612 45.756C216.846 45.316 217.022 44.898 217.14 44.502C217.257 44.106 217.345 43.6293 217.404 43.072C217.477 42.5 217.521 42.016 217.536 41.62ZM236.283 43.71C236.283 44.81 235.916 45.7267 235.183 46.46C234.699 46.944 233.988 47.3253 233.049 47.604C232.11 47.868 231.113 48 230.057 48H229.969C229.617 48 229.045 47.9927 228.253 47.978C227.476 47.9487 226.728 47.934 226.009 47.934C225.672 47.934 224.938 47.9487 223.809 47.978C222.694 47.9927 222.027 48 221.807 48C221.602 48 221.499 47.9047 221.499 47.714C221.499 47.538 221.602 47.4353 221.807 47.406L223.963 47.274C224.52 47.2447 224.799 46.9953 224.799 46.526V33.656C224.799 33.1867 224.542 32.9373 224.029 32.908L221.829 32.82C221.609 32.82 221.499 32.7173 221.499 32.512C221.499 32.3067 221.609 32.204 221.829 32.204C221.902 32.204 222.394 32.2187 223.303 32.248C224.212 32.2627 225.085 32.27 225.921 32.27C226.508 32.27 227.175 32.2627 227.923 32.248C228.686 32.2187 229.302 32.204 229.771 32.204C230.944 32.204 231.971 32.3507 232.851 32.644C233.746 32.9373 234.406 33.3187 234.831 33.788C235.418 34.448 235.711 35.196 235.711 36.032C235.711 36.8827 235.278 37.6747 234.413 38.408C233.562 39.1413 232.609 39.5667 231.553 39.684V39.728C232.99 39.86 234.134 40.3073 234.985 41.07C235.85 41.8327 236.283 42.7127 236.283 43.71ZM233.159 36.12C233.159 35.02 232.888 34.1767 232.345 33.59C231.846 33.0473 231.025 32.776 229.881 32.776C229.06 32.776 228.385 32.7907 227.857 32.82C227.373 32.864 227.131 33.106 227.131 33.546V39.486L229.925 39.442C231.142 39.4127 231.986 39.1633 232.455 38.694C232.924 38.21 233.159 37.352 233.159 36.12ZM233.753 43.6C233.753 42.3093 233.452 41.3927 232.851 40.85C232.264 40.2927 231.318 40.0067 230.013 39.992L227.131 39.97V46.548C227.131 47.076 227.424 47.3547 228.011 47.384C229.067 47.4133 229.72 47.428 229.969 47.428H230.255C231.472 47.428 232.33 47.1787 232.829 46.68C233.445 46.064 233.753 45.0373 233.753 43.6ZM255.807 47.692C255.807 47.8973 255.711 48 255.521 48C255.491 48 255.279 48 254.883 48C254.487 47.9853 253.973 47.9707 253.343 47.956C252.712 47.9413 252.111 47.934 251.539 47.934C250.996 47.934 250.409 47.9413 249.779 47.956C249.148 47.956 248.613 47.9633 248.173 47.978C247.747 47.978 247.513 47.978 247.469 47.978C247.278 47.978 247.183 47.8827 247.183 47.692C247.183 47.5013 247.278 47.406 247.469 47.406L249.757 47.362C250.123 47.362 250.307 47.208 250.307 46.9V35.35L250.263 35.328L243.509 45.536C243.318 45.8587 243.223 46.1667 243.223 46.46V46.9C243.223 47.208 243.413 47.362 243.795 47.362L246.105 47.406C246.281 47.406 246.369 47.5013 246.369 47.692C246.369 47.8827 246.281 47.978 246.105 47.978C246.075 47.978 245.87 47.978 245.489 47.978C245.107 47.9633 244.609 47.956 243.993 47.956C243.391 47.9413 242.805 47.934 242.233 47.934C241.631 47.934 241.001 47.9413 240.341 47.956C239.681 47.956 239.138 47.9633 238.713 47.978C238.287 47.9927 238.053 48 238.009 48C237.818 48 237.723 47.9047 237.723 47.714C237.723 47.5233 237.818 47.428 238.009 47.428L240.341 47.362C240.707 47.362 240.891 47.208 240.891 46.9V33.326C240.891 33.0033 240.707 32.842 240.341 32.842L238.009 32.776C237.818 32.776 237.723 32.6807 237.723 32.49C237.723 32.2993 237.818 32.204 238.009 32.204C238.038 32.204 238.243 32.2113 238.625 32.226C239.006 32.2407 239.505 32.2553 240.121 32.27C240.751 32.27 241.382 32.27 242.013 32.27C242.614 32.27 243.23 32.27 243.861 32.27C244.506 32.2553 245.034 32.248 245.445 32.248C245.855 32.2333 246.075 32.226 246.105 32.226C246.281 32.226 246.369 32.3213 246.369 32.512C246.369 32.7027 246.281 32.798 246.105 32.798L243.795 32.842C243.413 32.842 243.223 33.0033 243.223 33.326V44.854L243.267 44.876L250.043 34.646C250.219 34.3967 250.307 34.118 250.307 33.81V33.326C250.307 33.0033 250.123 32.842 249.757 32.842L247.469 32.798C247.278 32.798 247.183 32.7027 247.183 32.512C247.183 32.3213 247.278 32.226 247.469 32.226C247.498 32.226 247.711 32.2333 248.107 32.248C248.503 32.248 248.994 32.2553 249.581 32.27C250.182 32.27 250.754 32.27 251.297 32.27C251.898 32.27 252.529 32.27 253.189 32.27C253.863 32.2553 254.413 32.2407 254.839 32.226C255.264 32.2113 255.491 32.204 255.521 32.204C255.711 32.204 255.807 32.2993 255.807 32.49C255.807 32.6807 255.711 32.776 255.521 32.776L253.189 32.842C252.822 32.8567 252.639 33.018 252.639 33.326V46.9C252.639 47.0613 252.675 47.1787 252.749 47.252C252.822 47.3107 252.969 47.3473 253.189 47.362L255.521 47.428C255.711 47.428 255.807 47.516 255.807 47.692ZM274.362 47.428C274.553 47.428 274.648 47.5233 274.648 47.714C274.648 47.9047 274.553 48 274.362 48C274.333 48 274.12 48 273.724 48C273.328 47.9853 272.815 47.9707 272.184 47.956C271.554 47.9413 270.952 47.934 270.38 47.934C269.838 47.934 269.251 47.9413 268.62 47.956C267.99 47.956 267.454 47.9633 267.014 47.978C266.589 47.978 266.354 47.978 266.31 47.978C266.12 47.978 266.024 47.8827 266.024 47.692C266.024 47.5013 266.12 47.406 266.31 47.406L268.598 47.34C268.804 47.3253 268.943 47.2887 269.016 47.23C269.104 47.1567 269.148 47.0393 269.148 46.878V40.19H262.064V46.878C262.064 47.1713 262.255 47.3253 262.636 47.34L264.946 47.406C265.122 47.406 265.21 47.5013 265.21 47.692C265.21 47.8827 265.122 47.978 264.946 47.978C264.917 47.978 264.712 47.978 264.33 47.978C263.949 47.9633 263.45 47.956 262.834 47.956C262.233 47.9413 261.646 47.934 261.074 47.934C260.473 47.934 259.842 47.9413 259.182 47.956C258.522 47.956 257.98 47.9633 257.554 47.978C257.129 47.9927 256.894 48 256.85 48C256.66 48 256.564 47.9047 256.564 47.714C256.564 47.5233 256.66 47.428 256.85 47.428L259.182 47.34C259.402 47.3253 259.549 47.2887 259.622 47.23C259.696 47.1713 259.732 47.054 259.732 46.878V33.348C259.732 33.04 259.549 32.8787 259.182 32.864L256.85 32.776C256.66 32.776 256.564 32.6807 256.564 32.49C256.564 32.2993 256.66 32.204 256.85 32.204C256.88 32.204 257.085 32.2113 257.466 32.226C257.848 32.2407 258.346 32.2553 258.962 32.27C259.593 32.27 260.224 32.27 260.854 32.27C261.456 32.27 262.072 32.27 262.702 32.27C263.348 32.2553 263.876 32.248 264.286 32.248C264.697 32.2333 264.917 32.226 264.946 32.226C265.122 32.226 265.21 32.3213 265.21 32.512C265.21 32.7027 265.122 32.798 264.946 32.798L262.636 32.864C262.255 32.8787 262.064 33.04 262.064 33.348V39.618H269.148V33.348C269.148 33.172 269.104 33.0547 269.016 32.996C268.943 32.9227 268.804 32.8787 268.598 32.864L266.31 32.798C266.12 32.798 266.024 32.7027 266.024 32.512C266.024 32.3213 266.12 32.226 266.31 32.226C266.34 32.226 266.552 32.2333 266.948 32.248C267.344 32.248 267.836 32.2553 268.422 32.27C269.024 32.27 269.596 32.27 270.138 32.27C270.74 32.27 271.37 32.27 272.03 32.27C272.705 32.2553 273.255 32.2407 273.68 32.226C274.106 32.2113 274.333 32.204 274.362 32.204C274.553 32.204 274.648 32.2993 274.648 32.49C274.648 32.6807 274.553 32.776 274.362 32.776L272.03 32.864C271.664 32.8787 271.48 33.04 271.48 33.348V46.878C271.48 47.0393 271.517 47.1567 271.59 47.23C271.664 47.2887 271.81 47.3253 272.03 47.34L274.362 47.428ZM290.674 47.23C291.437 47.23 291.818 46.6287 291.818 45.426V43.996C291.818 43.8347 291.899 43.754 292.06 43.754C292.207 43.754 292.295 43.8347 292.324 43.996C292.354 44.304 292.368 44.8027 292.368 45.492C292.368 47.3693 291.496 48.308 289.75 48.308C288.738 48.308 287.946 48.0587 287.374 47.56C286.817 47.0467 286.538 46.2987 286.538 45.316C286.538 45.1547 286.546 44.9347 286.56 44.656C286.575 44.3627 286.582 44.1427 286.582 43.996C286.582 43.4973 286.56 43.1013 286.516 42.808C286.384 41.8107 286.084 41.136 285.614 40.784C285.16 40.432 284.448 40.256 283.48 40.256H280.774V46.57C280.774 46.8193 280.833 47.0027 280.95 47.12C281.082 47.2373 281.31 47.3033 281.632 47.318L283.59 47.45C283.766 47.4647 283.854 47.56 283.854 47.736C283.854 47.9413 283.766 48.044 283.59 48.044C283.37 48.044 282.747 48.0293 281.72 48C280.708 47.9707 280.034 47.956 279.696 47.956C279.359 47.956 278.655 47.9707 277.584 48C276.528 48.0147 275.89 48.022 275.67 48.022C275.465 48.022 275.362 47.9193 275.362 47.714C275.362 47.5527 275.465 47.4573 275.67 47.428L277.584 47.296C277.892 47.2667 278.112 47.2007 278.244 47.098C278.376 46.9953 278.442 46.812 278.442 46.548V33.678C278.442 33.2087 278.186 32.9593 277.672 32.93L275.692 32.842C275.472 32.842 275.362 32.732 275.362 32.512C275.362 32.3213 275.472 32.226 275.692 32.226C275.766 32.226 276.22 32.2407 277.056 32.27C277.892 32.2847 278.728 32.292 279.564 32.292C280.4 32.292 281.251 32.2847 282.116 32.27C282.982 32.2407 283.451 32.226 283.524 32.226C283.744 32.226 283.854 32.3213 283.854 32.512C283.854 32.732 283.744 32.842 283.524 32.842L281.544 32.93C281.031 32.9593 280.774 33.2087 280.774 33.678V39.794H283.678C284.353 39.794 284.918 39.596 285.372 39.2C285.827 38.7893 286.084 38.2027 286.142 37.44L286.274 35.262C286.392 33.0473 287.213 31.94 288.738 31.94C289.34 31.94 289.846 32.1307 290.256 32.512C290.682 32.8933 290.894 33.37 290.894 33.942C290.894 34.514 290.74 34.954 290.432 35.262C290.139 35.57 289.78 35.724 289.354 35.724C288.973 35.724 288.636 35.6067 288.342 35.372C288.049 35.1227 287.902 34.8073 287.902 34.426C287.902 34.1033 287.976 33.8173 288.122 33.568C288.269 33.304 288.342 33.1133 288.342 32.996C288.342 32.8053 288.247 32.71 288.056 32.71C287.998 32.71 287.954 32.7173 287.924 32.732C287.587 32.8933 287.345 33.1647 287.198 33.546C287.052 33.9273 286.949 34.4773 286.89 35.196L286.736 37.286C286.648 38.5767 286.106 39.4347 285.108 39.86C285.05 39.8893 285.02 39.9113 285.02 39.926C285.02 39.9553 285.042 39.9773 285.086 39.992C285.365 40.0653 285.776 40.234 286.318 40.498C286.876 40.7473 287.25 40.9453 287.44 41.092C288.408 41.84 288.936 42.896 289.024 44.26L289.2 45.756C289.259 46.1667 289.413 46.5187 289.662 46.812C289.926 47.0907 290.264 47.23 290.674 47.23ZM311.043 47.692C311.043 47.8973 310.948 48 310.757 48C310.728 48 310.515 48 310.119 48C309.723 47.9853 309.21 47.9707 308.579 47.956C307.948 47.9413 307.347 47.934 306.775 47.934C306.232 47.934 305.646 47.9413 305.015 47.956C304.384 47.956 303.849 47.9633 303.409 47.978C302.984 47.978 302.749 47.978 302.705 47.978C302.514 47.978 302.419 47.8827 302.419 47.692C302.419 47.5013 302.514 47.406 302.705 47.406L304.993 47.362C305.36 47.362 305.543 47.208 305.543 46.9V35.35L305.499 35.328L298.745 45.536C298.554 45.8587 298.459 46.1667 298.459 46.46V46.9C298.459 47.208 298.65 47.362 299.031 47.362L301.341 47.406C301.517 47.406 301.605 47.5013 301.605 47.692C301.605 47.8827 301.517 47.978 301.341 47.978C301.312 47.978 301.106 47.978 300.725 47.978C300.344 47.9633 299.845 47.956 299.229 47.956C298.628 47.9413 298.041 47.934 297.469 47.934C296.868 47.934 296.237 47.9413 295.577 47.956C294.917 47.956 294.374 47.9633 293.949 47.978C293.524 47.9927 293.289 48 293.245 48C293.054 48 292.959 47.9047 292.959 47.714C292.959 47.5233 293.054 47.428 293.245 47.428L295.577 47.362C295.944 47.362 296.127 47.208 296.127 46.9V33.326C296.127 33.0033 295.944 32.842 295.577 32.842L293.245 32.776C293.054 32.776 292.959 32.6807 292.959 32.49C292.959 32.2993 293.054 32.204 293.245 32.204C293.274 32.204 293.48 32.2113 293.861 32.226C294.242 32.2407 294.741 32.2553 295.357 32.27C295.988 32.27 296.618 32.27 297.249 32.27C297.85 32.27 298.466 32.27 299.097 32.27C299.742 32.2553 300.27 32.248 300.681 32.248C301.092 32.2333 301.312 32.226 301.341 32.226C301.517 32.226 301.605 32.3213 301.605 32.512C301.605 32.7027 301.517 32.798 301.341 32.798L299.031 32.842C298.65 32.842 298.459 33.0033 298.459 33.326V44.854L298.503 44.876L305.279 34.646C305.455 34.3967 305.543 34.118 305.543 33.81V33.326C305.543 33.0033 305.36 32.842 304.993 32.842L302.705 32.798C302.514 32.798 302.419 32.7027 302.419 32.512C302.419 32.3213 302.514 32.226 302.705 32.226C302.734 32.226 302.947 32.2333 303.343 32.248C303.739 32.248 304.23 32.2553 304.817 32.27C305.418 32.27 305.99 32.27 306.533 32.27C307.134 32.27 307.765 32.27 308.425 32.27C309.1 32.2553 309.65 32.2407 310.075 32.226C310.5 32.2113 310.728 32.204 310.757 32.204C310.948 32.204 311.043 32.2993 311.043 32.49C311.043 32.6807 310.948 32.776 310.757 32.776L308.425 32.842C308.058 32.8567 307.875 33.018 307.875 33.326V46.9C307.875 47.0613 307.912 47.1787 307.985 47.252C308.058 47.3107 308.205 47.3473 308.425 47.362L310.757 47.428C310.948 47.428 311.043 47.516 311.043 47.692Z" fill="#1A1A1A"/>
</svg>
