<svg width="10" height="10" viewBox="0 0 10 10" fill="none" xmlns="http://www.w3.org/2000/svg">
<g clip-path="url(#clip0_202_5146)">
<path d="M5.5 1C5.5 0.723858 5.27614 0.5 5 0.5C4.72386 0.5 4.5 0.723858 4.5 1V9C4.5 9.27614 4.72386 9.5 5 9.5C5.27614 9.5 5.5 9.27614 5.5 9V1Z" fill="#6B6B6B"/>
<path d="M9 4.5H1C0.723858 4.5 0.5 4.72386 0.5 5C0.5 5.27614 0.723858 5.5 1 5.5H9C9.27614 5.5 9.5 5.27614 9.5 5C9.5 4.72386 9.27614 4.5 9 4.5Z" fill="#6B6B6B"/>
</g>
<defs>
<clipPath id="clip0_202_5146">
<rect width="10" height="10" fill="white"/>
</clipPath>
</defs>
</svg>
