<svg width="233" height="85" viewBox="0 0 233 85" fill="none" xmlns="http://www.w3.org/2000/svg">
<path d="M19.0697 14.418C18.151 13.0573 16.2471 12.4823 14.7009 12.1455C12.9038 11.7569 11.099 11.4091 9.28626 11.1019C6.91322 10.6982 3.50221 9.97942 2.14563 7.84284C0.654166 5.49556 1.77814 2.99467 4.10622 1.63002C6.51836 0.216138 9.42505 -0.165887 12.1109 0.393365C15.776 1.15741 19.2495 3.30187 20.2328 7.1871C20.2549 7.27374 20.2223 7.3105 20.135 7.29737L17.7913 6.94095C17.7248 6.93044 17.6844 6.89172 17.6701 6.82476C16.6439 2.05537 10.768 1.60245 6.93668 2.61856C4.74738 3.19947 2.56785 4.99932 4.65941 7.37417C4.97217 7.72863 5.52536 8.06798 6.31898 8.39224C10.5412 10.1192 15.4124 9.70373 19.4059 11.9073C20.2034 12.3464 20.9873 13.2325 21.3548 14.099C22.6605 17.1788 19.963 18.6478 17.4258 19.1953C11.714 20.428 1.31096 20.7411 0.98647 12.2814C0.983864 12.2118 1.01709 12.179 1.08616 12.1829L3.80715 12.3464C3.88013 12.3503 3.91596 12.3897 3.91466 12.4645C3.83647 18.9196 13.3521 18.2796 17.2029 17.2497C18.4129 16.9248 20.0979 15.9421 19.0697 14.418Z" fill="#1A1A1A"/>
<path d="M65.5614 10.775C67.5213 10.6332 69.4793 10.4238 71.4353 10.1468C72.4733 9.99911 73.1125 9.35912 73.6852 8.536C73.6934 8.52413 73.705 8.51521 73.7186 8.51057C73.7321 8.50593 73.7468 8.50581 73.7604 8.51024C73.774 8.51466 73.7858 8.52339 73.7941 8.53512C73.8024 8.54686 73.8067 8.56098 73.8064 8.57538L73.7282 13.3448C73.727 13.4196 73.6976 13.4334 73.6403 13.3861C72.8603 12.7461 72.5886 12.2322 71.4295 12.4035C69.4656 12.6936 67.4959 12.9424 65.5203 13.1498C65.4928 13.1527 65.4671 13.1656 65.4481 13.1862C65.4291 13.2068 65.418 13.2337 65.4167 13.2621C65.3607 14.9805 65.3053 16.6963 65.2506 18.4095C65.2056 19.7959 65.7021 20.7253 67.1955 20.5107C69.9256 20.1155 72.6264 19.5845 75.2979 18.9176C76.0974 18.7167 76.5646 18.1063 76.9907 17.4624C77.6592 16.4489 78.2737 15.4453 78.834 14.4515C78.9278 14.2861 78.9552 14.2966 78.9161 14.483L77.7237 20.2448C77.7081 20.3157 77.6657 20.3604 77.5967 20.3787C72.4323 21.7939 67.189 22.789 61.8669 23.3641C61.8514 23.3655 61.8357 23.3621 61.822 23.3544C61.8083 23.3467 61.7973 23.335 61.7904 23.321C61.7836 23.307 61.7812 23.2914 61.7837 23.2761C61.7862 23.2609 61.7934 23.2469 61.8044 23.2361C62.7817 22.2495 63.0925 21.3811 63.1492 19.918C63.3525 14.672 63.4047 9.42739 63.3056 4.18407C63.2782 2.64022 62.8814 1.62411 61.8708 0.560748C61.8083 0.495108 61.822 0.461632 61.9119 0.460319L77.0083 0.397305C77.0373 0.397426 77.0655 0.407405 77.0882 0.425629C77.1109 0.443853 77.1268 0.469257 77.1334 0.497734L78.2456 5.57235C78.2463 5.57694 78.2455 5.58161 78.2433 5.58569C78.2411 5.58977 78.2377 5.59304 78.2336 5.59503C78.2294 5.59701 78.2247 5.5976 78.2202 5.59671C78.2157 5.59582 78.2116 5.59349 78.2085 5.59008C77.6872 4.9153 77.1438 4.25102 76.5782 3.59725C76.1287 3.07935 75.6126 2.59887 74.8698 2.63628C72.5776 2.75181 70.2866 2.83845 67.997 2.89622C67.3337 2.91328 66.8443 3.01371 66.529 3.1975C65.6161 3.72919 65.4382 4.62714 65.448 5.71611C65.4649 7.36629 65.4675 9.01976 65.4558 10.6765C65.4558 10.7474 65.491 10.7802 65.5614 10.775Z" fill="#1A1A1A"/>
<path d="M28.4408 14.0754L27.0705 18.0905C27.047 18.1601 27.0451 18.2304 27.0646 18.3012C27.3168 19.213 28.2668 19.9436 28.9295 20.5678C28.9842 20.6203 28.9744 20.6426 28.9001 20.6347L22.3303 19.9633C22.3182 19.9627 22.3067 19.9581 22.2977 19.9501C22.2886 19.9421 22.2826 19.9312 22.2805 19.9192C22.2784 19.9072 22.2805 19.8949 22.2864 19.8843C22.2922 19.8737 22.3015 19.8654 22.3127 19.8609C23.855 19.1697 24.5665 18.2087 25.1334 16.5368C26.8926 11.3487 27.9736 6.01608 28.3763 0.53909C28.3815 0.469512 28.4186 0.434723 28.4877 0.434723L33.2318 0.444569C33.3087 0.444569 33.366 0.478045 33.4038 0.544998C36.6826 6.40533 39.5834 12.7179 42.1063 19.4828C42.5442 20.6564 43.298 21.6929 44.3679 22.5921C44.4748 22.6827 44.4592 22.7188 44.321 22.7004L38.6523 21.9226C38.5493 21.9082 38.5383 21.8681 38.6191 21.8025C39.3814 21.1842 40.4057 20.3965 40.0382 19.341C39.5222 17.8615 38.9514 16.4049 38.3259 14.9713C38.3037 14.9201 38.2646 14.8919 38.2086 14.8867L28.56 13.9986C28.5001 13.992 28.4603 14.0176 28.4408 14.0754ZM37.284 12.5079C35.8284 9.26657 34.2353 6.09551 32.5047 2.99468C32.4886 2.9659 32.4654 2.94185 32.4373 2.92492C32.4092 2.908 32.3771 2.89878 32.3444 2.89819L30.5851 2.86077C30.4939 2.85815 30.445 2.90278 30.4385 2.99468C30.2574 6.00493 29.7902 8.96791 29.037 11.8836C29.0161 11.965 29.0467 12.009 29.1288 12.0156L37.1862 12.6457C37.2957 12.6549 37.3283 12.609 37.284 12.5079Z" fill="#1A1A1A"/>
<path d="M45.2555 3.89658C45.0776 2.46497 44.4658 1.64382 43.4845 0.568637C43.4155 0.492495 43.4324 0.454424 43.5353 0.454424L46.7137 0.458362C46.788 0.458362 46.831 0.495777 46.8428 0.570606C47.738 6.55303 48.2378 12.565 48.342 18.6065C48.3538 19.3272 48.4333 19.8366 48.5805 20.1346C48.9519 20.8927 49.4934 21.1861 50.3632 21.2688C52.8562 21.5025 55.3511 21.5544 57.8479 21.4244C57.9113 21.4206 57.9718 21.3957 58.0199 21.3535C59.1888 20.3453 60.0157 18.6163 60.7565 17.2773C60.7598 17.2709 60.7652 17.266 60.7718 17.2633C60.7784 17.2607 60.7858 17.2606 60.7924 17.263C60.7991 17.2654 60.8047 17.2702 60.8082 17.2764C60.8116 17.2827 60.8127 17.29 60.8113 17.297L59.7108 23.3838C59.6964 23.4612 59.6502 23.5026 59.572 23.5078C54.7829 23.8445 50.0016 23.4606 45.2633 22.8127C45.2491 22.8104 45.2358 22.8042 45.2249 22.7946C45.2141 22.785 45.2062 22.7726 45.2023 22.7588C45.1983 22.745 45.1985 22.7305 45.2027 22.717C45.207 22.7035 45.2151 22.6915 45.2262 22.6827C46.1332 21.9246 46.4108 21.0936 46.3873 19.8471C46.2922 14.5092 45.9149 9.19241 45.2555 3.89658Z" fill="#1A1A1A"/>
<path d="M8.61368 48.7234C10.7013 48.6328 18.0961 47.662 18.53 44.9071C18.8057 43.1565 15.6312 42.6957 14.5307 42.5972C11.867 42.3622 9.89012 42.2106 8.6 42.1423C6.78209 42.0478 4.10216 41.6973 2.71234 40.6162C0.517177 38.9089 1.79557 35.8153 3.60565 34.4487C5.8751 32.7374 8.81111 31.7706 11.6064 31.4988C15.4005 31.1325 21.3585 32.2747 21.2471 37.3335C21.2458 37.4123 21.2061 37.4471 21.1279 37.4379L18.8956 37.1977C18.8135 37.1885 18.7757 37.1425 18.7822 37.0598C18.9562 34.9823 17.5624 33.8559 15.6781 33.531C12.617 33.0046 9.6979 33.4168 6.92088 34.7677C6.23281 35.1038 5.61316 35.5389 5.06193 36.0732C3.80113 37.2981 4.1393 38.6293 5.74413 39.2693C6.50648 39.5738 7.50013 39.7957 8.7251 39.9348C10.5977 40.1488 12.4717 40.3628 14.3469 40.5768C16.202 40.7875 19.2357 41.2325 20.2346 42.9595C21.7123 45.5234 18.9953 47.8412 16.7708 48.7352C13.8687 49.901 11.0962 50.598 8.45339 50.8265C7.79921 50.8829 7.04663 50.8376 6.19567 50.6906C3.05442 50.1451 1.043 48.3689 1.01563 44.9051C1.01528 44.8733 1.02636 44.8424 1.04684 44.8181C1.06732 44.7939 1.09581 44.7779 1.12705 44.7732L3.89691 44.3419C3.96467 44.3314 3.99856 44.3609 3.99856 44.4305C3.96142 47.5832 5.61903 48.8533 8.61368 48.7234Z" fill="#1A1A1A"/>
<path d="M36.0196 44.4817C33.1149 43.8476 30.1835 43.3947 27.2253 43.123C27.1602 43.1177 27.1106 43.1433 27.0767 43.1998C26.3952 44.3537 25.7423 45.507 25.1181 46.6597C24.5591 47.6954 25.6302 48.5265 26.1873 49.2235C26.2212 49.2642 26.2115 49.2846 26.158 49.2846L20.2762 49.1724C20.258 49.171 20.2567 49.1658 20.2723 49.1566C21.623 48.2291 22.4049 47.5832 23.2337 46.1162C25.784 41.5975 28.3845 37.1084 31.0351 32.6488C31.0703 32.5884 31.1224 32.5641 31.1915 32.576L35.4078 33.2927C35.4363 33.2974 35.4628 33.3106 35.484 33.3305C35.5052 33.3505 35.5202 33.3764 35.5271 33.405C36.6347 38.1337 37.6825 42.888 38.6703 47.6679C39.0163 49.3378 39.501 50.3657 40.6973 51.4231C40.705 51.4303 40.7102 51.4398 40.7121 51.4502C40.714 51.4606 40.7126 51.4713 40.708 51.4808C40.7034 51.4903 40.6959 51.4981 40.6866 51.5029C40.6772 51.5078 40.6666 51.5095 40.6563 51.5078L35.2769 50.5075C35.1817 50.4891 35.1733 50.4504 35.2514 50.3913C35.9336 49.8714 37.128 49.3417 36.9149 48.2626C36.6725 47.0325 36.4099 45.8076 36.1272 44.5881C36.1141 44.5303 36.0783 44.4949 36.0196 44.4817ZM32.1317 34.6357L28.1909 41.3074C28.1558 41.3665 28.1721 41.3999 28.2398 41.4078C30.7275 41.673 33.1931 42.0734 35.6365 42.609C35.6486 42.6116 35.6611 42.6111 35.673 42.6075C35.6848 42.604 35.6956 42.5975 35.7043 42.5887C35.713 42.5799 35.7195 42.569 35.723 42.5571C35.7265 42.5452 35.727 42.5326 35.7245 42.5204L34.0063 34.9567C33.9893 34.8793 33.9424 34.834 33.8655 34.8208L32.3037 34.557C32.2281 34.5438 32.1708 34.5701 32.1317 34.6357Z" fill="#1A1A1A"/>
<path d="M63.3029 44.0249C65.4623 43.95 67.6112 43.7498 69.7496 43.4243C71.2118 43.2017 71.5441 42.6661 72.6075 41.8135C72.6635 41.7688 72.6902 41.7826 72.6876 41.8548L72.539 46.1398C72.5351 46.2369 72.496 46.2547 72.4218 46.193C71.1766 45.1631 70.424 45.1867 68.8035 45.4801C67.7936 45.6613 65.9047 45.8004 63.1368 45.8976C63.0638 45.9002 63.0234 45.9383 63.0156 46.0118C62.8709 47.3548 62.7543 48.7017 62.6657 50.0526C62.564 51.5925 63.43 52.1557 64.8354 52.1242C68.1116 52.0533 71.3701 51.7697 74.6111 51.2735C74.9525 51.221 75.2457 51.1028 75.4907 50.919C76.8121 49.9285 77.895 48.3098 78.8626 47.0003C78.933 46.9032 78.9532 46.913 78.9232 47.0299L77.4376 52.7622C77.4207 52.8265 77.3796 52.8639 77.3145 52.8744C71.1831 53.7593 65.0218 54.1242 58.8305 53.9693C58.7262 53.9667 58.7145 53.9326 58.7953 53.8669C59.7082 53.1226 60.1754 52.7169 60.2887 51.435C60.651 47.343 61.0569 43.2556 61.5065 39.1728C61.6395 37.9499 61.4909 37.2095 60.5937 36.4454C60.509 36.3732 60.522 36.3345 60.6328 36.3293C66.1295 36.0299 71.1844 35.0808 76.6186 33.6925C76.6928 33.6728 76.7404 33.6997 76.7613 33.7732L78.0612 38.3122C78.0833 38.3897 78.0631 38.4035 78.0006 38.3536C77.1483 37.6801 76.0947 36.6443 75.045 36.3608C74.7479 36.2807 74.4006 36.2879 74.0031 36.3824C71.4607 36.9863 68.8941 37.4471 66.3034 37.7648C65.5124 37.8619 64.9573 38.0149 64.638 38.2236C63.8463 38.7395 63.6098 39.3579 63.5179 40.3464C63.4085 41.5358 63.3016 42.7245 63.1974 43.9126C63.1896 43.9901 63.2247 44.0275 63.3029 44.0249Z" fill="#1A1A1A"/>
<path d="M46.4396 50.7379C48.9716 51.2433 51.5278 51.5964 54.108 51.7973C54.4247 51.8222 54.6996 51.7691 54.9329 51.6378C55.9513 51.0667 56.9306 49.8104 57.6676 48.9459C57.7549 48.8435 57.7803 48.8573 57.7438 48.9873L56.4322 53.7153C56.4152 53.777 56.3748 53.8046 56.311 53.798C51.3759 53.3267 46.4728 52.6257 41.6016 51.6949C41.5864 51.6916 41.5724 51.6839 41.5614 51.6727C41.5504 51.6615 41.543 51.6474 41.54 51.6321C41.5371 51.6169 41.5388 51.6012 41.5449 51.5871C41.551 51.573 41.5612 51.5612 41.5743 51.5531C42.4461 50.9683 42.8038 50.4129 42.9778 49.3102C43.5746 45.4965 44.1903 41.6861 44.825 37.879C45.0224 36.6916 44.9462 35.9531 44.2034 35.0808C44.1941 35.0703 44.1883 35.0572 44.1868 35.0432C44.1854 35.0292 44.1883 35.0151 44.1952 35.0029C44.2021 34.9908 44.2127 34.9811 44.2254 34.9752C44.2381 34.9694 44.2523 34.9678 44.2659 34.9705L46.9615 35.4234C47.0319 35.4352 47.0612 35.4766 47.0495 35.5475C46.3679 39.8325 45.6883 44.1148 45.0107 48.3945C44.8133 49.641 45.1866 50.4897 46.4396 50.7379Z" fill="#1A1A1A"/>
<path d="M34.5885 75.7427C31.3854 75.4684 28.1777 75.3482 24.9654 75.3824C24.9279 75.3829 24.8917 75.3957 24.8624 75.4188C24.833 75.442 24.8122 75.4742 24.8031 75.5104C24.3731 77.1711 23.9743 78.8488 23.6068 80.5436C23.5169 80.9637 23.5182 81.328 23.6108 81.6365C23.9157 82.6526 24.8344 83.5368 25.542 84.3009C25.5955 84.3586 25.5831 84.3875 25.5049 84.3875L19.1071 84.4052C18.9976 84.4065 18.9833 84.3698 19.0641 84.295C20.2825 83.1883 21.0761 81.8742 21.4449 80.3526C23.0048 73.9133 24.7992 67.5056 27.3306 61.3794C27.358 61.3125 27.4069 61.2823 27.4772 61.2888L31.6623 61.6925C31.7392 61.6991 31.7887 61.7398 31.8109 61.8146C33.6457 67.8312 35.8695 73.6935 38.4824 79.4015C39.5125 81.6523 40.4293 83.074 42.3547 84.3127C42.3658 84.3203 42.3743 84.3313 42.3788 84.3441C42.3834 84.3569 42.3839 84.3708 42.3802 84.3837C42.3764 84.3965 42.3687 84.4077 42.3581 84.4155C42.3475 84.4233 42.3347 84.4273 42.3215 84.4269L35.9158 84.4033C35.8311 84.4019 35.8115 84.3658 35.8572 84.295C36.5843 83.1745 37.507 82.1623 36.8502 80.7248C36.1087 79.1048 35.3952 77.4736 34.7097 75.8313C34.6863 75.7775 34.6459 75.748 34.5885 75.7427ZM28.5758 63.6322C27.3638 66.5879 26.3552 69.6815 25.5323 72.7732C25.514 72.8388 25.5388 72.8716 25.6065 72.8716C28.265 72.8756 30.9156 73.0187 33.5584 73.3009C33.5739 73.3028 33.5896 73.3005 33.604 73.2943C33.6184 73.2882 33.631 73.2784 33.6404 73.2659C33.6499 73.2533 33.656 73.2385 33.658 73.2229C33.6601 73.2073 33.6581 73.1915 33.6522 73.1769C32.452 70.0931 31.3795 66.9654 30.4347 63.7936C30.4139 63.7228 30.3663 63.684 30.292 63.6775L28.7263 63.5396C28.6533 63.5331 28.6031 63.5639 28.5758 63.6322Z" fill="#1A1A1A"/>
<path d="M16.5563 78.4504C16.5544 76.1878 14.0523 75.4631 12.2246 75.1697C9.72257 74.768 6.69469 74.6301 4.10662 73.7164C0.664337 72.5034 0.887176 68.5788 3.03543 66.326C5.54726 63.6893 9.62287 61.6925 13.245 62.3384C16.4879 62.9173 18.4485 65.0815 18.427 68.5394C18.427 68.6103 18.3918 68.6444 18.3214 68.6418L16.2611 68.5512C16.1817 68.5486 16.1432 68.5072 16.1458 68.4272C16.2175 66.4304 15.5307 65.1557 14.0855 64.603C11.3215 63.5436 5.73882 65.2725 4.1594 67.9329C2.26917 71.1151 6.00076 72.0761 8.16074 72.3498C9.79359 72.5559 11.4219 72.7916 13.0456 73.0567C14.4035 73.2786 15.5933 73.7033 16.615 74.3308C18.1826 75.2937 18.8688 77.3338 18.5247 79.1455C17.7722 83.1292 13.2333 84.7912 9.72061 84.8109C4.98039 84.8384 1.19211 81.798 1.00055 76.8061C0.997944 76.7195 1.03899 76.6742 1.1237 76.6702L3.32082 76.5777C3.40552 76.5737 3.44788 76.6138 3.44788 76.6978C3.45179 80.9454 5.60004 82.3967 9.5701 82.4026C11.8552 82.4065 16.5583 81.7114 16.5563 78.4504Z" fill="#1A1A1A"/>
<path d="M56.925 82.1111C57.9121 81.3057 58.5826 79.4389 58.9501 78.4779C58.9605 78.4517 58.967 78.4523 58.9697 78.4799L59.4329 84.3954C59.4337 84.4044 59.4327 84.4135 59.4298 84.4221C59.4269 84.4306 59.4223 84.4385 59.4162 84.4452C59.4102 84.4519 59.4028 84.4572 59.3945 84.4608C59.3863 84.4644 59.3774 84.4663 59.3684 84.4663L43.3396 84.4269C43.3241 84.4269 43.3089 84.4227 43.2955 84.4148C43.2822 84.4068 43.2712 84.3954 43.2638 84.3817C43.2564 84.3679 43.2528 84.3524 43.2534 84.3368C43.254 84.3212 43.2588 84.3061 43.2673 84.293C43.9417 83.2296 44.055 82.3356 43.8244 81.0143C42.9565 76.0401 42.243 71.0954 42.0006 66.0425C41.9361 64.7054 41.7152 63.9256 40.8415 63.0256C40.8318 63.0154 40.8254 63.0025 40.8233 62.9885C40.8211 62.9746 40.8233 62.9603 40.8295 62.9476C40.8357 62.9349 40.8456 62.9245 40.8579 62.9176C40.8701 62.9108 40.8842 62.908 40.8982 62.9095L43.7364 63.3033C43.8198 63.3151 43.8628 63.363 43.8654 63.4471C44.0492 69.3888 44.6538 74.8487 45.6794 79.8268C45.858 80.6933 46.3414 81.3261 47.1298 81.7251C47.4674 81.8958 47.9228 81.9857 48.4962 81.9949C51.2472 82.0435 53.9968 82.1032 56.7452 82.1741C56.8108 82.1753 56.8746 82.153 56.925 82.1111Z" fill="#1A1A1A"/>
<path d="M63.6045 75.4828C63.9016 77.9062 64.1668 79.5617 64.4 80.4491C64.602 81.2197 65.0405 81.7658 65.7156 82.0875C66.1026 82.2726 66.7438 82.3704 67.639 82.3809C70.1958 82.4111 72.7533 82.4347 75.3113 82.4518C75.6371 82.4544 75.9108 82.3829 76.1323 82.2371C77.2152 81.5243 78.1203 80.0001 78.8357 78.9387C78.8905 78.856 78.9081 78.8633 78.8885 78.9604L77.7841 84.4092C77.7724 84.4695 77.7365 84.4997 77.6766 84.4997L61.8159 84.482C61.726 84.482 61.7103 84.4479 61.769 84.3796C62.4205 83.6261 62.6623 82.8253 62.4942 81.9772C61.4138 76.5081 60.6867 71.6166 60.3127 67.3027C60.2345 66.3949 59.435 65.686 58.829 65.0992C58.76 65.0323 58.7737 65.0014 58.8701 65.0067C64.7421 65.3651 70.6154 65.3848 76.4901 65.0657C76.5539 65.0618 76.595 65.0907 76.6132 65.1524L78.0734 69.971C78.1086 70.0839 78.0832 70.0997 77.9971 70.0183C77.0432 69.1183 76.019 67.9585 74.8266 67.3973C74.5386 67.2607 74.1919 67.1997 73.7867 67.2141C70.964 67.3126 68.142 67.3185 65.3207 67.2319C63.8625 67.1885 62.6799 67.5312 62.8284 69.2286C62.947 70.5808 63.0982 71.9245 63.2819 73.2596C63.291 73.3265 63.3288 73.362 63.3953 73.3659C65.6445 73.488 67.8925 73.5602 70.1391 73.5825C71.2514 73.5924 72.0196 73.1887 72.7096 72.3852C72.7183 72.3753 72.7297 72.3682 72.7424 72.3646C72.7551 72.3611 72.7685 72.3613 72.7809 72.3653C72.7932 72.3694 72.804 72.377 72.8119 72.3872C72.8197 72.3974 72.8243 72.4097 72.8249 72.4227L73.122 76.81C73.1273 76.8849 73.1005 76.8993 73.0419 76.8534C72.1114 76.1326 71.6658 75.6128 70.3835 75.5891C68.1525 75.5471 65.9221 75.4795 63.6924 75.3863C63.626 75.3837 63.5966 75.4158 63.6045 75.4828Z" fill="#1A1A1A"/>
<path d="M101 85V0H99V85H101Z" fill="#1A1A1A" mask="url(#path-2-inside-1_861_16784)"/>
<path d="M127.018 48.352C125.258 48.352 123.916 47.9193 122.992 47.054C122.083 46.174 121.628 45.0447 121.628 43.666C121.628 42.9473 121.789 42.412 122.112 42.06C122.449 41.708 122.845 41.532 123.3 41.532C123.681 41.532 124.004 41.6567 124.268 41.906C124.532 42.1407 124.664 42.4707 124.664 42.896C124.664 43.512 124.312 43.9887 123.608 44.326C123.168 44.5313 122.948 44.8907 122.948 45.404C122.948 46.0053 123.293 46.548 123.982 47.032C124.671 47.5013 125.595 47.736 126.754 47.736C128.045 47.7213 129.02 47.3987 129.68 46.768C130.34 46.1373 130.67 45.1253 130.67 43.732C130.67 42.4413 130.377 41.5247 129.79 40.982C129.218 40.4393 128.301 40.168 127.04 40.168C126.776 40.168 126.292 40.19 125.588 40.234C124.884 40.2633 124.451 40.278 124.29 40.278C124.187 40.278 124.092 40.2413 124.004 40.168C123.931 40.0947 123.894 40.0067 123.894 39.904C123.894 39.6547 124.026 39.53 124.29 39.53C124.422 39.53 124.847 39.5447 125.566 39.574C126.285 39.6033 126.776 39.618 127.04 39.618C128.199 39.618 129.035 39.3247 129.548 38.738C130.076 38.1513 130.34 37.2347 130.34 35.988C130.34 34.932 130.039 34.096 129.438 33.48C128.851 32.864 128.074 32.556 127.106 32.556C125.845 32.556 124.803 33.1133 123.982 34.228C123.527 34.844 123.161 35.79 122.882 37.066C122.809 37.3887 122.706 37.9093 122.574 38.628C122.545 38.7747 122.449 38.848 122.288 38.848C122.215 38.848 122.149 38.826 122.09 38.782C122.031 38.7233 122.002 38.6573 122.002 38.584C122.002 38.3787 122.017 37.8727 122.046 37.066C122.075 36.2593 122.09 35.5113 122.09 34.822C122.09 34.382 122.083 33.964 122.068 33.568C122.068 33.172 122.061 32.8567 122.046 32.622C122.031 32.3873 122.024 32.248 122.024 32.204C122.024 32.0133 122.119 31.918 122.31 31.918C122.471 31.918 122.574 32.006 122.618 32.182C122.647 32.2993 122.794 32.732 123.058 33.48C123.146 33.7293 123.249 33.854 123.366 33.854C123.425 33.854 123.483 33.8247 123.542 33.766L123.938 33.37C124.862 32.446 125.918 31.984 127.106 31.984C128.646 31.984 129.973 32.3947 131.088 33.216C132.203 34.0373 132.76 34.9613 132.76 35.988C132.76 36.9267 132.364 37.7553 131.572 38.474C130.78 39.1927 129.702 39.64 128.338 39.816V39.882C129.79 40.0287 130.949 40.4613 131.814 41.18C132.679 41.8987 133.112 42.7493 133.112 43.732C133.112 44.964 132.54 46.042 131.396 46.966C130.267 47.89 128.807 48.352 127.018 48.352ZM152.439 47.428C152.629 47.428 152.725 47.5233 152.725 47.714C152.725 47.9047 152.629 48 152.439 48C152.409 48 152.197 48 151.801 48C151.405 47.9853 150.891 47.9707 150.261 47.956C149.63 47.9413 149.029 47.934 148.457 47.934C147.914 47.934 147.327 47.9413 146.697 47.956C146.066 47.956 145.531 47.9633 145.091 47.978C144.665 47.978 144.431 47.978 144.387 47.978C144.196 47.978 144.101 47.8827 144.101 47.692C144.101 47.5013 144.196 47.406 144.387 47.406L146.675 47.34C146.88 47.3253 147.019 47.2887 147.093 47.23C147.181 47.1567 147.225 47.0393 147.225 46.878V40.19H140.141V46.878C140.141 47.1713 140.331 47.3253 140.713 47.34L143.023 47.406C143.199 47.406 143.287 47.5013 143.287 47.692C143.287 47.8827 143.199 47.978 143.023 47.978C142.993 47.978 142.788 47.978 142.407 47.978C142.025 47.9633 141.527 47.956 140.911 47.956C140.309 47.9413 139.723 47.934 139.151 47.934C138.549 47.934 137.919 47.9413 137.259 47.956C136.599 47.956 136.056 47.9633 135.631 47.978C135.205 47.9927 134.971 48 134.927 48C134.736 48 134.641 47.9047 134.641 47.714C134.641 47.5233 134.736 47.428 134.927 47.428L137.259 47.34C137.479 47.3253 137.625 47.2887 137.699 47.23C137.772 47.1713 137.809 47.054 137.809 46.878V33.348C137.809 33.04 137.625 32.8787 137.259 32.864L134.927 32.776C134.736 32.776 134.641 32.6807 134.641 32.49C134.641 32.2993 134.736 32.204 134.927 32.204C134.956 32.204 135.161 32.2113 135.543 32.226C135.924 32.2407 136.423 32.2553 137.039 32.27C137.669 32.27 138.3 32.27 138.931 32.27C139.532 32.27 140.148 32.27 140.779 32.27C141.424 32.2553 141.952 32.248 142.363 32.248C142.773 32.2333 142.993 32.226 143.023 32.226C143.199 32.226 143.287 32.3213 143.287 32.512C143.287 32.7027 143.199 32.798 143.023 32.798L140.713 32.864C140.331 32.8787 140.141 33.04 140.141 33.348V39.618H147.225V33.348C147.225 33.172 147.181 33.0547 147.093 32.996C147.019 32.9227 146.88 32.8787 146.675 32.864L144.387 32.798C144.196 32.798 144.101 32.7027 144.101 32.512C144.101 32.3213 144.196 32.226 144.387 32.226C144.416 32.226 144.629 32.2333 145.025 32.248C145.421 32.248 145.912 32.2553 146.499 32.27C147.1 32.27 147.672 32.27 148.215 32.27C148.816 32.27 149.447 32.27 150.107 32.27C150.781 32.2553 151.331 32.2407 151.757 32.226C152.182 32.2113 152.409 32.204 152.439 32.204C152.629 32.204 152.725 32.2993 152.725 32.49C152.725 32.6807 152.629 32.776 152.439 32.776L150.107 32.864C149.74 32.8787 149.557 33.04 149.557 33.348V46.878C149.557 47.0393 149.593 47.1567 149.667 47.23C149.74 47.2887 149.887 47.3253 150.107 47.34L152.439 47.428ZM171.566 47.692C171.566 47.8973 171.471 48 171.28 48C171.251 48 171.038 48 170.642 48C170.246 47.9853 169.733 47.9707 169.102 47.956C168.472 47.9413 167.87 47.934 167.298 47.934C166.756 47.934 166.169 47.9413 165.538 47.956C164.908 47.956 164.372 47.9633 163.932 47.978C163.507 47.978 163.272 47.978 163.228 47.978C163.038 47.978 162.942 47.8827 162.942 47.692C162.942 47.5013 163.038 47.406 163.228 47.406L165.516 47.362C165.883 47.362 166.066 47.208 166.066 46.9V35.35L166.022 35.328L159.268 45.536C159.078 45.8587 158.982 46.1667 158.982 46.46V46.9C158.982 47.208 159.173 47.362 159.554 47.362L161.864 47.406C162.04 47.406 162.128 47.5013 162.128 47.692C162.128 47.8827 162.04 47.978 161.864 47.978C161.835 47.978 161.63 47.978 161.248 47.978C160.867 47.9633 160.368 47.956 159.752 47.956C159.151 47.9413 158.564 47.934 157.992 47.934C157.391 47.934 156.76 47.9413 156.1 47.956C155.44 47.956 154.898 47.9633 154.472 47.978C154.047 47.9927 153.812 48 153.768 48C153.578 48 153.482 47.9047 153.482 47.714C153.482 47.5233 153.578 47.428 153.768 47.428L156.1 47.362C156.467 47.362 156.65 47.208 156.65 46.9V33.326C156.65 33.0033 156.467 32.842 156.1 32.842L153.768 32.776C153.578 32.776 153.482 32.6807 153.482 32.49C153.482 32.2993 153.578 32.204 153.768 32.204C153.798 32.204 154.003 32.2113 154.384 32.226C154.766 32.2407 155.264 32.2553 155.88 32.27C156.511 32.27 157.142 32.27 157.772 32.27C158.374 32.27 158.99 32.27 159.62 32.27C160.266 32.2553 160.794 32.248 161.204 32.248C161.615 32.2333 161.835 32.226 161.864 32.226C162.04 32.226 162.128 32.3213 162.128 32.512C162.128 32.7027 162.04 32.798 161.864 32.798L159.554 32.842C159.173 32.842 158.982 33.0033 158.982 33.326V44.854L159.026 44.876L165.802 34.646C165.978 34.3967 166.066 34.118 166.066 33.81V33.326C166.066 33.0033 165.883 32.842 165.516 32.842L163.228 32.798C163.038 32.798 162.942 32.7027 162.942 32.512C162.942 32.3213 163.038 32.226 163.228 32.226C163.258 32.226 163.47 32.2333 163.866 32.248C164.262 32.248 164.754 32.2553 165.34 32.27C165.942 32.27 166.514 32.27 167.056 32.27C167.658 32.27 168.288 32.27 168.948 32.27C169.623 32.2553 170.173 32.2407 170.598 32.226C171.024 32.2113 171.251 32.204 171.28 32.204C171.471 32.204 171.566 32.2993 171.566 32.49C171.566 32.6807 171.471 32.776 171.28 32.776L168.948 32.842C168.582 32.8567 168.398 33.018 168.398 33.326V46.9C168.398 47.0613 168.435 47.1787 168.508 47.252C168.582 47.3107 168.728 47.3473 168.948 47.362L171.28 47.428C171.471 47.428 171.566 47.516 171.566 47.692ZM193.026 44.26L193.158 45.734C193.188 46.1593 193.342 46.5113 193.62 46.79C193.899 47.0687 194.236 47.208 194.632 47.208C195.395 47.208 195.776 46.6067 195.776 45.404V43.974C195.776 43.8127 195.857 43.732 196.018 43.732C196.165 43.732 196.253 43.8127 196.282 43.974C196.312 44.282 196.326 44.7807 196.326 45.47C196.326 47.3473 195.454 48.286 193.708 48.286C191.904 48.286 190.856 47.5893 190.562 46.196C190.504 45.932 190.474 45.5287 190.474 44.986C190.474 44.854 190.474 44.656 190.474 44.392C190.489 44.1133 190.496 43.9007 190.496 43.754C190.452 42.3607 190.203 41.4293 189.748 40.96C189.294 40.4907 188.516 40.256 187.416 40.256H185.37V46.57C185.37 46.8193 185.429 47.0027 185.546 47.12C185.678 47.2373 185.906 47.3033 186.228 47.318L188.406 47.45C188.582 47.4647 188.67 47.56 188.67 47.736C188.67 47.9413 188.582 48.044 188.406 48.044C188.186 48.044 187.526 48.0293 186.426 48C185.341 47.9707 184.63 47.956 184.292 47.956C183.955 47.956 183.214 47.9707 182.07 48C180.941 48.0147 180.266 48.022 180.046 48.022C179.841 48.022 179.738 47.9193 179.738 47.714C179.738 47.5527 179.841 47.4573 180.046 47.428L182.18 47.296C182.488 47.2667 182.708 47.2007 182.84 47.098C182.972 46.9953 183.038 46.812 183.038 46.548V40.256H180.992C179.892 40.256 179.108 40.5053 178.638 41.004C178.169 41.488 177.927 42.4047 177.912 43.754C177.912 43.9007 177.912 44.1133 177.912 44.392C177.927 44.656 177.934 44.854 177.934 44.986C177.934 45.4407 177.905 45.844 177.846 46.196C177.729 46.8853 177.384 47.406 176.812 47.758C176.255 48.11 175.551 48.286 174.7 48.286C172.955 48.286 172.082 47.3473 172.082 45.47C172.082 44.7807 172.097 44.282 172.126 43.974C172.156 43.8127 172.244 43.732 172.39 43.732C172.552 43.732 172.632 43.8127 172.632 43.974V45.404C172.632 46.6067 173.014 47.208 173.776 47.208C174.158 47.208 174.488 47.076 174.766 46.812C175.045 46.5333 175.206 46.1447 175.25 45.646L175.382 44.26C175.529 42.896 176.079 41.8473 177.032 41.114C177.223 40.9673 177.59 40.7693 178.132 40.52C178.69 40.256 179.108 40.0873 179.386 40.014C179.43 39.9993 179.452 39.9773 179.452 39.948C179.452 39.9333 179.423 39.9113 179.364 39.882C178.484 39.5153 178.008 38.65 177.934 37.286L177.802 35.196C177.714 33.8173 177.37 32.996 176.768 32.732C176.739 32.7173 176.695 32.71 176.636 32.71C176.446 32.71 176.35 32.8053 176.35 32.996C176.35 33.1133 176.424 33.304 176.57 33.568C176.717 33.8173 176.79 34.1033 176.79 34.426C176.79 34.8073 176.644 35.1227 176.35 35.372C176.057 35.6067 175.72 35.724 175.338 35.724C174.913 35.724 174.546 35.57 174.238 35.262C173.945 34.954 173.798 34.514 173.798 33.942C173.798 33.37 174.004 32.8933 174.414 32.512C174.84 32.1307 175.353 31.94 175.954 31.94C177.45 31.94 178.272 33.0473 178.418 35.262L178.55 37.44C178.594 38.2173 178.814 38.804 179.21 39.2C179.621 39.596 180.12 39.794 180.706 39.794H183.038V33.678C183.038 33.2087 182.782 32.9593 182.268 32.93L180.068 32.842C179.848 32.842 179.738 32.732 179.738 32.512C179.738 32.3213 179.848 32.226 180.068 32.226C180.142 32.226 180.633 32.2407 181.542 32.27C182.452 32.2847 183.324 32.292 184.16 32.292C184.996 32.292 185.884 32.2847 186.822 32.27C187.761 32.2407 188.267 32.226 188.34 32.226C188.56 32.226 188.67 32.3213 188.67 32.512C188.67 32.732 188.56 32.842 188.34 32.842L186.14 32.93C185.627 32.9593 185.37 33.2087 185.37 33.678V39.794H187.702C188.289 39.794 188.78 39.596 189.176 39.2C189.572 38.804 189.792 38.2173 189.836 37.44L189.968 35.262C190.115 33.0473 190.936 31.94 192.432 31.94C193.034 31.94 193.54 32.1307 193.95 32.512C194.376 32.8933 194.588 33.37 194.588 33.942C194.588 34.514 194.434 34.954 194.126 35.262C193.833 35.57 193.474 35.724 193.048 35.724C192.667 35.724 192.33 35.6067 192.036 35.372C191.743 35.1227 191.596 34.8073 191.596 34.426C191.596 34.1033 191.67 33.8173 191.816 33.568C191.963 33.304 192.036 33.1133 192.036 32.996C192.036 32.8053 191.941 32.71 191.75 32.71C191.692 32.71 191.648 32.7173 191.618 32.732C191.017 32.996 190.672 33.8173 190.584 35.196L190.452 37.286C190.379 38.65 189.91 39.5153 189.044 39.882C188.986 39.9113 188.956 39.9333 188.956 39.948C188.956 39.9773 188.978 39.9993 189.022 40.014C189.301 40.0873 189.712 40.256 190.254 40.52C190.812 40.7693 191.186 40.9673 191.376 41.114C192.359 41.8767 192.909 42.9253 193.026 44.26ZM212.17 47.23C212.933 47.23 213.314 46.6287 213.314 45.426V43.996C213.314 43.8347 213.395 43.754 213.556 43.754C213.703 43.754 213.791 43.8347 213.82 43.996C213.85 44.304 213.864 44.8027 213.864 45.492C213.864 47.3693 212.992 48.308 211.246 48.308C210.234 48.308 209.442 48.0587 208.87 47.56C208.313 47.0467 208.034 46.2987 208.034 45.316C208.034 45.1547 208.042 44.9347 208.056 44.656C208.071 44.3627 208.078 44.1427 208.078 43.996C208.078 43.4973 208.056 43.1013 208.012 42.808C207.88 41.8107 207.58 41.136 207.11 40.784C206.656 40.432 205.944 40.256 204.976 40.256H202.27V46.57C202.27 46.8193 202.329 47.0027 202.446 47.12C202.578 47.2373 202.806 47.3033 203.128 47.318L205.086 47.45C205.262 47.4647 205.35 47.56 205.35 47.736C205.35 47.9413 205.262 48.044 205.086 48.044C204.866 48.044 204.243 48.0293 203.216 48C202.204 47.9707 201.53 47.956 201.192 47.956C200.855 47.956 200.151 47.9707 199.08 48C198.024 48.0147 197.386 48.022 197.166 48.022C196.961 48.022 196.858 47.9193 196.858 47.714C196.858 47.5527 196.961 47.4573 197.166 47.428L199.08 47.296C199.388 47.2667 199.608 47.2007 199.74 47.098C199.872 46.9953 199.938 46.812 199.938 46.548V33.678C199.938 33.2087 199.682 32.9593 199.168 32.93L197.188 32.842C196.968 32.842 196.858 32.732 196.858 32.512C196.858 32.3213 196.968 32.226 197.188 32.226C197.262 32.226 197.716 32.2407 198.552 32.27C199.388 32.2847 200.224 32.292 201.06 32.292C201.896 32.292 202.747 32.2847 203.612 32.27C204.478 32.2407 204.947 32.226 205.02 32.226C205.24 32.226 205.35 32.3213 205.35 32.512C205.35 32.732 205.24 32.842 205.02 32.842L203.04 32.93C202.527 32.9593 202.27 33.2087 202.27 33.678V39.794H205.174C205.849 39.794 206.414 39.596 206.868 39.2C207.323 38.7893 207.58 38.2027 207.638 37.44L207.77 35.262C207.888 33.0473 208.709 31.94 210.234 31.94C210.836 31.94 211.342 32.1307 211.752 32.512C212.178 32.8933 212.39 33.37 212.39 33.942C212.39 34.514 212.236 34.954 211.928 35.262C211.635 35.57 211.276 35.724 210.85 35.724C210.469 35.724 210.132 35.6067 209.838 35.372C209.545 35.1227 209.398 34.8073 209.398 34.426C209.398 34.1033 209.472 33.8173 209.618 33.568C209.765 33.304 209.838 33.1133 209.838 32.996C209.838 32.8053 209.743 32.71 209.552 32.71C209.494 32.71 209.45 32.7173 209.42 32.732C209.083 32.8933 208.841 33.1647 208.694 33.546C208.548 33.9273 208.445 34.4773 208.386 35.196L208.232 37.286C208.144 38.5767 207.602 39.4347 206.604 39.86C206.546 39.8893 206.516 39.9113 206.516 39.926C206.516 39.9553 206.538 39.9773 206.582 39.992C206.861 40.0653 207.272 40.234 207.814 40.498C208.372 40.7473 208.746 40.9453 208.936 41.092C209.904 41.84 210.432 42.896 210.52 44.26L210.696 45.756C210.755 46.1667 210.909 46.5187 211.158 46.812C211.422 47.0907 211.76 47.23 212.17 47.23ZM232.539 47.692C232.539 47.8973 232.444 48 232.253 48C232.224 48 232.011 48 231.615 48C231.219 47.9853 230.706 47.9707 230.075 47.956C229.444 47.9413 228.843 47.934 228.271 47.934C227.728 47.934 227.142 47.9413 226.511 47.956C225.88 47.956 225.345 47.9633 224.905 47.978C224.48 47.978 224.245 47.978 224.201 47.978C224.01 47.978 223.915 47.8827 223.915 47.692C223.915 47.5013 224.01 47.406 224.201 47.406L226.489 47.362C226.856 47.362 227.039 47.208 227.039 46.9V35.35L226.995 35.328L220.241 45.536C220.05 45.8587 219.955 46.1667 219.955 46.46V46.9C219.955 47.208 220.146 47.362 220.527 47.362L222.837 47.406C223.013 47.406 223.101 47.5013 223.101 47.692C223.101 47.8827 223.013 47.978 222.837 47.978C222.808 47.978 222.602 47.978 222.221 47.978C221.84 47.9633 221.341 47.956 220.725 47.956C220.124 47.9413 219.537 47.934 218.965 47.934C218.364 47.934 217.733 47.9413 217.073 47.956C216.413 47.956 215.87 47.9633 215.445 47.978C215.02 47.9927 214.785 48 214.741 48C214.55 48 214.455 47.9047 214.455 47.714C214.455 47.5233 214.55 47.428 214.741 47.428L217.073 47.362C217.44 47.362 217.623 47.208 217.623 46.9V33.326C217.623 33.0033 217.44 32.842 217.073 32.842L214.741 32.776C214.55 32.776 214.455 32.6807 214.455 32.49C214.455 32.2993 214.55 32.204 214.741 32.204C214.77 32.204 214.976 32.2113 215.357 32.226C215.738 32.2407 216.237 32.2553 216.853 32.27C217.484 32.27 218.114 32.27 218.745 32.27C219.346 32.27 219.962 32.27 220.593 32.27C221.238 32.2553 221.766 32.248 222.177 32.248C222.588 32.2333 222.808 32.226 222.837 32.226C223.013 32.226 223.101 32.3213 223.101 32.512C223.101 32.7027 223.013 32.798 222.837 32.798L220.527 32.842C220.146 32.842 219.955 33.0033 219.955 33.326V44.854L219.999 44.876L226.775 34.646C226.951 34.3967 227.039 34.118 227.039 33.81V33.326C227.039 33.0033 226.856 32.842 226.489 32.842L224.201 32.798C224.01 32.798 223.915 32.7027 223.915 32.512C223.915 32.3213 224.01 32.226 224.201 32.226C224.23 32.226 224.443 32.2333 224.839 32.248C225.235 32.248 225.726 32.2553 226.313 32.27C226.914 32.27 227.486 32.27 228.029 32.27C228.63 32.27 229.261 32.27 229.921 32.27C230.596 32.2553 231.146 32.2407 231.571 32.226C231.996 32.2113 232.224 32.204 232.253 32.204C232.444 32.204 232.539 32.2993 232.539 32.49C232.539 32.6807 232.444 32.776 232.253 32.776L229.921 32.842C229.554 32.8567 229.371 33.018 229.371 33.326V46.9C229.371 47.0613 229.408 47.1787 229.481 47.252C229.554 47.3107 229.701 47.3473 229.921 47.362L232.253 47.428C232.444 47.428 232.539 47.516 232.539 47.692Z" fill="#1A1A1A"/>
</svg>
