<svg width="288" height="351" viewBox="0 0 288 351" fill="none" xmlns="http://www.w3.org/2000/svg">
<g clip-path="url(#clip0_857_12613)">
<path d="M106.325 42.2375C104.672 39.7882 101.245 38.7532 98.4616 38.1471C95.2269 37.4477 91.9781 36.8214 88.7153 36.2685C84.4438 35.5419 78.304 34.2481 75.8621 30.4023C73.1775 26.1772 75.2006 21.6756 79.3912 19.2192C83.7331 16.6742 88.9651 15.9866 93.7995 16.9932C100.397 18.3685 106.649 22.2285 108.419 29.2219C108.459 29.3779 108.4 29.4441 108.243 29.4204L104.024 28.7789C103.905 28.76 103.832 28.6902 103.806 28.5697C101.959 19.9848 91.3823 19.1696 84.486 20.9986C80.5453 22.0442 76.6221 25.2839 80.3869 29.5587C80.9499 30.1967 81.9456 30.8075 83.3742 31.3912C90.9742 34.4998 99.7423 33.7519 106.931 37.7182C108.366 38.5087 109.777 40.1037 110.439 41.6633C112.789 47.207 107.933 49.8512 103.366 50.8366C93.0853 53.0555 74.3597 53.6191 73.7756 38.3917C73.771 38.2665 73.8308 38.2074 73.9551 38.2145L78.8529 38.5087C78.9842 38.5158 79.0487 38.5866 79.0464 38.7213C78.9056 50.3404 96.0338 49.1884 102.965 47.3346C105.143 46.7497 108.176 44.981 106.325 42.2375Z" fill="#1A1A1A"/>
<path d="M190.01 35.6801C193.538 35.4249 197.063 35.048 200.584 34.5494C202.452 34.2836 203.603 33.1316 204.633 31.6499C204.648 31.6286 204.669 31.6125 204.693 31.6042C204.718 31.5958 204.744 31.5956 204.769 31.6036C204.793 31.6115 204.815 31.6272 204.829 31.6484C204.844 31.6695 204.852 31.6949 204.852 31.7208L204.711 40.3057C204.709 40.4404 204.656 40.4653 204.553 40.3802C203.149 39.2282 202.66 38.3031 200.573 38.6115C197.038 39.1337 193.493 39.5815 189.937 39.9548C189.887 39.9599 189.841 39.9832 189.807 40.0203C189.772 40.0574 189.752 40.1059 189.75 40.1569C189.649 43.2501 189.55 46.3386 189.451 49.4223C189.37 51.9177 190.264 53.5907 192.952 53.2044C197.866 52.4931 202.728 51.5373 207.536 50.3368C208.975 49.9753 209.816 48.8765 210.583 47.7174C211.787 45.8932 212.893 44.0866 213.901 42.2978C214.07 42 214.119 42.019 214.049 42.3545L211.903 52.7259C211.875 52.8535 211.798 52.9338 211.674 52.9669C202.378 55.5143 192.94 57.3054 183.36 58.3404C183.332 58.343 183.304 58.3369 183.28 58.323C183.255 58.3092 183.235 58.2882 183.223 58.263C183.21 58.2378 183.206 58.2096 183.211 58.1822C183.215 58.1548 183.228 58.1296 183.248 58.1101C185.007 56.3342 185.567 54.7711 185.669 52.1375C186.035 42.6948 186.128 33.2544 185.95 23.8165C185.901 21.0376 185.187 19.2086 183.368 17.2945C183.255 17.1764 183.28 17.1161 183.441 17.1137L210.615 17.0003C210.667 17.0005 210.718 17.0185 210.759 17.0513C210.8 17.0841 210.828 17.1298 210.84 17.1811L212.842 26.3154C212.843 26.3236 212.842 26.3321 212.838 26.3394C212.834 26.3467 212.828 26.3526 212.82 26.3562C212.813 26.3598 212.805 26.3608 212.796 26.3592C212.788 26.3576 212.781 26.3534 212.775 26.3473C211.837 25.1327 210.859 23.937 209.841 22.7602C209.032 21.828 208.103 20.9631 206.766 21.0305C202.64 21.2384 198.516 21.3944 194.395 21.4983C193.201 21.5291 192.32 21.7098 191.752 22.0407C190.109 22.9977 189.789 24.614 189.806 26.5741C189.837 29.5445 189.842 32.5207 189.82 35.5029C189.82 35.6305 189.884 35.6896 190.01 35.6801Z" fill="#1A1A1A"/>
<path d="M123.193 41.6208L120.727 48.8481C120.685 48.9734 120.681 49.0998 120.716 49.2274C121.17 50.8685 122.88 52.1836 124.073 53.3072C124.172 53.4017 124.154 53.4419 124.02 53.4277L112.195 52.219C112.173 52.2181 112.152 52.2097 112.136 52.1953C112.12 52.1809 112.109 52.1612 112.105 52.1397C112.101 52.1182 112.105 52.096 112.115 52.0769C112.126 52.0578 112.143 52.0429 112.163 52.0347C114.939 50.7906 116.22 49.0608 117.24 46.0515C120.407 36.7128 122.352 27.1141 123.077 17.2555C123.087 17.1303 123.154 17.0677 123.278 17.0677L131.817 17.0854C131.956 17.0854 132.059 17.1456 132.127 17.2662C138.029 27.8147 143.25 39.1774 147.791 51.3541C148.58 53.4667 149.936 55.3323 151.862 56.951C152.055 57.114 152.026 57.179 151.778 57.1459L141.574 55.7458C141.389 55.7198 141.369 55.6478 141.514 55.5296C142.887 54.4166 144.73 52.9988 144.069 51.0989C143.14 48.4358 142.112 45.814 140.987 43.2336C140.947 43.1414 140.876 43.0906 140.775 43.0811L123.408 41.4826C123.3 41.4707 123.229 41.5168 123.193 41.6208ZM139.111 38.7993C136.491 32.965 133.623 27.2571 130.508 21.6756C130.48 21.6238 130.438 21.5805 130.387 21.55C130.336 21.5195 130.279 21.503 130.22 21.5019L127.053 21.4345C126.889 21.4298 126.801 21.5102 126.789 21.6756C126.463 27.094 125.622 32.4274 124.267 37.6757C124.229 37.8222 124.284 37.9014 124.432 37.9132L138.935 39.0474C139.132 39.064 139.191 38.9813 139.111 38.7993Z" fill="#1A1A1A"/>
<path d="M153.46 23.299C153.14 20.7221 152.038 19.244 150.272 17.3087C150.148 17.1716 150.178 17.1031 150.364 17.1031L156.085 17.1102C156.218 17.1102 156.296 17.1776 156.317 17.3122C157.928 28.0806 158.828 38.9021 159.016 49.7768C159.037 51.0741 159.18 51.991 159.445 52.5274C160.113 53.8921 161.088 54.4202 162.654 54.5691C167.141 54.9897 171.632 55.083 176.126 54.8491C176.24 54.8422 176.349 54.7974 176.436 54.7215C178.54 52.9067 180.028 49.7945 181.362 47.3842C181.368 47.3728 181.377 47.3639 181.389 47.3592C181.401 47.3545 181.414 47.3542 181.426 47.3586C181.438 47.3629 181.449 47.3715 181.455 47.3827C181.461 47.394 181.463 47.4071 181.46 47.4197L179.479 58.3759C179.454 58.5153 179.37 58.5898 179.23 58.5992C170.609 59.2053 162.003 58.5141 153.474 57.348C153.448 57.344 153.424 57.3326 153.405 57.3154C153.385 57.2982 153.371 57.2758 153.364 57.251C153.357 57.2262 153.357 57.2 153.365 57.1757C153.373 57.1514 153.387 57.1299 153.407 57.114C155.04 55.7494 155.539 54.2536 155.497 52.0099C155.326 42.4018 154.647 32.8315 153.46 23.299Z" fill="#1A1A1A"/>
<path d="M87.5046 103.987C91.2624 103.824 104.573 102.077 105.354 97.1179C105.85 93.9668 100.136 93.1373 98.1552 92.9601C93.3606 92.5371 89.8022 92.2642 87.48 92.1413C84.2078 91.9712 79.3839 91.3403 76.8822 89.3943C72.9309 86.3212 75.232 80.7527 78.4902 78.2927C82.5752 75.2125 87.86 73.4722 92.8915 72.983C99.7209 72.3237 110.445 74.3796 110.245 83.4855C110.242 83.6273 110.171 83.6899 110.03 83.6734L106.012 83.241C105.864 83.2244 105.796 83.1417 105.808 82.9928C106.121 79.2533 103.612 77.2258 100.221 76.641C94.7105 75.6934 89.4562 76.4354 84.4576 78.867C83.2191 79.4719 82.1037 80.2552 81.1115 81.217C78.842 83.4217 79.4507 85.8178 82.3394 86.9698C83.7117 87.518 85.5002 87.9174 87.7052 88.1679C91.0759 88.5531 94.449 88.9382 97.8244 89.3234C101.164 89.7027 106.624 90.5037 108.422 93.6123C111.082 98.2273 106.191 102.399 102.187 104.008C96.9636 106.107 91.9731 107.362 87.2161 107.773C86.0386 107.874 84.6839 107.793 83.1522 107.528C77.498 106.546 73.8774 103.349 73.8281 97.1143C73.8275 97.057 73.8475 97.0014 73.8843 96.9578C73.9212 96.9141 73.9725 96.8854 74.0287 96.8769L79.0144 96.1006C79.1364 96.0817 79.1974 96.1348 79.1974 96.2601C79.1305 101.935 82.1143 104.221 87.5046 103.987Z" fill="#1A1A1A"/>
<path d="M136.835 96.3523C131.607 95.2109 126.33 94.3957 121.006 93.9065C120.888 93.8971 120.799 93.9431 120.738 94.0447C119.511 96.1219 118.336 98.1978 117.213 100.273C116.206 102.137 118.134 103.633 119.137 104.888C119.198 104.961 119.181 104.997 119.084 104.997L108.497 104.795C108.464 104.793 108.462 104.784 108.49 104.767C110.921 103.098 112.329 101.935 113.821 99.2942C118.411 91.1607 123.092 83.0803 127.863 75.053C127.926 74.9443 128.02 74.9006 128.145 74.9219L135.734 76.2121C135.785 76.2205 135.833 76.2442 135.871 76.2801C135.909 76.3161 135.936 76.3627 135.949 76.4141C137.943 84.9258 139.828 93.4835 141.606 102.087C142.229 105.093 143.102 106.943 145.255 108.847C145.269 108.86 145.278 108.877 145.282 108.896C145.285 108.914 145.283 108.934 145.274 108.951C145.266 108.968 145.253 108.982 145.236 108.99C145.219 108.999 145.2 109.002 145.181 108.999L135.498 107.199C135.327 107.166 135.312 107.096 135.453 106.989C136.681 106.054 138.83 105.1 138.447 103.158C138.011 100.944 137.538 98.7389 137.029 96.5437C137.005 96.4397 136.941 96.3759 136.835 96.3523ZM129.837 78.6295L122.744 90.6384C122.68 90.7448 122.71 90.805 122.832 90.8192C127.31 91.2965 131.748 92.0173 136.146 92.9814C136.168 92.986 136.19 92.9851 136.211 92.9787C136.233 92.9723 136.252 92.9606 136.268 92.9448C136.283 92.929 136.295 92.9094 136.301 92.888C136.308 92.8665 136.309 92.8438 136.304 92.8219L133.211 79.2072C133.181 79.0678 133.096 78.9863 132.958 78.9627L130.147 78.4877C130.011 78.4641 129.907 78.5113 129.837 78.6295Z" fill="#1A1A1A"/>
<path d="M185.945 95.5299C189.832 95.3952 193.7 95.0349 197.549 94.4488C200.181 94.0483 200.779 93.0842 202.693 91.5494C202.794 91.469 202.842 91.4939 202.838 91.6238L202.57 99.3368C202.563 99.5116 202.493 99.5435 202.359 99.4325C200.118 97.5787 198.763 97.6212 195.846 98.1493C194.028 98.4754 190.628 98.7259 185.646 98.9008C185.515 98.9055 185.442 98.974 185.428 99.1064C185.168 101.524 184.958 103.948 184.798 106.38C184.615 109.152 186.174 110.165 188.704 110.109C194.601 109.981 200.466 109.471 206.3 108.577C206.914 108.483 207.442 108.27 207.883 107.939C210.262 106.156 212.211 103.243 213.953 100.886C214.079 100.711 214.116 100.729 214.062 100.939L211.388 111.257C211.357 111.373 211.283 111.44 211.166 111.459C200.13 113.052 189.039 113.709 177.895 113.43C177.707 113.425 177.686 113.364 177.832 113.246C179.475 111.906 180.316 111.176 180.52 108.868C181.172 101.502 181.903 94.1452 182.712 86.7961C182.951 84.595 182.684 83.2622 181.069 81.8869C180.916 81.757 180.94 81.6873 181.139 81.6778C191.033 81.139 200.132 79.4306 209.913 76.9316C210.047 76.8962 210.133 76.9446 210.17 77.077L212.51 85.2472C212.55 85.3866 212.514 85.4114 212.401 85.3216C210.867 84.1094 208.97 82.2449 207.081 81.7345C206.546 81.5904 205.921 81.6034 205.206 81.7735C200.629 82.8605 196.009 83.6899 191.346 84.2618C189.922 84.4367 188.923 84.7119 188.348 85.0877C186.923 86.0163 186.498 87.1293 186.332 88.9087C186.135 91.0496 185.943 93.1893 185.755 95.3279C185.741 95.4673 185.805 95.5346 185.945 95.5299Z" fill="#1A1A1A"/>
<path d="M155.591 107.613C160.149 108.523 164.75 109.159 169.394 109.52C169.964 109.565 170.459 109.469 170.879 109.233C172.712 108.205 174.475 105.944 175.802 104.388C175.959 104.203 176.005 104.228 175.939 104.462L173.578 112.973C173.547 113.084 173.475 113.133 173.36 113.122C164.477 112.273 155.651 111.011 146.883 109.336C146.856 109.33 146.83 109.316 146.811 109.296C146.791 109.276 146.777 109.25 146.772 109.223C146.767 109.196 146.77 109.167 146.781 109.142C146.792 109.117 146.81 109.095 146.834 109.081C148.403 108.028 149.047 107.028 149.36 105.044C150.434 98.1789 151.543 91.3202 152.685 84.4674C153.04 82.33 152.903 81.0008 151.566 79.4306C151.549 79.4117 151.539 79.388 151.536 79.3629C151.534 79.3377 151.539 79.3124 151.551 79.2905C151.564 79.2685 151.583 79.2511 151.606 79.2406C151.629 79.2301 151.654 79.2271 151.679 79.2321L156.531 80.0473C156.657 80.0686 156.71 80.143 156.689 80.2706C155.462 87.9836 154.239 95.6918 153.019 103.395C152.664 105.639 153.336 107.167 155.591 107.613Z" fill="#1A1A1A"/>
<path d="M134.259 152.622C128.494 152.128 122.72 151.912 116.938 151.973C116.87 151.974 116.805 151.997 116.752 152.039C116.699 152.081 116.662 152.139 116.646 152.204C115.872 155.193 115.154 158.213 114.492 161.264C114.33 162.02 114.333 162.676 114.499 163.231C115.048 165.06 116.702 166.651 117.976 168.027C118.072 168.131 118.05 168.183 117.909 168.183L106.393 168.215C106.196 168.217 106.17 168.151 106.315 168.016C108.509 166.024 109.937 163.659 110.601 160.92C113.409 149.329 116.639 137.795 121.195 126.768C121.244 126.648 121.332 126.593 121.459 126.605L128.992 127.332C129.131 127.343 129.22 127.417 129.26 127.551C132.562 138.381 136.565 148.933 141.268 159.208C143.123 163.259 144.773 165.818 148.238 168.048C148.258 168.062 148.274 168.082 148.282 168.105C148.29 168.128 148.291 168.153 148.284 168.176C148.278 168.199 148.264 168.219 148.245 168.233C148.226 168.247 148.202 168.254 148.179 168.254L136.648 168.211C136.496 168.209 136.461 168.144 136.543 168.016C137.852 165.999 139.513 164.177 138.33 161.59C136.996 158.674 135.711 155.738 134.478 152.782C134.435 152.685 134.363 152.632 134.259 152.622ZM123.436 130.823C121.255 136.143 119.439 141.712 117.958 147.277C117.925 147.395 117.97 147.454 118.092 147.454C122.877 147.461 127.648 147.719 132.405 148.227C132.433 148.23 132.461 148.226 132.487 148.215C132.513 148.204 132.536 148.186 132.553 148.164C132.57 148.141 132.581 148.115 132.584 148.086C132.588 148.058 132.585 148.03 132.574 148.004C130.414 142.453 128.483 136.823 126.783 131.114C126.745 130.986 126.659 130.916 126.526 130.905L123.707 130.656C123.576 130.645 123.486 130.7 123.436 130.823Z" fill="#1A1A1A"/>
<path d="M101.801 157.496C101.798 153.423 97.2941 152.119 94.0043 151.591C89.5006 150.868 84.0504 150.619 79.3919 148.975C73.1958 146.791 73.5969 139.727 77.4638 135.672C81.9851 130.926 89.3212 127.332 95.841 128.494C101.678 129.536 105.207 133.432 105.169 139.656C105.169 139.784 105.105 139.845 104.979 139.84L101.27 139.677C101.127 139.673 101.058 139.598 101.062 139.454C101.191 135.86 99.9553 133.565 97.354 132.571C92.3788 130.664 82.3299 133.776 79.4869 138.564C76.0845 144.292 82.8014 146.022 86.6893 146.515C89.6285 146.886 92.5594 147.31 95.4821 147.787C97.9263 148.187 100.068 148.951 101.907 150.081C104.729 151.814 105.964 155.486 105.345 158.747C103.99 165.918 95.8199 168.909 89.4971 168.945C80.9647 168.994 74.1458 163.522 73.801 154.536C73.7963 154.38 73.8702 154.299 74.0227 154.292L77.9775 154.125C78.1299 154.118 78.2062 154.19 78.2062 154.341C78.2132 161.987 82.0801 164.599 89.2262 164.61C93.3393 164.617 101.805 163.366 101.801 157.496Z" fill="#1A1A1A"/>
<path d="M174.465 164.085C176.242 162.635 177.449 159.275 178.11 157.545C178.129 157.498 178.141 157.499 178.145 157.549L178.979 168.197C178.981 168.213 178.979 168.229 178.974 168.245C178.968 168.26 178.96 168.274 178.949 168.286C178.938 168.299 178.925 168.308 178.91 168.315C178.895 168.321 178.879 168.324 178.863 168.324L150.011 168.254C149.983 168.254 149.956 168.246 149.932 168.232C149.908 168.217 149.888 168.197 149.875 168.172C149.862 168.147 149.855 168.12 149.856 168.091C149.857 168.063 149.866 168.036 149.881 168.012C151.095 166.098 151.299 164.489 150.884 162.111C149.322 153.157 148.037 144.257 147.601 135.162C147.485 132.755 147.087 131.351 145.515 129.731C145.497 129.713 145.486 129.69 145.482 129.664C145.478 129.639 145.482 129.614 145.493 129.591C145.504 129.568 145.522 129.549 145.544 129.537C145.566 129.525 145.592 129.519 145.617 129.522L150.726 130.231C150.876 130.252 150.953 130.339 150.958 130.49C151.289 141.185 152.377 151.013 154.223 159.973C154.544 161.533 155.415 162.672 156.834 163.39C157.441 163.698 158.261 163.859 159.293 163.876C164.245 163.963 169.194 164.071 174.141 164.199C174.259 164.201 174.374 164.161 174.465 164.085Z" fill="#1A1A1A"/>
<path d="M186.488 152.154C187.023 156.516 187.5 159.496 187.92 161.094C188.284 162.481 189.073 163.464 190.288 164.043C190.985 164.376 192.139 164.552 193.75 164.571C198.352 164.625 202.956 164.668 207.56 164.698C208.147 164.703 208.639 164.574 209.038 164.312C210.987 163.029 212.617 160.285 213.904 158.375C214.003 158.226 214.035 158.239 213.999 158.414L212.011 168.222C211.99 168.33 211.926 168.385 211.818 168.385L183.269 168.353C183.107 168.353 183.079 168.291 183.184 168.168C184.357 166.812 184.792 165.371 184.49 163.844C182.545 154 181.236 145.195 180.563 137.43C180.422 135.796 178.983 134.52 177.892 133.464C177.768 133.343 177.793 133.288 177.966 133.297C188.536 133.942 199.108 133.978 209.682 133.403C209.797 133.396 209.871 133.448 209.904 133.559L212.532 142.233C212.595 142.436 212.55 142.465 212.395 142.318C210.678 140.698 208.834 138.61 206.688 137.6C206.169 137.354 205.545 137.245 204.816 137.271C199.735 137.448 194.656 137.458 189.577 137.302C186.952 137.225 184.824 137.841 185.091 140.897C185.305 143.331 185.577 145.749 185.907 148.152C185.924 148.273 185.992 148.337 186.112 148.344C190.16 148.564 194.206 148.694 198.25 148.734C200.252 148.751 201.635 148.025 202.877 146.579C202.893 146.561 202.914 146.548 202.936 146.541C202.959 146.535 202.983 146.536 203.006 146.543C203.028 146.55 203.047 146.564 203.061 146.582C203.076 146.6 203.084 146.623 203.085 146.646L203.62 154.543C203.629 154.678 203.581 154.704 203.475 154.621C201.801 153.324 200.998 152.388 198.69 152.346C194.674 152.27 190.66 152.148 186.646 151.98C186.527 151.976 186.474 152.034 186.488 152.154Z" fill="#1A1A1A"/>
</g>
<path d="M0 195.285H288V193.285H0V195.285Z" fill="#1A1A1A" mask="url(#path-3-inside-1_857_12613)"/>
<path d="M85.294 238.701C83.214 238.701 81.628 238.19 80.536 237.167C79.4613 236.127 78.924 234.792 78.924 233.163C78.924 232.314 79.1147 231.681 79.496 231.265C79.8947 230.849 80.3627 230.641 80.9 230.641C81.3507 230.641 81.732 230.788 82.044 231.083C82.356 231.36 82.512 231.75 82.512 232.253C82.512 232.981 82.096 233.544 81.264 233.943C80.744 234.186 80.484 234.61 80.484 235.217C80.484 235.928 80.8913 236.569 81.706 237.141C82.5207 237.696 83.6127 237.973 84.982 237.973C86.5073 237.956 87.66 237.574 88.44 236.829C89.22 236.084 89.61 234.888 89.61 233.241C89.61 231.716 89.2633 230.632 88.57 229.991C87.894 229.35 86.8107 229.029 85.32 229.029C85.008 229.029 84.436 229.055 83.604 229.107C82.772 229.142 82.2607 229.159 82.07 229.159C81.9487 229.159 81.836 229.116 81.732 229.029C81.6453 228.942 81.602 228.838 81.602 228.717C81.602 228.422 81.758 228.275 82.07 228.275C82.226 228.275 82.7287 228.292 83.578 228.327C84.4273 228.362 85.008 228.379 85.32 228.379C86.6893 228.379 87.6773 228.032 88.284 227.339C88.908 226.646 89.22 225.562 89.22 224.089C89.22 222.841 88.8647 221.853 88.154 221.125C87.4607 220.397 86.542 220.033 85.398 220.033C83.9073 220.033 82.6767 220.692 81.706 222.009C81.1687 222.737 80.7353 223.855 80.406 225.363C80.3193 225.744 80.198 226.36 80.042 227.209C80.0073 227.382 79.8947 227.469 79.704 227.469C79.6173 227.469 79.5393 227.443 79.47 227.391C79.4007 227.322 79.366 227.244 79.366 227.157C79.366 226.914 79.3833 226.316 79.418 225.363C79.4527 224.41 79.47 223.526 79.47 222.711C79.47 222.191 79.4613 221.697 79.444 221.229C79.444 220.761 79.4353 220.388 79.418 220.111C79.4007 219.834 79.392 219.669 79.392 219.617C79.392 219.392 79.5047 219.279 79.73 219.279C79.9207 219.279 80.042 219.383 80.094 219.591C80.1287 219.73 80.302 220.241 80.614 221.125C80.718 221.42 80.8393 221.567 80.978 221.567C81.0473 221.567 81.1167 221.532 81.186 221.463L81.654 220.995C82.746 219.903 83.994 219.357 85.398 219.357C87.218 219.357 88.7867 219.842 90.104 220.813C91.4213 221.784 92.08 222.876 92.08 224.089C92.08 225.198 91.612 226.178 90.676 227.027C89.74 227.876 88.466 228.405 86.854 228.613V228.691C88.57 228.864 89.9393 229.376 90.962 230.225C91.9847 231.074 92.496 232.08 92.496 233.241C92.496 234.697 91.82 235.971 90.468 237.063C89.1333 238.155 87.4087 238.701 85.294 238.701ZM115.337 237.609C115.562 237.609 115.675 237.722 115.675 237.947C115.675 238.172 115.562 238.285 115.337 238.285C115.302 238.285 115.051 238.285 114.583 238.285C114.115 238.268 113.508 238.25 112.763 238.233C112.017 238.216 111.307 238.207 110.631 238.207C109.989 238.207 109.296 238.216 108.551 238.233C107.805 238.233 107.173 238.242 106.653 238.259C106.15 238.259 105.873 238.259 105.821 238.259C105.595 238.259 105.483 238.146 105.483 237.921C105.483 237.696 105.595 237.583 105.821 237.583L108.525 237.505C108.767 237.488 108.932 237.444 109.019 237.375C109.123 237.288 109.175 237.15 109.175 236.959V229.055H100.803V236.959C100.803 237.306 101.028 237.488 101.479 237.505L104.209 237.583C104.417 237.583 104.521 237.696 104.521 237.921C104.521 238.146 104.417 238.259 104.209 238.259C104.174 238.259 103.931 238.259 103.481 238.259C103.03 238.242 102.441 238.233 101.713 238.233C101.002 238.216 100.309 238.207 99.6326 238.207C98.9219 238.207 98.1766 238.216 97.3966 238.233C96.6166 238.233 95.9753 238.242 95.4726 238.259C94.9699 238.276 94.6926 238.285 94.6406 238.285C94.4153 238.285 94.3026 238.172 94.3026 237.947C94.3026 237.722 94.4153 237.609 94.6406 237.609L97.3966 237.505C97.6566 237.488 97.8299 237.444 97.9166 237.375C98.0033 237.306 98.0466 237.167 98.0466 236.959V220.969C98.0466 220.605 97.8299 220.414 97.3966 220.397L94.6406 220.293C94.4153 220.293 94.3026 220.18 94.3026 219.955C94.3026 219.73 94.4153 219.617 94.6406 219.617C94.6753 219.617 94.9179 219.626 95.3686 219.643C95.8193 219.66 96.4086 219.678 97.1366 219.695C97.8819 219.695 98.6273 219.695 99.3726 219.695C100.083 219.695 100.811 219.695 101.557 219.695C102.319 219.678 102.943 219.669 103.429 219.669C103.914 219.652 104.174 219.643 104.209 219.643C104.417 219.643 104.521 219.756 104.521 219.981C104.521 220.206 104.417 220.319 104.209 220.319L101.479 220.397C101.028 220.414 100.803 220.605 100.803 220.969V228.379H109.175V220.969C109.175 220.761 109.123 220.622 109.019 220.553C108.932 220.466 108.767 220.414 108.525 220.397L105.821 220.319C105.595 220.319 105.483 220.206 105.483 219.981C105.483 219.756 105.595 219.643 105.821 219.643C105.855 219.643 106.107 219.652 106.575 219.669C107.043 219.669 107.623 219.678 108.317 219.695C109.027 219.695 109.703 219.695 110.345 219.695C111.055 219.695 111.801 219.695 112.581 219.695C113.378 219.678 114.028 219.66 114.531 219.643C115.033 219.626 115.302 219.617 115.337 219.617C115.562 219.617 115.675 219.73 115.675 219.955C115.675 220.18 115.562 220.293 115.337 220.293L112.581 220.397C112.147 220.414 111.931 220.605 111.931 220.969V236.959C111.931 237.15 111.974 237.288 112.061 237.375C112.147 237.444 112.321 237.488 112.581 237.505L115.337 237.609ZM137.942 237.921C137.942 238.164 137.83 238.285 137.604 238.285C137.57 238.285 137.318 238.285 136.85 238.285C136.382 238.268 135.776 238.25 135.03 238.233C134.285 238.216 133.574 238.207 132.898 238.207C132.257 238.207 131.564 238.216 130.818 238.233C130.073 238.233 129.44 238.242 128.92 238.259C128.418 238.259 128.14 238.259 128.088 238.259C127.863 238.259 127.75 238.146 127.75 237.921C127.75 237.696 127.863 237.583 128.088 237.583L130.792 237.531C131.226 237.531 131.442 237.349 131.442 236.985V223.335L131.39 223.309L123.408 235.373C123.183 235.754 123.07 236.118 123.07 236.465V236.985C123.07 237.349 123.296 237.531 123.746 237.531L126.476 237.583C126.684 237.583 126.788 237.696 126.788 237.921C126.788 238.146 126.684 238.259 126.476 238.259C126.442 238.259 126.199 238.259 125.748 238.259C125.298 238.242 124.708 238.233 123.98 238.233C123.27 238.216 122.576 238.207 121.9 238.207C121.19 238.207 120.444 238.216 119.664 238.233C118.884 238.233 118.243 238.242 117.74 238.259C117.238 238.276 116.96 238.285 116.908 238.285C116.683 238.285 116.57 238.172 116.57 237.947C116.57 237.722 116.683 237.609 116.908 237.609L119.664 237.531C120.098 237.531 120.314 237.349 120.314 236.985V220.943C120.314 220.562 120.098 220.371 119.664 220.371L116.908 220.293C116.683 220.293 116.57 220.18 116.57 219.955C116.57 219.73 116.683 219.617 116.908 219.617C116.943 219.617 117.186 219.626 117.636 219.643C118.087 219.66 118.676 219.678 119.404 219.695C120.15 219.695 120.895 219.695 121.64 219.695C122.351 219.695 123.079 219.695 123.824 219.695C124.587 219.678 125.211 219.669 125.696 219.669C126.182 219.652 126.442 219.643 126.476 219.643C126.684 219.643 126.788 219.756 126.788 219.981C126.788 220.206 126.684 220.319 126.476 220.319L123.746 220.371C123.296 220.371 123.07 220.562 123.07 220.943V234.567L123.122 234.593L131.13 222.503C131.338 222.208 131.442 221.879 131.442 221.515V220.943C131.442 220.562 131.226 220.371 130.792 220.371L128.088 220.319C127.863 220.319 127.75 220.206 127.75 219.981C127.75 219.756 127.863 219.643 128.088 219.643C128.123 219.643 128.374 219.652 128.842 219.669C129.31 219.669 129.891 219.678 130.584 219.695C131.295 219.695 131.971 219.695 132.612 219.695C133.323 219.695 134.068 219.695 134.848 219.695C135.646 219.678 136.296 219.66 136.798 219.643C137.301 219.626 137.57 219.617 137.604 219.617C137.83 219.617 137.942 219.73 137.942 219.955C137.942 220.18 137.83 220.293 137.604 220.293L134.848 220.371C134.415 220.388 134.198 220.579 134.198 220.943V236.985C134.198 237.176 134.242 237.314 134.328 237.401C134.415 237.47 134.588 237.514 134.848 237.531L137.604 237.609C137.83 237.609 137.942 237.713 137.942 237.921ZM163.304 233.865L163.46 235.607C163.494 236.11 163.676 236.526 164.006 236.855C164.335 237.184 164.734 237.349 165.202 237.349C166.103 237.349 166.554 236.638 166.554 235.217V233.527C166.554 233.336 166.649 233.241 166.84 233.241C167.013 233.241 167.117 233.336 167.152 233.527C167.186 233.891 167.204 234.48 167.204 235.295C167.204 237.514 166.172 238.623 164.11 238.623C161.978 238.623 160.738 237.8 160.392 236.153C160.322 235.841 160.288 235.364 160.288 234.723C160.288 234.567 160.288 234.333 160.288 234.021C160.305 233.692 160.314 233.44 160.314 233.267C160.262 231.62 159.967 230.52 159.43 229.965C158.892 229.41 157.974 229.133 156.674 229.133H154.256V236.595C154.256 236.89 154.325 237.106 154.464 237.245C154.62 237.384 154.888 237.462 155.27 237.479L157.844 237.635C158.052 237.652 158.156 237.765 158.156 237.973C158.156 238.216 158.052 238.337 157.844 238.337C157.584 238.337 156.804 238.32 155.504 238.285C154.221 238.25 153.38 238.233 152.982 238.233C152.583 238.233 151.708 238.25 150.356 238.285C149.021 238.302 148.224 238.311 147.964 238.311C147.721 238.311 147.6 238.19 147.6 237.947C147.6 237.756 147.721 237.644 147.964 237.609L150.486 237.453C150.85 237.418 151.11 237.34 151.266 237.219C151.422 237.098 151.5 236.881 151.5 236.569V229.133H149.082C147.782 229.133 146.854 229.428 146.3 230.017C145.745 230.589 145.459 231.672 145.442 233.267C145.442 233.44 145.442 233.692 145.442 234.021C145.459 234.333 145.468 234.567 145.468 234.723C145.468 235.26 145.433 235.737 145.364 236.153C145.225 236.968 144.818 237.583 144.142 237.999C143.483 238.415 142.651 238.623 141.646 238.623C139.583 238.623 138.552 237.514 138.552 235.295C138.552 234.48 138.569 233.891 138.604 233.527C138.638 233.336 138.742 233.241 138.916 233.241C139.106 233.241 139.202 233.336 139.202 233.527V235.217C139.202 236.638 139.652 237.349 140.554 237.349C141.004 237.349 141.394 237.193 141.724 236.881C142.053 236.552 142.244 236.092 142.296 235.503L142.452 233.865C142.625 232.253 143.275 231.014 144.402 230.147C144.627 229.974 145.06 229.74 145.702 229.445C146.36 229.133 146.854 228.934 147.184 228.847C147.236 228.83 147.262 228.804 147.262 228.769C147.262 228.752 147.227 228.726 147.158 228.691C146.118 228.258 145.554 227.235 145.468 225.623L145.312 223.153C145.208 221.524 144.8 220.553 144.09 220.241C144.055 220.224 144.003 220.215 143.934 220.215C143.708 220.215 143.596 220.328 143.596 220.553C143.596 220.692 143.682 220.917 143.856 221.229C144.029 221.524 144.116 221.862 144.116 222.243C144.116 222.694 143.942 223.066 143.596 223.361C143.249 223.638 142.85 223.777 142.4 223.777C141.897 223.777 141.464 223.595 141.1 223.231C140.753 222.867 140.58 222.347 140.58 221.671C140.58 220.995 140.822 220.432 141.308 219.981C141.81 219.53 142.417 219.305 143.128 219.305C144.896 219.305 145.866 220.614 146.04 223.231L146.196 225.805C146.248 226.724 146.508 227.417 146.976 227.885C147.461 228.353 148.05 228.587 148.744 228.587H151.5V221.359C151.5 220.804 151.196 220.51 150.59 220.475L147.99 220.371C147.73 220.371 147.6 220.241 147.6 219.981C147.6 219.756 147.73 219.643 147.99 219.643C148.076 219.643 148.657 219.66 149.732 219.695C150.806 219.712 151.838 219.721 152.826 219.721C153.814 219.721 154.862 219.712 155.972 219.695C157.081 219.66 157.679 219.643 157.766 219.643C158.026 219.643 158.156 219.756 158.156 219.981C158.156 220.241 158.026 220.371 157.766 220.371L155.166 220.475C154.559 220.51 154.256 220.804 154.256 221.359V228.587H157.012C157.705 228.587 158.286 228.353 158.754 227.885C159.222 227.417 159.482 226.724 159.534 225.805L159.69 223.231C159.863 220.614 160.834 219.305 162.602 219.305C163.312 219.305 163.91 219.53 164.396 219.981C164.898 220.432 165.15 220.995 165.15 221.671C165.15 222.347 164.968 222.867 164.604 223.231C164.257 223.595 163.832 223.777 163.33 223.777C162.879 223.777 162.48 223.638 162.134 223.361C161.787 223.066 161.614 222.694 161.614 222.243C161.614 221.862 161.7 221.524 161.874 221.229C162.047 220.917 162.134 220.692 162.134 220.553C162.134 220.328 162.021 220.215 161.796 220.215C161.726 220.215 161.674 220.224 161.64 220.241C160.929 220.553 160.522 221.524 160.418 223.153L160.262 225.623C160.175 227.235 159.62 228.258 158.598 228.691C158.528 228.726 158.494 228.752 158.494 228.769C158.494 228.804 158.52 228.83 158.572 228.847C158.901 228.934 159.386 229.133 160.028 229.445C160.686 229.74 161.128 229.974 161.354 230.147C162.515 231.048 163.165 232.288 163.304 233.865ZM185.929 237.375C186.83 237.375 187.281 236.664 187.281 235.243V233.553C187.281 233.362 187.376 233.267 187.567 233.267C187.74 233.267 187.844 233.362 187.879 233.553C187.913 233.917 187.931 234.506 187.931 235.321C187.931 237.54 186.899 238.649 184.837 238.649C183.641 238.649 182.705 238.354 182.029 237.765C181.37 237.158 181.041 236.274 181.041 235.113C181.041 234.922 181.049 234.662 181.067 234.333C181.084 233.986 181.093 233.726 181.093 233.553C181.093 232.964 181.067 232.496 181.015 232.149C180.859 230.97 180.503 230.173 179.949 229.757C179.411 229.341 178.571 229.133 177.427 229.133H174.229V236.595C174.229 236.89 174.298 237.106 174.437 237.245C174.593 237.384 174.861 237.462 175.243 237.479L177.557 237.635C177.765 237.652 177.869 237.765 177.869 237.973C177.869 238.216 177.765 238.337 177.557 238.337C177.297 238.337 176.56 238.32 175.347 238.285C174.151 238.25 173.353 238.233 172.955 238.233C172.556 238.233 171.724 238.25 170.459 238.285C169.211 238.302 168.457 238.311 168.197 238.311C167.954 238.311 167.833 238.19 167.833 237.947C167.833 237.756 167.954 237.644 168.197 237.609L170.459 237.453C170.823 237.418 171.083 237.34 171.239 237.219C171.395 237.098 171.473 236.881 171.473 236.569V221.359C171.473 220.804 171.169 220.51 170.563 220.475L168.223 220.371C167.963 220.371 167.833 220.241 167.833 219.981C167.833 219.756 167.963 219.643 168.223 219.643C168.309 219.643 168.847 219.66 169.835 219.695C170.823 219.712 171.811 219.721 172.799 219.721C173.787 219.721 174.792 219.712 175.815 219.695C176.837 219.66 177.392 219.643 177.479 219.643C177.739 219.643 177.869 219.756 177.869 219.981C177.869 220.241 177.739 220.371 177.479 220.371L175.139 220.475C174.532 220.51 174.229 220.804 174.229 221.359V228.587H177.661C178.458 228.587 179.125 228.353 179.663 227.885C180.2 227.4 180.503 226.706 180.573 225.805L180.729 223.231C180.867 220.614 181.838 219.305 183.641 219.305C184.351 219.305 184.949 219.53 185.435 219.981C185.937 220.432 186.189 220.995 186.189 221.671C186.189 222.347 186.007 222.867 185.643 223.231C185.296 223.595 184.871 223.777 184.369 223.777C183.918 223.777 183.519 223.638 183.173 223.361C182.826 223.066 182.653 222.694 182.653 222.243C182.653 221.862 182.739 221.524 182.913 221.229C183.086 220.917 183.173 220.692 183.173 220.553C183.173 220.328 183.06 220.215 182.835 220.215C182.765 220.215 182.713 220.224 182.679 220.241C182.28 220.432 181.994 220.752 181.821 221.203C181.647 221.654 181.526 222.304 181.457 223.153L181.275 225.623C181.171 227.148 180.529 228.162 179.351 228.665C179.281 228.7 179.247 228.726 179.247 228.743C179.247 228.778 179.273 228.804 179.325 228.821C179.654 228.908 180.139 229.107 180.781 229.419C181.439 229.714 181.881 229.948 182.107 230.121C183.251 231.005 183.875 232.253 183.979 233.865L184.187 235.633C184.256 236.118 184.438 236.534 184.733 236.881C185.045 237.21 185.443 237.375 185.929 237.375ZM210.001 237.921C210.001 238.164 209.888 238.285 209.663 238.285C209.628 238.285 209.377 238.285 208.909 238.285C208.441 238.268 207.834 238.25 207.089 238.233C206.343 238.216 205.633 238.207 204.957 238.207C204.315 238.207 203.622 238.216 202.877 238.233C202.131 238.233 201.499 238.242 200.979 238.259C200.476 238.259 200.199 238.259 200.147 238.259C199.921 238.259 199.809 238.146 199.809 237.921C199.809 237.696 199.921 237.583 200.147 237.583L202.851 237.531C203.284 237.531 203.501 237.349 203.501 236.985V223.335L203.449 223.309L195.467 235.373C195.241 235.754 195.129 236.118 195.129 236.465V236.985C195.129 237.349 195.354 237.531 195.805 237.531L198.535 237.583C198.743 237.583 198.847 237.696 198.847 237.921C198.847 238.146 198.743 238.259 198.535 238.259C198.5 238.259 198.257 238.259 197.807 238.259C197.356 238.242 196.767 238.233 196.039 238.233C195.328 238.216 194.635 238.207 193.959 238.207C193.248 238.207 192.503 238.216 191.723 238.233C190.943 238.233 190.301 238.242 189.799 238.259C189.296 238.276 189.019 238.285 188.967 238.285C188.741 238.285 188.629 238.172 188.629 237.947C188.629 237.722 188.741 237.609 188.967 237.609L191.723 237.531C192.156 237.531 192.373 237.349 192.373 236.985V220.943C192.373 220.562 192.156 220.371 191.723 220.371L188.967 220.293C188.741 220.293 188.629 220.18 188.629 219.955C188.629 219.73 188.741 219.617 188.967 219.617C189.001 219.617 189.244 219.626 189.695 219.643C190.145 219.66 190.735 219.678 191.463 219.695C192.208 219.695 192.953 219.695 193.699 219.695C194.409 219.695 195.137 219.695 195.883 219.695C196.645 219.678 197.269 219.669 197.755 219.669C198.24 219.652 198.5 219.643 198.535 219.643C198.743 219.643 198.847 219.756 198.847 219.981C198.847 220.206 198.743 220.319 198.535 220.319L195.805 220.371C195.354 220.371 195.129 220.562 195.129 220.943V234.567L195.181 234.593L203.189 222.503C203.397 222.208 203.501 221.879 203.501 221.515V220.943C203.501 220.562 203.284 220.371 202.851 220.371L200.147 220.319C199.921 220.319 199.809 220.206 199.809 219.981C199.809 219.756 199.921 219.643 200.147 219.643C200.181 219.643 200.433 219.652 200.901 219.669C201.369 219.669 201.949 219.678 202.643 219.695C203.353 219.695 204.029 219.695 204.671 219.695C205.381 219.695 206.127 219.695 206.907 219.695C207.704 219.678 208.354 219.66 208.857 219.643C209.359 219.626 209.628 219.617 209.663 219.617C209.888 219.617 210.001 219.73 210.001 219.955C210.001 220.18 209.888 220.293 209.663 220.293L206.907 220.371C206.473 220.388 206.257 220.579 206.257 220.943V236.985C206.257 237.176 206.3 237.314 206.387 237.401C206.473 237.47 206.647 237.514 206.907 237.531L209.663 237.609C209.888 237.609 210.001 237.713 210.001 237.921Z" fill="#1A1A1A"/>
<path d="M71.5267 325.285H69.7567C69.9067 324.745 69.9967 324.025 69.9967 323.035V317.035C69.9967 316.045 69.9067 315.325 69.7567 314.785H79.4017C79.2517 315.325 79.1617 316.045 79.1617 317.035V323.035C79.1617 324.025 79.2517 324.745 79.4017 325.285H77.6317C77.7817 324.745 77.8717 324.025 77.8717 323.035V317.035C77.8717 316.645 77.8567 316.3 77.8267 315.985H71.3317C71.3017 316.3 71.2867 316.645 71.2867 317.035V323.035C71.2867 324.025 71.3767 324.745 71.5267 325.285ZM85.2156 317.665C87.2856 317.665 88.8606 319.345 88.9356 321.565C88.9506 321.61 88.9506 321.775 88.9356 321.925H82.6056C82.8306 323.305 84.0756 324.34 85.5756 324.34C86.4006 324.34 87.1506 324.025 87.6906 323.5L88.6506 324.13C87.8856 324.94 86.7906 325.405 85.6206 325.405C83.3556 325.405 81.4206 323.71 81.4206 321.505C81.4206 319.435 83.0706 317.665 85.2156 317.665ZM82.6206 321.04H87.7356C87.6306 319.78 86.4756 318.73 85.1856 318.73C83.8356 318.73 82.8156 319.78 82.6206 321.04ZM98.7673 321.535C98.7673 323.68 97.1323 325.405 95.1073 325.405C93.9223 325.405 92.8723 324.79 92.2273 323.845V326.485C92.2273 327.475 92.3173 328.195 92.4673 328.735H90.7873C90.9373 328.195 91.0273 327.475 91.0273 326.485V320.035C91.0273 319.045 90.9373 318.325 90.7873 317.785H91.9873C92.0923 318.175 92.1673 318.655 92.2123 319.255C92.8573 318.295 93.9073 317.665 95.1073 317.665C97.1323 317.665 98.7673 319.405 98.7673 321.535ZM97.5673 321.535C97.5673 320.005 96.3673 318.775 94.8973 318.775C93.4273 318.775 92.2273 320.005 92.2273 321.535C92.2273 323.065 93.4273 324.295 94.8973 324.295C96.3673 324.295 97.5673 323.065 97.5673 321.535ZM104.127 317.665C106.197 317.665 107.772 319.345 107.847 321.565C107.862 321.61 107.862 321.775 107.847 321.925H101.517C101.742 323.305 102.987 324.34 104.487 324.34C105.312 324.34 106.062 324.025 106.602 323.5L107.562 324.13C106.797 324.94 105.702 325.405 104.532 325.405C102.267 325.405 100.332 323.71 100.332 321.505C100.332 319.435 101.982 317.665 104.127 317.665ZM101.532 321.04H106.647C106.542 319.78 105.387 318.73 104.097 318.73C102.747 318.73 101.727 319.78 101.532 321.04ZM111.138 320.035V323.035C111.138 324.025 111.228 324.745 111.378 325.285H109.698C109.848 324.745 109.938 324.025 109.938 323.035V320.035C109.938 319.045 109.848 318.325 109.698 317.785H115.113V319.135C114.573 318.985 113.868 318.895 112.893 318.895H111.183C111.153 319.225 111.138 319.615 111.138 320.035ZM123.554 325.285H121.874C122.024 324.745 122.114 324.025 122.114 323.035V320.035C122.114 319.615 122.099 319.225 122.069 318.895H118.529C118.499 319.225 118.484 319.615 118.484 320.035C118.484 324.235 118.034 325.405 116.459 325.405C116.054 325.405 115.679 325.315 115.454 325.21V324.055C115.664 324.145 115.964 324.22 116.219 324.22C117.104 324.22 117.284 323.485 117.284 320.035C117.284 319.045 117.194 318.325 117.044 317.785H123.554C123.404 318.325 123.314 319.045 123.314 320.035V323.035C123.314 324.025 123.404 324.745 123.554 325.285ZM125.111 325.285C125.696 324.73 126.356 323.995 127.181 323.005L127.706 322.36C126.506 322.18 125.591 321.235 125.591 320.095C125.591 318.82 126.716 317.785 128.111 317.785H132.326C132.161 318.325 132.086 319.045 132.086 320.035V323.035C132.086 324.025 132.161 324.745 132.326 325.285H130.646C130.796 324.745 130.886 324.025 130.886 323.035V322.39H129.041L128.666 322.84C127.826 323.89 127.301 324.7 127.016 325.285H125.111ZM130.886 321.325V320.035C130.886 319.585 130.871 319.195 130.826 318.85H128.111C127.376 318.85 126.791 319.405 126.791 320.125C126.791 320.785 127.376 321.325 128.111 321.325H130.886ZM136.105 325.285H134.425C134.575 324.745 134.665 324.025 134.665 323.035V320.035C134.665 319.045 134.575 318.325 134.425 317.785H136.105C135.955 318.325 135.865 319.045 135.865 320.035V320.905H140.455V320.035C140.455 319.045 140.365 318.325 140.215 317.785H141.895C141.745 318.325 141.655 319.045 141.655 320.035V323.035C141.655 324.025 141.745 324.745 141.895 325.285H140.215C140.365 324.745 140.455 324.025 140.455 323.035V322.015H135.865V323.035C135.865 324.025 135.955 324.745 136.105 325.285ZM150.35 320.035L147.32 327.085C146.825 328.255 145.955 328.855 144.965 328.855C144.62 328.855 144.215 328.78 143.975 328.675L144.095 327.595C144.365 327.7 144.77 327.775 145.01 327.775C145.535 327.775 145.865 327.415 146.165 326.785L146.9 325.285H146.6L144.44 320.035C144.035 319.045 143.675 318.325 143.285 317.785H144.995C145.07 318.325 145.265 319.045 145.67 320.035L147.365 324.19L149.12 320.035C149.54 319.045 149.72 318.325 149.795 317.785H151.505C151.115 318.325 150.755 319.045 150.35 320.035ZM156.632 320.035V323.035C156.632 324.025 156.722 324.745 156.872 325.285H155.192C155.342 324.745 155.432 324.025 155.432 323.035V320.035C155.432 319.615 155.417 319.225 155.387 318.895H154.532C153.557 318.895 152.837 318.985 152.297 319.135V317.785H159.767V319.135C159.227 318.985 158.507 318.895 157.532 318.895H156.677C156.647 319.225 156.632 319.615 156.632 320.035ZM162.941 325.285H161.261C161.411 324.745 161.501 324.025 161.501 323.035V320.035C161.501 319.045 161.411 318.325 161.261 317.785H162.941C162.791 318.325 162.701 319.045 162.701 320.035V323.035C162.701 323.29 162.701 323.545 162.716 323.77L167.186 317.785H168.866C168.716 318.325 168.626 319.045 168.626 320.035V323.035C168.626 324.025 168.716 324.745 168.866 325.285H167.186C167.336 324.745 167.426 324.025 167.426 323.035V320.035C167.426 319.78 167.426 319.525 167.411 319.3L162.941 325.285ZM178.801 317.785C180.166 317.785 181.276 318.7 181.276 319.78C181.276 320.425 180.916 320.995 180.331 321.37C181.141 321.715 181.681 322.42 181.681 323.2C181.681 324.355 180.571 325.285 179.206 325.285H174.841C174.991 324.745 175.081 324.025 175.081 323.035V320.035C175.081 319.045 174.991 318.325 174.841 317.785H178.801ZM176.281 321.01H178.801C179.506 321.01 180.076 320.515 180.076 319.9C180.076 319.315 179.506 318.85 178.801 318.85H176.326C176.296 319.195 176.281 319.585 176.281 320.035V321.01ZM176.326 324.22H179.221C179.926 324.22 180.496 323.695 180.496 323.05C180.496 322.45 179.926 321.94 179.221 321.94H176.281V323.035C176.281 323.485 176.296 323.875 176.326 324.22ZM184.369 321.535C184.369 323.065 185.569 324.295 187.039 324.295C187.849 324.295 188.584 323.92 189.064 323.32L190.054 323.965C189.334 324.835 188.254 325.405 187.039 325.405C184.894 325.405 183.169 323.665 183.169 321.535C183.169 319.39 184.894 317.665 187.039 317.665C188.254 317.665 189.334 318.235 190.054 319.105L189.064 319.75C188.584 319.15 187.849 318.775 187.039 318.775C185.569 318.775 184.369 320.005 184.369 321.535ZM191.579 315.115C191.579 314.545 192.044 314.095 192.599 314.095C193.169 314.095 193.619 314.545 193.619 315.115C193.619 315.67 193.169 316.135 192.599 316.135C192.044 316.135 191.579 315.67 191.579 315.115ZM193.439 325.285H191.759C191.909 324.745 191.999 324.025 191.999 323.035V320.035C191.999 319.045 191.909 318.325 191.759 317.785H193.439C193.289 318.325 193.199 319.045 193.199 320.035V323.035C193.199 324.025 193.289 324.745 193.439 325.285Z" fill="#1A1A1A"/>
<path d="M214.216 316.066L219.031 320.25L214.36 324.31M219.031 320.269L204.969 320.269" stroke="#1A1A1A" stroke-linecap="round" stroke-linejoin="round"/>
<defs>
<clipPath id="clip0_857_12613">
<rect width="144" height="153" fill="white" transform="translate(72 16.2852)"/>
</clipPath>
</defs>
</svg>
