<svg width="15" height="15" viewBox="0 0 15 15" fill="none" xmlns="http://www.w3.org/2000/svg">
<path d="M7.17704 10.9887C7.37566 10.8688 7.62434 10.8688 7.82296 10.9887L10.0944 12.3596C10.5677 12.6453 11.1516 12.2209 11.026 11.6825L10.4232 9.09863C10.3705 8.87269 10.4473 8.63615 10.6226 8.48424L12.6304 6.74493C13.0483 6.38292 12.8249 5.69651 12.274 5.64977L9.63179 5.42561C9.4008 5.40601 9.19964 5.26018 9.10918 5.04674L8.07545 2.60773C7.86008 2.09959 7.13992 2.09959 6.92455 2.60773L5.89082 5.04674C5.80036 5.26018 5.5992 5.40601 5.36821 5.42561L2.72602 5.64977C2.17513 5.69651 1.95175 6.38292 2.36962 6.74493L4.37737 8.48424C4.55272 8.63615 4.6295 8.87269 4.5768 9.09863L3.97401 11.6825C3.84841 12.2209 4.4323 12.6453 4.90562 12.3596L7.17704 10.9887Z" fill="#829462"/>
</svg>
