<svg width="15" height="15" viewBox="0 0 15 15" fill="none" xmlns="http://www.w3.org/2000/svg">
<path fill-rule="evenodd" clip-rule="evenodd" d="M9.11062 5.04131C9.20103 5.2543 9.40171 5.39992 9.63224 5.4198L12.2802 5.64813C12.8303 5.69557 13.0532 6.3809 12.6361 6.74284L10.6292 8.4846C10.4544 8.63634 10.3778 8.87228 10.4301 9.09779L11.0299 11.6848C11.1547 12.2229 10.571 12.6465 10.0981 12.361L7.82427 10.9887C7.62565 10.8688 7.37697 10.8688 7.17835 10.9887L4.90694 12.3596C4.43361 12.6453 3.84972 12.2209 3.97532 11.6825L4.57811 9.09861C4.63082 8.87268 4.55404 8.63614 4.37868 8.48423L2.37093 6.74492C1.95306 6.38291 2.17644 5.6965 2.72733 5.64976L5.36952 5.4256C5.60051 5.406 5.80167 5.26017 5.89213 5.04673L6.9263 2.60669C7.1416 2.0987 7.86148 2.0985 8.07706 2.60638L9.11062 5.04131ZM5.48848 9.60044C5.36266 10.1389 5.94671 10.5635 6.42011 10.2777L7.17796 9.82016C7.37676 9.70014 7.62571 9.70023 7.82442 9.82041L8.58789 10.2821C9.06127 10.5684 9.6458 10.1438 9.51993 9.60513L9.31831 8.74218C9.26554 8.51634 9.34218 8.27984 9.51737 8.12787L10.1925 7.54217C10.6096 7.1804 10.387 6.49511 9.83702 6.44739L8.94489 6.36999C8.71426 6.34999 8.51358 6.20414 8.42334 5.99095L8.0778 5.17459C7.86243 4.66574 7.14114 4.66618 6.92638 5.17529L6.58521 5.98405C6.49513 6.19759 6.29427 6.34376 6.06337 6.36379L5.17176 6.44114C4.62173 6.48886 4.39918 7.17414 4.81623 7.53592L5.49141 8.12162C5.6666 8.27359 5.74323 8.51009 5.69047 8.73593L5.48848 9.60044Z" fill="#C2CCB1"/>
</svg>
