<svg width="20" height="20" viewBox="0 0 20 20" fill="none" xmlns="http://www.w3.org/2000/svg">
<g clip-path="url(#clip0_1593_30591)">
<path d="M5.75743 5.76368C5.75114 5.7448 5.7441 5.73147 5.73631 5.72368C5.28462 5.27005 4.35234 4.33791 2.93945 2.92727C3.51878 2.3484 4.15848 1.8496 4.85855 1.43087C6.23668 0.606601 7.73144 0.13926 9.34282 0.0288479C9.69046 0.00502763 10.0637 0.0164883 10.423 0.0160389C10.4524 0.0160389 10.4996 0.0191849 10.5646 0.0254771C10.6278 0.0317692 10.6977 0.0277243 10.7547 0.0326681C12.8472 0.209447 14.7058 0.955365 16.3307 2.27042C16.5779 2.47057 16.8155 2.68375 17.0435 2.90997C17.0577 2.9242 17.0577 2.93844 17.0435 2.95267L14.2453 5.75222C14.2402 5.75731 14.2351 5.75739 14.23 5.75244C13.0523 4.57604 11.4572 3.95851 9.79653 4.00817C8.26305 4.05402 6.84732 4.6902 5.75743 5.76368Z" fill="#EA4335"/>
<path d="M2.93931 2.92773C4.3522 4.33837 5.28448 5.27051 5.73617 5.72414C5.74396 5.73193 5.751 5.74526 5.75729 5.76414C5.18561 6.34227 4.75482 6.98609 4.46493 7.6956C4.00036 8.83238 3.88516 9.98998 4.11931 11.1684C4.35182 12.339 4.89782 13.3619 5.75729 14.2369C5.75609 14.2549 5.74621 14.2663 5.72763 14.2711C5.72029 14.2729 5.71392 14.2765 5.70853 14.2819L2.92381 17.0576C1.23437 15.361 0.190775 13.0868 0.0292022 10.7077C0.0041835 10.3408 0.00111234 9.92781 0.0199887 9.46863C0.0264307 9.31133 0.0370674 9.16189 0.0518989 9.02032C0.26718 6.96594 1.03654 5.14474 2.35999 3.55672C2.44658 3.4529 2.53729 3.35275 2.63212 3.25627C2.64718 3.24099 2.65347 3.2174 2.66875 3.20144C2.7507 3.11635 2.84089 3.02511 2.93931 2.92773Z" fill="#FBBC05"/>
<path d="M17.0706 17.0566L14.2692 14.2566C14.264 14.2516 14.2579 14.2479 14.251 14.2456L14.2373 14.2414C14.8706 13.605 15.3408 12.8635 15.6481 12.0171C15.6489 12.0149 15.6492 12.0126 15.6489 12.0103C15.6486 12.008 15.6477 12.0058 15.6464 12.0039C15.6451 12.002 15.6433 12.0005 15.6413 11.9994C15.6392 11.9983 15.6369 11.9978 15.6346 11.9978L10.016 11.9982C10.0092 11.9982 10.0059 11.9948 10.0059 11.9881V8.01732C10.0059 8.00968 10.0096 8.00586 10.0171 8.00586H19.7809C19.7904 8.00586 19.796 8.0105 19.7978 8.01979C19.9119 8.5962 19.9798 9.17912 19.9809 9.76451C19.9816 10.0971 19.989 10.4436 19.9641 10.7645C19.8658 12.0265 19.5396 13.2283 18.9856 14.3697C18.5786 15.2077 18.0602 15.979 17.4304 16.6836C17.3032 16.8259 17.1832 16.9503 17.0706 17.0566Z" fill="#4285F4"/>
<path d="M5.75731 14.2363C8.1236 16.5804 11.876 16.5743 14.2366 14.2401L14.2503 14.2444C14.2572 14.2467 14.2633 14.2503 14.2685 14.2554L17.0699 17.0554C16.9939 17.1357 16.9125 17.2163 16.8256 17.297C15.136 18.8696 12.9715 19.8161 10.6676 19.9694C10.5447 19.9776 10.3951 19.9819 10.2189 19.9822C9.97416 19.9826 9.71304 19.9876 9.48428 19.977C7.01237 19.8613 4.67304 18.7984 2.92383 17.057L5.70855 14.2813C5.71394 14.2759 5.72031 14.2723 5.72765 14.2705C5.74622 14.2657 5.75611 14.2543 5.75731 14.2363Z" fill="#34A853"/>
</g>
<defs>
<clipPath id="clip0_1593_30591">
<rect width="20" height="20" fill="white"/>
</clipPath>
</defs>
</svg>
