<svg width="25" height="55" viewBox="0 0 25 55" fill="none" xmlns="http://www.w3.org/2000/svg">
<g clip-path="url(#clip0_1585_30522)">
<path d="M6.59027 38.2752C2.6605 36.1833 0.0312834 32.1088 0.010216 27.6382C-0.0141286 22.478 -0.0230235 17.3175 -0.0164692 12.1564C-0.0108512 7.66499 2.8501 3.48388 6.83465 1.44043C9.98634 -0.176323 13.6689 -0.356424 16.9751 0.858563C21.9077 2.67204 25.1998 7.38652 25.1872 12.572C25.1759 17.698 25.1661 22.8239 25.1577 27.9499C25.1567 28.7968 25.0126 29.7047 24.7251 30.6736C22.4597 38.314 13.7785 42.1003 6.59027 38.2752ZM6.55937 3.5864C3.63662 5.50239 1.74336 8.81763 1.73915 12.4058C1.73072 17.4255 1.734 22.4453 1.74898 27.465C1.76583 32.7212 5.77145 37.1613 10.9934 37.9413C17.5074 38.9139 23.3922 33.8586 23.4035 27.3611C23.411 22.7948 23.4128 18.2286 23.4091 13.6623C23.4077 11.5524 23.3122 9.9772 22.5439 8.27594C19.7939 2.19131 12.2363 -0.137532 6.55937 3.5864Z" fill="white"/>
<path d="M12.6314 7.62269L12.4769 7.62322C11.5647 7.62636 10.8278 8.35833 10.831 9.25812L10.8459 13.4863C10.8491 14.3861 11.5912 15.113 12.5034 15.1098L12.6579 15.1093C13.5701 15.1062 14.307 14.3742 14.3038 13.4744L14.2888 9.24621C14.2856 8.34642 13.5436 7.61955 12.6314 7.62269Z" fill="white"/>
<path d="M12.6701 52.8606C15.1158 50.9423 17.5601 48.9935 20.003 47.0143C20.2792 46.7907 20.5044 46.6601 20.6785 46.6222C21.2937 46.4878 21.8499 47.1902 21.6406 47.761C21.5751 47.942 21.4084 48.1383 21.1406 48.3498C18.5123 50.4269 15.8929 52.5138 13.2825 54.6104C12.8442 54.9636 12.4692 55.0925 12.0086 54.7281C9.2567 52.5466 6.51138 50.3577 3.77262 48.1614C3.28245 47.7679 3.40183 46.9963 3.93554 46.7109C4.38919 46.4684 4.72065 46.6942 5.10548 47.0004C7.55679 48.9455 10.0011 50.8984 12.4383 52.8592C12.4708 52.8855 12.5115 52.9 12.5537 52.9002C12.5958 52.9005 12.6369 52.8865 12.6701 52.8606Z" fill="white"/>
</g>
<defs>
<clipPath id="clip0_1585_30522">
<rect width="25" height="55" fill="white"/>
</clipPath>
</defs>
</svg>
